*
*
G04 PADS VX.2.4 Build Number: 11282995 generated Gerber (RS-274-X) file*
G04 PC Version=2.1*
*
%IN "ESP32-PicoD4_EVK.pcb"*%
*
%MOIN*%
*
%FSLAX35Y35*%
*
*
*
*
G04 PC Standard Apertures*
*
*
G04 Thermal Relief Aperture macro.*
%AMTER*
1,1,$1,0,0*
1,0,$1-$2,0,0*
21,0,$3,$4,0,0,45*
21,0,$3,$4,0,0,135*
%
*
*
G04 Annular Aperture macro.*
%AMANN*
1,1,$1,0,0*
1,0,$2,0,0*
%
*
*
G04 Odd Aperture macro.*
%AMODD*
1,1,$1,0,0*
1,0,$1-0.005,0,0*
%
*
*
G04 PC Custom Aperture Macros*
*
*
*
*
*
*
G04 PC Aperture Table*
*
%ADD010C,0.001*%
%ADD011C,0.01*%
%ADD012C,0.01575*%
%ADD013C,0.05*%
%ADD014C,0.00492*%
%ADD015C,0.032*%
%ADD016C,0.015*%
%ADD017C,0.0187*%
%ADD018O,0.05118X0.01968*%
%ADD019R,0.1063X0.11024*%
%ADD020O,0.00984X0.02756*%
%ADD021O,0.02756X0.00984*%
%ADD022C,0.01181*%
%ADD023C,0.006*%
%ADD024R,0.11024X0.1063*%
%ADD025C,0.00591*%
%ADD026C,0.02559*%
%ADD027O,0.06299X0.03937*%
%ADD028O,0.08268X0.03937*%
%ADD029C,0.008*%
%ADD030C,0.11811*%
%ADD031C,0.02*%
*
*
*
*
G04 PC Circuitry*
G04 Layer Name ESP32-PicoD4_EVK.pcb - circuitry*
%LPD*%
*
*
G04 PC Custom Flashes*
G04 Layer Name ESP32-PicoD4_EVK.pcb - flashes*
%LPD*%
*
*
G04 PC Circuitry*
G04 Layer Name ESP32-PicoD4_EVK.pcb - circuitry*
%LPD*%
*
G54D10*
G54D11*
G01X285047Y125768D02*
X284047D01*
Y126768*
X285047*
Y125768*
X284047Y126000D02*
X285047D01*
X285000Y125768D02*
Y126768D01*
X289047Y125768D02*
X288047D01*
Y126768*
X289047*
Y125768*
X288047Y126000D02*
X289047D01*
X289000Y125768D02*
Y126768D01*
X264214Y164266D02*
X263214D01*
Y165266*
X264214*
Y164266*
X263214Y165000D02*
X264214D01*
X264000Y164266D02*
Y165266D01*
X268214Y164266D02*
X267214D01*
Y165266*
X268214*
Y164266*
X267214Y165000D02*
X268214D01*
X268000Y164266D02*
Y165266D01*
X167382Y153667D02*
X168382D01*
Y152667*
X167382*
Y153667*
Y153000D02*
X168382D01*
X168000Y152667D02*
Y153667D01*
X163382D02*
X164382D01*
Y152667*
X163382*
Y153667*
Y153000D02*
X164382D01*
X164000Y152667D02*
Y153667D01*
X237655Y167876D02*
Y168876D01*
X238655*
Y167876*
X237655*
Y168000D02*
X238655D01*
X238000Y167876D02*
Y168876D01*
X237655Y163876D02*
Y164876D01*
X238655*
Y163876*
X237655*
Y164000D02*
X238655D01*
X238000Y163876D02*
Y164876D01*
X297472Y125768D02*
X296472D01*
Y126768*
X297472*
Y125768*
X296472Y126000D02*
X297472D01*
X297000Y125768D02*
Y126768D01*
X301472Y125768D02*
X300472D01*
Y126768*
X301472*
Y125768*
X300472Y126000D02*
X301472D01*
X301000Y125768D02*
Y126768D01*
X157480Y138258D02*
X158480D01*
Y137258*
X157480*
Y138258*
Y138000D02*
X158480D01*
X158000Y137258D02*
Y138258D01*
X153480D02*
X154480D01*
Y137258*
X153480*
Y138258*
Y138000D02*
X154480D01*
X154000Y137258D02*
Y138258D01*
X285047Y137376D02*
X284047D01*
Y138376*
X285047*
Y137376*
X284047Y138000D02*
X285047D01*
X285000Y137376D02*
Y138376D01*
X289047Y137376D02*
X288047D01*
Y138376*
X289047*
Y137376*
X288047Y138000D02*
X289047D01*
X289000Y137376D02*
Y138376D01*
X250169Y117632D02*
X251169D01*
Y116632*
X250169*
Y117632*
Y117000D02*
X251169D01*
X251000Y116632D02*
Y117632D01*
X246169D02*
X247169D01*
Y116632*
X246169*
Y117632*
Y117000D02*
X247169D01*
X247000Y116632D02*
Y117632D01*
X272340Y207784D02*
X271340D01*
Y208784*
X272340*
Y207784*
X271340Y208000D02*
X272340D01*
X272000Y207784D02*
Y208784D01*
X276340Y207784D02*
X275340D01*
Y208784*
X276340*
Y207784*
X275340Y208000D02*
X276340D01*
X276000Y207784D02*
Y208784D01*
X297472Y137376D02*
X296472D01*
Y138376*
X297472*
Y137376*
X296472Y138000D02*
X297472D01*
X297000Y137376D02*
Y138376D01*
X301472Y137376D02*
X300472D01*
Y138376*
X301472*
Y137376*
X300472Y138000D02*
X301472D01*
X301000Y137376D02*
Y138376D01*
X222477Y155050D02*
X223477D01*
Y154050*
X222477*
Y155050*
Y155000D02*
X223477D01*
X223000Y154050D02*
Y155050D01*
X218477D02*
X219477D01*
Y154050*
X218477*
Y155050*
Y155000D02*
X219477D01*
X219000Y154050D02*
Y155050D01*
X195865Y209546D02*
Y210546D01*
X196865*
Y209546*
X195865*
Y210000D02*
X196865D01*
X196000Y209546D02*
Y210546D01*
X195865Y205546D02*
Y206546D01*
X196865*
Y205546*
X195865*
Y206000D02*
X196865D01*
X196000Y205546D02*
Y206546D01*
X187018Y209546D02*
Y210546D01*
X188018*
Y209546*
X187018*
Y210000D02*
X188018D01*
X188000Y209546D02*
Y210546D01*
X187018Y205546D02*
Y206546D01*
X188018*
Y205546*
X187018*
Y206000D02*
X188018D01*
X188000Y205546D02*
Y206546D01*
X207316Y176848D02*
Y177848D01*
X208316*
Y176848*
X207316*
Y177000D02*
X208316D01*
X208000Y176848D02*
Y177848D01*
X207316Y172848D02*
Y173848D01*
X208316*
Y172848*
X207316*
Y173000D02*
X208316D01*
X208000Y172848D02*
Y173848D01*
X191903Y130409D02*
Y129409D01*
X190903*
Y130409*
X191903*
X190903Y130000D02*
X191903D01*
X191000Y129409D02*
Y130409D01*
X191903Y134409D02*
Y133409D01*
X190903*
Y134409*
X191903*
X190903Y134000D02*
X191903D01*
X191000Y133409D02*
Y134409D01*
X208346Y162866D02*
Y161866D01*
X207346*
Y162866*
X208346*
X207346Y162000D02*
X208346D01*
X208000Y161866D02*
Y162866D01*
X208346Y166866D02*
Y165866D01*
X207346*
Y166866*
X208346*
X207346Y166000D02*
X208346D01*
X208000Y165866D02*
Y166866D01*
X243222Y197695D02*
Y196695D01*
X242222*
Y197695*
X243222*
X242222Y197000D02*
X243222D01*
X243000Y196695D02*
Y197695D01*
X243222Y201695D02*
Y200695D01*
X242222*
Y201695*
X243222*
X242222Y201000D02*
X243222D01*
X243000Y200695D02*
Y201695D01*
X267688Y182203D02*
X268688D01*
Y181203*
X267688*
Y182203*
Y182000D02*
X268688D01*
X268000Y181203D02*
Y182203D01*
X263688D02*
X264688D01*
Y181203*
X263688*
Y182203*
Y182000D02*
X264688D01*
X264000Y181203D02*
Y182203D01*
X265433Y197286D02*
Y196286D01*
X264433*
Y197286*
X265433*
X264433Y197000D02*
X265433D01*
X265000Y196286D02*
Y197286D01*
X265433Y201286D02*
Y200286D01*
X264433*
Y201286*
X265433*
X264433Y201000D02*
X265433D01*
X265000Y200286D02*
Y201286D01*
X271909Y197284D02*
Y196284D01*
X270909*
Y197284*
X271909*
X270909Y197000D02*
X271909D01*
X271000Y196284D02*
Y197284D01*
X271909Y201284D02*
Y200284D01*
X270909*
Y201284*
X271909*
X270909Y201000D02*
X271909D01*
X271000Y200284D02*
Y201284D01*
X154487Y145141D02*
X153487D01*
Y146141*
X154487*
Y145141*
X153487Y146000D02*
X154487D01*
X154000Y145141D02*
Y146141D01*
X158487Y145141D02*
X157487D01*
Y146141*
X158487*
Y145141*
X157487Y146000D02*
X158487D01*
X158000Y145141D02*
Y146141D01*
X164382Y168415D02*
X163382D01*
Y169415*
X164382*
Y168415*
X163382Y169000D02*
X164382D01*
X164000Y168415D02*
Y169415D01*
X168382Y168415D02*
X167382D01*
Y169415*
X168382*
Y168415*
X167382Y169000D02*
X168382D01*
X168000Y168415D02*
Y169415D01*
X167382Y161541D02*
X168382D01*
Y160541*
X167382*
Y161541*
Y161000D02*
X168382D01*
X168000Y160541D02*
Y161541D01*
X163382D02*
X164382D01*
Y160541*
X163382*
Y161541*
Y161000D02*
X164382D01*
X164000Y160541D02*
Y161541D01*
X190015Y180466D02*
X191015D01*
Y179466*
X190015*
Y180466*
Y180000D02*
X191015D01*
X191000Y179466D02*
Y180466D01*
X186015D02*
X187015D01*
Y179466*
X186015*
Y180466*
Y180000D02*
X187015D01*
X187000Y179466D02*
Y180466D01*
X288069Y145061D02*
X288886Y145392D01*
X288400Y145878*
X288069Y145061*
X258243Y146457D02*
X254997Y147831D01*
Y145083*
X258243Y146457*
X254997Y146000D02*
X257163D01*
X254997Y147000D02*
X256961D01*
X255000Y145085D02*
Y147830D01*
X256000Y145508D02*
Y147407D01*
X257000Y145931D02*
Y146983D01*
X258000Y146354D02*
Y146560D01*
X263267Y145892D02*
X264079Y145548D01*
Y146236*
X263267Y145892*
X263522Y146000D02*
X264079D01*
X264000Y145582D02*
Y146202D01*
X248843Y146457D02*
X252090Y145083D01*
Y147831*
X248843Y146457*
X249924Y146000D02*
X252090D01*
X250126Y147000D02*
X252090D01*
X249000Y146391D02*
Y146524D01*
X250000Y145968D02*
Y146947D01*
X251000Y145545D02*
Y147370D01*
X252000Y145121D02*
Y147793D01*
X114837Y163622D02*
X111527Y164402D01*
Y162842*
X114837Y163622*
X111527Y163000D02*
X112198D01*
X111527Y164000D02*
X113234D01*
X112000Y162953D02*
Y164291D01*
X113000Y163189D02*
Y164055D01*
X114000Y163425D02*
Y163819D01*
X163894Y173441D02*
X164237Y174253D01*
X163550*
X163894Y173441*
X163657Y174000D02*
X164130D01*
X164000Y173692D02*
Y174253D01*
X122536Y178603D02*
X122193Y177791D01*
X122880*
X122536Y178603*
X122281Y178000D02*
X122791D01*
X122536Y176253D02*
X122880Y177065D01*
X122193*
X122536Y176253*
X122220Y177000D02*
X122852D01*
X157332Y182402D02*
X158179Y182647D01*
X157746Y183180*
X157332Y182402*
X157650Y183000D02*
X157893D01*
X158000Y182595D02*
Y182868D01*
X283835Y200803D02*
X285361Y200340D01*
Y201266*
X283835Y200803*
X284483Y201000D02*
X285361D01*
X284000Y200753D02*
Y200853D01*
X285000Y200450D02*
Y201157D01*
X288900Y197603D02*
X288556Y196791D01*
X289244*
X288900Y197603*
X288645Y197000D02*
X289155D01*
X289000Y196791D02*
Y197367D01*
X284547Y126268D02*
Y137876D01*
Y141539*
X288900Y145892*
X157987Y145641D02*
Y150056D01*
X161099Y153167*
X163882*
X253543Y146457D02*
X259251D01*
X259817Y145892*
X264442*
X163882Y168915D02*
Y161041D01*
Y153167*
X218972Y159069D02*
Y156623D01*
X218977Y156618*
Y154550*
X219663*
X222047Y152165*
X227953*
X233661Y146457*
X253543*
X109055Y163622D02*
X129085D01*
X130474Y165011D02*
Y167970D01*
X129085Y163622D02*
G75*
G03X130474Y165011I0J1389D01*
G01X128523Y169816D02*
X129105Y170399D01*
X131842*
X132442Y169799*
Y167970*
X134411*
X128505D02*
Y169799D01*
X128523Y169816*
X167882Y168915D02*
Y173773D01*
X171458Y177348*
X207816*
X167882Y168915D02*
Y165395D01*
X185787Y147490*
X209014*
X222590Y133914*
X224165*
X163882Y168915D02*
Y171760D01*
X163894Y171771*
Y174616*
X122536Y177428D02*
Y178967D01*
X123793Y180224*
X126094*
X122536Y177428D02*
Y175535D01*
X123752Y174318*
X126094*
X127923*
X128523Y173718*
Y169816*
X126094Y180224D02*
X127923D01*
X129319Y181620*
X152570Y182192D02*
X157074D01*
X158245Y183143*
X207816Y177348D02*
X210007D01*
X212761Y174594*
Y171760*
X214232Y170289*
X215626*
X278465Y178543D02*
X278474Y178533D01*
X285575*
X290925Y183883*
X278465Y178543D02*
X283222D01*
X126094Y192035D02*
X127923D01*
X129319Y190639*
Y181620*
X271409Y200784D02*
X278425D01*
X278444Y200803*
X286210*
X264933Y200786D02*
X268170D01*
X268172Y200784*
X271409*
X286210Y200803D02*
X286779D01*
X288900Y198682*
Y196428*
X293291Y232756D02*
G03X293291I-4000J0D01*
G01X283291D02*
G03X283291I-4000J0D01*
G01X123291D02*
G03X123291I-4000J0D01*
G01X233291Y106969D02*
G03X233291I-4000J0D01*
G01X257543Y156457D02*
G03X257543I-4000J0D01*
G01Y186457D02*
G03X257543I-4000J0D01*
G01X307004Y232764D02*
G03X301504Y238264I-5500J0D01*
G01X107000*
G03X101500Y232764I0J-5500*
G01Y196079*
G03X102000Y195579I500J-0*
G01X115826*
X116326Y195079D02*
G03X115826Y195579I-500J-0D01*
G01X116326Y195079D02*
Y166122D01*
G03X116826Y165622I500J0*
G01X126148*
G03X126648Y166122I-0J500*
X126618Y166292I-500J0*
G01X126513Y166887D02*
G03X126618Y166292I1746J0D01*
G01X126513Y166887D02*
Y167772D01*
G03X126512Y167811I-500J-0*
G01X126506Y167905D02*
G03X126512Y167811I1999J65D01*
G01X126506Y167905D02*
G03X126007Y168389I-499J-16D01*
G01X125011*
X123265Y170135D02*
G03X125011Y168389I1746J0D01*
G01X123265Y170135D02*
Y170627D01*
X123362Y171201D02*
G03X123265Y170627I1649J-574D01*
G01X123362Y171201D02*
G03X123390Y171366I-472J165D01*
G01X123390*
G03X123362Y171530I-500J-0*
G01X123266Y172039D02*
G03X123362Y171530I1745J65D01*
G01X123266Y172039D02*
G03X122964Y172480I-499J-18D01*
G01X122338Y172904D02*
G03X122964Y172480I1414J1414D01*
G01X122338Y172904D02*
X121122Y174120D01*
X120536Y175535D02*
G03X121122Y174120I2000J-0D01*
G01X120536Y175535D02*
Y175746D01*
G03X120497Y175941I-500J-0*
G01X120497D02*
X120468Y176009D01*
G03X120429Y176083I-461J-195*
G01X120036Y177428D02*
G03X120429Y176083I2500J-0D01*
G01X120036Y177428D02*
X120036D01*
X120429Y178773D02*
G03X120036Y177428I2107J-1345D01*
G01X120429Y178773D02*
G03X120468Y178847I-422J269D01*
G01X120501Y178927*
G03X120540Y179090I-460J194*
G01X120757Y179880D02*
G03X120540Y179090I1779J-913D01*
G01X120757Y179880D02*
G03X120694Y180431I-445J229D01*
G01X120106Y182042D02*
G03X120694Y180431I2500J0D01*
G01X120106Y182042D02*
X120106D01*
X120326Y183068D02*
G03X120106Y182042I2280J-1026D01*
G01X120326Y183068D02*
G03X120370Y183273I-456J205D01*
X120262Y183583I-500J-0*
G01X119722Y185135D02*
G03X120262Y183583I2500J0D01*
G01X119722Y185135D02*
X119722D01*
X120350Y186793D02*
G03X119722Y185135I1872J-1658D01*
G01X120350Y186793D02*
G03X120476Y187124I-374J331D01*
X120330Y187478I-500J0*
G01X119128Y188680*
X118571Y190023D02*
G03X119128Y188680I1900J0D01*
G01X118571Y190023D02*
Y201718D01*
G03X118425Y202072I-500J0*
G01X118311Y202185*
X117755Y203529D02*
G03X118311Y202185I1900J-0D01*
G01X117755Y203529D02*
Y203924D01*
G03X117715Y204119I-500J0*
G01X117612Y204362*
G03X117569Y204443I-460J-195*
G01X119502Y208316D02*
G03X117569Y204443I153J-2495D01*
G01X119502Y208316D02*
G03X119971Y208815I-31J499D01*
G01Y225336*
X120528Y226680D02*
G03X119971Y225336I1343J-1344D01*
G01X120528Y226680D02*
X124069Y230220D01*
G03X124178Y230386I-354J354*
G01X125289Y233120*
G03X125322Y233247I-464J188*
G01X129782Y228786D02*
G03X125322Y233247I-491J3970D01*
G01X129782Y228786D02*
G03X129656Y228753I62J-496D01*
G01X126921Y227643*
G03X126756Y227533I188J-463*
G01X123918Y224695*
G03X123771Y224342I353J-353*
G01Y221130*
G03X124625Y220776I500J-0*
G01X134069Y230220*
G03X134178Y230386I-354J354*
G01X135289Y233120*
G03X135322Y233247I-464J188*
G01X139782Y228786D02*
G03X135322Y233247I-491J3970D01*
G01X139782Y228786D02*
G03X139656Y228753I62J-496D01*
G01X136921Y227643*
G03X136756Y227533I188J-463*
G01X125408Y216186*
G03X125262Y215832I354J-354*
G01Y194527*
G03X125762Y194027I500J0*
G01X125896*
G03X125935Y194029I-0J500*
G01X126029Y194034D02*
G03X125935Y194029I65J-1999D01*
G01X126029Y194034D02*
G03X126513Y194534I-16J500D01*
G01Y195529*
X126585Y196024D02*
G03X126513Y195529I1674J-495D01*
G01X126585Y196024D02*
G03X126605Y196166I-480J142D01*
G01Y211970*
X127162Y213313D02*
G03X126605Y211970I1343J-1343D01*
G01X127162Y213313D02*
X144069Y230220D01*
G03X144178Y230386I-354J354*
G01X145289Y233120*
G03X145322Y233247I-464J188*
G01X152702Y230665D02*
G03X145322Y233247I-3411J2091D01*
G01X152702Y230665D02*
G03X153128Y229904I426J-261D01*
G01X153545*
G03X153899Y230050I0J500*
G01X154069Y230220*
G03X154178Y230386I-354J354*
G01X155289Y233120*
G03X155322Y233247I-464J188*
G01X162737Y230724D02*
G03X155322Y233247I-3446J2032D01*
G01X162737Y230724D02*
G03X163168Y229970I431J-254D01*
G01X163612*
G03X163965Y230117I-0J500*
G01X164069Y230220*
G03X164178Y230386I-354J354*
G01X165289Y233120*
G03X165322Y233247I-464J188*
G01X171580Y229475D02*
G03X165322Y233247I-2289J3281D01*
G01X171580Y229475D02*
G03X171866Y228565I286J-410D01*
G01X172206*
G03X172560Y228711I0J500*
G01X174069Y230220*
G03X174178Y230386I-354J354*
G01X175289Y233120*
G03X175322Y233247I-464J188*
G01X182699Y230661D02*
G03X175322Y233247I-3408J2095D01*
G01X182699Y230661D02*
G03X183125Y229899I426J-262D01*
G01X183541*
G03X183894Y230046I-0J500*
G01X184069Y230220*
G03X184178Y230386I-354J354*
G01X185289Y233120*
G03X185322Y233247I-464J188*
G01X191458Y229394D02*
G03X185322Y233247I-2167J3362D01*
G01X191458Y229394D02*
G03X191729Y228473I271J-421D01*
G01X192115*
G03X192468Y228620I-0J500*
G01X195256Y231408*
G03X195403Y231761I-353J353*
X195390Y231872I-500J0*
G01X202794Y230824D02*
G03X195390Y231872I-3503J1932D01*
G01X202794Y230824D02*
G03X203232Y230082I438J-242D01*
G01X203718*
G03X204182Y230394I0J500*
G01X205289Y233120*
G03X205322Y233247I-464J188*
G01X211567Y229466D02*
G03X205322Y233247I-2276J3290D01*
G01X211567Y229466D02*
G03X211352Y229055I285J-411D01*
X211852Y228555I500J0*
G01X212196*
G03X212550Y228702I0J500*
G01X214069Y230220*
G03X214178Y230386I-354J354*
G01X215289Y233120*
G03X215322Y233247I-464J188*
G01X223291Y232756D02*
G03X215322Y233247I-4000J-0D01*
G01X222844Y230918D02*
G03X223291Y232756I-3553J1838D01*
G01X222844Y230918D02*
G03X223288Y230188I444J-230D01*
G01X223762*
G03X224225Y230500I-0J500*
G01X225289Y233120*
G03X225322Y233247I-464J188*
G01X231841Y229674D02*
G03X225322Y233247I-2550J3082D01*
G01X231841Y229674D02*
G03X232160Y228788I319J-386D01*
G01X232430*
G03X232783Y228935I-0J500*
G01X234069Y230220*
G03X234178Y230386I-354J354*
G01X235289Y233120*
G03X235322Y233247I-464J188*
G01X239782Y228786D02*
G03X235322Y233247I-491J3970D01*
G01X239782Y228786D02*
G03X239656Y228753I62J-496D01*
G01X238593Y228322*
G03X238782Y227359I189J-463*
G01X241000*
G03X241353Y227505I-0J500*
G01X245256Y231408*
G03X245403Y231761I-353J353*
X245390Y231872I-500J0*
G01X253291Y232756D02*
G03X245390Y231872I-4000J-0D01*
G01X252862Y230953D02*
G03X253291Y232756I-3571J1803D01*
G01X252862Y230953D02*
G03X253309Y230228I447J-225D01*
G01X253778*
G03X254241Y230540I-0J500*
G01X255289Y233120*
G03X255322Y233247I-464J188*
G01X261531Y229442D02*
G03X255322Y233247I-2240J3314D01*
G01X261531Y229442D02*
G03X261811Y228528I280J-414D01*
G01X262169*
G03X262522Y228674I-0J500*
G01X264069Y230220*
G03X264178Y230386I-354J354*
G01X265289Y233120*
G03X265322Y233247I-464J188*
G01X269782Y228786D02*
G03X265322Y233247I-491J3970D01*
G01X269782Y228786D02*
G03X269656Y228753I62J-496D01*
G01X266921Y227643*
G03X266756Y227533I188J-463*
G01X264506Y225284*
X263163Y224728D02*
G03X264506Y225284I-0J1900D01*
G01X263163Y224728D02*
X248967D01*
G03X248613Y224581I-0J-500*
G01X245248Y221216*
X243905Y220659D02*
G03X245248Y221216I-0J1900D01*
G01X243905Y220659D02*
X223668D01*
G03X223314Y220513I-0J-500*
G01X220937Y218135*
X219593Y217579D02*
G03X220937Y218136I0J1900D01*
G01X219593Y217579D02*
X202656D01*
G03X202302Y217433I0J-500*
G01X200276Y215406*
X199466Y214926D02*
G03X200276Y215406I-533J1824D01*
G01X199466Y214926D02*
G03X199607Y213946I141J-480D01*
G01X203345*
X204688Y213390D02*
G03X203345Y213946I-1343J-1344D01*
G01X204688Y213390D02*
X210960Y207118D01*
G03X211313Y206972I353J354*
G01X212680*
G03X213179Y207443I-0J500*
G01X213257Y207876D02*
G03X213179Y207443I1719J-536D01*
G01X213257Y207876D02*
G03X213280Y208025I-477J149D01*
G01X213280*
G03X213257Y208173I-500J-0*
G01X213176Y208709D02*
G03X213257Y208174I1800J0D01*
G01X213176Y208709D02*
Y209309D01*
X214976Y211109D02*
G03X213176Y209309I-0J-1800D01*
G01X214976Y211109D02*
X217220D01*
G03X217720Y211609I0J500*
G01Y213853*
X219520Y215654D02*
G03X217720Y213853I0J-1801D01*
G01X219520Y215654D02*
X220120D01*
X220656Y215572D02*
G03X220120Y215654I-536J-1719D01*
G01X220656Y215572D02*
G03X220953I149J477D01*
G01X221489Y215654D02*
G03X220953Y215572I-0J-1801D01*
G01X221489Y215654D02*
X222089D01*
X222624Y215572D02*
G03X222089Y215654I-535J-1719D01*
G01X222624Y215572D02*
G03X222922I149J477D01*
G01X223457Y215654D02*
G03X222922Y215572I0J-1801D01*
G01X223457Y215654D02*
X224057D01*
X224593Y215572D02*
G03X224057Y215654I-536J-1719D01*
G01X224593Y215572D02*
G03X224890I149J477D01*
G01X225426Y215654D02*
G03X224890Y215572I-0J-1801D01*
G01X225426Y215654D02*
X226026D01*
X226561Y215572D02*
G03X226026Y215654I-535J-1719D01*
G01X226561Y215572D02*
G03X226859I149J477D01*
G01X227394Y215654D02*
G03X226859Y215572I0J-1801D01*
G01X227394Y215654D02*
X227994D01*
X228530Y215572D02*
G03X227994Y215654I-536J-1719D01*
G01X228530Y215572D02*
G03X228827I149J477D01*
G01X229363Y215654D02*
G03X228827Y215572I-0J-1801D01*
G01X229363Y215654D02*
X229963D01*
X230498Y215572D02*
G03X229963Y215654I-535J-1719D01*
G01X230498Y215572D02*
G03X230796I149J477D01*
G01X231331Y215654D02*
G03X230796Y215572I0J-1801D01*
G01X231331Y215654D02*
X231931D01*
X233731Y213853D02*
G03X231931Y215654I-1800J0D01*
G01X233731Y213853D02*
Y211609D01*
G03X234231Y211109I500J0*
G01X236476*
X238276Y209309D02*
G03X236476Y211109I-1800J0D01*
G01X238276Y209309D02*
Y208709D01*
X238194Y208173D02*
G03X238276Y208709I-1718J536D01*
G01X238194Y208173D02*
G03X238172Y208025I478J-148D01*
G01X238172*
G03X238194Y207876I500J-0*
G01X238276Y207340D02*
G03X238194Y207876I-1800J0D01*
G01X238276Y207341D02*
Y206740D01*
X238194Y206205D02*
G03X238276Y206740I-1718J535D01*
G01X238194Y206205D02*
G03X238172Y206056I478J-149D01*
G01X238172*
G03X238194Y205907I500J0*
G01X238276Y205372D02*
G03X238194Y205907I-1800J-0D01*
G01X238276Y205372D02*
Y204772D01*
X238194Y204236D02*
G03X238276Y204772I-1718J536D01*
G01X238194Y204236D02*
G03X238172Y204088I478J-148D01*
G01X238172*
G03X238194Y203939I500J-0*
G01X238276Y203403D02*
G03X238194Y203939I-1800J0D01*
G01X238276Y203403D02*
Y202803D01*
X238194Y202268D02*
G03X238276Y202803I-1718J535D01*
G01X238194Y202268D02*
G03X238172Y202119I478J-149D01*
G01X238172*
G03X238194Y201970I500J0*
G01X238273Y201538D02*
G03X238194Y201970I-1797J-103D01*
G01X238273Y201538D02*
G03X238772Y201067I499J29D01*
G01X239700*
G03X240054Y201213I0J500*
G01X240076Y201235*
G03X240222Y201589I-354J354*
G01Y201695*
X242222Y203695D02*
G03X240222Y201695I0J-2000D01*
G01X242222Y203695D02*
X243222D01*
X244921Y202750D02*
G03X243222Y203695I-1699J-1055D01*
G01X244921Y202750D02*
G03X245435Y202521I425J263D01*
G01X245835Y202557D02*
G03X245435Y202521I-0J-2250D01*
G01X245835Y202557D02*
X250595D01*
G03X250923Y203435I0J500*
G01X256164D02*
G03X250923I-2621J3022D01*
G01X256164D02*
G03X256491Y202557I327J-378D01*
G01X259698*
G03X260052Y202704I0J500*
G01X263478Y206130*
X265069Y206789D02*
G03X263478Y206130I0J-2250D01*
G01X265069Y206789D02*
X268889D01*
G03X269379Y207388I-0J500*
G01X269339Y207784D02*
G03X269379Y207388I2001J0D01*
G01X269339Y207784D02*
Y208784D01*
X271340Y210784D02*
G03X269339Y208784I-0J-2000D01*
G01X271340Y210784D02*
X272340D01*
X273540Y210384D02*
G03X272340Y210784I-1200J-1600D01*
G01X273540Y210384D02*
G03X274140I300J400D01*
G01X275340Y210784D02*
G03X274140Y210384I-0J-2000D01*
G01X275340Y210784D02*
X276340D01*
X277639Y210304D02*
G03X276340Y210784I-1299J-1520D01*
G01X277639Y210304D02*
G03X277964Y210184I325J380D01*
G01X280649*
X280685D02*
G03X280649I-36J-1900D01*
G01X280685D02*
G03X280695I10J500D01*
G01X283197*
G03X283554Y210334I-0J500*
G01X285050Y210965D02*
G03X283554Y210334I0J-2091D01*
G01X285050Y210965D02*
X287369D01*
X289460Y208874D02*
G03X287369Y210965I-2091J0D01*
G01X289460Y208874D02*
Y207999D01*
G03X290313Y207646I500J0*
G01X292542Y209875*
X294133Y210534D02*
G03X292542Y209875I0J-2250D01*
G01X294133Y210534D02*
X295019D01*
G03X295296Y210617I0J500*
G01X296450Y210965D02*
G03X295296Y210617I0J-2091D01*
G01X296450Y210965D02*
X298769D01*
X300860Y208874D02*
G03X298769Y210965I-2091J0D01*
G01X300860Y208874D02*
Y207693D01*
X300587Y206660D02*
G03X300860Y207693I-1818J1033D01*
G01X300587Y206660D02*
G03Y206166I435J-247D01*
G01X300860Y205134D02*
G03X300587Y206166I-2091J-0D01*
G01X300860Y205134D02*
Y203953D01*
X300587Y202920D02*
G03X300860Y203953I-1818J1033D01*
G01X300587Y202920D02*
G03Y202426I435J-247D01*
G01X300860Y201394D02*
G03X300587Y202426I-2091J-0D01*
G01X300860Y201394D02*
Y200213D01*
X298769Y198122D02*
G03X300860Y200213I0J2091D01*
G01X298769Y198122D02*
X298445D01*
G03X298216Y198067I-0J-500*
G01X297954Y197932*
G03X297830Y197841I229J-445*
G01X293322Y193333*
G03X293175Y192980I353J-353*
G01Y188673*
G03X294110Y188426I500J-0*
G01X297126Y190181D02*
G03X294110Y188426I-0J-3468D01*
G01X297126Y190181D02*
X299488D01*
Y183244D02*
G03Y190181I0J3469D01*
G01Y183244D02*
X297126D01*
X294110Y185000D02*
G03X297126Y183244I3016J1713D01*
G01X294110Y185000D02*
G03X293175Y184753I-435J-247D01*
G01Y169835*
X292516Y168244D02*
G03X293175Y169835I-1591J1591D01*
G01X292516Y168244D02*
X285604Y161331D01*
G03X285458Y160978I354J-353*
X285722Y160537I500J-0*
G01X286290Y156493D02*
G03X285722Y160537I-1762J1814D01*
G01X286290Y156493D02*
G03X286397Y155696I348J-359D01*
G01X284724Y149189D02*
G03X286397Y155696I0J3468D01*
G01X284724Y149189D02*
X280394D01*
X277101Y153748D02*
G03X280394Y149189I3293J-1091D01*
G01X277101Y153748D02*
G03X277127Y153905I-474J157D01*
X276627Y154405I-500J0*
G01X275807*
X274012Y156201D02*
G03X275807Y154405I1795J-0D01*
G01X274012Y156201D02*
Y156791D01*
X274014Y156873D02*
G03X274012Y156791I1793J-82D01*
G01X274014Y156873D02*
G03Y156896I-500J23D01*
X273514Y157396I-500J-0*
G01X271948*
G03X271594Y157249I0J-500*
G01X270303Y155958*
G03X270156Y155604I353J-354*
G01Y140105*
X269497Y138514D02*
G03X270156Y140105I-1591J1591D01*
G01X269497Y138514D02*
X269456Y138472D01*
G03X269309Y138118I353J-354*
X269721Y137626I500J0*
G01X269500Y129720D02*
G03X269721Y137626I-491J3970D01*
G01X269500Y129720D02*
G03X269374Y129687I62J-496D01*
G01X266639Y128577*
G03X266474Y128467I188J-463*
G01X265205Y127199*
G03X265058Y126845I353J-354*
X265794Y126404I500J0*
G01X266374Y126715*
G03X266458Y126771I-235J441*
G01Y120610D02*
G03Y126771I2551J3080D01*
G01Y120610D02*
G03X266374Y120666I-319J-385D01*
G01X264641Y121593*
G03X264052Y121506I-236J-441*
G01X261732Y119186*
X260389Y118630D02*
G03X261732Y119186I-0J1900D01*
G01X260389Y118630D02*
X253619D01*
G03X253129Y118030I-0J-500*
G01X253169Y117632D02*
G03X253129Y118030I-2000J0D01*
G01X253169Y117632D02*
Y116632D01*
X252689Y115332D02*
G03X253169Y116632I-1520J1300D01*
G01X252689Y115332D02*
G03X252569Y115007I380J-325D01*
G01Y113863*
G03X253505Y113619I500J0*
G01X255469Y114770D02*
G03X253505Y113619I-0J-2250D01*
G01X255469Y114770D02*
X260973D01*
G03X261445Y115433I-0J500*
G01X264996Y118447D02*
G03X261445Y115433I-1187J-2200D01*
G01X264996Y118447D02*
G03X265103Y118405I237J440D01*
G01X265997Y118164*
G03X266127Y118147I130J483*
G01X268024*
X269368Y117590D02*
G03X268024Y118147I-1344J-1343D01*
G01X269368Y117590D02*
X271416Y115542D01*
X271773Y115047D02*
G03X271416Y115542I-1700J-849D01*
G01X271773Y115047D02*
G03X272220Y114770I447J223D01*
G01X273752*
X276002Y112520D02*
G03X273752Y114770I-2250J0D01*
G01X276002Y112520D02*
Y109296D01*
X275589Y107997D02*
G03X276002Y109296I-1837J1299D01*
G01X275589Y107997D02*
G03Y107419I408J-289D01*
G01X276002Y106120D02*
G03X275589Y107419I-2250J0D01*
G01X276002Y106120D02*
Y102896D01*
X275879Y102163D02*
G03X276002Y102896I-2127J733D01*
G01X275879Y102163D02*
G03X276352Y101500I473J-163D01*
G01X282691*
G03X283164Y102163I0J500*
G01X283041Y102896D02*
G03X283164Y102163I2250J-0D01*
G01X283041Y102896D02*
Y106120D01*
X283454Y107419D02*
G03X283041Y106120I1837J-1299D01*
G01X283454Y107419D02*
G03Y107997I-408J289D01*
G01X283041Y109296D02*
G03X283454Y107997I2250J-0D01*
G01X283041Y109296D02*
Y112520D01*
X285291Y114770D02*
G03X283041Y112520I0J-2250D01*
G01X285291Y114770D02*
X292650D01*
X294900Y112520D02*
G03X292650Y114770I-2250J0D01*
G01X294900Y112520D02*
Y109296D01*
X294487Y107997D02*
G03X294900Y109296I-1837J1299D01*
G01X294487Y107997D02*
G03Y107419I408J-289D01*
G01X294900Y106120D02*
G03X294487Y107419I-2250J0D01*
G01X294900Y106120D02*
Y102896D01*
X294777Y102163D02*
G03X294900Y102896I-2127J733D01*
G01X294777Y102163D02*
G03X295250Y101500I473J-163D01*
G01X301504*
G03X307004Y107000I-0J5500*
G01Y232764*
X253219Y109296D02*
G03X253632Y107997I2250J-0D01*
G01X253219Y109296D02*
Y112240D01*
G03X252292Y112500I-500J0*
G01X252012Y112145D02*
G03X252292Y112500I-1343J1343D01*
G01X252012Y112145D02*
X249432Y109565D01*
X248088Y109008D02*
G03X249432Y109565I0J1900D01*
G01X248088Y109008D02*
X246564D01*
G03X246085Y108651I0J-500*
G01X245766Y107997D02*
G03X246085Y108651I-1837J1299D01*
G01X245766Y107997D02*
G03Y107419I409J-289D01*
G01X246179Y106120D02*
G03X245766Y107419I-2250J0D01*
G01X246179Y106120D02*
Y102896D01*
X246057Y102163D02*
G03X246179Y102896I-2128J733D01*
G01X246057Y102163D02*
G03X246529Y101500I472J-163D01*
G01X252869*
G03X253341Y102163I-0J500*
G01X253219Y102896D02*
G03X253341Y102163I2250J-0D01*
G01X253219Y102896D02*
Y106120D01*
X253632Y107419D02*
G03X253219Y106120I1837J-1299D01*
G01X253632Y107419D02*
G03Y107997I-409J289D01*
G01X244170Y116564D02*
G03X244493Y115540I1999J68D01*
G01X244170Y116564D02*
G03X243670Y117046I-500J-18D01*
G01X225503*
G03X225004Y116575I0J-500*
G01X224602Y115351D02*
G03X225004Y116575I-2094J1365D01*
G01X224602Y115351D02*
G03Y114805I419J-273D01*
G01X225008Y113439D02*
G03X224602Y114805I-2500J0D01*
G01X222189Y110960D02*
G03X225008Y113439I319J2479D01*
G01X222189Y110960D02*
G03X221626Y110464I-63J-496D01*
X221811Y110075I500J-0*
G01X215841Y104945D02*
G03X221811Y110075I3450J2024D01*
G01X215841Y104945D02*
G03X215056Y105046I-432J-253D01*
G01X212363Y102354*
G03X212217Y102000I354J-354*
X212717Y101500I500J0*
G01X233971*
G03X234444Y102163I0J500*
G01X234321Y102896D02*
G03X234444Y102163I2250J-0D01*
G01X234321Y102896D02*
Y106120D01*
X234734Y107419D02*
G03X234321Y106120I1837J-1299D01*
G01X234734Y107419D02*
G03Y107997I-408J289D01*
G01X234321Y109296D02*
G03X234734Y107997I2250J-0D01*
G01X234321Y109296D02*
Y112520D01*
X236571Y114770D02*
G03X234321Y112520I0J-2250D01*
G01X236571Y114770D02*
X243929D01*
X244048Y114767D02*
G03X243929Y114770I-119J-2247D01*
G01X244048Y114767D02*
G03X244493Y115540I27J499D01*
G01X265656Y142978D02*
G03X265037Y143464I-500J0D01*
G01X263097Y143785D02*
G03X265037Y143464I1345J2107D01*
G01X263097Y143785D02*
G03X263023Y143823I-269J-422D01*
G01X262955Y143852*
G03X262760Y143892I-195J-460*
G01X259817*
X258700Y144233D02*
G03X259817Y143892I1117J1659D01*
G01X258700Y144233D02*
G03X258226Y144278I-279J-415D01*
G01X256159Y143403*
G03X256042Y143333I195J-460*
G01X251045D02*
G03X256042I2498J3124D01*
G01X251045D02*
G03X250927Y143403I-312J-390D01*
G01X248531Y144418*
G03X248336Y144457I-195J-461*
G01X233661*
X233652*
G03X233149Y143957I-3J-500*
X233296Y143604I500J0*
G01X237139Y139761*
X237695Y138418D02*
G03X237139Y139761I-1900J-0D01*
G01X237695Y138418D02*
Y138300D01*
G03X237735Y138106I500J0*
G01X237837Y137863*
G03X237881Y137782I461J195*
G01X236173Y133932D02*
G03X237881Y137782I-378J2472D01*
G01X236173Y133932D02*
G03X235748Y133438I75J-494D01*
X236061Y132975I500J-0*
G01X236207Y132915*
G03X236295Y132889I188J464*
G01X236420Y128018D02*
G03X236295Y132889I-625J2421D01*
G01X236420Y128018D02*
G03X236045Y127534I125J-484D01*
X236420Y127050I500J0*
G01X238282Y124380D02*
G03X236420Y127050I-2487J250D01*
G01X238283Y124380D02*
G03X238280Y124330I497J-50D01*
G01X238280*
G03X238780Y123830I500J-0*
G01X256255*
G03X256608Y123976I-0J500*
G01X263787Y131154*
X263786D02*
G03X263896Y131320I-353J354D01*
G01X264790Y133520*
G03X264314Y134208I-464J188*
G01X264259Y134207D02*
G03X264314Y134208I0J2250D01*
G01X264259Y134207D02*
X258214D01*
G03X258019Y134168I-0J-500*
G01X256096Y133354*
G03X255986Y133289I195J-460*
G01Y139625D02*
G03Y133289I-2443J-3168D01*
G01Y139625D02*
G03X256096Y139561I305J396D01*
G01X258019Y138747*
G03X258214Y138707I195J460*
G01X263120*
G03X263474Y138854I0J500*
G01X265510Y140890*
G03X265656Y141244I-354J354*
G01Y142978*
X233054Y124683D02*
X229562Y128176D01*
X229162Y128763D02*
G03X229562Y128176I1744J756D01*
G01X229162Y128763D02*
G03X228207Y128623I-459J-198D01*
G01X227096Y126833D02*
G03X228207Y128623I-1356J2081D01*
G01X227096Y126833D02*
G03Y125995I273J-419D01*
G01X228200Y124260D02*
G03X227096Y125995I-2460J-346D01*
G01X228200Y124260D02*
G03X228695Y123830I495J70D01*
G01X232701*
G03X233054Y124683I-0J500*
G01X229005Y132793D02*
G03X228042Y132981I-500J0D01*
G01X227096Y131833D02*
G03X228042Y132981I-1356J2081D01*
G01X227096Y131833D02*
G03Y130995I273J-419D01*
G01X228042Y129847D02*
G03X227096Y130995I-2302J-933D01*
G01X228042Y129847D02*
G03X229005Y130035I463J188D01*
G01Y132793*
X270404Y162866D02*
X269839D01*
G03X269514Y162746I-0J-500*
G01X268214Y162266D02*
G03X269514Y162746I-0J2000D01*
G01X268214Y162266D02*
X267214D01*
X266014Y162666D02*
G03X267214Y162266I1200J1600D01*
G01X266014Y162666D02*
G03X265414I-300J-400D01*
G01X264214Y162266D02*
G03X265414Y162666I-0J2000D01*
G01X264214Y162266D02*
X263214D01*
X261214Y164266D02*
G03X263214Y162266I2000J-0D01*
G01X261214Y164266D02*
Y165266D01*
X261902Y166775D02*
G03X261214Y165266I1312J-1509D01*
G01X261902Y166775D02*
G03X262074Y167153I-328J378D01*
X261927Y167506I-500J-0*
G01X260023Y169411*
G03X259669Y169557I-354J-354*
G01X257216*
G03X256808Y168768I0J-500*
G01X250278D02*
G03X256808I3265J-2311D01*
G01X250278D02*
G03X249870Y169557I-408J289D01*
G01X241149*
G03X240649Y169057I-0J-500*
X240650Y169021I500J0*
G01X240655Y168876D02*
G03X240650Y169021I-2000J0D01*
G01X240655Y168876D02*
Y167876D01*
X240255Y166676D02*
G03X240655Y167876I-1600J1200D01*
G01X240255Y166676D02*
G03Y166076I400J-300D01*
G01X240655Y164876D02*
G03X240255Y166076I-2000J0D01*
G01X240655Y164876D02*
Y163876D01*
X238655Y161876D02*
G03X240655Y163876I0J2000D01*
G01X238655Y161876D02*
X237655D01*
X236355Y162356D02*
G03X237655Y161876I1300J1520D01*
G01X236355Y162356D02*
G03X236031Y162476I-324J-380D01*
G01X235500*
G03X235008Y162064I0J-500*
G01X233047Y160423D02*
G03X235008Y162064I-0J1992D01*
G01X233047Y160423D02*
X231307D01*
G03X230807Y159923I-0J-500*
G01Y158183*
X228028Y156353D02*
G03X230807Y158183I787J1830D01*
G01X228028Y156353D02*
G03X227633I-198J-460D01*
G01X226059D02*
G03X227633I787J1830D01*
G01X226059D02*
G03X225664I-197J-460D01*
G01X225642Y156343D02*
G03X225664Y156353I-764J1840D01*
G01X225642Y156343D02*
G03X225363Y155715I192J-461D01*
G01X225477Y155050D02*
G03X225363Y155715I-2000J-0D01*
G01X225477Y155050D02*
Y154665D01*
G03X225977Y154165I500J0*
G01X227953*
X229367Y153580D02*
G03X227953Y154165I-1414J-1415D01*
G01X229367Y153580D02*
X234343Y148604D01*
G03X234696Y148457I353J353*
G01X248336*
G03X248531Y148497I0J500*
G01X250927Y149511*
G03X251045Y149581I-194J460*
G01X256042D02*
G03X251045I-2499J-3124D01*
G01X256042D02*
G03X256159Y149511I312J390D01*
G01X258556Y148497*
G03X258751Y148457I195J460*
G01X259251*
X260518Y148005D02*
G03X259251Y148457I-1267J-1548D01*
G01X260518Y148005D02*
G03X260835Y147892I317J387D01*
G01X262760*
G03X262955Y147932I-0J500*
G01X263023Y147961*
G03X263097Y147999I-195J460*
G01X265037Y148320D02*
G03X263097Y147999I-595J-2428D01*
G01X265037Y148320D02*
G03X265656Y148806I119J486D01*
G01Y156743*
X266315Y158334D02*
G03X265656Y156743I1591J-1591D01*
G01X266315Y158334D02*
X269218Y161237D01*
X270478Y161871D02*
G03X269218Y161237I331J-2225D01*
G01X270478Y161871D02*
G03X270404Y162866I-74J495D01*
G01X288675Y193517D02*
G03X288296Y194002I-500J-0D01*
G01X286400Y196428D02*
G03X288296Y194002I2500J-0D01*
G01X286607Y197423D02*
G03X286400Y196428I2293J-995D01*
G01X286607Y197423D02*
G03X286148Y198122I-459J199D01*
G01X285050*
X283638Y198672D02*
G03X285050Y198122I1412J1541D01*
G01X283638Y198672D02*
G03X283300Y198803I-338J-369D01*
G01X278734*
G03X278672Y198799I-0J-500*
G01X278425Y198784D02*
G03X278672Y198799I-0J2000D01*
G01X278425Y198784D02*
X274200D01*
G03X273742Y198084I-0J-500*
G01X273909Y197284D02*
G03X273742Y198084I-2000J0D01*
G01X273909Y197284D02*
Y196284D01*
X271909Y194284D02*
G03X273909Y196284I-0J2000D01*
G01X271909Y194284D02*
X270909D01*
X268909Y196284D02*
G03X270909Y194284I2000J0D01*
G01X268909Y196284D02*
Y197284D01*
X269076Y198084D02*
G03X268909Y197284I1833J-800D01*
G01X269076Y198084D02*
G03X268617Y198784I-459J200D01*
G01X268172*
X268087Y198786D02*
G03X268172Y198784I85J1998D01*
G01X268087Y198786D02*
G03X268066I-21J-500D01*
G01X267724*
G03X267266Y198086I0J-500*
G01X267433Y197286D02*
G03X267266Y198086I-2000J0D01*
G01X267433Y197286D02*
Y196286D01*
X265433Y194286D02*
G03X267433Y196286I0J2000D01*
G01X265433Y194286D02*
X264433D01*
X262433Y196286D02*
G03X264433Y194286I2000J0D01*
G01X262433Y196286D02*
Y197286D01*
X262477Y197705D02*
G03X262433Y197286I1956J-419D01*
G01X262477Y197705D02*
G03X262488Y197810I-489J105D01*
X261779Y198264I-500J-0*
G01X260838Y198057D02*
G03X261779Y198264I-0J2250D01*
G01X260838Y198057D02*
X257907D01*
G03X257422Y197435I-0J-500*
G01X257543Y196457D02*
G03X257422Y197435I-4000J0D01*
G01X249543Y196457D02*
G03X257543I4000J0D01*
G01X249665Y197435D02*
G03X249543Y196457I3878J-978D01*
G01X249665Y197435D02*
G03X249180Y198057I-485J122D01*
G01X246974*
G03X246621Y197911I0J-500*
G01X245332Y196623*
G03X245193Y196354I354J-354*
G01X243222Y194695D02*
G03X245193Y196354I0J2000D01*
G01X243222Y194695D02*
X242222D01*
X241351Y194895D02*
G03X242222Y194695I871J1800D01*
G01X241351Y194895D02*
G03X241133Y194945I-218J-450D01*
G01X239251*
X239139Y194947D02*
G03X239251Y194945I112J2248D01*
G01X239139Y194947D02*
G03X239114Y194948I-25J-499D01*
G01X234715*
G03X234361Y194802I-0J-500*
G01X234028Y194468*
G03X233881Y194114I353J-354*
G01Y193953*
X233759Y193221D02*
G03X233881Y193953I-2128J732D01*
G01X233759Y193221D02*
G03X233731Y193058I472J-163D01*
G01Y192353*
X231931Y190553D02*
G03X233731Y192353I0J1800D01*
G01X231931Y190553D02*
X231331D01*
X230796Y190635D02*
G03X231331Y190553I535J1718D01*
G01X230796Y190635D02*
G03X230498I-149J-477D01*
G01X230066Y190556D02*
G03X230498Y190635I-103J1797D01*
G01X230066Y190556D02*
G03X229594Y190057I28J-499D01*
G01Y187517*
G03X229741Y187163I500J0*
G01X242001Y174904*
G03X242354Y174757I353J353*
G01X249206*
G03X249688Y175391I0J500*
G01X257398D02*
G03X249688I-3855J1066D01*
G01X257398D02*
G03X257880Y174757I482J-134D01*
G01X266274*
G03X266774Y175257I-0J500*
G01X266774*
G03X266771Y175316I-500J0*
G01X266753Y175608D02*
G03X266771Y175316I2500J-0D01*
G01X266753Y175608D02*
X266753D01*
X268304Y177920D02*
G03X266753Y175608I949J-2312D01*
G01X268304Y177920D02*
G03X268614Y178383I-190J463D01*
X268467Y178736I-500J-0*
G01X268148Y179056*
G03X267794Y179203I-354J-353*
G01X267688*
X266488Y179603D02*
G03X267688Y179203I1200J1600D01*
G01X266488Y179603D02*
G03X265888I-300J-400D01*
G01X264688Y179203D02*
G03X265888Y179603I0J2000D01*
G01X264688Y179203D02*
X263688D01*
X261688Y181203D02*
G03X263688Y179203I2000J-0D01*
G01X261688Y181203D02*
Y182203D01*
X263688Y184203D02*
G03X261688Y182203I0J-2000D01*
G01X263688Y184203D02*
X264688D01*
X265888Y183803D02*
G03X264688Y184203I-1200J-1600D01*
G01X265888Y183803D02*
G03X266488I300J400D01*
G01X267688Y184203D02*
G03X266488Y183803I0J-2000D01*
G01X267688Y184203D02*
X268688D01*
X270688Y182203D02*
G03X268688Y184203I-2000J-0D01*
G01X270688Y182203D02*
Y182097D01*
G03X270835Y181743I500J-0*
G01X273158Y179420*
G03X274012Y179773I354J353*
G01Y180020*
X274095Y180559D02*
G03X274012Y180020I1712J-539D01*
G01X274095Y180559D02*
G03Y180859I-477J150D01*
G01X274012Y181398D02*
G03X274095Y180859I1795J-0D01*
G01X274012Y181398D02*
Y181988D01*
X274027Y182219D02*
G03X274012Y181988I1780J-231D01*
G01X274027Y182219D02*
G03Y182348I-496J64D01*
G01X274012Y182579D02*
G03X274027Y182348I1795J-0D01*
G01X274012Y182579D02*
Y183169D01*
X275807Y184965D02*
G03X274012Y183169I0J-1796D01*
G01X275807Y184965D02*
X276627D01*
G03X277127Y185465I-0J500*
X277101Y185622I-500J-0*
G01X280394Y190181D02*
G03X277101Y185622I-0J-3468D01*
G01X280394Y190181D02*
X284724D01*
X287740Y188426D02*
G03X284724Y190181I-3016J-1713D01*
G01X287740Y188426D02*
G03X288675Y188673I435J247D01*
G01Y193517*
X233992Y175343D02*
X231417Y177917D01*
G03X230564Y177564I-353J-353*
X230612Y177348I500J-0*
G01X230807Y176490D02*
G03X230612Y177348I-1992J-0D01*
G01X230807Y176490D02*
Y174750D01*
G03X231307Y174250I500J-0*
G01X233047*
X233161Y174247D02*
G03X233047Y174250I-114J-1989D01*
G01X233161Y174247D02*
G03X233385Y174285I29J499D01*
G01X233419Y174300*
G03X233500Y174343I-195J460*
G01X233845Y174534D02*
G03X233500Y174343I1034J-2276D01*
G01X233845Y174534D02*
G03X233992Y175343I-207J455D01*
G01X201219Y102354D02*
X201078Y102494D01*
G03X200841Y102627I-353J-353*
G01X199472Y102955*
G03X199348Y102969I-117J-486*
G01X195908Y104835D02*
G03X199348Y102969I3383J2134D01*
G01X195908Y104835D02*
G03X195485Y105068I-423J-267D01*
G01X195316*
X193973Y105625D02*
G03X195316Y105068I1343J1344D01*
G01X193973Y105625D02*
X193858Y105740D01*
G03X193036Y105562I-354J-354*
G01X186492Y104111D02*
G03X193036Y105562I2799J2858D01*
G01X186492Y104111D02*
G03X186399Y104183I-350J-357D01*
G01X185037Y104998*
G03X184780Y105068I-257J-430*
G01X184243*
X183441Y105246D02*
G03X184243Y105068I802J1723D01*
G01X183441Y105246D02*
G03X182793Y105034I-211J-453D01*
G01X176492Y104111D02*
G03X182793Y105034I2799J2858D01*
G01X176492Y104111D02*
G03X176399Y104183I-350J-357D01*
G01X175037Y104998*
G03X174781Y105068I-256J-430*
G01X174244*
X173442Y105246D02*
G03X174244Y105068I802J1723D01*
G01X173442Y105246D02*
G03X172793Y105035I-212J-453D01*
G01X166438Y104165D02*
G03X172793Y105035I2853J2804D01*
G01X166438Y104165D02*
G03X166342Y104241I-357J-350D01*
G01X165106Y104995*
G03X164846Y105068I-260J-427*
G01X164320*
X163470Y105269D02*
G03X164320Y105068I850J1700D01*
G01X163470Y105269D02*
G03X162807Y105060I-224J-447D01*
G01X155908Y104835D02*
G03X162807Y105060I3383J2134D01*
G01X155908Y104835D02*
G03X155485Y105068I-423J-267D01*
G01X155316*
X153973Y105625D02*
G03X155316Y105068I1343J1344D01*
G01X153973Y105625D02*
X153858Y105740D01*
G03X153036Y105562I-354J-354*
G01X146479Y104124D02*
G03X153036Y105562I2812J2845D01*
G01X146479Y104124D02*
G03X146385Y104197I-352J-355D01*
G01X145054Y104997*
G03X144796Y105068I-258J-429*
G01X144262*
X143448Y105252D02*
G03X144262Y105068I814J1717D01*
G01X143448Y105252D02*
G03X142796Y105041I-214J-452D01*
G01X135322Y106477D02*
G03X142796Y105041I3969J492D01*
G01X135322Y106477D02*
G03X135289Y106604I-497J-61D01*
G01X134188Y109316*
G03X133724Y109628I-464J-188*
G01X133240*
G03X132740Y109128I-0J-500*
X132801Y108888I500J-0*
G01X125322Y106477D02*
G03X132801Y108888I3969J492D01*
G01X125322Y106477D02*
G03X125289Y106604I-497J-61D01*
G01X124178Y109339*
G03X124069Y109504I-463J-188*
G01X122981Y110591*
G03X122167Y110043I-353J-353*
G01X122379Y109541*
G03X122446Y109428I461J195*
G01X116137D02*
G03X122446I3154J-2459D01*
G01X116137D02*
G03X116203Y109541I-394J308D01*
G01X117352Y112260*
G03X117391Y112455I-461J195*
G01Y142024*
X117948Y143368D02*
G03X117391Y142024I1343J-1344D01*
G01X117948Y143368D02*
X134333Y159753D01*
G03X134479Y160106I-354J353*
G01Y164649*
G03X134021Y165147I-500J-0*
G01X133591Y165238D02*
G03X134021Y165147I574J1649D01*
G01X133591Y165238D02*
G03X133262I-164J-472D01*
G01X132898Y165154D02*
G03X133262Y165238I-210J1733D01*
G01X132898Y165154D02*
G03X132460Y164703I60J-497D01*
G01X129085Y161622D02*
G03X132460Y164703I0J3389D01*
G01X129085Y161622D02*
X116826D01*
G03X116326Y161122I0J-500*
G01Y152559*
X115826Y152059D02*
G03X116326Y152559I0J500D01*
G01X115826Y152059D02*
X102000D01*
G03X101500Y151559I0J-500*
G01Y107000*
G03X107000Y101500I5500J0*
G01X200866*
G03X201219Y102354I-0J500*
G01X215475Y117046D02*
X181587D01*
G03X181392Y117007I-0J-500*
G01X181149Y116904*
G03X181068Y116861I195J-460*
G01X178312D02*
G03X181068I1378J2085D01*
G01X178312D02*
G03X178231Y116904I-276J-417D01*
G01X177988Y117007*
G03X177793Y117046I-195J-461*
G01X174006*
G03X173665Y116181I-0J-500*
G01X173713Y116134D02*
G03X173665Y116181I-1343J-1344D01*
G01X173713Y116134D02*
X174527Y115320D01*
G03X174881Y115174I354J354*
G01X181905*
X183248Y114617D02*
G03X181905Y115174I-1343J-1343D01*
G01X183248Y114617D02*
X183883Y113982D01*
G03X184237Y113836I354J354*
G01X204324*
X205667Y113279D02*
G03X204324Y113836I-1343J-1343D01*
G01X205667Y113279D02*
X206756Y112191D01*
G03X206921Y112082I353J354*
G01X209103Y111196*
G03X209479I188J463*
G01X211662Y112082*
G03X211827Y112191I-188J463*
G01X215829Y116193*
G03X215475Y117046I-354J353*
G01X220159Y133402D02*
G03X220266Y133036I2431J512D01*
G01X220159Y133402D02*
G03X220024Y133652I-489J-103D01*
G01X208332Y145343*
G03X207979Y145490I-353J-353*
G01X185787*
X184372Y146076D02*
G03X185787Y145490I1415J1414D01*
G01X184372Y146076D02*
X170864Y159584D01*
G03X170085Y159493I-353J-354*
G01X168382Y158541D02*
G03X170085Y159493I0J2000D01*
G01X168382Y158541D02*
X167382D01*
X166582Y158708D02*
G03X167382Y158541I800J1833D01*
G01X166582Y158708D02*
G03X165882Y158250I-200J-458D01*
G01Y155959*
G03X166582Y155500I500J-0*
G01X167382Y155667D02*
G03X166582Y155500I0J-2000D01*
G01X167382Y155667D02*
X168382D01*
X170382Y153667D02*
G03X168382Y155667I-2000J0D01*
G01X170382Y153667D02*
Y152667D01*
X168382Y150667D02*
G03X170382Y152667I0J2000D01*
G01X168382Y150667D02*
X167382D01*
X166182Y151067D02*
G03X167382Y150667I1200J1600D01*
G01X166182Y151067D02*
G03X165582I-300J-400D01*
G01X164382Y150667D02*
G03X165582Y151067I0J2000D01*
G01X164382Y150667D02*
X163382D01*
X162301Y150985D02*
G03X163382Y150667I1081J1682D01*
G01X162301Y150985D02*
G03X161678Y150917I-270J-421D01*
G01X160134Y149374*
G03X159987Y149020I353J-354*
G01Y147641*
G03X160087Y147341I500J0*
G01X160487Y146141D02*
G03X160087Y147341I-2000J0D01*
G01X160487Y146141D02*
Y145141D01*
X158487Y143141D02*
G03X160487Y145141I0J2000D01*
G01X158487Y143141D02*
X157487D01*
X156607Y143345D02*
G03X157487Y143141I880J1796D01*
G01X156607Y143345D02*
G03X155887Y142896I-220J-449D01*
G01Y141703*
X155882Y141557D02*
G03X155887Y141703I-1895J146D01*
G01X155882Y141557D02*
G03X155880Y141518I498J-39D01*
G01Y140503*
G03X156600Y140054I500J-0*
G01X157480Y140258D02*
G03X156600Y140054I0J-2000D01*
G01X157480Y140258D02*
X158480D01*
X160480Y138258D02*
G03X158480Y140258I-2000J-0D01*
G01X160480Y138258D02*
Y137258D01*
X158480Y135258D02*
G03X160480Y137258I0J2000D01*
G01X158480Y135258D02*
X157480D01*
X156600Y135462D02*
G03X157480Y135258I880J1796D01*
G01X156600Y135462D02*
G03X155880Y135013I-220J-449D01*
G01Y129379*
G03X156026Y129025I500J-0*
G01X164059Y120993*
G03X164412Y120847I353J354*
G01X164412D02*
X177793D01*
X177793D02*
G03X177988Y120886I0J500D01*
G01X178231Y120989*
G03X178312Y121032I-195J460*
G01X181068D02*
G03X178312I-1378J-2086D01*
G01X181068D02*
G03X181149Y120989I276J417D01*
G01X181392Y120886*
G03X181587Y120847I195J461*
G01X181587D02*
X190533D01*
X190533D02*
G03X191033Y121347I0J500D01*
G01X191033D02*
X191033D01*
G03X191031Y121398I-500J-0*
G01X191432Y123032D02*
G03X191031Y121398I2086J-1378D01*
G01X191432Y123032D02*
G03X191475Y123113I-417J276D01*
G01X191578Y123356*
G03X191618Y123551I-460J195*
G01Y125321*
X192093Y126578D02*
G03X191618Y125321I1425J-1257D01*
G01X192093Y126578D02*
G03X192218Y126909I-375J331D01*
X191718Y127409I-500J-0*
G01X190903*
X189752Y127773D02*
G03X190903Y127409I1151J1636D01*
G01X189752Y127773D02*
G03X189110Y127718I-288J-409D01*
G01X188113Y126720*
G03X188003Y126554I353J-354*
G01X187904Y126310*
G03X187878Y126222I463J-188*
G01X184928Y129172D02*
G03X187878Y126222I500J-2450D01*
G01X184928Y129172D02*
G03X185016Y129198I-100J490D01*
G01X185260Y129297*
G03X185426Y129407I-188J464*
G01X187271Y131252*
X188614Y131809D02*
G03X187271Y131252I0J-1900D01*
G01X188614Y131809D02*
X188658D01*
G03X189107Y132529I-0J500*
G01X188903Y133409D02*
G03X189107Y132529I2000J-0D01*
G01X188903Y133409D02*
Y134409D01*
X190903Y136409D02*
G03X188903Y134409I-0J-2000D01*
G01X190903Y136409D02*
X191903D01*
X193203Y135929D02*
G03X191903Y136409I-1300J-1520D01*
G01X193203Y135929D02*
G03X193528Y135809I325J380D01*
G01X196413*
G03X196447Y135810I0J500*
G01X196574Y135814D02*
G03X196447Y135810I-0J-1900D01*
G01X196574Y135814D02*
X198943D01*
G03X199047Y135825I-0J500*
G01X200039Y136037*
G03X200234Y136926I-105J489*
G01X199240Y138914D02*
G03X200234Y136926I2484J-0D01*
G01X201724Y141398D02*
G03X199240Y138914I-0J-2484D01*
G01X201724Y141398D02*
X204874D01*
X207358Y138914D02*
G03X204874Y141398I-2484J-0D01*
G01X206363Y136926D02*
G03X207358Y138914I-1489J1988D01*
G01X206363Y136926D02*
G03X206559Y136037I300J-400D01*
G01X207550Y135825*
G03X207655Y135814I105J489*
G01X209613*
X210957Y135257D02*
G03X209613Y135814I-1344J-1343D01*
G01X210957Y135257D02*
X212468Y133746D01*
G03X213125Y133702I354J353*
G01X216020Y133800D02*
G03X213125Y133702I-1378J-2086D01*
G01X216020Y133800D02*
G03X216101Y133756I276J417D01*
G01X216344Y133654*
G03X216539Y133614I195J460*
G01X217550*
X218893Y133058D02*
G03X217550Y133614I-1343J-1344D01*
G01X218893Y133058D02*
X219445Y132506D01*
G03X220266Y133036I353J354*
G01X216980Y159923D02*
G03X216480Y160423I-500J0D01*
G01X214740*
X212910Y163202D02*
G03X214740Y160423I1830J-787D01*
G01X212910Y163202D02*
G03Y163597I-460J197D01*
G01X212778Y164039D02*
G03X212910Y163597I1962J345D01*
G01X212778Y164039D02*
G03X212285Y164452I-493J-87D01*
G01X212041*
X211841Y164463D02*
G03X212041Y164452I200J1889D01*
G01X211841Y164463D02*
G03X211788Y164466I-53J-497D01*
G01X210591*
G03X210142Y163746I0J-500*
G01X210346Y162866D02*
G03X210142Y163746I-2000J-0D01*
G01X210346Y162866D02*
Y161866D01*
X209556Y160273D02*
G03X210346Y161866I-1210J1593D01*
G01X209556Y160273D02*
G03X209358Y159874I302J-399D01*
X209505Y159521I500J0*
G01X212429Y156596*
G03X212783Y156450I354J354*
G01X216472*
G03X216972Y156950I0J500*
G01Y159069*
X216978Y159227D02*
G03X216972Y159069I1994J-158D01*
G01X216978Y159227D02*
G03X216980Y159267I-498J40D01*
G01Y159923*
X161893Y172934D02*
G03X161854Y173128I-500J-0D01*
G01X161825Y173197*
G03X161786Y173271I-460J-195*
G01X161468Y174008D02*
G03X161786Y173271I2426J608D01*
G01X161468Y174008D02*
G03X160983Y174387I-485J-121D01*
G01X158575*
G03X158075Y173887I-0J-500*
X158221Y173533I500J-0*
G01X158622Y173133*
X159178Y171789D02*
G03X158622Y173132I-1900J-0D01*
G01X159178Y171789D02*
Y162101D01*
X158621Y160757D02*
G03X159178Y162101I-1343J1344D01*
G01X158621Y160757D02*
X133938Y136073D01*
G03X133791Y135720I353J-353*
G01Y123993*
G03X134291Y123493I500J-0*
G01X143942*
X145286Y122936D02*
G03X143942Y123493I-1344J-1343D01*
G01X145286Y122936D02*
X147853Y120369D01*
G03X148207Y120223I354J354*
G01X158248*
G03X158748Y120723I0J500*
X158602Y121076I-500J-0*
G01X152637Y127041*
X152080Y128385D02*
G03X152637Y127041I1900J-0D01*
G01X152080Y128385D02*
Y135633D01*
G03X151960Y135958I-500J-0*
G01X151480Y137258D02*
G03X151960Y135958I2000J-0D01*
G01X151480Y137258D02*
Y138258D01*
X151960Y139558D02*
G03X151480Y138258I1520J-1300D01*
G01X151960Y139558D02*
G03X152080Y139883I-380J325D01*
G01Y141696*
X152086Y141843D02*
G03X152080Y141696I1894J-147D01*
G01X152086Y141843D02*
G03X152087Y141881I-499J38D01*
G01Y143517*
G03X151967Y143842I-500J-0*
G01X151487Y145141D02*
G03X151967Y143842I2000J0D01*
G01X151487Y145141D02*
Y146141D01*
X151967Y147441D02*
G03X151487Y146141I1520J-1300D01*
G01X151967Y147441D02*
G03X152087Y147766I-380J325D01*
G01Y148046*
X152097Y148240D02*
G03X152087Y148046I1890J-194D01*
G01X152097Y148240D02*
G03X152100Y148291I-497J51D01*
G01Y148566*
G03X152060Y148761I-500J-0*
G01X151957Y149003*
G03X151914Y149084I-460J-194*
G01X156089Y151836D02*
G03X151914Y149084I-2089J-1373D01*
G01X156089Y151836D02*
G03X156860Y151757I418J275D01*
G01X159685Y154582*
X161099Y155167D02*
G03X159685Y154582I0J-2000D01*
G01X161099Y155167D02*
X161382D01*
G03X161882Y155667I0J500*
G01Y159041*
G03X161782Y159341I-500J0*
G01X161382Y160541D02*
G03X161782Y159341I2000J0D01*
G01X161382Y160541D02*
Y161541D01*
X161782Y162741D02*
G03X161382Y161541I1600J-1200D01*
G01X161782Y162741D02*
G03X161882Y163041I-400J300D01*
G01Y166915*
G03X161782Y167215I-500J0*
G01X161382Y168415D02*
G03X161782Y167215I2000J0D01*
G01X161382Y168415D02*
Y169415D01*
X161782Y170615D02*
G03X161382Y169415I1600J-1200D01*
G01X161782Y170615D02*
G03X161882Y170915I-400J300D01*
G01Y171760*
X161891Y171951D02*
G03X161882Y171760I1991J-191D01*
G01X161891Y171951D02*
G03X161893Y171999I-498J48D01*
G01X161893D02*
Y172934D01*
X205719Y157932D02*
X199753Y163898D01*
G03X199400Y164045I-353J-353*
G01X177756*
X176412Y164601D02*
G03X177756Y164045I1344J1344D01*
G01X176412Y164601D02*
X174145Y166869D01*
G03X173791Y167015I-354J-354*
G01X170382*
G03X169882Y166515I0J-500*
G01Y166430*
G03X170029Y166077I500J0*
G01X186469Y149636*
G03X186822Y149490I353J354*
G01X195285*
G03X195735Y150206I-0J500*
G01X195490Y151287D02*
G03X195735Y150206I2500J0D01*
G01X195629Y152111D02*
G03X195490Y151287I2361J-824D01*
G01X195629Y152111D02*
G03X195031Y152759I-472J164D01*
G01X195781Y157264D02*
G03X195031Y152759I-1379J-2085D01*
G01X195781Y157264D02*
G03X195861Y157221I275J418D01*
G01X196104Y157118*
G03X196299Y157079I195J461*
G01X205366*
G03X205719Y157932I-0J500*
G01X212582Y169111D02*
X211347Y170346D01*
X210792Y171412D02*
G03X211347Y170346I1969J348D01*
G01X210792Y171412D02*
G03X209903Y171630I-493J-87D01*
G01X208316Y170848D02*
G03X209903Y171630I0J2000D01*
G01X208316Y170848D02*
X207316D01*
X205316Y172848D02*
G03X207316Y170848I2000J-0D01*
G01X205316Y172848D02*
Y173848D01*
X205483Y174648D02*
G03X205316Y173848I1833J-800D01*
G01X205483Y174648D02*
G03X205025Y175348I-458J200D01*
G01X172493*
G03X172140Y175201I0J-500*
G01X170029Y173091*
G03X169882Y172737I353J-354*
G01Y171315*
G03X170382Y170815I500J0*
G01X174785*
X176129Y170259D02*
G03X174785Y170815I-1344J-1344D01*
G01X176129Y170259D02*
X178396Y167991D01*
G03X178750Y167845I354J354*
G01X200394*
X201737Y167288D02*
G03X200394Y167845I-1343J-1343D01*
G01X201737Y167288D02*
X204939Y164087D01*
G03X205703Y164725I354J353*
G01X205346Y165866D02*
G03X205703Y164725I2000J-0D01*
G01X205346Y165866D02*
Y166866D01*
X207346Y168866D02*
G03X205346Y166866I0J-2000D01*
G01X207346Y168866D02*
X208346D01*
X209646Y168386D02*
G03X208346Y168866I-1300J-1520D01*
G01X209646Y168386D02*
G03X209971Y168266I325J380D01*
G01X212028*
X212187Y168259D02*
G03X212028Y168266I-159J-1893D01*
G01X212187Y168259D02*
G03X212582Y169111I42J498D01*
G01X230242Y179092D02*
X224382Y184952D01*
X223826Y186296D02*
G03X224382Y184952I1900J-0D01*
G01X223826Y186296D02*
Y190057D01*
G03X223354Y190556I-500J0*
G01X222922Y190635D02*
G03X223354Y190556I535J1718D01*
G01X222922Y190635D02*
G03X222624I-149J-477D01*
G01X222089Y190553D02*
G03X222624Y190635I-0J1800D01*
G01X222089Y190553D02*
X221489D01*
X220953Y190635D02*
G03X221489Y190553I536J1718D01*
G01X220953Y190635D02*
G03X220656I-148J-477D01*
G01X220120Y190553D02*
G03X220656Y190635I0J1800D01*
G01X220120Y190553D02*
X219520D01*
X217720Y192353D02*
G03X219520Y190553I1800J0D01*
G01X217720Y192353D02*
Y194598D01*
G03X217220Y195098I-500J-0*
G01X216070*
G03X215716Y194952I-0J-500*
G01X213776Y193011*
X212432Y192454D02*
G03X213776Y193011I0J1900D01*
G01X212432Y192454D02*
X212156D01*
G03X211656Y191954I-0J-500*
X211678Y191806I500J0*
G01X211790Y191066D02*
G03X211678Y191806I-2500J-0D01*
G01X209790Y188616D02*
G03X211790Y191066I-500J2450D01*
G01X209790Y188616D02*
G03X209702Y188590I100J-489D01*
G01X209458Y188491*
G03X209292Y188381I188J-464*
G01X209228Y188317*
X207885Y187761D02*
G03X209228Y188317I-0J1900D01*
G01X207885Y187761D02*
X200979D01*
G03X200536Y187494I-0J-500*
G01X198381Y186192D02*
G03X200536Y187494I0J2435D01*
G01X198381Y186192D02*
X196511D01*
X194384Y187443D02*
G03X196511Y186192I2127J1184D01*
G01X194384Y187443D02*
G03X193593Y187554I-437J-243D01*
G01X192562Y186523*
G03X192416Y186169I354J-354*
G01Y182091*
G03X192536Y181766I500J0*
G01X193016Y180466D02*
G03X192536Y181766I-2001J0D01*
G01X193016Y180466D02*
Y179848D01*
G03X193516Y179348I500J-0*
G01X205816*
G03X206116Y179448I0J500*
G01X207316Y179848D02*
G03X206116Y179448I0J-2000D01*
G01X207316Y179848D02*
X208316D01*
X209516Y179448D02*
G03X208316Y179848I-1200J-1600D01*
G01X209516Y179448D02*
G03X209816Y179348I300J400D01*
G01X210007*
X211421Y178762D02*
G03X210007Y179348I-1414J-1414D01*
G01X211421Y178762D02*
X214176Y176008D01*
X214757Y174719D02*
G03X214176Y176008I-1996J-125D01*
G01X214757Y174719D02*
G03X215256Y174250I499J31D01*
G01X216480*
G03X216980Y174750I-0J500*
G01Y176490*
X219759Y178320D02*
G03X216980Y176490I-787J-1830D01*
G01X219759Y178320D02*
G03X220154I197J460D01*
G01X221727D02*
G03X220154I-786J-1830D01*
G01X221727D02*
G03X222122I198J460D01*
G01X223696D02*
G03X222122I-787J-1830D01*
G01X223696D02*
G03X224091I197J460D01*
G01X225664D02*
G03X224091I-786J-1830D01*
G01X225664D02*
G03X226059I198J460D01*
G01X227633D02*
G03X226059I-787J-1830D01*
G01X227633D02*
G03X228028I197J460D01*
G01X229673Y178288D02*
G03X228028Y178320I-858J-1798D01*
G01X229673Y178288D02*
G03X230242Y179092I216J451D01*
G01X191806Y194942D02*
G03X191556Y195376I-500J0D01*
G01X190336Y197486D02*
G03X191556Y195376I2435J-0D01*
G01X190336Y197486D02*
Y199553D01*
X190468Y200343D02*
G03X190336Y199553I2303J-790D01*
G01X190468Y200343D02*
G03X190162Y200976I-473J162D01*
G01X189454Y201423D02*
G03X190162Y200976I1343J1344D01*
G01X189454Y201423D02*
X187477Y203400D01*
G03X187124Y203546I-353J-354*
G01X187018*
X185018Y205546D02*
G03X187018Y203546I2000J0D01*
G01X185018Y205546D02*
Y205646D01*
G03X184518Y206146I-500J0*
G01X183278*
G03X182925Y206000I0J-500*
G01X182744Y205819*
G03X182634Y205653I353J-354*
G01X182535Y205409*
G03X182508Y205321I463J-188*
G01X178634Y203766D02*
G03X182508Y205321I1425J2055D01*
G01X178634Y203766D02*
G03X177850Y203356I-284J-410D01*
G01Y201619*
G03X178100Y201185I500J-0*
G01X179212Y199792D02*
G03X178100Y201185I-2327J-717D01*
G01X179212Y199792D02*
G03X180168I478J147D01*
G01X182495Y201510D02*
G03X180168Y199792I-0J-2435D01*
G01X182495Y201510D02*
X184365D01*
X186800Y199075D02*
G03X184365Y201510I-2435J0D01*
G01X186800Y199075D02*
Y197008D01*
X185580Y194898D02*
G03X186800Y197008I-1215J2110D01*
G01X185580Y194898D02*
G03X185330Y194465I250J-433D01*
G01Y191057*
G03X185476Y190703I500J-0*
G01X187859Y188321*
X188050Y188097D02*
G03X187859Y188321I-1535J-1120D01*
G01X188050Y188097D02*
G03X188883Y188136I404J295D01*
G01X189172Y188507D02*
G03X188883Y188136I1343J-1344D01*
G01X189172Y188507D02*
X191660Y190994D01*
G03X191806Y191348I-354J354*
G01Y194942*
X184615Y185983D02*
G03X184469Y186336I-500J-0D01*
G01X183607Y187198*
G03X182806Y187067I-353J-353*
G01X181840Y186040D02*
G03X182806Y187067I-1215J2110D01*
G01X181840Y186040D02*
G03X181590Y185607I250J-433D01*
G01Y185480*
G03X181630Y185285I500J0*
G01X181732Y185042*
G03X181776Y184962I461J195*
G01X177604D02*
G03X181776I2086J-1379D01*
G01X177604D02*
G03X177648Y185042I-417J275D01*
G01X177750Y185285*
G03X177790Y185480I-460J195*
G01Y185607*
G03X177539Y186040I-500J-0*
G01X176320Y188150D02*
G03X177539Y186040I2435J0D01*
G01X176320Y188150D02*
Y190217D01*
X178755Y192652D02*
G03X176320Y190217I-0J-2435D01*
G01X178755Y192652D02*
X180625D01*
X180961Y192629D02*
G03X180625Y192652I-336J-2412D01*
G01X180961Y192629D02*
G03X181530Y193124I69J495D01*
G01Y194465*
G03X181279Y194898I-500J-0*
G01X180168Y196292D02*
G03X181279Y194898I2327J716D01*
G01X180168Y196292D02*
G03X179212I-478J-147D01*
G01X176885Y194573D02*
G03X179212Y196292I-0J2435D01*
G01X176885Y194573D02*
X175014D01*
X172579Y197008D02*
G03X175014Y194573I2435J0D01*
G01X172579Y197008D02*
Y199075D01*
X173799Y201185D02*
G03X172579Y199075I1215J-2110D01*
G01X173799Y201185D02*
G03X174050Y201619I-249J434D01*
G01X174050D02*
Y207233D01*
X174606Y208576D02*
G03X174050Y207233I1344J-1343D01*
G01X174606Y208576D02*
X177251Y211221D01*
G03X177397Y211574I-354J353*
X176897Y212074I-500J0*
G01X169480*
G03X169127Y211928I0J-500*
G01X166388Y209189*
G03X166241Y208835I353J-354*
G01Y179184*
X165685Y177840D02*
G03X166241Y179184I-1344J1344D01*
G01X165685Y177840D02*
X165267Y177422D01*
G03X165121Y177069I354J-353*
X165333Y176660I500J-0*
G01X166117Y175759D02*
G03X165333Y176660I-2223J-1143D01*
G01X166117Y175759D02*
G03X166915Y175634I445J229D01*
G01X170043Y178762*
X171458Y179348D02*
G03X170043Y178762I-0J-2000D01*
G01X171458Y179348D02*
X183515D01*
G03X184015Y179848I0J500*
G01Y180466*
X184495Y181766D02*
G03X184015Y180466I1520J-1300D01*
G01X184495Y181766D02*
G03X184615Y182091I-380J325D01*
G01Y185983*
X188843Y214850D02*
X182254D01*
G03X181901Y214703I0J-500*
G01X179997Y212800*
G03X179851Y212446I354J-354*
X180351Y211946I500J0*
G01X185393*
G03X185718Y212066I0J500*
G01X187018Y212546D02*
G03X185718Y212066I-0J-2000D01*
G01X187018Y212546D02*
X187124D01*
G03X187477Y212693I-0J500*
G01X188174Y213390*
X188984Y213870D02*
G03X188174Y213390I534J-1824D01*
G01X188984Y213870D02*
G03X188843Y214850I-141J480D01*
G01X150670Y208103D02*
G03X149817Y208457I-500J0D01*
G01X146300Y204940*
G03X146153Y204587I353J-353*
G01Y197767*
G03X146612Y197269I500J0*
G01X147042Y197178D02*
G03X146612Y197269I-574J-1649D01*
G01X147042Y197178D02*
G03X147370I164J472D01*
G01X147944Y197275D02*
G03X147370Y197178I0J-1746D01*
G01X147944Y197275D02*
X148436D01*
X149010Y197178D02*
G03X148436Y197275I-574J-1649D01*
G01X149010Y197178D02*
G03X149339I165J472D01*
G01X149913Y197275D02*
G03X149339Y197178I-0J-1746D01*
G01X149913Y197275D02*
X150170D01*
G03X150670Y197775I0J500*
G01Y208103*
X158943Y226170D02*
X157651D01*
G03X157297Y226024I-0J-500*
G01X156534Y225260*
X155190Y224704D02*
G03X156534Y225260I0J1900D01*
G01X155190Y224704D02*
X148093D01*
G03X147740Y224557I0J-500*
G01X134489Y211307*
G03X134342Y210953I353J-354*
G01Y197767*
G03X134801Y197269I500J0*
G01X135231Y197178D02*
G03X134801Y197269I-574J-1649D01*
G01X135231Y197178D02*
G03X135559I164J472D01*
G01X136133Y197275D02*
G03X135559Y197178I0J-1746D01*
G01X136133Y197275D02*
X136625D01*
X137199Y197178D02*
G03X136625Y197275I-574J-1649D01*
G01X137199Y197178D02*
G03X137528I165J472D01*
G01X138102Y197275D02*
G03X137528Y197178I-0J-1746D01*
G01X138102Y197275D02*
X138594D01*
X139168Y197178D02*
G03X138594Y197275I-574J-1649D01*
G01X139168Y197178D02*
G03X139496I164J472D01*
G01X139926Y197269D02*
G03X139496Y197178I144J-1740D01*
G01X139926Y197269D02*
G03X140385Y197767I-41J498D01*
G01Y205618*
X140941Y206962D02*
G03X140385Y205618I1344J-1344D01*
G01X140941Y206962D02*
X159296Y225317D01*
G03X158943Y226170I-353J353*
G01X293291Y232756D02*
G03X293291I-4000J0D01*
G01X283291D02*
G03X283291I-4000J0D01*
G01X123291D02*
G03X123291I-4000J0D01*
G01X303058Y140909D02*
G03X303014Y140828I417J-275D01*
G01X302912Y140586*
G03X302872Y140391I460J-195*
G01Y140082*
Y140051D02*
G03Y140082I-1900J31D01*
G01Y140051D02*
G03Y140042I500J-9D01*
G01Y140001*
G03X302992Y139676I500J0*
G01X303472Y138376D02*
G03X302992Y139676I-2000J0D01*
G01X303472Y138376D02*
Y137376D01*
X301472Y135376D02*
G03X303472Y137376I-0J2000D01*
G01X301472Y135376D02*
X300472D01*
X299272Y135776D02*
G03X300472Y135376I1200J1600D01*
G01X299272Y135776D02*
G03X298672I-300J-400D01*
G01X297472Y135376D02*
G03X298672Y135776I-0J2000D01*
G01X297472Y135376D02*
X296472D01*
X295172Y135856D02*
G03X296472Y135376I1300J1520D01*
G01X295172Y135856D02*
G03X294847Y135976I-325J-380D01*
G01X290672*
G03X290347Y135856I0J-500*
G01X289047Y135376D02*
G03X290347Y135856I0J2000D01*
G01X289047Y135376D02*
X288047D01*
X287247Y135543D02*
G03X288047Y135376I800J1833D01*
G01X287247Y135543D02*
G03X286547Y135085I-200J-458D01*
G01Y129059*
G03X287247Y128601I500J0*
G01X288047Y128768D02*
G03X287247Y128601I0J-2000D01*
G01X288047Y128768D02*
X289047D01*
X290347Y128288D02*
G03X289047Y128768I-1300J-1520D01*
G01X290347Y128288D02*
G03X290672Y128168I325J380D01*
G01X294847*
G03X295172Y128288I-0J500*
G01X296472Y128768D02*
G03X295172Y128288I-0J-2000D01*
G01X296472Y128768D02*
X297472D01*
X298672Y128368D02*
G03X297472Y128768I-1200J-1600D01*
G01X298672Y128368D02*
G03X299272I300J400D01*
G01X300472Y128768D02*
G03X299272Y128368I-0J-2000D01*
G01X300472Y128768D02*
X301472D01*
X303472Y126768D02*
G03X301472Y128768I-2000J0D01*
G01X303472Y126768D02*
Y125768D01*
X301472Y123768D02*
G03X303472Y125768I-0J2000D01*
G01X301472Y123768D02*
X300472D01*
X299272Y124168D02*
G03X300472Y123768I1200J1600D01*
G01X299272Y124168D02*
G03X298672I-300J-400D01*
G01X297472Y123768D02*
G03X298672Y124168I-0J2000D01*
G01X297472Y123768D02*
X296472D01*
X295172Y124248D02*
G03X296472Y123768I1300J1520D01*
G01X295172Y124248D02*
G03X294847Y124368I-325J-380D01*
G01X290672*
G03X290347Y124248I0J-500*
G01X289047Y123768D02*
G03X290347Y124248I0J2000D01*
G01X289047Y123768D02*
X288047D01*
X286847Y124168D02*
G03X288047Y123768I1200J1600D01*
G01X286847Y124168D02*
G03X286247I-300J-400D01*
G01X285047Y123768D02*
G03X286247Y124168I0J2000D01*
G01X285047Y123768D02*
X284047D01*
X282047Y125768D02*
G03X284047Y123768I2000J0D01*
G01X282047Y125768D02*
Y126768D01*
X282447Y127968D02*
G03X282047Y126768I1600J-1200D01*
G01X282447Y127968D02*
G03X282547Y128268I-400J300D01*
G01Y135876*
G03X282447Y136176I-500J0*
G01X282047Y137376D02*
G03X282447Y136176I2000J0D01*
G01X282047Y137376D02*
Y138376D01*
X282447Y139576D02*
G03X282047Y138376I1600J-1200D01*
G01X282447Y139576D02*
G03X282547Y139876I-400J300D01*
G01Y141539*
X283133Y142953D02*
G03X282547Y141539I1414J-1414D01*
G01X283133Y142953D02*
X286296Y146117D01*
G03X286406Y146282I-353J353*
G01X286434Y146351*
G03X286459Y146431I-463J188*
G01X289439Y143451D02*
G03X286459Y146431I-539J2441D01*
G01X289439Y143451D02*
G03X289359Y143426I108J-489D01*
G01X289290Y143398*
G03X289125Y143288I188J-463*
G01X286955Y141118*
G03X286808Y140764I353J-354*
X287456Y140287I500J0*
G01X288047Y140376D02*
G03X287456Y140287I0J-2000D01*
G01X288047Y140376D02*
X289047D01*
X290347Y139896D02*
G03X289047Y140376I-1300J-1520D01*
G01X290347Y139896D02*
G03X290672Y139776I325J380D01*
G01X294847*
G03X295172Y139896I-0J500*
G01X296472Y140376D02*
G03X295172Y139896I-0J-2000D01*
G01X296472Y140376D02*
X297472D01*
X298245Y140221D02*
G03X297472Y140376I-773J-1845D01*
G01X298245Y140221D02*
G03X298938Y140682I193J461D01*
X298860Y140950I-500J-0*
G01X303058Y140909D02*
G03X298860Y140950I-2086J1379D01*
G01X299488Y149189D02*
X297126D01*
Y156126D02*
G03Y149189I-0J-3469D01*
G01Y156126D02*
X299488D01*
Y149189D02*
G03Y156126I0J3468D01*
G01X233291Y106969D02*
G03X233291I-4000J0D01*
G01X257543Y156457D02*
G03X257543I-4000J0D01*
G01Y186457D02*
G03X257543I-4000J0D01*
G01X293219Y231999D02*
X307004D01*
X292932Y231099D02*
X307004D01*
X292367Y230199D02*
X307004D01*
X291303Y229299D02*
X307004D01*
X268783Y228399D02*
X307004D01*
X266721Y227499D02*
X307004D01*
X265821Y226599D02*
X307004D01*
X264921Y225699D02*
X307004D01*
X263678Y224799D02*
X307004D01*
X247931Y223899D02*
X307004D01*
X247031Y222999D02*
X307004D01*
X246131Y222099D02*
X307004D01*
X245231Y221199D02*
X307004D01*
X223100Y220299D02*
X307004D01*
X222200Y219399D02*
X307004D01*
X221300Y218499D02*
X307004D01*
X219866Y217599D02*
X307004D01*
X201569Y216699D02*
X307004D01*
X200669Y215799D02*
X307004D01*
X233397Y214899D02*
X307004D01*
X233726Y213999D02*
X307004D01*
X233731Y213099D02*
X307004D01*
X233731Y212199D02*
X307004D01*
X233839Y211299D02*
X307004D01*
X300200Y210399D02*
X307004D01*
X300764Y209499D02*
X307004D01*
X300860Y208599D02*
X307004D01*
X300860Y207699D02*
X307004D01*
X300659Y206799D02*
X307004D01*
X300715Y205899D02*
X307004D01*
X300860Y204999D02*
X307004D01*
X300860Y204099D02*
X307004D01*
X300719Y203199D02*
X307004D01*
X300654Y202299D02*
X307004D01*
X300860Y201399D02*
X307004D01*
X300860Y200499D02*
X307004D01*
X300768Y199599D02*
X307004D01*
X300211Y198699D02*
X307004D01*
X297787Y197799D02*
X307004D01*
X296887Y196899D02*
X307004D01*
X295987Y195999D02*
X307004D01*
X295087Y195099D02*
X307004D01*
X294187Y194199D02*
X307004D01*
X293290Y193299D02*
X307004D01*
X293175Y192399D02*
X307004D01*
X293175Y191499D02*
X307004D01*
X293175Y190599D02*
X307004D01*
X301253Y189699D02*
X307004D01*
X302259Y188799D02*
X307004D01*
X302748Y187899D02*
X307004D01*
X302945Y186999D02*
X307004D01*
X302902Y186099D02*
X307004D01*
X302609Y185199D02*
X307004D01*
X301979Y184299D02*
X307004D01*
X300512Y183399D02*
X307004D01*
X293175Y182499D02*
X307004D01*
X293175Y181599D02*
X307004D01*
X293175Y180699D02*
X307004D01*
X293175Y179799D02*
X307004D01*
X293175Y178899D02*
X307004D01*
X293175Y177999D02*
X307004D01*
X293175Y177099D02*
X307004D01*
X293175Y176199D02*
X307004D01*
X293175Y175299D02*
X307004D01*
X293175Y174399D02*
X307004D01*
X293175Y173499D02*
X307004D01*
X293175Y172599D02*
X307004D01*
X293175Y171699D02*
X307004D01*
X293175Y170799D02*
X307004D01*
X293175Y169899D02*
X307004D01*
X293014Y168999D02*
X307004D01*
X292371Y168099D02*
X307004D01*
X291471Y167199D02*
X307004D01*
X290571Y166299D02*
X307004D01*
X289671Y165399D02*
X307004D01*
X288771Y164499D02*
X307004D01*
X287871Y163599D02*
X307004D01*
X286971Y162699D02*
X307004D01*
X286071Y161799D02*
X307004D01*
X285464Y160899D02*
X307004D01*
X286408Y159999D02*
X307004D01*
X286930Y159099D02*
X307004D01*
X287055Y158199D02*
X307004D01*
X286847Y157299D02*
X307004D01*
X286214Y156399D02*
X307004D01*
X301478Y155499D02*
X307004D01*
X302363Y154599D02*
X307004D01*
X302797Y153699D02*
X307004D01*
X302954Y152799D02*
X307004D01*
X302873Y151899D02*
X307004D01*
X302534Y150999D02*
X307004D01*
X301830Y150099D02*
X307004D01*
X299748Y149199D02*
X307004D01*
X289576Y148299D02*
X307004D01*
X290895Y147399D02*
X307004D01*
X291325Y146499D02*
X307004D01*
X291383Y145599D02*
X307004D01*
X301633Y144699D02*
X307004D01*
X302964Y143799D02*
X307004D01*
X303396Y142899D02*
X307004D01*
X303455Y141999D02*
X307004D01*
X303171Y141099D02*
X307004D01*
X302872Y140199D02*
X307004D01*
X303246Y139299D02*
X307004D01*
X303472Y138399D02*
X307004D01*
X303472Y137499D02*
X307004D01*
X303314Y136599D02*
X307004D01*
X302561Y135699D02*
X307004D01*
X286547Y134799D02*
X307004D01*
X286547Y133899D02*
X307004D01*
X286547Y132999D02*
X307004D01*
X286547Y132099D02*
X307004D01*
X286547Y131199D02*
X307004D01*
X286547Y130299D02*
X307004D01*
X286547Y129399D02*
X307004D01*
X302474Y128499D02*
X307004D01*
X303291Y127599D02*
X307004D01*
X303472Y126699D02*
X307004D01*
X303472Y125799D02*
X307004D01*
X303273Y124899D02*
X307004D01*
X302404Y123999D02*
X307004D01*
X272965Y123099D02*
X307004D01*
X272721Y122199D02*
X307004D01*
X272216Y121299D02*
X307004D01*
X271282Y120399D02*
X307004D01*
X262045Y119499D02*
X307004D01*
X264657Y118599D02*
X307004D01*
X269250Y117699D02*
X307004D01*
X270160Y116799D02*
X307004D01*
X271060Y115899D02*
X307004D01*
X271800Y114999D02*
X307004D01*
X294253Y114099D02*
X307004D01*
X294795Y113199D02*
X307004D01*
X294900Y112299D02*
X307004D01*
X294900Y111399D02*
X307004D01*
X294900Y110499D02*
X307004D01*
X294900Y109599D02*
X307004D01*
X294819Y108699D02*
X307004D01*
X294403Y107799D02*
X307004D01*
X294761Y106899D02*
X307003D01*
X293289Y232899D02*
X307002D01*
X294900Y105999D02*
X306912D01*
X293153Y233799D02*
X306906D01*
X294900Y105099D02*
X306665D01*
X292788Y234699D02*
X306653D01*
X294900Y104199D02*
X306237D01*
X292105Y235599D02*
X306217D01*
X294900Y103299D02*
X305572D01*
X290703Y236499D02*
X305542D01*
X294844Y102399D02*
X304517D01*
X104038Y237399D02*
X304466D01*
X291097Y144699D02*
X300311D01*
X298404Y123999D02*
X299539D01*
X298474Y128499D02*
X299469D01*
X298561Y135699D02*
X299383D01*
X290267Y143799D02*
X298980D01*
X286936Y141099D02*
X298773D01*
X298310Y140199D02*
X298566D01*
X288735Y142899D02*
X298548D01*
X287835Y141999D02*
X298489D01*
X284984Y149199D02*
X296866D01*
X293175Y183399D02*
X296102D01*
X289871Y140199D02*
X295648D01*
X289980Y123999D02*
X295539D01*
X290050Y128499D02*
X295469D01*
X290136Y135699D02*
X295383D01*
X293175Y189699D02*
X295361D01*
X286714Y155499D02*
X295136D01*
X287066Y150099D02*
X294784D01*
X293175Y184299D02*
X294635D01*
X293175Y188799D02*
X294355D01*
X287599Y154599D02*
X294252D01*
X287771Y150999D02*
X294080D01*
X293449Y185199D02*
X293901D01*
X288033Y153699D02*
X293817D01*
X288109Y151899D02*
X293741D01*
X288190Y152799D02*
X293660D01*
X288800Y210399D02*
X293366D01*
X289364Y209499D02*
X292166D01*
X289460Y208599D02*
X291266D01*
X289560Y207699D02*
X290366D01*
X270156Y148299D02*
X288224D01*
X280703Y236499D02*
X287880D01*
X281303Y229299D02*
X287279D01*
X285980Y123999D02*
X287115D01*
X270156Y147399D02*
X286905D01*
X282105Y235599D02*
X286477D01*
X270156Y146499D02*
X286475D01*
X282367Y230199D02*
X286215D01*
X282788Y234699D02*
X285795D01*
X270156Y145599D02*
X285778D01*
X282932Y231099D02*
X285651D01*
X283153Y233799D02*
X285430D01*
X283219Y231999D02*
X285364D01*
X283289Y232899D02*
X285294D01*
X270156Y144699D02*
X284878D01*
X270156Y143799D02*
X283978D01*
X275356Y114099D02*
X283688D01*
X277520Y210399D02*
X283620D01*
X275506Y107799D02*
X283538D01*
X275863Y106899D02*
X283180D01*
X275897Y113199D02*
X283146D01*
X275921Y108699D02*
X283122D01*
X272997Y123999D02*
X283115D01*
X275946Y102399D02*
X283097D01*
X270156Y142899D02*
X283080D01*
X276002Y112299D02*
X283041D01*
X276002Y111399D02*
X283041D01*
X276002Y110499D02*
X283041D01*
X276002Y109599D02*
X283041D01*
X276002Y105999D02*
X283041D01*
X276002Y105099D02*
X283041D01*
X276002Y104199D02*
X283041D01*
X276002Y103299D02*
X283041D01*
X270156Y141999D02*
X282601D01*
X270156Y141099D02*
X282547D01*
X270156Y140199D02*
X282547D01*
X272468Y135699D02*
X282547D01*
X272853Y134799D02*
X282547D01*
X273004Y133899D02*
X282547D01*
X272949Y132999D02*
X282547D01*
X272679Y132099D02*
X282547D01*
X272139Y131199D02*
X282547D01*
X271130Y130299D02*
X282547D01*
X268663Y129399D02*
X282547D01*
X266508Y128499D02*
X282547D01*
X270007Y139299D02*
X282273D01*
X272822Y124899D02*
X282246D01*
X269860Y127599D02*
X282228D01*
X271755Y136599D02*
X282205D01*
X269395Y138399D02*
X282047D01*
X270232Y137499D02*
X282047D01*
X271645Y126699D02*
X282047D01*
X272408Y125799D02*
X282047D01*
X270156Y149199D02*
X280134D01*
X270156Y150099D02*
X278052D01*
X270703Y236499D02*
X277880D01*
X270156Y150999D02*
X277348D01*
X271303Y229299D02*
X277279D01*
X270156Y153699D02*
X277085D01*
X270156Y151899D02*
X277009D01*
X270156Y152799D02*
X276928D01*
X272105Y235599D02*
X276477D01*
X272367Y230199D02*
X276215D01*
X272788Y234699D02*
X275795D01*
X272932Y231099D02*
X275651D01*
X273153Y233799D02*
X275430D01*
X273219Y231999D02*
X275364D01*
X273289Y232899D02*
X275294D01*
X270156Y154599D02*
X274997D01*
X273520Y210399D02*
X274159D01*
X270156Y155499D02*
X274155D01*
X270744Y156399D02*
X274012D01*
X271652Y157299D02*
X273810D01*
X254225Y210399D02*
X270159D01*
X256141Y209499D02*
X269472D01*
X257346Y207699D02*
X269341D01*
X256922Y208599D02*
X269339D01*
X257529Y206799D02*
X268987D01*
X265605Y127599D02*
X268159D01*
X260703Y236499D02*
X267880D01*
X262945Y120399D02*
X266736D01*
X262105Y235599D02*
X266477D01*
X265080Y126699D02*
X266345D01*
X262788Y234699D02*
X265795D01*
X263153Y233799D02*
X265430D01*
X263289Y232899D02*
X265199D01*
X263845Y121299D02*
X265191D01*
X263219Y231999D02*
X264833D01*
X262932Y231099D02*
X264468D01*
X262367Y230199D02*
X264047D01*
X257504Y205899D02*
X263247D01*
X261391Y229299D02*
X263147D01*
X253445Y118599D02*
X262962D01*
X257268Y204999D02*
X262347D01*
X253168Y117699D02*
X261774D01*
X256774Y204099D02*
X261447D01*
X252569Y114999D02*
X261392D01*
X253169Y116799D02*
X261371D01*
X253029Y115899D02*
X261334D01*
X256012Y203199D02*
X260547D01*
X250703Y236499D02*
X257880D01*
X252105Y235599D02*
X256477D01*
X252788Y234699D02*
X255795D01*
X253153Y233799D02*
X255430D01*
X253289Y232899D02*
X255199D01*
X253219Y231999D02*
X254833D01*
X252932Y231099D02*
X254468D01*
X252569Y114099D02*
X253865D01*
X237909Y210399D02*
X252861D01*
X244541Y203199D02*
X251075D01*
X238266Y209499D02*
X250945D01*
X238172Y204099D02*
X250313D01*
X238273Y208599D02*
X250165D01*
X238276Y204999D02*
X249819D01*
X238240Y207699D02*
X249741D01*
X238197Y205899D02*
X249582D01*
X238276Y206799D02*
X249558D01*
X240703Y236499D02*
X247880D01*
X242105Y235599D02*
X246477D01*
X242788Y234699D02*
X245795D01*
X243153Y233799D02*
X245430D01*
X243219Y231999D02*
X245364D01*
X243289Y232899D02*
X245294D01*
X242932Y231099D02*
X244947D01*
X242367Y230199D02*
X244047D01*
X241303Y229299D02*
X243147D01*
X238783Y228399D02*
X242247D01*
X238434Y227499D02*
X241347D01*
X238276Y203199D02*
X240904D01*
X238204Y202299D02*
X240316D01*
X238301Y201399D02*
X240185D01*
X230703Y236499D02*
X237880D01*
X232105Y235599D02*
X236477D01*
X232788Y234699D02*
X235795D01*
X233153Y233799D02*
X235430D01*
X233289Y232899D02*
X235199D01*
X233219Y231999D02*
X234833D01*
X232932Y231099D02*
X234468D01*
X232367Y230199D02*
X234047D01*
X231660Y229299D02*
X233147D01*
X220703Y236499D02*
X227880D01*
X222105Y235599D02*
X226477D01*
X222788Y234699D02*
X225795D01*
X223153Y233799D02*
X225430D01*
X223289Y232899D02*
X225199D01*
X223219Y231999D02*
X224833D01*
X222932Y231099D02*
X224468D01*
X223187Y230199D02*
X223863D01*
X199394Y214899D02*
X218055D01*
X210703Y236499D02*
X217880D01*
X199384Y213999D02*
X217726D01*
X204979Y213099D02*
X217720D01*
X205879Y212199D02*
X217720D01*
X206779Y211299D02*
X217612D01*
X212105Y235599D02*
X216477D01*
X212788Y234699D02*
X215795D01*
X213153Y233799D02*
X215430D01*
X213289Y232899D02*
X215199D01*
X213219Y231999D02*
X214833D01*
X212932Y231099D02*
X214468D01*
X212367Y230199D02*
X214047D01*
X207679Y210399D02*
X213543D01*
X210379Y207699D02*
X213212D01*
X208579Y209499D02*
X213186D01*
X209479Y208599D02*
X213179D01*
X211415Y229299D02*
X213147D01*
X200703Y236499D02*
X207880D01*
X202105Y235599D02*
X206477D01*
X202788Y234699D02*
X205795D01*
X203153Y233799D02*
X205430D01*
X203289Y232899D02*
X205199D01*
X203219Y231999D02*
X204833D01*
X202932Y231099D02*
X204468D01*
X202911Y230199D02*
X204039D01*
X190703Y236499D02*
X197880D01*
X192105Y235599D02*
X196477D01*
X192788Y234699D02*
X195795D01*
X193153Y233799D02*
X195430D01*
X193219Y231999D02*
X195364D01*
X193289Y232899D02*
X195294D01*
X192932Y231099D02*
X194947D01*
X192367Y230199D02*
X194047D01*
X191349Y229299D02*
X193147D01*
X180703Y236499D02*
X187880D01*
X182105Y235599D02*
X186477D01*
X182788Y234699D02*
X185795D01*
X183153Y233799D02*
X185430D01*
X183289Y232899D02*
X185199D01*
X183219Y231999D02*
X184833D01*
X182932Y231099D02*
X184468D01*
X182667Y230199D02*
X184047D01*
X170703Y236499D02*
X177880D01*
X172105Y235599D02*
X176477D01*
X172788Y234699D02*
X175795D01*
X173153Y233799D02*
X175430D01*
X173289Y232899D02*
X175199D01*
X173219Y231999D02*
X174833D01*
X172932Y231099D02*
X174468D01*
X172367Y230199D02*
X174047D01*
X171424Y229299D02*
X173147D01*
X160703Y236499D02*
X167880D01*
X162105Y235599D02*
X166477D01*
X162788Y234699D02*
X165795D01*
X163153Y233799D02*
X165430D01*
X163289Y232899D02*
X165199D01*
X163219Y231999D02*
X164833D01*
X162932Y231099D02*
X164468D01*
X162748Y230199D02*
X164047D01*
X150703Y236499D02*
X157880D01*
X152105Y235599D02*
X156477D01*
X152788Y234699D02*
X155795D01*
X153153Y233799D02*
X155430D01*
X153289Y232899D02*
X155199D01*
X153219Y231999D02*
X154833D01*
X152932Y231099D02*
X154468D01*
X152672Y230199D02*
X154047D01*
X140703Y236499D02*
X147880D01*
X142105Y235599D02*
X146477D01*
X142788Y234699D02*
X145795D01*
X143153Y233799D02*
X145430D01*
X143289Y232899D02*
X145199D01*
X143219Y231999D02*
X144833D01*
X142932Y231099D02*
X144468D01*
X142367Y230199D02*
X144047D01*
X141303Y229299D02*
X143147D01*
X138783Y228399D02*
X142247D01*
X136721Y227499D02*
X141347D01*
X135821Y226599D02*
X140447D01*
X134921Y225699D02*
X139547D01*
X134021Y224799D02*
X138647D01*
X130703Y236499D02*
X137880D01*
X133121Y223899D02*
X137747D01*
X132221Y222999D02*
X136847D01*
X132105Y235599D02*
X136477D01*
X131321Y222099D02*
X135947D01*
X132788Y234699D02*
X135795D01*
X133153Y233799D02*
X135430D01*
X133289Y232899D02*
X135199D01*
X130421Y221199D02*
X135047D01*
X133219Y231999D02*
X134833D01*
X132932Y231099D02*
X134468D01*
X129521Y220299D02*
X134147D01*
X132367Y230199D02*
X134047D01*
X128621Y219399D02*
X133247D01*
X131303Y229299D02*
X133147D01*
X127721Y218499D02*
X132347D01*
X128783Y228399D02*
X132247D01*
X126821Y217599D02*
X131447D01*
X126721Y227499D02*
X131347D01*
X125921Y216699D02*
X130547D01*
X125821Y226599D02*
X130447D01*
X125262Y215799D02*
X129647D01*
X124921Y225699D02*
X129547D01*
X125262Y214899D02*
X128747D01*
X124021Y224799D02*
X128647D01*
X120703Y236499D02*
X127880D01*
X125262Y213999D02*
X127847D01*
X123771Y223899D02*
X127747D01*
X125262Y213099D02*
X126977D01*
X123771Y222999D02*
X126847D01*
X125262Y212199D02*
X126619D01*
X116326Y166299D02*
X126615D01*
X125262Y211299D02*
X126605D01*
X125262Y210399D02*
X126605D01*
X125262Y209499D02*
X126605D01*
X125262Y208599D02*
X126605D01*
X125262Y207699D02*
X126605D01*
X125262Y206799D02*
X126605D01*
X125262Y205899D02*
X126605D01*
X125262Y204999D02*
X126605D01*
X125262Y204099D02*
X126605D01*
X125262Y203199D02*
X126605D01*
X125262Y202299D02*
X126605D01*
X125262Y201399D02*
X126605D01*
X125262Y200499D02*
X126605D01*
X125262Y199599D02*
X126605D01*
X125262Y198699D02*
X126605D01*
X125262Y197799D02*
X126605D01*
X125262Y196899D02*
X126605D01*
X125262Y195999D02*
X126578D01*
X125262Y195099D02*
X126513D01*
X116326Y167199D02*
X126513D01*
X122105Y235599D02*
X126477D01*
X116326Y168099D02*
X126461D01*
X125385Y194199D02*
X126384D01*
X123771Y222099D02*
X125947D01*
X122788Y234699D02*
X125795D01*
X123153Y233799D02*
X125430D01*
X123289Y232899D02*
X125199D01*
X123771Y221199D02*
X125047D01*
X123219Y231999D02*
X124833D01*
X122932Y231099D02*
X124468D01*
X122367Y230199D02*
X124047D01*
X116326Y168999D02*
X123686D01*
X116326Y171699D02*
X123313D01*
X116326Y169899D02*
X123281D01*
X116326Y170799D02*
X123274D01*
X121303Y229299D02*
X123147D01*
X116326Y172599D02*
X122731D01*
X101500Y228399D02*
X122247D01*
X116326Y173499D02*
X121744D01*
X101500Y227499D02*
X121347D01*
X116326Y174399D02*
X120890D01*
X116326Y179799D02*
X120717D01*
X116326Y175299D02*
X120550D01*
X116326Y180699D02*
X120498D01*
X116326Y178899D02*
X120490D01*
X116326Y186999D02*
X120460D01*
X101500Y226599D02*
X120452D01*
X116326Y176199D02*
X120359D01*
X116326Y183399D02*
X120354D01*
X116326Y182499D02*
X120148D01*
X116326Y181599D02*
X120145D01*
X116326Y177999D02*
X120102D01*
X116326Y177099D02*
X120058D01*
X101500Y225699D02*
X120006D01*
X101500Y224799D02*
X119971D01*
X101500Y223899D02*
X119971D01*
X101500Y222999D02*
X119971D01*
X101500Y222099D02*
X119971D01*
X101500Y221199D02*
X119971D01*
X101500Y220299D02*
X119971D01*
X101500Y219399D02*
X119971D01*
X101500Y218499D02*
X119971D01*
X101500Y217599D02*
X119971D01*
X101500Y216699D02*
X119971D01*
X101500Y215799D02*
X119971D01*
X101500Y214899D02*
X119971D01*
X101500Y213999D02*
X119971D01*
X101500Y213099D02*
X119971D01*
X101500Y212199D02*
X119971D01*
X101500Y211299D02*
X119971D01*
X101500Y210399D02*
X119971D01*
X101500Y209499D02*
X119971D01*
X101500Y208599D02*
X119922D01*
X116326Y186099D02*
X119915D01*
X116326Y187899D02*
X119909D01*
X116326Y184299D02*
X119866D01*
X116326Y185199D02*
X119722D01*
X116326Y188799D02*
X119019D01*
X116326Y189699D02*
X118599D01*
X101500Y201399D02*
X118571D01*
X101500Y200499D02*
X118571D01*
X101500Y199599D02*
X118571D01*
X101500Y198699D02*
X118571D01*
X101500Y197799D02*
X118571D01*
X101500Y196899D02*
X118571D01*
X101506Y195999D02*
X118571D01*
X116326Y195099D02*
X118571D01*
X116326Y194199D02*
X118571D01*
X116326Y193299D02*
X118571D01*
X116326Y192399D02*
X118571D01*
X116326Y191499D02*
X118571D01*
X116326Y190599D02*
X118571D01*
X101500Y202299D02*
X118207D01*
X101500Y207699D02*
X118004D01*
X102962Y236499D02*
X117880D01*
X101500Y203199D02*
X117784D01*
X101500Y204099D02*
X117723D01*
X101500Y206799D02*
X117354D01*
X101500Y204999D02*
X117294D01*
X101500Y229299D02*
X117279D01*
X101500Y205899D02*
X117156D01*
X102287Y235599D02*
X116477D01*
X101500Y230199D02*
X116215D01*
X101851Y234699D02*
X115795D01*
X101500Y231099D02*
X115651D01*
X101598Y233799D02*
X115430D01*
X101500Y231999D02*
X115364D01*
X101502Y232899D02*
X115294D01*
X245683Y107799D02*
X253715D01*
X246040Y106899D02*
X253358D01*
X246102Y108699D02*
X253299D01*
X246124Y102399D02*
X253274D01*
X251266Y111399D02*
X253219D01*
X250366Y110499D02*
X253219D01*
X249466Y109599D02*
X253219D01*
X246179Y105999D02*
X253219D01*
X246179Y105099D02*
X253219D01*
X246179Y104199D02*
X253219D01*
X246179Y103299D02*
X253219D01*
X252150Y112299D02*
X253215D01*
X224527Y114999D02*
X244497D01*
X224871Y115899D02*
X244308D01*
X225072Y116799D02*
X244102D01*
X224919Y114099D02*
X234968D01*
X233204Y107799D02*
X234817D01*
X233291Y106899D02*
X234460D01*
X224996Y113199D02*
X234426D01*
X232898Y108699D02*
X234402D01*
X212409Y102399D02*
X234377D01*
X224733Y112299D02*
X234321D01*
X223952Y111399D02*
X234321D01*
X231172Y110499D02*
X234321D01*
X232305Y109599D02*
X234321D01*
X233172Y105999D02*
X234321D01*
X232827Y105099D02*
X234321D01*
X232177Y104199D02*
X234321D01*
X230883Y103299D02*
X234321D01*
X220883D02*
X227700D01*
X221627Y110499D02*
X227410D01*
X222177Y104199D02*
X226405D01*
X222305Y109599D02*
X226278D01*
X222827Y105099D02*
X225755D01*
X222898Y108699D02*
X225685D01*
X223172Y105999D02*
X225411D01*
X223204Y107799D02*
X225378D01*
X223291Y106899D02*
X225292D01*
X213309Y103299D02*
X217700D01*
X214209Y104199D02*
X216405D01*
X215118Y105099D02*
X215701D01*
X255370Y142899D02*
X265656D01*
X234901Y141999D02*
X265656D01*
X235801Y141099D02*
X265635D01*
X254958Y140199D02*
X264819D01*
X257383Y133899D02*
X264788D01*
X255553Y132999D02*
X264578D01*
X237665Y132099D02*
X264212D01*
X256715Y139299D02*
X263919D01*
X238177Y131199D02*
X263826D01*
X257093Y143799D02*
X263073D01*
X238291Y130299D02*
X262931D01*
X238068Y129399D02*
X262031D01*
X237371Y128499D02*
X261131D01*
X236049Y127599D02*
X260231D01*
X237198Y126699D02*
X259331D01*
X238005Y125799D02*
X258431D01*
X238280Y124899D02*
X257531D01*
X238405Y123999D02*
X256631D01*
X236701Y140199D02*
X252129D01*
X234001Y142899D02*
X251717D01*
X236009Y132999D02*
X251534D01*
X237478Y139299D02*
X250728D01*
X236054Y133899D02*
X250469D01*
X237695Y138399D02*
X250046D01*
X233175Y143799D02*
X249994D01*
X237712Y134799D02*
X249903D01*
X238042Y137499D02*
X249681D01*
X238194Y135699D02*
X249616D01*
X238287Y136599D02*
X249546D01*
X228320Y123999D02*
X233075D01*
X228020Y124899D02*
X232839D01*
X227358Y125799D02*
X231939D01*
X226958Y126699D02*
X231039D01*
X227847Y127599D02*
X230139D01*
X228189Y128499D02*
X229303D01*
X227436Y132099D02*
X229005D01*
X226918Y131199D02*
X229005D01*
X227802Y130299D02*
X229005D01*
X228050Y132999D02*
X228961D01*
X269456Y162699D02*
X270777D01*
X234941Y161799D02*
X270155D01*
X234339Y160899D02*
X268880D01*
X255403Y159999D02*
X267980D01*
X256547Y159099D02*
X267080D01*
X257144Y158199D02*
X266191D01*
X265464Y162699D02*
X265964D01*
X257454Y157299D02*
X265726D01*
X257543Y156399D02*
X265656D01*
X257427Y155499D02*
X265656D01*
X257085Y154599D02*
X265656D01*
X256440Y153699D02*
X265656D01*
X255160Y152799D02*
X265656D01*
X231048Y151899D02*
X265656D01*
X231948Y150999D02*
X265656D01*
X255199Y150099D02*
X265656D01*
X256897Y149199D02*
X265656D01*
X260032Y148299D02*
X263765D01*
X257474Y167199D02*
X262072D01*
X254912Y162699D02*
X261971D01*
X257540Y166299D02*
X261501D01*
X257191Y168099D02*
X261335D01*
X256341Y163599D02*
X261328D01*
X257401Y165399D02*
X261218D01*
X257031Y164499D02*
X261214D01*
X256720Y168999D02*
X260435D01*
X240272Y162699D02*
X252175D01*
X230148Y152799D02*
X251926D01*
X232848Y150099D02*
X251888D01*
X230813Y159999D02*
X251684D01*
X240636Y163599D02*
X250745D01*
X229237Y153699D02*
X250647D01*
X230807Y159099D02*
X250540D01*
X240652Y168999D02*
X250367D01*
X233748Y149199D02*
X250189D01*
X240655Y164499D02*
X250056D01*
X225481Y154599D02*
X250001D01*
X230807Y158199D02*
X249942D01*
X240655Y168099D02*
X249896D01*
X240586Y165399D02*
X249686D01*
X225426Y155499D02*
X249660D01*
X230600Y157299D02*
X249633D01*
X240537Y167199D02*
X249613D01*
X240161Y166299D02*
X249546D01*
X229701Y156399D02*
X249544D01*
X255998Y193299D02*
X288675D01*
X233731Y192399D02*
X288675D01*
X233515Y191499D02*
X288675D01*
X232332Y190599D02*
X288675D01*
X286489Y189699D02*
X288675D01*
X287495Y188799D02*
X288675D01*
X256845Y194199D02*
X287768D01*
X273520Y195099D02*
X286783D01*
X273841Y197799D02*
X286616D01*
X273909Y196899D02*
X286445D01*
X273888Y195999D02*
X286437D01*
X273920Y198699D02*
X283606D01*
X255887Y189699D02*
X278629D01*
X256786Y188799D02*
X277623D01*
X257275Y187899D02*
X277134D01*
X257340Y185199D02*
X277050D01*
X257527Y186099D02*
X276980D01*
X257507Y186999D02*
X276937D01*
X256911Y184299D02*
X274412D01*
X271879Y180699D02*
X274118D01*
X270291Y183399D02*
X274027D01*
X270666Y182499D02*
X274014D01*
X270979Y181599D02*
X274012D01*
X272779Y179799D02*
X274012D01*
X267042Y195099D02*
X269298D01*
X267366Y197799D02*
X268976D01*
X267412Y195999D02*
X268929D01*
X267433Y196899D02*
X268909D01*
X267442Y198699D02*
X268897D01*
X257234Y177999D02*
X268434D01*
X256712Y178899D02*
X268305D01*
X257492Y177099D02*
X267247D01*
X257535Y176199D02*
X266824D01*
X257382Y175299D02*
X266772D01*
X257306Y195099D02*
X262824D01*
X257469Y197799D02*
X262488D01*
X257517Y195999D02*
X262454D01*
X257519Y196899D02*
X262433D01*
X255742Y179799D02*
X262264D01*
X256121Y183399D02*
X262085D01*
X236206Y180699D02*
X261753D01*
X254118Y182499D02*
X261710D01*
X235306Y181599D02*
X261688D01*
X234406Y182499D02*
X252969D01*
X237106Y179799D02*
X251344D01*
X229594Y189699D02*
X251200D01*
X233784Y193299D02*
X251089D01*
X233506Y183399D02*
X250965D01*
X238006Y178899D02*
X250375D01*
X229594Y188799D02*
X250300D01*
X233889Y194199D02*
X250242D01*
X232606Y184299D02*
X250176D01*
X238906Y177999D02*
X249852D01*
X229594Y187899D02*
X249812D01*
X244428Y195099D02*
X249781D01*
X231706Y185199D02*
X249746D01*
X241606Y175299D02*
X249705D01*
X246508Y197799D02*
X249618D01*
X239806Y177099D02*
X249595D01*
X229906Y186999D02*
X249580D01*
X245097Y195999D02*
X249570D01*
X245608Y196899D02*
X249568D01*
X230806Y186099D02*
X249559D01*
X240706Y176199D02*
X249552D01*
X230364Y190599D02*
X230930D01*
X230807Y175299D02*
X234031D01*
X230951Y174399D02*
X233588D01*
X230807Y176199D02*
X233136D01*
X230711Y177099D02*
X232236D01*
X230817Y177999D02*
X231310D01*
X103987Y102399D02*
X201174D01*
X190883Y103299D02*
X197700D01*
X192177Y104199D02*
X196405D01*
X192827Y105099D02*
X194979D01*
X180883Y103299D02*
X187700D01*
X182177Y104199D02*
X186373D01*
X182835Y105099D02*
X183906D01*
X170883Y103299D02*
X177700D01*
X172177Y104199D02*
X176373D01*
X172835Y105099D02*
X173906D01*
X160883Y103299D02*
X167700D01*
X162177Y104199D02*
X166402D01*
X162830Y105099D02*
X163982D01*
X150883Y103299D02*
X157700D01*
X152177Y104199D02*
X156405D01*
X152827Y105099D02*
X154979D01*
X140883Y103299D02*
X147700D01*
X142177Y104199D02*
X146382D01*
X142833Y105099D02*
X143925D01*
X130883Y103299D02*
X137700D01*
X132177Y104199D02*
X136405D01*
X132827Y105099D02*
X135755D01*
X133172Y105999D02*
X135411D01*
X133291Y106899D02*
X135169D01*
X133204Y107799D02*
X134804D01*
X132435Y164499D02*
X134479D01*
X132166Y163599D02*
X134479D01*
X131563Y162699D02*
X134479D01*
X130165Y161799D02*
X134479D01*
X116326Y160899D02*
X134479D01*
X116326Y159999D02*
X134468D01*
X132898Y108699D02*
X134438D01*
X133072Y109599D02*
X133892D01*
X116326Y159099D02*
X133679D01*
X116326Y158199D02*
X132779D01*
X116326Y157299D02*
X131879D01*
X116326Y156399D02*
X130979D01*
X116326Y155499D02*
X130079D01*
X116326Y154599D02*
X129179D01*
X116326Y153699D02*
X128279D01*
X120883Y103299D02*
X127700D01*
X116326Y152799D02*
X127379D01*
X101633Y151899D02*
X126479D01*
X122177Y104199D02*
X126405D01*
X122827Y105099D02*
X125755D01*
X101500Y150999D02*
X125579D01*
X123172Y105999D02*
X125411D01*
X123291Y106899D02*
X125169D01*
X123204Y107799D02*
X124804D01*
X101500Y150099D02*
X124679D01*
X122898Y108699D02*
X124438D01*
X122355Y109599D02*
X123974D01*
X101500Y149199D02*
X123779D01*
X122201Y110499D02*
X123074D01*
X101500Y148299D02*
X122879D01*
X101500Y147399D02*
X121979D01*
X101500Y146499D02*
X121079D01*
X101500Y145599D02*
X120179D01*
X101500Y144699D02*
X119279D01*
X101500Y143799D02*
X118379D01*
X102932Y103299D02*
X117700D01*
X101500Y142899D02*
X117604D01*
X101500Y141999D02*
X117391D01*
X101500Y141099D02*
X117391D01*
X101500Y140199D02*
X117391D01*
X101500Y139299D02*
X117391D01*
X101500Y138399D02*
X117391D01*
X101500Y137499D02*
X117391D01*
X101500Y136599D02*
X117391D01*
X101500Y135699D02*
X117391D01*
X101500Y134799D02*
X117391D01*
X101500Y133899D02*
X117391D01*
X101500Y132999D02*
X117391D01*
X101500Y132099D02*
X117391D01*
X101500Y131199D02*
X117391D01*
X101500Y130299D02*
X117391D01*
X101500Y129399D02*
X117391D01*
X101500Y128499D02*
X117391D01*
X101500Y127599D02*
X117391D01*
X101500Y126699D02*
X117391D01*
X101500Y125799D02*
X117391D01*
X101500Y124899D02*
X117391D01*
X101500Y123999D02*
X117391D01*
X101500Y123099D02*
X117391D01*
X101500Y122199D02*
X117391D01*
X101500Y121299D02*
X117391D01*
X101500Y120399D02*
X117391D01*
X101500Y119499D02*
X117391D01*
X101500Y118599D02*
X117391D01*
X101500Y117699D02*
X117391D01*
X101500Y116799D02*
X117391D01*
X101500Y115899D02*
X117391D01*
X101500Y114999D02*
X117391D01*
X101500Y114099D02*
X117391D01*
X101500Y113199D02*
X117391D01*
X101500Y112299D02*
X117366D01*
X101500Y111399D02*
X116988D01*
X101500Y110499D02*
X116608D01*
X102267Y104199D02*
X116405D01*
X101500Y109599D02*
X116228D01*
X101839Y105099D02*
X115755D01*
X101500Y108699D02*
X115685D01*
X101592Y105999D02*
X115411D01*
X101500Y107799D02*
X115378D01*
X101501Y106899D02*
X115292D01*
X180970Y116799D02*
X215907D01*
X173948Y115899D02*
X215535D01*
X182701Y114999D02*
X214635D01*
X183767Y114099D02*
X213735D01*
X205748Y113199D02*
X212835D01*
X206648Y112299D02*
X211935D01*
X208603Y111399D02*
X209980D01*
X173574Y116799D02*
X178410D01*
X218952Y132999D02*
X220279D01*
X215857Y133899D02*
X219777D01*
X211416Y134799D02*
X218877D01*
X210265Y135699D02*
X217977D01*
X206169Y136599D02*
X217077D01*
X206915Y137499D02*
X216177D01*
X207304Y138399D02*
X215277D01*
X207328Y139299D02*
X214377D01*
X207000Y140199D02*
X213477D01*
X212316Y133899D02*
X213426D01*
X206056Y141099D02*
X212577D01*
X155887Y141999D02*
X211677D01*
X155887Y142899D02*
X210777D01*
X159969Y143799D02*
X209877D01*
X160438Y144699D02*
X208977D01*
X155880Y141099D02*
X200541D01*
X160368Y136599D02*
X200429D01*
X160480Y137499D02*
X199682D01*
X158963Y140199D02*
X199598D01*
X160475Y138399D02*
X199294D01*
X160188Y139299D02*
X199270D01*
X188093Y126699D02*
X192172D01*
X187751Y125799D02*
X191679D01*
X187138Y124899D02*
X191618D01*
X161053Y123999D02*
X191618D01*
X161953Y123099D02*
X191469D01*
X162853Y122199D02*
X191078D01*
X180537Y121299D02*
X191031D01*
X188992Y127599D02*
X190052D01*
X159733Y135699D02*
X189374D01*
X155880Y132099D02*
X189112D01*
X155880Y132999D02*
X188945D01*
X155880Y134799D02*
X188941D01*
X155880Y133899D02*
X188903D01*
X155880Y131199D02*
X187217D01*
X155880Y130299D02*
X186317D01*
X155880Y129399D02*
X185417D01*
X160487Y145599D02*
X185136D01*
X160455Y146499D02*
X183950D01*
X160153Y124899D02*
X183718D01*
X156553Y128499D02*
X183669D01*
X159253Y125799D02*
X183105D01*
X157453Y127599D02*
X183087D01*
X160050Y147399D02*
X183050D01*
X158353Y126699D02*
X182928D01*
X159987Y148299D02*
X182150D01*
X160020Y149199D02*
X181250D01*
X160859Y150099D02*
X180350D01*
X169485Y150999D02*
X179450D01*
X163753Y121299D02*
X178843D01*
X170229Y151899D02*
X178550D01*
X170382Y152799D02*
X177650D01*
X170382Y153699D02*
X176750D01*
X170152Y154599D02*
X175850D01*
X169186Y155499D02*
X174950D01*
X165882Y156399D02*
X174050D01*
X165882Y157299D02*
X173150D01*
X165882Y158199D02*
X172250D01*
X169767Y159099D02*
X171350D01*
X166186Y155499D02*
X166578D01*
X165485Y150999D02*
X166280D01*
X161784D02*
X162278D01*
X155983Y140199D02*
X156997D01*
X209374Y159999D02*
X216974D01*
X209927Y159099D02*
X216972D01*
X210827Y158199D02*
X216972D01*
X211727Y157299D02*
X216972D01*
X210097Y160899D02*
X213448D01*
X210207Y163599D02*
X212909D01*
X210345Y161799D02*
X212845D01*
X210346Y162699D02*
X212768D01*
X158997Y172599D02*
X161893D01*
X159178Y171699D02*
X161882D01*
X159178Y166299D02*
X161882D01*
X159178Y165399D02*
X161882D01*
X159178Y164499D02*
X161882D01*
X159178Y163599D02*
X161882D01*
X156063Y158199D02*
X161882D01*
X155163Y157299D02*
X161882D01*
X154263Y156399D02*
X161882D01*
X156963Y159099D02*
X161879D01*
X159178Y170799D02*
X161868D01*
X153363Y155499D02*
X161853D01*
X159178Y167199D02*
X161794D01*
X159178Y162699D02*
X161751D01*
X158256Y173499D02*
X161657D01*
X157863Y159999D02*
X161457D01*
X159178Y169899D02*
X161441D01*
X159178Y168099D02*
X161407D01*
X159154Y161799D02*
X161399D01*
X159178Y168999D02*
X161382D01*
X158750Y160899D02*
X161382D01*
X152463Y154599D02*
X159702D01*
X151563Y153699D02*
X158802D01*
X147823Y120399D02*
X158629D01*
X146923Y121299D02*
X158379D01*
X154891Y152799D02*
X157902D01*
X146023Y122199D02*
X157479D01*
X156046Y151899D02*
X157002D01*
X145101Y123099D02*
X156579D01*
X133791Y123999D02*
X155679D01*
X133791Y124899D02*
X154779D01*
X133791Y125799D02*
X153879D01*
X150663Y152799D02*
X153109D01*
X133791Y126699D02*
X152979D01*
X133791Y127599D02*
X152250D01*
X146163Y148299D02*
X152100D01*
X140763Y142899D02*
X152087D01*
X139863Y141999D02*
X152087D01*
X138963Y141099D02*
X152080D01*
X138063Y140199D02*
X152080D01*
X133791Y134799D02*
X152080D01*
X133791Y133899D02*
X152080D01*
X133791Y132999D02*
X152080D01*
X133791Y132099D02*
X152080D01*
X133791Y131199D02*
X152080D01*
X133791Y130299D02*
X152080D01*
X133791Y129399D02*
X152080D01*
X133791Y128499D02*
X152080D01*
X133791Y135699D02*
X152076D01*
X141663Y143799D02*
X152000D01*
X149763Y151899D02*
X151953D01*
X145263Y147399D02*
X151932D01*
X147063Y149199D02*
X151843D01*
X137163Y139299D02*
X151772D01*
X134463Y136599D02*
X151592D01*
X148863Y150999D02*
X151558D01*
X142563Y144699D02*
X151537D01*
X147963Y150099D02*
X151526D01*
X144363Y146499D02*
X151519D01*
X143463Y145599D02*
X151487D01*
X136263Y138399D02*
X151485D01*
X135363Y137499D02*
X151480D01*
X195727Y157299D02*
X205780D01*
X177906Y158199D02*
X205453D01*
X177006Y159099D02*
X204553D01*
X176106Y159999D02*
X203653D01*
X175206Y160899D02*
X202753D01*
X174306Y161799D02*
X201853D01*
X173406Y162699D02*
X200953D01*
X172506Y163599D02*
X200053D01*
X186006Y150099D02*
X195773D01*
X184206Y151899D02*
X195566D01*
X185106Y150999D02*
X195506D01*
X183306Y152799D02*
X193637D01*
X178806Y157299D02*
X193077D01*
X182406Y153699D02*
X192387D01*
X179706Y156399D02*
X192220D01*
X181506Y154599D02*
X191970D01*
X180606Y155499D02*
X191923D01*
X171606Y164499D02*
X176524D01*
X170706Y165399D02*
X175615D01*
X169900Y166299D02*
X174715D01*
X177389Y168999D02*
X212666D01*
X176489Y169899D02*
X211794D01*
X175037Y170799D02*
X211007D01*
X209967Y171699D02*
X210632D01*
X204527Y164499D02*
X205789D01*
X178289Y168099D02*
X205772D01*
X169882Y171699D02*
X205680D01*
X203627Y165399D02*
X205402D01*
X171337Y174399D02*
X205394D01*
X201827Y167199D02*
X205374D01*
X202727Y166299D02*
X205346D01*
X169882Y172599D02*
X205332D01*
X170437Y173499D02*
X205316D01*
X172277Y175299D02*
X205241D01*
X211270Y178899D02*
X230362D01*
X208758Y179799D02*
X229536D01*
X193002Y180699D02*
X228636D01*
X192664Y181599D02*
X227736D01*
X192416Y182499D02*
X226836D01*
X192416Y183399D02*
X225936D01*
X192416Y184299D02*
X225036D01*
X192416Y185199D02*
X224174D01*
X192416Y186099D02*
X223836D01*
X211383Y189699D02*
X223826D01*
X210344Y188799D02*
X223826D01*
X208596Y187899D02*
X223826D01*
X200192Y186999D02*
X223826D01*
X222490Y190599D02*
X223056D01*
X220521D02*
X221088D01*
X211746D02*
X219119D01*
X211752Y191499D02*
X217936D01*
X214964Y194199D02*
X217720D01*
X214064Y193299D02*
X217720D01*
X211927Y192399D02*
X217720D01*
X212185Y177999D02*
X217671D01*
X213085Y177099D02*
X217075D01*
X213985Y176199D02*
X216980D01*
X214633Y175299D02*
X216980D01*
X214900Y174399D02*
X216836D01*
X193018Y179799D02*
X206875D01*
X193038Y186999D02*
X194701D01*
X185330Y194199D02*
X191806D01*
X185330Y193299D02*
X191806D01*
X185330Y192399D02*
X191806D01*
X185330Y191499D02*
X191806D01*
X185876Y195099D02*
X191781D01*
X185581Y190599D02*
X191264D01*
X186581Y195999D02*
X190843D01*
X186341Y200499D02*
X190495D01*
X186797Y196899D02*
X190408D01*
X186481Y189699D02*
X190364D01*
X186743Y199599D02*
X190337D01*
X186800Y198699D02*
X190336D01*
X186800Y197799D02*
X190336D01*
X185094Y201399D02*
X189479D01*
X187381Y188799D02*
X189464D01*
X177850Y202299D02*
X188578D01*
X188373Y187899D02*
X188535D01*
X177850Y203199D02*
X187678D01*
X181871Y204099D02*
X185638D01*
X182420Y204999D02*
X185094D01*
X182824Y205899D02*
X184949D01*
X177900Y201399D02*
X181766D01*
X178860Y200499D02*
X180519D01*
X179323Y199599D02*
X180056D01*
X181666Y185199D02*
X184615D01*
X182085Y184299D02*
X184615D01*
X182183Y183399D02*
X184615D01*
X181943Y182499D02*
X184615D01*
X181937Y186099D02*
X184602D01*
X181211Y181599D02*
X184367D01*
X166241Y180699D02*
X184029D01*
X166241Y179799D02*
X184013D01*
X182770Y186999D02*
X183807D01*
X166241Y194199D02*
X181530D01*
X166241Y193299D02*
X181530D01*
X178396Y195099D02*
X180984D01*
X179100Y195999D02*
X180279D01*
X166241Y181599D02*
X178169D01*
X166241Y185199D02*
X177714D01*
X166241Y192399D02*
X177673D01*
X166241Y186099D02*
X177443D01*
X166241Y182499D02*
X177437D01*
X168498Y211299D02*
X177314D01*
X166241Y184299D02*
X177295D01*
X166241Y183399D02*
X177197D01*
X166241Y191499D02*
X176684D01*
X166241Y186999D02*
X176609D01*
X167598Y210399D02*
X176429D01*
X166241Y190599D02*
X176350D01*
X166241Y187899D02*
X176333D01*
X166241Y189699D02*
X176320D01*
X166241Y188799D02*
X176320D01*
X166698Y209499D02*
X175529D01*
X166241Y208599D02*
X174629D01*
X166241Y207699D02*
X174108D01*
X166241Y206799D02*
X174050D01*
X166241Y205899D02*
X174050D01*
X166241Y204999D02*
X174050D01*
X166241Y204099D02*
X174050D01*
X166241Y203199D02*
X174050D01*
X166241Y202299D02*
X174050D01*
X166241Y201399D02*
X173999D01*
X166241Y195099D02*
X173503D01*
X166241Y200499D02*
X173039D01*
X166241Y195999D02*
X172799D01*
X166241Y199599D02*
X172636D01*
X166241Y196899D02*
X172582D01*
X166241Y198699D02*
X172579D01*
X166241Y197799D02*
X172579D01*
X166220Y178899D02*
X170194D01*
X165827Y177999D02*
X169280D01*
X165122Y177099D02*
X168380D01*
X165829Y176199D02*
X167480D01*
X181196Y213999D02*
X189200D01*
X180296Y213099D02*
X187883D01*
X179917Y212199D02*
X185891D01*
X149058Y207699D02*
X150670D01*
X148158Y206799D02*
X150670D01*
X147258Y205899D02*
X150670D01*
X146358Y204999D02*
X150670D01*
X146153Y204099D02*
X150670D01*
X146153Y203199D02*
X150670D01*
X146153Y202299D02*
X150670D01*
X146153Y201399D02*
X150670D01*
X146153Y200499D02*
X150670D01*
X146153Y199599D02*
X150670D01*
X146153Y198699D02*
X150670D01*
X146153Y197799D02*
X150670D01*
X150102Y208599D02*
X150239D01*
X156972Y225699D02*
X159442D01*
X155783Y224799D02*
X158778D01*
X147081Y223899D02*
X157878D01*
X146181Y222999D02*
X156978D01*
X145281Y222099D02*
X156078D01*
X144381Y221199D02*
X155178D01*
X143481Y220299D02*
X154278D01*
X142581Y219399D02*
X153378D01*
X141681Y218499D02*
X152478D01*
X140781Y217599D02*
X151578D01*
X139881Y216699D02*
X150678D01*
X138981Y215799D02*
X149778D01*
X138081Y214899D02*
X148878D01*
X137181Y213999D02*
X147978D01*
X136281Y213099D02*
X147078D01*
X135381Y212199D02*
X146178D01*
X134481Y211299D02*
X145278D01*
X134342Y210399D02*
X144378D01*
X134342Y209499D02*
X143478D01*
X134342Y208599D02*
X142578D01*
X134342Y207699D02*
X141678D01*
X134342Y206799D02*
X140796D01*
X134342Y205899D02*
X140406D01*
X134342Y204999D02*
X140385D01*
X134342Y204099D02*
X140385D01*
X134342Y203199D02*
X140385D01*
X134342Y202299D02*
X140385D01*
X134342Y201399D02*
X140385D01*
X134342Y200499D02*
X140385D01*
X134342Y199599D02*
X140385D01*
X134342Y198699D02*
X140385D01*
X134342Y197799D02*
X140385D01*
X274012Y157677D02*
X275512D01*
X274012Y181693D02*
X275512D01*
X274012Y182874D02*
X275512D01*
X274012Y156496D02*
X275512D01*
X167882Y158541D02*
Y160041D01*
X223757Y190553D02*
Y192053D01*
X300860Y204543D02*
X299360D01*
X268909Y196784D02*
X270409D01*
X271409Y194284D02*
Y195784D01*
X273909Y196784D02*
X272409D01*
X262433Y196786D02*
X263933D01*
X264933Y194286D02*
Y195786D01*
X267433Y196786D02*
X265933D01*
X261688Y181703D02*
X263188D01*
X264188Y179203D02*
Y180703D01*
Y184203D02*
Y182703D01*
X228815Y156191D02*
Y157691D01*
X230807Y159069D02*
X229307D01*
X212748Y164384D02*
X214248D01*
X212748Y168321D02*
X214248D01*
X230807Y175604D02*
X229307D01*
X228815Y178482D02*
Y176982D01*
X210346Y162366D02*
X208846D01*
X207816Y170848D02*
Y172348D01*
X205316Y173348D02*
X206816D01*
X228224Y128914D02*
X226724D01*
X225477Y154550D02*
X223977D01*
X271840Y210784D02*
Y209284D01*
X269340Y208284D02*
X270840D01*
X157980Y135258D02*
Y136758D01*
X160480Y137758D02*
X158980D01*
X157980Y140258D02*
Y138758D01*
X303472Y126268D02*
X301972D01*
X300972Y128768D02*
Y127268D01*
Y123768D02*
Y125268D01*
X240655Y168376D02*
X239155D01*
X167882Y150667D02*
Y152167D01*
X170382Y153167D02*
X168882D01*
X167882Y155667D02*
Y154167D01*
X261214Y164766D02*
X262714D01*
X263714Y162266D02*
Y163766D01*
X234321Y104508D02*
X235821D01*
X246179D02*
X244679D01*
X276002D02*
X274502D01*
X107000Y239764D02*
G03X100000Y232764I0J-7000D01*
G01X107000Y239764D02*
X301504D01*
X308504Y232764D02*
G03X301504Y239764I-7000J0D01*
G01X308504Y232764D02*
Y107000D01*
X301504Y100000D02*
G03X308504Y107000I-0J7000D01*
G01X301504Y100000D02*
X107000D01*
X100000Y107000D02*
G03X107000Y100000I7000J0D01*
G01X100000Y107000D02*
Y232764D01*
G54D12*
X111811Y184500D02*
Y182925D01*
X106299*
Y184500*
X111811*
X106299Y183465D02*
X111811D01*
X107874Y182925D02*
Y184500D01*
X109449Y182925D02*
Y184500D01*
X111024Y182925D02*
Y184500D01*
X111811Y164409D02*
Y162835D01*
X106299*
Y164409*
X111811*
X106299Y162992D02*
X111811D01*
X107874Y162835D02*
Y164409D01*
X109449Y162835D02*
Y164409D01*
X111024Y162835D02*
Y164409D01*
G54D13*
X119291Y106969D03*
X129291D03*
X139291D03*
X149291D03*
X159291D03*
X169291D03*
X179291D03*
X189291D03*
X199291D03*
X209291D03*
X219291D03*
X229291D03*
X269009Y123690D03*
Y133690D03*
X253543Y136457D03*
Y146457D03*
Y156457D03*
Y166457D03*
Y176457D03*
Y186457D03*
Y196457D03*
Y206457D03*
X119291Y232756D03*
X129291D03*
X139291D03*
X149291D03*
X159291D03*
X169291D03*
X179291D03*
X189291D03*
X199291D03*
X209291D03*
X219291D03*
X229291D03*
X239291D03*
X249291D03*
X259291D03*
X269291D03*
X279291D03*
X289291D03*
G54D14*
X128751Y166887D02*
X128259D01*
Y169053*
X128751*
Y166887*
X128259Y166928D02*
X128751D01*
X128259Y167421D02*
X128751D01*
X128259Y167913D02*
X128751D01*
X128259Y168405D02*
X128751D01*
X128259Y168897D02*
X128751D01*
X128543Y166887D02*
Y169053D01*
X130720Y166887D02*
X130228D01*
Y169053*
X130720*
Y166887*
X130228Y166928D02*
X130720D01*
X130228Y167421D02*
X130720D01*
X130228Y167913D02*
X130720D01*
X130228Y168405D02*
X130720D01*
X130228Y168897D02*
X130720D01*
X130511Y166887D02*
Y169053D01*
X132688Y166887D02*
X132196D01*
Y169053*
X132688*
Y166887*
X132196Y166928D02*
X132688D01*
X132196Y167421D02*
X132688D01*
X132196Y167913D02*
X132688D01*
X132196Y168405D02*
X132688D01*
X132196Y168897D02*
X132688D01*
X132480Y166887D02*
Y169053D01*
X134657Y166887D02*
X134165D01*
Y169053*
X134657*
Y166887*
X134165Y166928D02*
X134657D01*
X134165Y167421D02*
X134657D01*
X134165Y167913D02*
X134657D01*
X134165Y168405D02*
X134657D01*
X134165Y168897D02*
X134657D01*
X134448Y166887D02*
Y169053D01*
X136625Y166887D02*
X136133D01*
Y169053*
X136625*
Y166887*
X136133Y166928D02*
X136625D01*
X136133Y167421D02*
X136625D01*
X136133Y167913D02*
X136625D01*
X136133Y168405D02*
X136625D01*
X136133Y168897D02*
X136625D01*
X136417Y166887D02*
Y169053D01*
X138594Y166887D02*
X138102D01*
Y169053*
X138594*
Y166887*
X138102Y166928D02*
X138594D01*
X138102Y167421D02*
X138594D01*
X138102Y167913D02*
X138594D01*
X138102Y168405D02*
X138594D01*
X138102Y168897D02*
X138594D01*
X138385Y166887D02*
Y169053D01*
X140562Y166887D02*
X140070D01*
Y169053*
X140562*
Y166887*
X140070Y166928D02*
X140562D01*
X140070Y167421D02*
X140562D01*
X140070Y167913D02*
X140562D01*
X140070Y168405D02*
X140562D01*
X140070Y168897D02*
X140562D01*
X140354Y166887D02*
Y169053D01*
X142531Y166887D02*
X142039D01*
Y169053*
X142531*
Y166887*
X142039Y166928D02*
X142531D01*
X142039Y167421D02*
X142531D01*
X142039Y167913D02*
X142531D01*
X142039Y168405D02*
X142531D01*
X142039Y168897D02*
X142531D01*
X142322Y166887D02*
Y169053D01*
X144499Y166887D02*
X144007D01*
Y169053*
X144499*
Y166887*
X144007Y166928D02*
X144499D01*
X144007Y167421D02*
X144499D01*
X144007Y167913D02*
X144499D01*
X144007Y168405D02*
X144499D01*
X144007Y168897D02*
X144499D01*
X144291Y166887D02*
Y169053D01*
X146468Y166887D02*
X145976D01*
Y169053*
X146468*
Y166887*
X145976Y166928D02*
X146468D01*
X145976Y167421D02*
X146468D01*
X145976Y167913D02*
X146468D01*
X145976Y168405D02*
X146468D01*
X145976Y168897D02*
X146468D01*
X146259Y166887D02*
Y169053D01*
X148436Y166887D02*
X147944D01*
Y169053*
X148436*
Y166887*
X147944Y166928D02*
X148436D01*
X147944Y167421D02*
X148436D01*
X147944Y167913D02*
X148436D01*
X147944Y168405D02*
X148436D01*
X147944Y168897D02*
X148436D01*
X148228Y166887D02*
Y169053D01*
X150405Y166887D02*
X149913D01*
Y169053*
X150405*
Y166887*
X149913Y166928D02*
X150405D01*
X149913Y167421D02*
X150405D01*
X149913Y167913D02*
X150405D01*
X149913Y168405D02*
X150405D01*
X149913Y168897D02*
X150405D01*
X150196Y166887D02*
Y169053D01*
X153653Y170627D02*
Y170135D01*
X151488*
Y170627*
X153653*
X151488Y170373D02*
X153653D01*
X151673Y170135D02*
Y170627D01*
X152165Y170135D02*
Y170627D01*
X152657Y170135D02*
Y170627D01*
X153149Y170135D02*
Y170627D01*
X153641Y170135D02*
Y170627D01*
X153653Y172596D02*
Y172104D01*
X151488*
Y172596*
X153653*
X151488Y172342D02*
X153653D01*
X151673Y172104D02*
Y172596D01*
X152165Y172104D02*
Y172596D01*
X152657Y172104D02*
Y172596D01*
X153149Y172104D02*
Y172596D01*
X153641Y172104D02*
Y172596D01*
X153653Y174564D02*
Y174072D01*
X151488*
Y174564*
X153653*
X151488Y174310D02*
X153653D01*
X151673Y174072D02*
Y174564D01*
X152165Y174072D02*
Y174564D01*
X152657Y174072D02*
Y174564D01*
X153149Y174072D02*
Y174564D01*
X153641Y174072D02*
Y174564D01*
X153653Y176533D02*
Y176041D01*
X151488*
Y176533*
X153653*
X151488Y176279D02*
X153653D01*
X151673Y176041D02*
Y176533D01*
X152165Y176041D02*
Y176533D01*
X152657Y176041D02*
Y176533D01*
X153149Y176041D02*
Y176533D01*
X153641Y176041D02*
Y176533D01*
X153653Y178501D02*
Y178009D01*
X151488*
Y178501*
X153653*
X151488Y178247D02*
X153653D01*
X151673Y178009D02*
Y178501D01*
X152165Y178009D02*
Y178501D01*
X152657Y178009D02*
Y178501D01*
X153149Y178009D02*
Y178501D01*
X153641Y178009D02*
Y178501D01*
X153653Y180470D02*
Y179978D01*
X151488*
Y180470*
X153653*
X151488Y180216D02*
X153653D01*
X151673Y179978D02*
Y180470D01*
X152165Y179978D02*
Y180470D01*
X152657Y179978D02*
Y180470D01*
X153149Y179978D02*
Y180470D01*
X153641Y179978D02*
Y180470D01*
X153653Y182438D02*
Y181946D01*
X151488*
Y182438*
X153653*
X151488Y182184D02*
X153653D01*
X151673Y181946D02*
Y182438D01*
X152165Y181946D02*
Y182438D01*
X152657Y181946D02*
Y182438D01*
X153149Y181946D02*
Y182438D01*
X153641Y181946D02*
Y182438D01*
X153653Y184407D02*
Y183915D01*
X151488*
Y184407*
X153653*
X151488Y184153D02*
X153653D01*
X151673Y183915D02*
Y184407D01*
X152165Y183915D02*
Y184407D01*
X152657Y183915D02*
Y184407D01*
X153149Y183915D02*
Y184407D01*
X153641Y183915D02*
Y184407D01*
X153653Y186375D02*
Y185883D01*
X151488*
Y186375*
X153653*
X151488Y186121D02*
X153653D01*
X151673Y185883D02*
Y186375D01*
X152165Y185883D02*
Y186375D01*
X152657Y185883D02*
Y186375D01*
X153149Y185883D02*
Y186375D01*
X153641Y185883D02*
Y186375D01*
X153653Y188344D02*
Y187852D01*
X151488*
Y188344*
X153653*
X151488Y188090D02*
X153653D01*
X151673Y187852D02*
Y188344D01*
X152165Y187852D02*
Y188344D01*
X152657Y187852D02*
Y188344D01*
X153149Y187852D02*
Y188344D01*
X153641Y187852D02*
Y188344D01*
X153653Y190312D02*
Y189820D01*
X151488*
Y190312*
X151488D02*
X153653D01*
X151488Y190058D02*
X153653D01*
X151673Y189820D02*
Y190312D01*
X152165Y189820D02*
Y190312D01*
X152657Y189820D02*
Y190312D01*
X153149Y189820D02*
Y190312D01*
X153641Y189820D02*
Y190312D01*
X153653Y192281D02*
Y191789D01*
X151488*
Y192281*
X153653*
X151488Y192027D02*
X153653D01*
X151673Y191789D02*
Y192281D01*
X152165Y191789D02*
Y192281D01*
X152657Y191789D02*
Y192281D01*
X153149Y191789D02*
Y192281D01*
X153641Y191789D02*
Y192281D01*
X150405Y193364D02*
X149913D01*
Y195529*
X150405*
Y193364*
X149913Y193503D02*
X150405D01*
X149913Y193995D02*
X150405D01*
X149913Y194487D02*
X150405D01*
X149913Y194979D02*
X150405D01*
X149913Y195471D02*
X150405D01*
X150196Y193364D02*
Y195529D01*
X148436Y193364D02*
X147944D01*
Y195529*
X148436*
Y193364*
X147944Y193503D02*
X148436D01*
X147944Y193995D02*
X148436D01*
X147944Y194487D02*
X148436D01*
X147944Y194979D02*
X148436D01*
X147944Y195471D02*
X148436D01*
X148228Y193364D02*
Y195529D01*
X146468Y193364D02*
X145976D01*
Y195529*
X146468*
Y193364*
X145976Y193503D02*
X146468D01*
X145976Y193995D02*
X146468D01*
X145976Y194487D02*
X146468D01*
X145976Y194979D02*
X146468D01*
X145976Y195471D02*
X146468D01*
X146259Y193364D02*
Y195529D01*
X144499Y193364D02*
X144007D01*
Y195529*
X144499*
Y193364*
X144007Y193503D02*
X144499D01*
X144007Y193995D02*
X144499D01*
X144007Y194487D02*
X144499D01*
X144007Y194979D02*
X144499D01*
X144007Y195471D02*
X144499D01*
X144291Y193364D02*
Y195529D01*
X142531Y193364D02*
X142039D01*
Y195529*
X142531*
Y193364*
X142039Y193503D02*
X142531D01*
X142039Y193995D02*
X142531D01*
X142039Y194487D02*
X142531D01*
X142039Y194979D02*
X142531D01*
X142039Y195471D02*
X142531D01*
X142322Y193364D02*
Y195529D01*
X140562Y193364D02*
X140070D01*
Y195529*
X140562*
Y193364*
X140070Y193503D02*
X140562D01*
X140070Y193995D02*
X140562D01*
X140070Y194487D02*
X140562D01*
X140070Y194979D02*
X140562D01*
X140070Y195471D02*
X140562D01*
X140354Y193364D02*
Y195529D01*
X138594Y193364D02*
X138102D01*
Y195529*
X138594*
Y193364*
X138102Y193503D02*
X138594D01*
X138102Y193995D02*
X138594D01*
X138102Y194487D02*
X138594D01*
X138102Y194979D02*
X138594D01*
X138102Y195471D02*
X138594D01*
X138385Y193364D02*
Y195529D01*
X136625Y193364D02*
X136133D01*
Y195529*
X136625*
Y193364*
X136133Y193503D02*
X136625D01*
X136133Y193995D02*
X136625D01*
X136133Y194487D02*
X136625D01*
X136133Y194979D02*
X136625D01*
X136133Y195471D02*
X136625D01*
X136417Y193364D02*
Y195529D01*
X134657Y193364D02*
X134165D01*
Y195529*
X134657*
Y193364*
X134165Y193503D02*
X134657D01*
X134165Y193995D02*
X134657D01*
X134165Y194487D02*
X134657D01*
X134165Y194979D02*
X134657D01*
X134165Y195471D02*
X134657D01*
X134448Y193364D02*
Y195529D01*
X132688Y193364D02*
X132196D01*
Y195529*
X132688*
Y193364*
X132196Y193503D02*
X132688D01*
X132196Y193995D02*
X132688D01*
X132196Y194487D02*
X132688D01*
X132196Y194979D02*
X132688D01*
X132196Y195471D02*
X132688D01*
X132480Y193364D02*
Y195529D01*
X130720Y193364D02*
X130228D01*
Y195529*
X130720*
Y193364*
X130228Y193503D02*
X130720D01*
X130228Y193995D02*
X130720D01*
X130228Y194487D02*
X130720D01*
X130228Y194979D02*
X130720D01*
X130228Y195471D02*
X130720D01*
X130511Y193364D02*
Y195529D01*
X128751Y193364D02*
X128259D01*
Y195529*
X128751*
Y193364*
X128259Y193503D02*
X128751D01*
X128259Y193995D02*
X128751D01*
X128259Y194487D02*
X128751D01*
X128259Y194979D02*
X128751D01*
X128259Y195471D02*
X128751D01*
X128543Y193364D02*
Y195529D01*
X127177Y192281D02*
Y191789D01*
X125011*
Y192281*
X127177*
X125011Y192027D02*
X127177D01*
X125098Y191789D02*
Y192281D01*
X125590Y191789D02*
Y192281D01*
X126082Y191789D02*
Y192281D01*
X126575Y191789D02*
Y192281D01*
X127067Y191789D02*
Y192281D01*
X127177Y190312D02*
Y189820D01*
X125011*
Y190312*
X125011D02*
X127177D01*
X125011Y190058D02*
X127177D01*
X125098Y189820D02*
Y190312D01*
X125590Y189820D02*
Y190312D01*
X126082Y189820D02*
Y190312D01*
X126575Y189820D02*
Y190312D01*
X127067Y189820D02*
Y190312D01*
X127177Y188344D02*
Y187852D01*
X125011*
Y188344*
X127177*
X125011Y188090D02*
X127177D01*
X125098Y187852D02*
Y188344D01*
X125590Y187852D02*
Y188344D01*
X126082Y187852D02*
Y188344D01*
X126575Y187852D02*
Y188344D01*
X127067Y187852D02*
Y188344D01*
X127177Y186375D02*
Y185883D01*
X125011*
Y186375*
X127177*
X125011Y186121D02*
X127177D01*
X125098Y185883D02*
Y186375D01*
X125590Y185883D02*
Y186375D01*
X126082Y185883D02*
Y186375D01*
X126575Y185883D02*
Y186375D01*
X127067Y185883D02*
Y186375D01*
X127177Y184407D02*
Y183915D01*
X125011*
Y184407*
X127177*
X125011Y184153D02*
X127177D01*
X125098Y183915D02*
Y184407D01*
X125590Y183915D02*
Y184407D01*
X126082Y183915D02*
Y184407D01*
X126575Y183915D02*
Y184407D01*
X127067Y183915D02*
Y184407D01*
X127177Y182438D02*
Y181946D01*
X125011*
Y182438*
X127177*
X125011Y182184D02*
X127177D01*
X125098Y181946D02*
Y182438D01*
X125590Y181946D02*
Y182438D01*
X126082Y181946D02*
Y182438D01*
X126575Y181946D02*
Y182438D01*
X127067Y181946D02*
Y182438D01*
X127177Y180470D02*
Y179978D01*
X125011*
Y180470*
X127177*
X125011Y180216D02*
X127177D01*
X125098Y179978D02*
Y180470D01*
X125590Y179978D02*
Y180470D01*
X126082Y179978D02*
Y180470D01*
X126575Y179978D02*
Y180470D01*
X127067Y179978D02*
Y180470D01*
X127177Y178501D02*
Y178009D01*
X125011*
Y178501*
X127177*
X125011Y178247D02*
X127177D01*
X125098Y178009D02*
Y178501D01*
X125590Y178009D02*
Y178501D01*
X126082Y178009D02*
Y178501D01*
X126575Y178009D02*
Y178501D01*
X127067Y178009D02*
Y178501D01*
X127177Y176533D02*
Y176041D01*
X125011*
Y176533*
X127177*
X125011Y176279D02*
X127177D01*
X125098Y176041D02*
Y176533D01*
X125590Y176041D02*
Y176533D01*
X126082Y176041D02*
Y176533D01*
X126575Y176041D02*
Y176533D01*
X127067Y176041D02*
Y176533D01*
X127177Y174564D02*
Y174072D01*
X125011*
Y174564*
X127177*
X125011Y174310D02*
X127177D01*
X125098Y174072D02*
Y174564D01*
X125590Y174072D02*
Y174564D01*
X126082Y174072D02*
Y174564D01*
X126575Y174072D02*
Y174564D01*
X127067Y174072D02*
Y174564D01*
X127177Y172596D02*
Y172104D01*
X125011*
Y172596*
X127177*
X125011Y172342D02*
X127177D01*
X125098Y172104D02*
Y172596D01*
X125590Y172104D02*
Y172596D01*
X126082Y172104D02*
Y172596D01*
X126575Y172104D02*
Y172596D01*
X127067Y172104D02*
Y172596D01*
X127177Y170627D02*
Y170135D01*
X125011*
Y170627*
X127177*
X125011Y170373D02*
X127177D01*
X125098Y170135D02*
Y170627D01*
X125590Y170135D02*
Y170627D01*
X126082Y170135D02*
Y170627D01*
X126575Y170135D02*
Y170627D01*
X127067Y170135D02*
Y170627D01*
G54D15*
X132932Y174808D02*
Y187608D01*
X145732*
Y174808*
X132932*
Y176800D02*
X145732D01*
X132932Y180000D02*
X145732D01*
X132932Y183200D02*
X145732D01*
X132932Y186400D02*
X145732D01*
X135200Y174808D02*
Y187608D01*
X138400Y174808D02*
Y187608D01*
X141600Y174808D02*
Y187608D01*
X144800Y174808D02*
Y187608D01*
G54D16*
X292650Y106120D02*
Y102896D01*
X285291*
Y106120*
X292650*
X285291Y103000D02*
X292650D01*
X285291Y104500D02*
X292650D01*
X285291Y106000D02*
X292650D01*
X286000Y102896D02*
Y106120D01*
X287500Y102896D02*
Y106120D01*
X289000Y102896D02*
Y106120D01*
X290500Y102896D02*
Y106120D01*
X292000Y102896D02*
Y106120D01*
X292650Y112520D02*
Y109296D01*
X285291*
Y112520*
X292650*
X285291Y110500D02*
X292650D01*
X285291Y112000D02*
X292650D01*
X286000Y109296D02*
Y112520D01*
X287500Y109296D02*
Y112520D01*
X289000Y109296D02*
Y112520D01*
X290500Y109296D02*
Y112520D01*
X292000Y109296D02*
Y112520D01*
X273752Y106120D02*
Y102896D01*
X266394*
Y106120*
X273752*
X266394Y103000D02*
X273752D01*
X266394Y104500D02*
X273752D01*
X266394Y106000D02*
X273752D01*
X266500Y102896D02*
Y106120D01*
X268000Y102896D02*
Y106120D01*
X269500Y102896D02*
Y106120D01*
X271000Y102896D02*
Y106120D01*
X272500Y102896D02*
Y106120D01*
X273752Y112520D02*
Y109296D01*
X266394*
Y112520*
X273752*
X266394Y110500D02*
X273752D01*
X266394Y112000D02*
X273752D01*
X266500Y109296D02*
Y112520D01*
X268000Y109296D02*
Y112520D01*
X269500Y109296D02*
Y112520D01*
X271000Y109296D02*
Y112520D01*
X272500Y109296D02*
Y112520D01*
X262827Y106120D02*
Y102896D01*
X255469*
Y106120*
X262827*
X255469Y103000D02*
X262827D01*
X255469Y104500D02*
X262827D01*
X255469Y106000D02*
X262827D01*
X256000Y102896D02*
Y106120D01*
X257500Y102896D02*
Y106120D01*
X259000Y102896D02*
Y106120D01*
X260500Y102896D02*
Y106120D01*
X262000Y102896D02*
Y106120D01*
X262827Y112520D02*
Y109296D01*
X255469*
Y112520*
X262827*
X255469Y110500D02*
X262827D01*
X255469Y112000D02*
X262827D01*
X256000Y109296D02*
Y112520D01*
X257500Y109296D02*
Y112520D01*
X259000Y109296D02*
Y112520D01*
X260500Y109296D02*
Y112520D01*
X262000Y109296D02*
Y112520D01*
X243929Y106120D02*
Y102896D01*
X236571*
Y106120*
X243929*
X236571Y103000D02*
X243929D01*
X236571Y104500D02*
X243929D01*
X236571Y106000D02*
X243929D01*
X238000Y102896D02*
Y106120D01*
X239500Y102896D02*
Y106120D01*
X241000Y102896D02*
Y106120D01*
X242500Y102896D02*
Y106120D01*
X243929Y112520D02*
Y109296D01*
X236571*
Y112520*
X243929*
X236571Y110500D02*
X243929D01*
X236571Y112000D02*
X243929D01*
X238000Y109296D02*
Y112520D01*
X239500Y109296D02*
Y112520D01*
X241000Y109296D02*
Y112520D01*
X242500Y109296D02*
Y112520D01*
X257656Y136457D02*
X254815Y137660D01*
Y135255*
X257656Y136457*
X254815Y136000D02*
X256575D01*
X254815Y137500D02*
X255192D01*
X256000Y135756D02*
Y137158D01*
X257500Y136391D02*
Y136523D01*
X296542Y199736D02*
X298290Y200635D01*
X296930Y200971*
X296542Y199736*
X296782Y200500D02*
X298027D01*
X298000Y200486D02*
Y200707D01*
X295710Y200803D02*
X296923Y200575D01*
Y201032*
X295710Y200803*
X296500Y200654D02*
Y200952D01*
X295710Y208284D02*
X296923Y208055D01*
Y208512*
X295710Y208284*
X296500Y208135D02*
Y208433D01*
X253543Y136457D02*
X264259D01*
X267906Y140105*
Y156743*
X270809Y159646*
X278465*
Y160827D02*
X281917D01*
X290925Y169835*
Y183883*
Y194119*
X297610Y200803*
X231631Y193953D02*
Y195253D01*
X233576Y197198*
X234876*
X239247*
X239251Y197195*
X242722*
X245835Y200307*
X260838*
X265069Y204539*
X290389*
X294124Y200803*
X297610*
X290389Y204539D02*
X294133Y208284D01*
X297610*
X282559Y190181D02*
Y188681D01*
X276925Y186713D02*
X278425D01*
X282559Y149189D02*
Y150689D01*
X288193Y152657D02*
X286693D01*
X276925D02*
X278425D01*
X298307Y149189D02*
Y150689D01*
X302957Y152657D02*
X301457D01*
X298307Y156126D02*
Y154626D01*
X293657Y152657D02*
X295157D01*
X298307Y183244D02*
Y184744D01*
X302957Y186713D02*
X301457D01*
X298307Y190181D02*
Y188681D01*
X289291Y236756D02*
Y235256D01*
X285291Y232756D02*
X286791D01*
X289291Y228756D02*
Y230256D01*
X293291Y232756D02*
X291791D01*
X279291Y236756D02*
Y235256D01*
X275291Y232756D02*
X276791D01*
X279291Y228756D02*
Y230256D01*
X283291Y232756D02*
X281791D01*
X249543Y156457D02*
X251043D01*
X253543Y152457D02*
Y153957D01*
X257543Y156457D02*
X256043D01*
X253543Y160457D02*
Y158957D01*
G54D17*
X182495Y199075D02*
X184365D01*
Y197008*
X182495*
Y199075*
Y197244D02*
X184365D01*
X184154Y197008D02*
Y199075D01*
X175014D02*
X176885D01*
Y197008*
X175014*
Y199075*
Y197244D02*
X176885D01*
X176673Y197008D02*
Y199075D01*
X178755Y190217D02*
X180625D01*
Y188150*
X178755*
Y190217*
Y189764D02*
X180625D01*
X180413Y188150D02*
Y190217D01*
X200251Y199553D02*
X202122D01*
Y197486*
X200251*
Y199553*
Y199114D02*
X202122D01*
X200984Y197486D02*
Y199553D01*
X192771D02*
X194641D01*
Y197486*
X192771*
Y199553*
Y199114D02*
X194641D01*
X193504Y197486D02*
Y199553D01*
X196511Y190694D02*
X198381D01*
Y188627*
X196511*
Y190694*
Y189764D02*
X198381D01*
X197244Y188627D02*
Y190694D01*
G54D18*
X224165Y123914D03*
Y128914D03*
Y133914D03*
Y138914D03*
X203299D03*
Y133914D03*
Y128914D03*
Y123914D03*
G54D19*
X223893Y167336D03*
G54D20*
X228815Y175604D03*
X226846D03*
X224878D03*
X222909D03*
X220941D03*
X218972D03*
Y159069D03*
X220941D03*
X222909D03*
X224878D03*
X226846D03*
X228815D03*
G54D21*
X215626Y172258D03*
Y170289D03*
Y168321D03*
Y166352D03*
Y164384D03*
Y162415D03*
X232161D03*
Y164384D03*
Y166352D03*
Y168321D03*
Y170289D03*
Y172258D03*
G54D22*
X298769Y201394D02*
Y200213D01*
X296450*
Y201394*
X298769*
X296450Y200393D02*
X298769D01*
X297243Y200213D02*
Y201394D01*
X298424Y200213D02*
Y201394D01*
X298769Y205134D02*
Y203953D01*
X296450*
Y205134*
X298769*
X296450Y205118D02*
X298769D01*
X297243Y203953D02*
Y205134D01*
X298424Y203953D02*
Y205134D01*
X298769Y208874D02*
Y207693D01*
X296450*
Y208874*
X298769*
X296450Y208661D02*
X298769D01*
X297243Y207693D02*
Y208874D01*
X298424Y207693D02*
Y208874D01*
X287369D02*
Y207693D01*
X285050*
Y208874*
X287369*
X285050Y208661D02*
X287369D01*
X285432Y207693D02*
Y208874D01*
X286613Y207693D02*
Y208874D01*
X287369Y201394D02*
Y200213D01*
X285050*
Y201394*
X287369*
X285050Y200393D02*
X287369D01*
X285432Y200213D02*
Y201394D01*
X286613Y200213D02*
Y201394D01*
G54D23*
X220120Y192353D02*
X219520D01*
Y195553*
X220120*
Y192353*
X219520Y192400D02*
X220120D01*
X219520Y193000D02*
X220120D01*
X219520Y193600D02*
X220120D01*
X219520Y194200D02*
X220120D01*
X219520Y194800D02*
X220120D01*
X219520Y195400D02*
X220120D01*
X220000Y192353D02*
Y195553D01*
X222089Y192353D02*
X221489D01*
Y195553*
X222089*
Y192353*
X221489Y192400D02*
X222089D01*
X221489Y193000D02*
X222089D01*
X221489Y193600D02*
X222089D01*
X221489Y194200D02*
X222089D01*
X221489Y194800D02*
X222089D01*
X221489Y195400D02*
X222089D01*
X221800Y192353D02*
Y195553D01*
X224057Y192353D02*
X223457D01*
Y195553*
X224057*
Y192353*
X223457Y192400D02*
X224057D01*
X223457Y193000D02*
X224057D01*
X223457Y193600D02*
X224057D01*
X223457Y194200D02*
X224057D01*
X223457Y194800D02*
X224057D01*
X223457Y195400D02*
X224057D01*
X223600Y192353D02*
Y195553D01*
X226026Y192353D02*
X225426D01*
Y195553*
X226026*
Y192353*
X225426Y192400D02*
X226026D01*
X225426Y193000D02*
X226026D01*
X225426Y193600D02*
X226026D01*
X225426Y194200D02*
X226026D01*
X225426Y194800D02*
X226026D01*
X225426Y195400D02*
X226026D01*
X226000Y192353D02*
Y195553D01*
X227994Y192353D02*
X227394D01*
Y195553*
X227994*
Y192353*
X227394Y192400D02*
X227994D01*
X227394Y193000D02*
X227994D01*
X227394Y193600D02*
X227994D01*
X227394Y194200D02*
X227994D01*
X227394Y194800D02*
X227994D01*
X227394Y195400D02*
X227994D01*
X227800Y192353D02*
Y195553D01*
X229963Y192353D02*
X229363D01*
Y195553*
X229963*
Y192353*
X229363Y192400D02*
X229963D01*
X229363Y193000D02*
X229963D01*
X229363Y193600D02*
X229963D01*
X229363Y194200D02*
X229963D01*
X229363Y194800D02*
X229963D01*
X229363Y195400D02*
X229963D01*
X229600Y192353D02*
Y195553D01*
X231931Y192353D02*
X231331D01*
Y195553*
X231931*
Y192353*
X231331Y192400D02*
X231931D01*
X231331Y193000D02*
X231931D01*
X231331Y193600D02*
X231931D01*
X231331Y194200D02*
X231931D01*
X231331Y194800D02*
X231931D01*
X231331Y195400D02*
X231931D01*
X231400Y192353D02*
Y195553D01*
X236476Y197498D02*
Y196898D01*
X233276*
Y197498*
X236476*
X233276Y197200D02*
X236476D01*
X233800Y196898D02*
Y197498D01*
X234400Y196898D02*
Y197498D01*
X235000Y196898D02*
Y197498D01*
X235600Y196898D02*
Y197498D01*
X236200Y196898D02*
Y197498D01*
X236476Y199466D02*
Y198866D01*
X233276*
Y199466*
X236476*
X233276Y199000D02*
X236476D01*
X233800Y198866D02*
Y199466D01*
X234400Y198866D02*
Y199466D01*
X235000Y198866D02*
Y199466D01*
X235600Y198866D02*
Y199466D01*
X236200Y198866D02*
Y199466D01*
X236476Y201435D02*
Y200835D01*
X233276*
Y201435*
X236476*
X233276Y201400D02*
X236476D01*
X233800Y200835D02*
Y201435D01*
X234400Y200835D02*
Y201435D01*
X235000Y200835D02*
Y201435D01*
X235600Y200835D02*
Y201435D01*
X236200Y200835D02*
Y201435D01*
X236476Y203403D02*
Y202803D01*
X233276*
Y203403*
X236476*
X233276Y203200D02*
X236476D01*
X233800Y202803D02*
Y203403D01*
X234400Y202803D02*
Y203403D01*
X235000Y202803D02*
Y203403D01*
X235600Y202803D02*
Y203403D01*
X236200Y202803D02*
Y203403D01*
X236476Y205372D02*
Y204772D01*
X233276*
Y205372*
X236476*
X233276Y205000D02*
X236476D01*
X233800Y204772D02*
Y205372D01*
X234400Y204772D02*
Y205372D01*
X235000Y204772D02*
Y205372D01*
X235600Y204772D02*
Y205372D01*
X236200Y204772D02*
Y205372D01*
X236476Y207341D02*
Y206741D01*
X236476D02*
X233276D01*
X233276D02*
Y207341D01*
X233276D02*
X236476D01*
X233276Y206800D02*
X236476D01*
X233800Y206741D02*
Y207341D01*
X234400Y206741D02*
Y207341D01*
X235000Y206741D02*
Y207341D01*
X235600Y206741D02*
Y207341D01*
X236200Y206741D02*
Y207341D01*
X236476Y209309D02*
Y208709D01*
X233276*
Y209309*
X236476*
X233276Y209200D02*
X236476D01*
X233800Y208709D02*
Y209309D01*
X234400Y208709D02*
Y209309D01*
X235000Y208709D02*
Y209309D01*
X235600Y208709D02*
Y209309D01*
X236200Y208709D02*
Y209309D01*
X231931Y210653D02*
X231331D01*
Y213853*
X231931*
Y210653*
X231331Y211000D02*
X231931D01*
X231331Y211600D02*
X231931D01*
X231331Y212200D02*
X231931D01*
X231331Y212800D02*
X231931D01*
X231331Y213400D02*
X231931D01*
X231400Y210653D02*
Y213853D01*
X229963Y210653D02*
X229363D01*
Y213853*
X229963*
Y210653*
X229363Y211000D02*
X229963D01*
X229363Y211600D02*
X229963D01*
X229363Y212200D02*
X229963D01*
X229363Y212800D02*
X229963D01*
X229363Y213400D02*
X229963D01*
X229600Y210653D02*
Y213853D01*
X227994Y210653D02*
X227394D01*
Y213853*
X227994*
Y210653*
X227394Y211000D02*
X227994D01*
X227394Y211600D02*
X227994D01*
X227394Y212200D02*
X227994D01*
X227394Y212800D02*
X227994D01*
X227394Y213400D02*
X227994D01*
X227800Y210653D02*
Y213853D01*
X226026Y210653D02*
X225426D01*
Y213853*
X226026*
Y210653*
X225426Y211000D02*
X226026D01*
X225426Y211600D02*
X226026D01*
X225426Y212200D02*
X226026D01*
X225426Y212800D02*
X226026D01*
X225426Y213400D02*
X226026D01*
X226000Y210653D02*
Y213853D01*
X224057Y210653D02*
X223457D01*
Y213853*
X224057*
Y210653*
X223457Y211000D02*
X224057D01*
X223457Y211600D02*
X224057D01*
X223457Y212200D02*
X224057D01*
X223457Y212800D02*
X224057D01*
X223457Y213400D02*
X224057D01*
X223600Y210653D02*
Y213853D01*
X222089Y210653D02*
X221489D01*
Y213853*
X222089*
Y210653*
X221489Y211000D02*
X222089D01*
X221489Y211600D02*
X222089D01*
X221489Y212200D02*
X222089D01*
X221489Y212800D02*
X222089D01*
X221489Y213400D02*
X222089D01*
X221800Y210653D02*
Y213853D01*
X220120Y210653D02*
X219520D01*
Y213853*
X220120*
Y210653*
X219520Y211000D02*
X220120D01*
X219520Y211600D02*
X220120D01*
X219520Y212200D02*
X220120D01*
X219520Y212800D02*
X220120D01*
X219520Y213400D02*
X220120D01*
X220000Y210653D02*
Y213853D01*
X218176Y209309D02*
Y208709D01*
X214976*
Y209309*
X218176*
X214976Y209200D02*
X218176D01*
X215200Y208709D02*
Y209309D01*
X215800Y208709D02*
Y209309D01*
X216400Y208709D02*
Y209309D01*
X217000Y208709D02*
Y209309D01*
X217600Y208709D02*
Y209309D01*
X218176Y207341D02*
Y206741D01*
X218176D02*
X214976D01*
X214976D02*
Y207341D01*
X214976D02*
X218176D01*
X214976Y206800D02*
X218176D01*
X215200Y206741D02*
Y207341D01*
X215800Y206741D02*
Y207341D01*
X216400Y206741D02*
Y207341D01*
X217000Y206741D02*
Y207341D01*
X217600Y206741D02*
Y207341D01*
X218176Y205372D02*
Y204772D01*
X214976*
Y205372*
X218176*
X214976Y205000D02*
X218176D01*
X215200Y204772D02*
Y205372D01*
X215800Y204772D02*
Y205372D01*
X216400Y204772D02*
Y205372D01*
X217000Y204772D02*
Y205372D01*
X217600Y204772D02*
Y205372D01*
X218176Y203403D02*
Y202803D01*
X214976*
Y203403*
X218176*
X214976Y203200D02*
X218176D01*
X215200Y202803D02*
Y203403D01*
X215800Y202803D02*
Y203403D01*
X216400Y202803D02*
Y203403D01*
X217000Y202803D02*
Y203403D01*
X217600Y202803D02*
Y203403D01*
X218176Y201435D02*
Y200835D01*
X214976*
Y201435*
X218176*
X214976Y201400D02*
X218176D01*
X215200Y200835D02*
Y201435D01*
X215800Y200835D02*
Y201435D01*
X216400Y200835D02*
Y201435D01*
X217000Y200835D02*
Y201435D01*
X217600Y200835D02*
Y201435D01*
X218176Y199466D02*
Y198866D01*
X214976*
Y199466*
X218176*
X214976Y199000D02*
X218176D01*
X215200Y198866D02*
Y199466D01*
X215800Y198866D02*
Y199466D01*
X216400Y198866D02*
Y199466D01*
X217000Y198866D02*
Y199466D01*
X217600Y198866D02*
Y199466D01*
X218176Y197498D02*
Y196898D01*
X214976*
Y197498*
X218176*
X214976Y197200D02*
X218176D01*
X215200Y196898D02*
Y197498D01*
X215800Y196898D02*
Y197498D01*
X216400Y196898D02*
Y197498D01*
X217000Y196898D02*
Y197498D01*
X217600Y196898D02*
Y197498D01*
G54D24*
X225726Y203103D03*
G54D25*
X275807Y156201D02*
Y156791D01*
X281122*
Y156201*
X275807*
Y156692D02*
X281122D01*
X275983Y156201D02*
Y156791D01*
X276573Y156201D02*
Y156791D01*
X277164Y156201D02*
Y156791D01*
X277754Y156201D02*
Y156791D01*
X278345Y156201D02*
Y156791D01*
X278935Y156201D02*
Y156791D01*
X279526Y156201D02*
Y156791D01*
X280117Y156201D02*
Y156791D01*
X280707Y156201D02*
Y156791D01*
X275807Y159350D02*
Y159941D01*
X281122*
Y159350*
X275807*
Y159645D02*
X281122D01*
X275983Y159350D02*
Y159941D01*
X276573Y159350D02*
Y159941D01*
X277164Y159350D02*
Y159941D01*
X277754Y159350D02*
Y159941D01*
X278345Y159350D02*
Y159941D01*
X278935Y159350D02*
Y159941D01*
X279526Y159350D02*
Y159941D01*
X280117Y159350D02*
Y159941D01*
X280707Y159350D02*
Y159941D01*
X275807Y164468D02*
Y165059D01*
X281122*
Y164468*
X275807*
Y164960D02*
X281122D01*
X275983Y164468D02*
Y165059D01*
X276573Y164468D02*
Y165059D01*
X277164Y164468D02*
Y165059D01*
X277754Y164468D02*
Y165059D01*
X278345Y164468D02*
Y165059D01*
X278935Y164468D02*
Y165059D01*
X279526Y164468D02*
Y165059D01*
X280117Y164468D02*
Y165059D01*
X280707Y164468D02*
Y165059D01*
X275807Y168406D02*
Y168996D01*
X281122*
Y168406*
X275807*
Y168503D02*
X281122D01*
X275983Y168406D02*
Y168996D01*
X276573Y168406D02*
Y168996D01*
X277164Y168406D02*
Y168996D01*
X277754Y168406D02*
Y168996D01*
X278345Y168406D02*
Y168996D01*
X278935Y168406D02*
Y168996D01*
X279526Y168406D02*
Y168996D01*
X280117Y168406D02*
Y168996D01*
X280707Y168406D02*
Y168996D01*
X275807Y170374D02*
Y170965D01*
X281122*
Y170374*
X275807*
Y170866D02*
X281122D01*
X275983Y170374D02*
Y170965D01*
X276573Y170374D02*
Y170965D01*
X277164Y170374D02*
Y170965D01*
X277754Y170374D02*
Y170965D01*
X278345Y170374D02*
Y170965D01*
X278935Y170374D02*
Y170965D01*
X279526Y170374D02*
Y170965D01*
X280117Y170374D02*
Y170965D01*
X280707Y170374D02*
Y170965D01*
X275807Y174311D02*
Y174902D01*
X281122*
Y174311*
X275807*
Y174409D02*
X281122D01*
X275983Y174311D02*
Y174902D01*
X276573Y174311D02*
Y174902D01*
X277164Y174311D02*
Y174902D01*
X277754Y174311D02*
Y174902D01*
X278345Y174311D02*
Y174902D01*
X278935Y174311D02*
Y174902D01*
X279526Y174311D02*
Y174902D01*
X280117Y174311D02*
Y174902D01*
X280707Y174311D02*
Y174902D01*
X275807Y179429D02*
Y180020D01*
X281122*
Y179429*
X275807*
Y179724D02*
X281122D01*
X275983Y179429D02*
Y180020D01*
X276573Y179429D02*
Y180020D01*
X277164Y179429D02*
Y180020D01*
X277754Y179429D02*
Y180020D01*
X278345Y179429D02*
Y180020D01*
X278935Y179429D02*
Y180020D01*
X279526Y179429D02*
Y180020D01*
X280117Y179429D02*
Y180020D01*
X280707Y179429D02*
Y180020D01*
X275807Y182579D02*
Y183169D01*
X281122*
Y182579*
X275807*
Y182676D02*
X281122D01*
X275983Y182579D02*
Y183169D01*
X276573Y182579D02*
Y183169D01*
X277164Y182579D02*
Y183169D01*
X277754Y182579D02*
Y183169D01*
X278345Y182579D02*
Y183169D01*
X278935Y182579D02*
Y183169D01*
X279526Y182579D02*
Y183169D01*
X280117Y182579D02*
Y183169D01*
X280707Y182579D02*
Y183169D01*
X275807Y181398D02*
Y181988D01*
X281122*
Y181398*
X275807*
Y181495D02*
X281122D01*
X275983Y181398D02*
Y181988D01*
X276573Y181398D02*
Y181988D01*
X277164Y181398D02*
Y181988D01*
X277754Y181398D02*
Y181988D01*
X278345Y181398D02*
Y181988D01*
X278935Y181398D02*
Y181988D01*
X279526Y181398D02*
Y181988D01*
X280117Y181398D02*
Y181988D01*
X280707Y181398D02*
Y181988D01*
X275807Y178248D02*
Y178839D01*
X281122*
Y178248*
X275807*
Y178543D02*
X281122D01*
X275983Y178248D02*
Y178839D01*
X276573Y178248D02*
Y178839D01*
X277164Y178248D02*
Y178839D01*
X277754Y178248D02*
Y178839D01*
X278345Y178248D02*
Y178839D01*
X278935Y178248D02*
Y178839D01*
X279526Y178248D02*
Y178839D01*
X280117Y178248D02*
Y178839D01*
X280707Y178248D02*
Y178839D01*
X275807Y176280D02*
Y176870D01*
X281122*
Y176280*
X275807*
Y176771D02*
X281122D01*
X275983Y176280D02*
Y176870D01*
X276573Y176280D02*
Y176870D01*
X277164Y176280D02*
Y176870D01*
X277754Y176280D02*
Y176870D01*
X278345Y176280D02*
Y176870D01*
X278935Y176280D02*
Y176870D01*
X279526Y176280D02*
Y176870D01*
X280117Y176280D02*
Y176870D01*
X280707Y176280D02*
Y176870D01*
X275807Y172343D02*
Y172933D01*
X281122*
Y172343*
X281122D02*
X275807D01*
Y172637D02*
X281122D01*
X275983Y172343D02*
Y172933D01*
X276573Y172343D02*
Y172933D01*
X277164Y172343D02*
Y172933D01*
X277754Y172343D02*
Y172933D01*
X278345Y172343D02*
Y172933D01*
X278935Y172343D02*
Y172933D01*
X279526Y172343D02*
Y172933D01*
X280117Y172343D02*
Y172933D01*
X280707Y172343D02*
Y172933D01*
X275807Y166437D02*
Y167028D01*
X281122*
Y166437*
X275807*
Y166732D02*
X281122D01*
X275983Y166437D02*
Y167028D01*
X276573Y166437D02*
Y167028D01*
X277164Y166437D02*
Y167028D01*
X277754Y166437D02*
Y167028D01*
X278345Y166437D02*
Y167028D01*
X278935Y166437D02*
Y167028D01*
X279526Y166437D02*
Y167028D01*
X280117Y166437D02*
Y167028D01*
X280707Y166437D02*
Y167028D01*
X275807Y162500D02*
Y163091D01*
X281122*
Y162500*
X275807*
Y162598D02*
X281122D01*
X275983Y162500D02*
Y163091D01*
X276573Y162500D02*
Y163091D01*
X277164Y162500D02*
Y163091D01*
X277754Y162500D02*
Y163091D01*
X278345Y162500D02*
Y163091D01*
X278935Y162500D02*
Y163091D01*
X279526Y162500D02*
Y163091D01*
X280117Y162500D02*
Y163091D01*
X280707Y162500D02*
Y163091D01*
X275807Y160531D02*
Y161122D01*
X281122*
Y160531*
X275807*
Y160826D02*
X281122D01*
X275983Y160531D02*
Y161122D01*
X276573Y160531D02*
Y161122D01*
X277164Y160531D02*
Y161122D01*
X277754Y160531D02*
Y161122D01*
X278345Y160531D02*
Y161122D01*
X278935Y160531D02*
Y161122D01*
X279526Y160531D02*
Y161122D01*
X280117Y160531D02*
Y161122D01*
X280707Y160531D02*
Y161122D01*
X275807Y157382D02*
Y157972D01*
X281122*
Y157382*
X275807*
Y157874D02*
X281122D01*
X275983Y157382D02*
Y157972D01*
X276573Y157382D02*
Y157972D01*
X277164Y157382D02*
Y157972D01*
X277754Y157382D02*
Y157972D01*
X278345Y157382D02*
Y157972D01*
X278935Y157382D02*
Y157972D01*
X279526Y157382D02*
Y157972D01*
X280117Y157382D02*
Y157972D01*
X280707Y157382D02*
Y157972D01*
G54D26*
X284528Y158307D03*
Y181063D03*
G54D27*
X298307Y186713D03*
Y152657D03*
G54D28*
X282559D03*
Y186713D03*
G54D29*
X119291Y111969D02*
X117806Y108453D01*
X120776*
X119291Y111969*
X117953Y108800D02*
X120630D01*
X118291Y109600D02*
X120292D01*
X118629Y110400D02*
X119954D01*
X118967Y111200D02*
X119616D01*
X118400Y108453D02*
Y109859D01*
X119200Y108453D02*
Y111752D01*
X120000Y108453D02*
Y110291D01*
X201943Y104317D02*
X201373Y106694D01*
X199566Y104886*
X201943Y104317*
X199927Y104800D02*
X201827D01*
X200279Y105600D02*
X201635D01*
X201079Y106400D02*
X201444D01*
X200000Y104782D02*
Y105321D01*
X200800Y104591D02*
Y106121D01*
X201600Y104399D02*
Y105748D01*
X221098Y113439D02*
X222072Y113027D01*
Y113851*
X221098Y113439*
X221478Y113600D02*
X222072D01*
X221600Y113227D02*
Y113652D01*
X212827Y110504D02*
X209291Y109069D01*
X211391Y106969*
X212827Y110504*
X211160Y107200D02*
X211485D01*
X210360Y108000D02*
X211810D01*
X209560Y108800D02*
X212135D01*
X210600Y109600D02*
X212460D01*
X212571Y110400D02*
X212785D01*
X209600Y108760D02*
Y109194D01*
X210400Y107960D02*
Y109519D01*
X211200Y107160D02*
Y109843D01*
X212000Y108468D02*
Y110168D01*
X212800Y110438D02*
Y110493D01*
X221098Y116716D02*
X222072Y116304D01*
Y117128*
X221098Y116716*
X221296Y116800D02*
X222072D01*
X221600Y116504D02*
Y116929D01*
X185443Y106969D02*
X187665Y105639D01*
Y108298*
X185443Y106969*
X186394Y106400D02*
X187665D01*
X185830Y107200D02*
X187665D01*
X187168Y108000D02*
X187665D01*
X185600Y106875D02*
Y107062D01*
X186400Y106396D02*
Y107541D01*
X187200Y105918D02*
Y108019D01*
X175444Y106969D02*
X177665Y105640D01*
Y108297*
X175444Y106969*
X176394Y106400D02*
X177665D01*
X175831Y107200D02*
X177665D01*
X177168Y108000D02*
X177665D01*
X176000Y106636D02*
Y107301D01*
X176800Y106157D02*
Y107780D01*
X177600Y105679D02*
Y108258D01*
X165520Y106969D02*
X167634Y105679D01*
Y108258*
X165520Y106969*
X166452Y106400D02*
X167634D01*
X165899Y107200D02*
X167634D01*
X167211Y108000D02*
X167634D01*
X165600Y106920D02*
Y107017D01*
X166400Y106432D02*
Y107505D01*
X167200Y105944D02*
Y107993D01*
X145462Y106969D02*
X147658Y105649D01*
Y108288*
X145462Y106969*
X146408Y106400D02*
X147658D01*
X145847Y107200D02*
X147658D01*
X147178Y108000D02*
X147658D01*
X145600Y106886D02*
Y107051D01*
X146400Y106405D02*
Y107532D01*
X147200Y105924D02*
Y108013D01*
X181100Y118946D02*
X180126Y119359D01*
Y118534*
X181100Y118946*
X180126Y119200D02*
X180501D01*
X180800Y118820D02*
Y119073D01*
X193518Y123064D02*
X193105Y122090D01*
X193930*
X193518Y123064*
X193237Y122400D02*
X193799D01*
X193600Y122090D02*
Y122869D01*
X199197Y128914D02*
X201589Y128402D01*
Y129426*
X199197Y128914*
X199729Y128800D02*
X201589D01*
X199200Y128913D02*
Y128915D01*
X200000Y128742D02*
Y129086D01*
X200800Y128571D02*
Y129257D01*
X265809Y116247D02*
X264233Y116671D01*
Y115823*
X265809Y116247*
X264233Y116000D02*
X264893D01*
X264800Y115975D02*
Y116519D01*
X265600Y116190D02*
Y116303D01*
X205756Y110504D02*
X207191Y106969D01*
X209291Y109069*
X205756Y110504*
X207097Y107200D02*
X207423D01*
X206773Y108000D02*
X208223D01*
X206448Y108800D02*
X209023D01*
X206123Y109600D02*
X207982D01*
X205798Y110400D02*
X206012D01*
X206400Y108917D02*
Y110242D01*
X207200Y106977D02*
Y109918D01*
X208000Y107777D02*
Y109593D01*
X208800Y108577D02*
Y109268D01*
X186425Y127719D02*
X185445Y127322D01*
X186028Y126739*
X186425Y127719*
X185567Y127200D02*
X186215D01*
X185600Y127167D02*
Y127385D01*
X186400Y127657D02*
Y127709D01*
X207401Y128914D02*
X205009Y129426D01*
Y128402*
X207401Y128914*
X205009Y128800D02*
X206868D01*
X205600Y128529D02*
Y129299D01*
X206400Y128700D02*
Y129128D01*
X207200Y128871D02*
Y128957D01*
X264749Y123690D02*
X267524Y122205D01*
Y125175*
X264749Y123690*
X267160Y122400D02*
X267524D01*
X265665Y123200D02*
X267524D01*
X265328Y124000D02*
X267524D01*
X266823Y124800D02*
X267524D01*
X264800Y123663D02*
Y123717D01*
X265600Y123235D02*
Y124145D01*
X266400Y122807D02*
Y124573D01*
X267200Y122379D02*
Y125002D01*
X216052Y131714D02*
X215078Y132126D01*
Y131302*
X216052Y131714*
X215078Y132000D02*
X215376D01*
X215200Y131354D02*
Y132075D01*
X216000Y131692D02*
Y131736D01*
X135756Y110504D02*
X137191Y106969D01*
X139291Y109069*
X135756Y110504*
X137097Y107200D02*
X137423D01*
X136773Y108000D02*
X138223D01*
X136448Y108800D02*
X139023D01*
X136123Y109600D02*
X137982D01*
X135798Y110400D02*
X136012D01*
X136000Y109903D02*
Y110405D01*
X136800Y107932D02*
Y110080D01*
X137600Y107377D02*
Y109755D01*
X138400Y108177D02*
Y109430D01*
X139200Y108977D02*
Y109106D01*
X125756Y110504D02*
X127191Y106969D01*
X129291Y109069*
X125756Y110504*
X127097Y107200D02*
X127423D01*
X126773Y108000D02*
X128223D01*
X126448Y108800D02*
X129023D01*
X126123Y109600D02*
X127982D01*
X125798Y110400D02*
X126012D01*
X126400Y108917D02*
Y110242D01*
X127200Y106977D02*
Y109918D01*
X128000Y107777D02*
Y109593D01*
X128800Y108577D02*
Y109268D01*
X178280Y118946D02*
X179254Y118534D01*
Y119359*
X178280Y118946*
X178879Y119200D02*
X179254D01*
X178400Y118896D02*
Y118997D01*
X179200Y118557D02*
Y119336D01*
X199197Y133914D02*
X201589Y133402D01*
Y134426*
X199197Y133914*
X200665Y133600D02*
X201589D01*
X201469Y134400D02*
X201589D01*
X199200Y133913D02*
Y133915D01*
X200000Y133742D02*
Y134086D01*
X200800Y133571D02*
Y134257D01*
X207401Y133914D02*
X205009Y134426D01*
Y133402*
X207401Y133914*
X205009Y133600D02*
X205933D01*
X205009Y134400D02*
X205128D01*
X205600Y133529D02*
Y134299D01*
X206400Y133700D02*
Y134128D01*
X207200Y133871D02*
Y133957D01*
X265474Y130155D02*
X269009Y131590D01*
X266909Y133690*
X265474Y130155*
X265573Y130400D02*
X266078D01*
X265898Y131200D02*
X268048D01*
X266223Y132000D02*
X268599D01*
X266548Y132800D02*
X267799D01*
X266873Y133600D02*
X266999D01*
X265600Y130206D02*
Y130466D01*
X266400Y130531D02*
Y132436D01*
X267200Y130856D02*
Y133399D01*
X268000Y131180D02*
Y132599D01*
X268800Y131505D02*
Y131799D01*
X300972Y140878D02*
X301384Y141852D01*
X300560*
X300972Y140878*
X300666Y141600D02*
X301278D01*
X300800Y141284D02*
Y141852D01*
X154000Y149053D02*
X154412Y150027D01*
X153588*
X154000Y149053*
X153768Y149600D02*
X154231D01*
X153600Y149997D02*
Y150027D01*
X154400Y149998D02*
Y150027D01*
X199400Y151287D02*
X198426Y151699D01*
Y150875*
X199400Y151287*
X198426Y151200D02*
X199194D01*
X199200Y151203D02*
Y151372D01*
X234798Y131436D02*
X235195Y130456D01*
X235778Y131039*
X234798Y131436*
X234894Y131200D02*
X235381D01*
X235200Y130461D02*
Y131273D01*
X213615Y147269D02*
X212641Y147681D01*
Y146857*
X213615Y147269*
X212641Y147200D02*
X213451D01*
X212800Y146924D02*
Y147614D01*
X213600Y147263D02*
Y147275D01*
X234798Y125627D02*
X235195Y124646D01*
X235778Y125229*
X234798Y125627*
X235133Y124800D02*
X235349D01*
X234809Y125600D02*
X234864D01*
X235200Y124651D02*
Y125464D01*
X219496Y142634D02*
X219099Y143615D01*
X218516Y143032*
X219496Y142634*
X218685Y143200D02*
X219267D01*
X219200Y142754D02*
Y143366D01*
X195812Y155179D02*
X194838Y155591D01*
Y154767*
X195812Y155179*
X194838Y155200D02*
X195762D01*
X195200Y154920D02*
Y155438D01*
X235795Y137814D02*
X235383Y136840D01*
X236207*
X235795Y137814*
X235705Y137600D02*
X235885D01*
X236000Y136840D02*
Y137329D01*
X144260Y169806D02*
X144673Y170780D01*
X143848*
X144260Y169806*
X144009Y170400D02*
X144512D01*
X144000Y170422D02*
Y170780D01*
X233469Y172258D02*
X234443Y171846D01*
Y172670*
X233469Y172258*
X234078Y172000D02*
X234443D01*
X233600Y172202D02*
Y172313D01*
X234400Y171864D02*
Y172652D01*
X233620Y170255D02*
X234235Y169394D01*
X234666Y170097*
X233620Y170255*
X234088Y169600D02*
X234361D01*
X234400Y169664D02*
Y170137D01*
X266098Y168701D02*
X265124Y169113D01*
Y168289*
X266098Y168701*
X265124Y168800D02*
X265864D01*
X265600Y168490D02*
Y168912D01*
X255756Y229220D02*
X259291Y230656D01*
X257191Y232756*
X255756Y229220*
X255910Y229600D02*
X256691D01*
X256235Y230400D02*
X258661D01*
X256560Y231200D02*
X258747D01*
X256884Y232000D02*
X257947D01*
X256000Y229320D02*
Y229822D01*
X256800Y229644D02*
Y231792D01*
X257600Y229969D02*
Y232347D01*
X258400Y230294D02*
Y231547D01*
X259200Y230619D02*
Y230747D01*
X265756Y229220D02*
X269291Y230656D01*
X267191Y232756*
X265756Y229220*
X265910Y229600D02*
X266691D01*
X266235Y230400D02*
X268661D01*
X266560Y231200D02*
X268747D01*
X266884Y232000D02*
X267947D01*
X266400Y229482D02*
Y230807D01*
X267200Y229807D02*
Y232747D01*
X268000Y230132D02*
Y231947D01*
X268800Y230456D02*
Y231147D01*
X270250Y174611D02*
X269853Y175591D01*
X269270Y175008*
X270250Y174611*
X269462Y175200D02*
X270012D01*
X269600Y174874D02*
Y175338D01*
X205756Y229220D02*
X209291Y230656D01*
X207191Y232756*
X205756Y229220*
X205910Y229600D02*
X206691D01*
X206235Y230400D02*
X208661D01*
X206560Y231200D02*
X208747D01*
X206884Y232000D02*
X207947D01*
X206400Y229482D02*
Y230807D01*
X207200Y229807D02*
Y232747D01*
X208000Y230132D02*
Y231947D01*
X208800Y230456D02*
Y231147D01*
X215756Y229220D02*
X219291Y230656D01*
X217191Y232756*
X215756Y229220*
X215910Y229600D02*
X216691D01*
X216235Y230400D02*
X218661D01*
X216560Y231200D02*
X218747D01*
X216884Y232000D02*
X217947D01*
X216000Y229320D02*
Y229822D01*
X216800Y229644D02*
Y231792D01*
X217600Y229969D02*
Y232347D01*
X218400Y230294D02*
Y231547D01*
X219200Y230619D02*
Y230747D01*
X225756Y229220D02*
X229291Y230656D01*
X227191Y232756*
X225756Y229220*
X225910Y229600D02*
X226691D01*
X226235Y230400D02*
X228661D01*
X226560Y231200D02*
X228747D01*
X226884Y232000D02*
X227947D01*
X226400Y229482D02*
Y230807D01*
X227200Y229807D02*
Y232747D01*
X228000Y230132D02*
Y231947D01*
X228800Y230456D02*
Y231147D01*
X235756Y229220D02*
X239291Y230656D01*
X237191Y232756*
X235756Y229220*
X235910Y229600D02*
X236691D01*
X236235Y230400D02*
X238661D01*
X236560Y231200D02*
X238747D01*
X236884Y232000D02*
X237947D01*
X236000Y229320D02*
Y229822D01*
X236800Y229644D02*
Y231792D01*
X237600Y229969D02*
Y232347D01*
X238400Y230294D02*
Y231547D01*
X239200Y230619D02*
Y230747D01*
X179690Y186203D02*
X180806Y188325D01*
X178573*
X179690Y186203*
X179586Y186400D02*
X179793D01*
X179165Y187200D02*
X180214D01*
X178744Y188000D02*
X180635D01*
X179200Y187134D02*
Y188325D01*
X180000Y186793D02*
Y188325D01*
X180800Y188314D02*
Y188325D01*
X179690Y184993D02*
X179278Y184019D01*
X180102*
X179690Y184993*
X179608Y184800D02*
X179772D01*
X180000Y184019D02*
Y184261D01*
X200328Y189661D02*
X198194Y190873D01*
Y188448*
X200328Y189661*
X198194Y188800D02*
X198813D01*
X198194Y189600D02*
X200221D01*
X198194Y190400D02*
X199027D01*
X198400Y188566D02*
Y190756D01*
X199200Y189020D02*
Y190302D01*
X200000Y189474D02*
Y189847D01*
X208293Y190069D02*
X209273Y190466D01*
X208690Y191049*
X208293Y190069*
X208427Y190400D02*
X209110D01*
X208800Y190274D02*
Y190939D01*
X145756Y229220D02*
X149291Y230656D01*
X147191Y232756*
X145756Y229220*
X145910Y229600D02*
X146691D01*
X146235Y230400D02*
X148661D01*
X146560Y231200D02*
X148747D01*
X146884Y232000D02*
X147947D01*
X146400Y229482D02*
Y230807D01*
X147200Y229807D02*
Y232747D01*
X148000Y230132D02*
Y231947D01*
X148800Y230456D02*
Y231147D01*
X155756Y229220D02*
X159291Y230656D01*
X157191Y232756*
X155756Y229220*
X155910Y229600D02*
X156691D01*
X156235Y230400D02*
X158661D01*
X156560Y231200D02*
X158747D01*
X156884Y232000D02*
X157947D01*
X156000Y229320D02*
Y229822D01*
X156800Y229644D02*
Y231792D01*
X157600Y229969D02*
Y232347D01*
X158400Y230294D02*
Y231547D01*
X159200Y230619D02*
Y230747D01*
X165756Y229220D02*
X169291Y230656D01*
X167191Y232756*
X165756Y229220*
X165910Y229600D02*
X166691D01*
X166235Y230400D02*
X168661D01*
X166560Y231200D02*
X168747D01*
X166884Y232000D02*
X167947D01*
X166400Y229482D02*
Y230807D01*
X167200Y229807D02*
Y232747D01*
X168000Y230132D02*
Y231947D01*
X168800Y230456D02*
Y231147D01*
X175756Y229220D02*
X179291Y230656D01*
X177191Y232756*
X175756Y229220*
X175910Y229600D02*
X176691D01*
X176235Y230400D02*
X178661D01*
X176560Y231200D02*
X178747D01*
X176884Y232000D02*
X177947D01*
X176000Y229320D02*
Y229822D01*
X176800Y229644D02*
Y231792D01*
X177600Y229969D02*
Y232347D01*
X178400Y230294D02*
Y231547D01*
X179200Y230619D02*
Y230747D01*
X185756Y229220D02*
X189291Y230656D01*
X187191Y232756*
X185756Y229220*
X185910Y229600D02*
X186691D01*
X186235Y230400D02*
X188661D01*
X186560Y231200D02*
X188747D01*
X186884Y232000D02*
X187947D01*
X186400Y229482D02*
Y230807D01*
X187200Y229807D02*
Y232747D01*
X188000Y230132D02*
Y231947D01*
X188800Y230456D02*
Y231147D01*
X175950Y201022D02*
X174833Y198900D01*
X177066*
X175950Y201022*
X174991Y199200D02*
X176908D01*
X175412Y200000D02*
X176487D01*
X175833Y200800D02*
X176066D01*
X175200Y198900D02*
Y199597D01*
X176000Y198900D02*
Y200926D01*
X176800Y198900D02*
Y199406D01*
X183430Y195062D02*
X184546Y197183D01*
X182313*
X183430Y195062*
X183357Y195200D02*
X183503D01*
X182936Y196000D02*
X183924D01*
X182515Y196800D02*
X184345D01*
X182400Y197019D02*
Y197183D01*
X183200Y195498D02*
Y197183D01*
X184000Y196145D02*
Y197183D01*
X119655Y204411D02*
X120067Y205385D01*
X119242*
X119655Y204411*
X119490Y204800D02*
X119819D01*
X120000Y205227D02*
Y205385D01*
X181056Y206818D02*
X180076Y206421D01*
X180659Y205838*
X181056Y206818*
X180096Y206400D02*
X180886D01*
X180800Y206187D02*
Y206714D01*
X192289Y206888D02*
X191309Y206490D01*
X191892Y205907*
X192289Y206888*
X191399Y206400D02*
X192091D01*
X192000Y206175D02*
Y206771D01*
X283645Y208284D02*
X285284Y207723D01*
Y208844*
X283645Y208284*
X284474Y208000D02*
X285284D01*
X285154Y208800D02*
X285284D01*
X284000Y208162D02*
Y208405D01*
X284800Y207888D02*
Y208679D01*
X135756Y229220D02*
X139291Y230656D01*
X137191Y232756*
X135756Y229220*
X135910Y229600D02*
X136691D01*
X136235Y230400D02*
X138661D01*
X136560Y231200D02*
X138747D01*
X136884Y232000D02*
X137947D01*
X136000Y229320D02*
Y229822D01*
X136800Y229644D02*
Y231792D01*
X137600Y229969D02*
Y232347D01*
X138400Y230294D02*
Y231547D01*
X139200Y230619D02*
Y230747D01*
X125756Y229220D02*
X129291Y230656D01*
X127191Y232756*
X125756Y229220*
X125910Y229600D02*
X126691D01*
X126235Y230400D02*
X128661D01*
X126560Y231200D02*
X128747D01*
X126884Y232000D02*
X127947D01*
X126400Y229482D02*
Y230807D01*
X127200Y229807D02*
Y232747D01*
X128000Y230132D02*
Y231947D01*
X128800Y230456D02*
Y231147D01*
X119291Y106969D02*
Y142024D01*
X136379Y159112*
Y167970*
X199291Y106969D02*
X202791Y103469D01*
X210791*
X220762Y113439*
X222508*
X209291Y106969D02*
X219039Y116716D01*
X222508*
X240250Y110908D02*
X248088D01*
X250669Y113488*
Y117132*
X130491Y122344D02*
Y137294D01*
X155656Y162458*
X130491Y122344D02*
X132758Y120078D01*
X143463*
X146639Y116902*
X160585*
X164218Y113269*
X171908*
X171908D02*
X173306Y111872D01*
X181322*
X182692Y110502*
X191782*
X195316Y106969*
X199291*
X129091Y121764D02*
Y137874D01*
X152570Y161353*
Y170381*
X129091Y121764D02*
X132178Y118678D01*
X142865*
X146042Y115502*
X159919*
X163552Y111869*
X171326*
X172725Y110470*
X180742*
X184243Y106969*
X189291*
X127691Y121184D02*
Y138454D01*
X150159Y160922*
Y167970*
X127691Y121184D02*
X131598Y117278D01*
X142268*
X145444Y114102*
X159252*
X162885Y110469*
X170744*
X174244Y106969*
X179291*
X126291Y120605D02*
Y139034D01*
X148190Y160933*
Y167970*
X126291Y120605D02*
X131018Y115878D01*
X141667*
X144843Y112702*
X158587*
X164320Y106969*
X169291*
X124891Y120025D02*
Y139616D01*
X146222Y160946*
Y167970*
X124891Y120025D02*
X130438Y114478D01*
X140672*
X144676Y110473*
X151812*
X155316Y106969*
X159291*
X123491Y119232D02*
Y140198D01*
X142285Y158991*
Y167970*
X123491Y119232D02*
X129796Y112928D01*
X138303*
X144262Y106969*
X149291*
X179690Y118946D02*
X244854D01*
X246669Y117132*
X193518Y121654D02*
Y125321D01*
X197111Y128914*
X203299*
X263809Y116247D02*
X268024D01*
X270073Y114198*
Y110908*
X131891Y122924D02*
Y136714D01*
X157278Y162101*
X131891Y122924D02*
X133223Y121593D01*
X143942*
X147213Y118323*
X161232*
X164764Y114790*
X172370*
X173886Y113274*
X181905*
X183242Y111936*
X204324*
X209291Y106969*
X185428Y126722D02*
X188614Y129909D01*
X191403*
X203299Y128914D02*
X212633D01*
X221018Y120530*
X260389*
X263549Y123690*
X269009*
X214642Y131714D02*
X217550D01*
X220284Y128979*
Y126220*
X222590Y123914*
X224165*
X288547Y126268D02*
X296972D01*
X122091Y140780D02*
X140316Y159005D01*
Y167970*
X122091Y140780D02*
Y118653D01*
X129216Y111528*
X134732*
X139291Y106969*
X120691Y141366D02*
X138348Y159023D01*
Y167970*
X120691Y141366D02*
Y115569D01*
X129291Y106969*
X153980Y137758D02*
Y141696D01*
X153987Y141703*
Y145641*
X153980Y137758D02*
Y128385D01*
X163418Y118946*
X179690*
X191403Y133909D02*
X196569D01*
X196574Y133914*
X203299*
X209613*
X221598Y121930*
X257249*
X269009Y133690*
X288547Y137876D02*
X296972D01*
X300972D02*
Y140082D01*
X300972*
Y142288*
X153987Y145641D02*
Y148046D01*
X154000Y148058*
Y150463*
X197990Y151287D02*
X209146D01*
X210236Y150197*
X218110*
X220079Y148228*
X223031*
X232874Y138386*
Y133360*
X235795Y130439*
X212205Y147269D02*
X218085D01*
X219094Y146260*
X222047*
X230906Y137402*
Y129519*
X235795Y124630*
X218499Y143631D02*
X220079Y142052D01*
Y141425*
X222590Y138914*
X224165*
X194402Y155179D02*
X208207D01*
X211220Y152165*
X219094*
X221063Y150197*
X224016*
X235795Y138418*
Y136404*
X152570Y172350D02*
X154299D01*
X155656Y170993*
Y162458*
X144253Y167970D02*
X144260D01*
Y171216*
X167882Y168915D02*
X174785D01*
X177756Y165945*
X200394*
X211789Y154550*
X218977*
X207846Y166366D02*
X212028D01*
X212041Y166352*
X215626*
X232161Y172258D02*
X233047D01*
X234879*
X232161Y170289D02*
X233565D01*
X234822Y169518*
X232161Y164384D02*
X235344D01*
X235351Y164376*
X238155*
X264688Y168701D02*
X278465D01*
X267714Y164766D02*
X272112D01*
X272114Y164764*
X278465*
Y166732D02*
X282335D01*
X283363Y167760*
X278465Y170669D02*
X282528D01*
X283363Y169834*
Y167760*
X122606Y182042D02*
Y182164D01*
X126094*
Y182192*
X152570Y180224D02*
X152570D01*
X159623*
X161541Y182142*
Y210989*
X167326Y216774*
X177318*
X180093Y219550*
X197103*
X199833Y222279*
X218144*
X221324Y225459*
X241994*
X249291Y232756*
X152570Y178255D02*
X161316D01*
X162941Y179881*
Y210409*
X167906Y215374*
X177901*
X180677Y218150*
X198018*
X200747Y220879*
X218869*
X221949Y223959*
X242900*
X247268Y228328*
X254864*
X259291Y232756*
X152570Y176287D02*
X161445D01*
X164341Y179184*
Y209829*
X168486Y213974*
X178485*
X181260Y216750*
X198933*
X201662Y219479*
X219593*
X222673Y222559*
X243905*
X247973Y226628*
X263163*
X269291Y232756*
X152570Y174318D02*
X154749D01*
X157278Y171789*
Y162101*
X190515Y179966D02*
Y187163D01*
X193706Y190354*
Y198519*
X269253Y175608D02*
X272223Y172638D01*
X278465*
X268188Y181703D02*
X273316Y176575D01*
X278465*
X122222Y185135D02*
X123212Y184145D01*
X126094*
Y184161*
X152570Y192035D02*
Y211918D01*
X164433Y223780*
X174346*
X177140Y226573*
X193109*
X199291Y232756*
X152570Y190066D02*
Y190067D01*
X154299*
X155941Y191709*
Y213309*
X165008Y222376*
X174947*
X177721Y225150*
X193845*
X196877Y228182*
X204718*
X209291Y232756*
X152570Y188098D02*
X154310D01*
X157341Y191129*
Y212729*
X165588Y220976*
X175552*
X178326Y223750*
X194604*
X197510Y226655*
X213191*
X219291Y232756*
X152570Y186129D02*
X154322D01*
X158741Y190549*
Y212149*
X166167Y219574*
X176142*
X178917Y222350*
X195414*
X198144Y225079*
X216774*
X219983Y228288*
X224824*
X229291Y232756*
X152570Y184161D02*
X154333D01*
X160141Y189969*
Y211569*
X166746Y218174*
X176733*
X179508Y220950*
X196224*
X198954Y223679*
X217423*
X220633Y226888*
X233424*
X239291Y232756*
X179690Y189183D02*
Y185899D01*
X179690*
Y183583*
X197446Y189661D02*
X207885D01*
X209290Y191066*
X128505Y194446D02*
Y211970D01*
X149291Y232756*
X130474Y194446D02*
Y211959D01*
X130474D02*
X146519Y228004D01*
X154539*
X159291Y232756*
X132442Y194446D02*
Y211947D01*
X147099Y226604*
X155190*
X156657Y228070*
X164606*
X169291Y232756*
X142285Y194446D02*
Y205618D01*
X163331Y226665*
X173200*
X179291Y232756*
X144253Y194446D02*
Y205581D01*
X163853Y225180*
X173733*
X176552Y227999*
X184535*
X189291Y232756*
X175950Y198042D02*
Y207233D01*
X178763Y210046*
X187518*
X183430Y198042D02*
Y190063D01*
X186515Y186977*
Y179966*
X193706Y198519D02*
Y198421D01*
X197773Y194354*
X212432*
X215276Y197198*
X216576*
X227694Y193953D02*
Y186523D01*
X241360Y172857*
X268737*
X270925Y170669*
X278465*
X225726Y193953D02*
Y186296D01*
X240564Y171457*
X260664*
X263420Y168701*
X264688*
X234876Y199166D02*
X240694D01*
X242722Y201195*
X119655Y205821D02*
Y203529D01*
X120471Y202712*
Y190023*
X124365Y186129*
X126094*
X180059Y205821D02*
X182284Y208046D01*
X190053*
X192053Y210046*
X196365*
X191292Y205891D02*
X193447Y208046D01*
X201408*
X206351Y203103*
X216576*
X187518Y206046D02*
X190797Y202767D01*
X197037*
X201186Y198618*
X201186D02*
Y198519D01*
X187518Y210046D02*
X189518Y212046D01*
X203345*
X210319Y205072*
X216576*
X196365Y206046D02*
X199286Y203126D01*
X203474*
X205464Y201135*
X216576*
X275840Y208284D02*
X280649D01*
X280650*
X286210*
X139291Y232756D02*
X123362Y216826D01*
Y191493*
X124788Y190066*
X126094*
X129291Y232756D02*
X121871Y225336D01*
Y190765*
X124538Y188098*
X126094*
G54D30*
X107874Y107874D03*
X300787D03*
X107874Y231890D03*
X301062Y232292D03*
G54D31*
X123622Y102953D03*
X134449D03*
X145276D03*
X154134D03*
X165945D03*
X174803D03*
X184646D03*
X195472D03*
X216142D03*
X251575Y104921D03*
X276181Y106890D03*
X105906Y121654D03*
X115748Y120669D03*
X179690Y118946D03*
X185630Y115748D03*
X193518Y121654D03*
X222508Y116716D03*
Y113439D03*
X233858Y115748D03*
X263809Y116247D03*
X279134Y117717D03*
X292913Y121654D03*
X297835Y118701D03*
X303740D03*
X109843Y132480D03*
X110827Y125591D03*
X103937Y129528D03*
X140354Y132480D03*
X146260Y130512D03*
X144291Y126575D03*
X151181Y125591D03*
X162008Y128543D03*
X164961Y125591D03*
X170866Y124606D03*
X185428Y126722D03*
X214642Y131714D03*
X220079Y132480D03*
X231890Y124606D03*
X235795Y130439D03*
Y124630D03*
X249606Y125591D03*
X277165Y131496D03*
X292913D03*
X304724D03*
X103937Y138386D03*
X108858Y139370D03*
X114764Y137402D03*
X142323Y138386D03*
X147244Y135433D03*
X165945Y140354D03*
X169882Y141339D03*
X165945Y135433D03*
X173819Y133465D03*
X187598Y139370D03*
X213441Y136906D03*
X235795Y136404D03*
X278150Y141339D03*
X300972Y142288D03*
X103059Y147142D03*
X102953Y151181D03*
X112795Y146260D03*
X105906Y145276D03*
X111811Y151181D03*
X108858D03*
X105906D03*
X116732Y145276D03*
X117717Y152165D03*
X114764Y151181D03*
X123622Y152165D03*
X148228Y145276D03*
X154000Y150463D03*
X161024Y144291D03*
X166929Y147244D03*
X192520Y143307D03*
X189567Y152165D03*
X197990Y151287D03*
X212205Y147269D03*
X209054Y143489D03*
X218499Y143631D03*
X234843Y152165D03*
X264442Y145892D03*
X264370Y150197D03*
X288900Y145892D03*
X121654Y157087D03*
X120669Y161024D03*
X117717D03*
Y158071D03*
Y155118D03*
X128543Y157087D03*
X132480Y162008D03*
X129528Y161024D03*
X126575D03*
X123622D03*
X186614Y160039D03*
X194402Y155179D03*
X216142Y157087D03*
X238780Y156102D03*
X293898Y160039D03*
X121654Y169882D03*
X117717Y171850D03*
Y168898D03*
X120669Y165945D03*
X117717D03*
X126575D03*
X123622D03*
X133465Y164961D03*
X144260Y171216D03*
X175787Y164961D03*
X174803Y171850D03*
X186614D03*
X200394Y169882D03*
X234879Y172258D03*
X234822Y169518D03*
X264688Y168701D03*
X299803Y169882D03*
X298819Y162992D03*
X122606Y182042D03*
X122536Y177428D03*
X117717Y180709D03*
Y177756D03*
Y174803D03*
X141339Y178740D03*
X135433Y181693D03*
Y176772D03*
X144291Y181693D03*
X163894Y174616D03*
X169882Y179724D03*
X239764Y181693D03*
X269253Y175608D03*
X296850Y174803D03*
X122222Y185135D03*
X117717Y192520D03*
Y189567D03*
Y186614D03*
Y183661D03*
X143307Y186614D03*
X138386Y185630D03*
X158245Y183143D03*
X167913Y185630D03*
X179690Y183583D03*
X200394Y182677D03*
X209290Y191066D03*
X221063Y183661D03*
X238780Y187598D03*
X266339Y189567D03*
X272244Y188583D03*
X295866Y192520D03*
X102953Y196457D03*
X103937Y201378D03*
X108858D03*
X105906Y196457D03*
X108858D03*
X111811D03*
X113780Y200394D03*
X114764Y196457D03*
X117717Y195472D03*
X138386Y201378D03*
X148883Y200146D03*
X167913Y198425D03*
X188821Y193676D03*
X228937Y200394D03*
X278150Y194488D03*
X288900Y196428D03*
X107874Y209252D03*
X108858Y206299D03*
X103937Y207283D03*
X119655Y205821D03*
X139370Y212205D03*
X170866Y209252D03*
X180059Y205821D03*
X191292Y205891D03*
X223031Y203346D03*
X227953Y205315D03*
X224016Y207283D03*
X102953Y222047D03*
X109843Y213189D03*
X110827Y222047D03*
X106890Y220079D03*
X104921Y215157D03*
X117717Y216142D03*
X129528Y218110D03*
X145276Y214173D03*
X148228Y219094D03*
X182677Y213189D03*
X239764Y215157D03*
X248622Y214173D03*
X251575Y221063D03*
X246654Y218110D03*
X256496Y217126D03*
X268307D03*
X269291Y221063D03*
X275197Y218110D03*
X291929Y215157D03*
X284055Y219094D03*
X304724Y220079D03*
X126575Y224016D03*
X135433Y223031D03*
X124606Y235827D03*
X135433D03*
X144291D03*
X154134D03*
X164961Y236811D03*
X173819Y234843D03*
X184646Y235827D03*
X194488D03*
X205315D03*
X214173Y236811D03*
X224016Y235827D03*
X233858D03*
X244685D03*
X254528D03*
X265354D03*
G74*
X0Y0D02*
M02*
