*
*
G04 PADS VX.2.4 Build Number: 11282995 generated Gerber (RS-274-X) file*
G04 PC Version=2.1*
*
%IN "ESP32-PicoD4_EVK.pcb"*%
*
%MOIN*%
*
%FSLAX35Y35*%
*
*
*
*
G04 PC Standard Apertures*
*
*
G04 Thermal Relief Aperture macro.*
%AMTER*
1,1,$1,0,0*
1,0,$1-$2,0,0*
21,0,$3,$4,0,0,45*
21,0,$3,$4,0,0,135*
%
*
*
G04 Annular Aperture macro.*
%AMANN*
1,1,$1,0,0*
1,0,$2,0,0*
%
*
*
G04 Odd Aperture macro.*
%AMODD*
1,1,$1,0,0*
1,0,$1-0.005,0,0*
%
*
*
G04 PC Custom Aperture Macros*
*
*
*
*
*
*
G04 PC Aperture Table*
*
%ADD010C,0.001*%
%ADD011C,0.01*%
%ADD013C,0.05*%
%ADD016C,0.015*%
%ADD026C,0.02559*%
%ADD027O,0.06299X0.03937*%
%ADD028O,0.08268X0.03937*%
%ADD029C,0.008*%
%ADD030C,0.11811*%
%ADD031C,0.02*%
%ADD032R,0.01968X0.01968*%
*
*
*
*
G04 PC Circuitry*
G04 Layer Name ESP32-PicoD4_EVK.pcb - circuitry*
%LPD*%
*
*
G04 PC Custom Flashes*
G04 Layer Name ESP32-PicoD4_EVK.pcb - flashes*
%LPD*%
*
*
G04 PC Circuitry*
G04 Layer Name ESP32-PicoD4_EVK.pcb - circuitry*
%LPD*%
*
G54D10*
G54D11*
G01X288900Y147067D02*
X288556Y146255D01*
X289244*
X288900Y147067*
X288872Y147000D02*
X288928D01*
X289000Y146255D02*
Y146831D01*
X288900Y195253D02*
X289244Y196065D01*
X288556*
X288900Y195253*
X288584Y196000D02*
X289216D01*
X289000Y195489D02*
Y196065D01*
X287725Y145892D02*
X288537Y145548D01*
Y146235*
X287725Y145892*
X287981Y146000D02*
X288537D01*
X288000Y145775D02*
Y146008D01*
X265617Y145892D02*
X264805Y146236D01*
Y145548*
X265617Y145892*
X264805Y146000D02*
X265362D01*
X265000Y145631D02*
Y146153D01*
X163894Y175791D02*
X163550Y174979D01*
X164237*
X163894Y175791*
X163559Y175000D02*
X164228D01*
X164000Y174979D02*
Y175539D01*
X159420Y183143D02*
X158608Y183486D01*
Y182799*
X159420Y183143*
X158608Y183000D02*
X159083D01*
X159000Y182965D02*
Y183320D01*
X244482Y102869D02*
X257643Y116030D01*
Y138506*
X244482Y102869D02*
X227242D01*
X223142Y106969*
X219291*
X257643Y138506D02*
X253543Y142606D01*
Y146457*
X288900Y196428D02*
Y145892D01*
X282536*
X282535*
X264442*
X163894Y174616D02*
Y179961D01*
X160712Y183143*
X158245*
X263291Y232756D02*
G75*
G03X263291I-4000J0D01*
G01X243291D02*
G03X243291I-4000J0D01*
G01X233291D02*
G03X233291I-4000J0D01*
G01X173291Y106969D02*
G03X173291I-4000J0D01*
G01X163291D02*
G03X163291I-4000J0D01*
G01X153291D02*
G03X153291I-4000J0D01*
G01X143291D02*
G03X143291I-4000J0D01*
G01X133291D02*
G03X133291I-4000J0D01*
G01X123291D02*
G03X123291I-4000J0D01*
G01X143291Y232756D02*
G03X143291I-4000J0D01*
G01X133291D02*
G03X133291I-4000J0D01*
G01X273009Y123690D02*
G03X273009I-4000J0D01*
G01Y133690D02*
G03X273009I-4000J0D01*
G01X307004Y232764D02*
G03X301504Y238264I-5500J0D01*
G01X107000*
G03X101500Y232764I0J-5500*
G01Y196079*
G03X102000Y195579I500J-0*
G01X115826*
X116326Y195079D02*
G03X115826Y195579I-500J-0D01*
G01X116326Y195079D02*
Y152559D01*
X115826Y152059D02*
G03X116326Y152559I0J500D01*
G01X115826Y152059D02*
X102000D01*
G03X101500Y151559I0J-500*
G01Y107000*
G03X107000Y101500I5500J0*
G01X224575*
G03X225075Y102000I0J500*
X224929Y102354I-500J0*
G01X222981Y104302*
G03X222256Y104284I-354J-354*
G01X220247Y110853D02*
G03X222256Y104284I-956J-3884D01*
G01X220247Y110853D02*
G03X220867Y111338I120J485D01*
X220724Y111688I-500J0*
G01X220380Y114751D02*
G03X220724Y111688I2128J-1312D01*
G01X220380Y114751D02*
G03X219601Y115367I-426J262D01*
G01X216196Y111963*
X214853Y111406D02*
G03X216196Y111963I-0J1900D01*
G01X214853Y111406D02*
X211469D01*
G03X211227Y110469I0J-500*
G01X207355D02*
G03X211227I1936J-3500D01*
G01X207355D02*
G03X207113Y111406I-242J437D01*
G01X201469*
G03X201227Y110469I0J-500*
G01X197355D02*
G03X201227I1936J-3500D01*
G01X197355D02*
G03X197113Y111406I-242J437D01*
G01X196623*
G03X196270Y111260I0J-500*
G01X194514Y109504*
G03X194404Y109339I354J-353*
G01X193294Y106604*
G03X193261Y106477I463J-188*
G01X185547Y105562D02*
G03X193261Y106477I3744J1407D01*
G01X185547Y105562D02*
G03X184725Y105740I-468J-176D01*
G01X184610Y105625*
X183266Y105068D02*
G03X184610Y105625I0J1901D01*
G01X183266Y105068D02*
X183098D01*
G03X182675Y104835I-0J-500*
G01X182366Y109527D02*
G03X182675Y104835I-3075J-2558D01*
G01X182366Y109527D02*
G03X183104Y109493I385J320D01*
G01X191214Y117603*
X192557Y118159D02*
G03X191214Y117603I0J-1900D01*
G01X192557Y118159D02*
X193340D01*
G03X193518Y118192I-0J500*
X193696Y118159I178J467*
G01X210721*
G03X211075Y118306I0J500*
G01X211085Y118316*
G03X211231Y118669I-354J353*
X210731Y119169I-500J0*
G01X209071*
X208534Y119269D02*
G03X209071Y119169I537J1400D01*
G01X208534Y119269D02*
G03X208176I-179J-467D01*
G01X207640Y119169D02*
G03X208176Y119269I-0J1500D01*
G01X207640Y119169D02*
X205671D01*
X204171Y120669D02*
G03X205671Y119169I1500J0D01*
G01X204171Y120669D02*
Y120944D01*
G03X204025Y121297I-500J-0*
G01X202627Y122695*
X202070Y124039D02*
G03X202627Y122695I1900J-0D01*
G01X202070Y124039D02*
Y222987D01*
G03X201924Y223341I-500J0*
G01X198063Y227202*
G03X197709Y227348I-354J-354*
G01X172799*
X171455Y227905D02*
G03X172799Y227348I1344J1344D01*
G01X171455Y227905D02*
X171085Y228276D01*
G03X170848Y228408I-354J-354*
G01X169461Y228742*
G03X169338Y228756I-117J-486*
G01X165291Y232756D02*
G03X169338Y228756I4000J-0D01*
G01X173291Y232756D02*
G03X165291I-4000J-0D01*
G01X173291D02*
X173291D01*
Y232709D02*
G03Y232756I-4000J47D01*
G01Y232709D02*
G03Y232704I500J-5D01*
X173305Y232587I500J-0*
G01X173559Y231531*
G03X174045Y231149I486J118*
G01X174930*
G03X175414Y231772I-0J500*
G01X183168D02*
G03X175414I-3877J984D01*
G01X183168D02*
G03X183653Y231149I485J-123D01*
G01X184930*
G03X185414Y231772I-0J500*
G01X193168D02*
G03X185414I-3877J984D01*
G01X193168D02*
G03X193653Y231149I485J-123D01*
G01X194930*
G03X195414Y231772I-0J500*
G01X203261Y233247D02*
G03X195414Y231772I-3970J-491D01*
G01X203261Y233247D02*
G03X203294Y233120I496J61D01*
G01X204404Y230386*
G03X204514Y230220I464J188*
G01X205601Y229133*
G03X206415Y229681I354J354*
G01X206203Y230183*
G03X206137Y230296I-460J-194*
G01X212446D02*
G03X206137I-3155J2460D01*
G01X212446D02*
G03X212379Y230183I394J-307D01*
G01X212167Y229681*
G03X212981Y229133I461J-194*
G01X214069Y230220*
G03X214178Y230386I-354J354*
G01X215289Y233120*
G03X215322Y233247I-464J188*
G01X219782Y228786D02*
G03X215322Y233247I-491J3970D01*
G01X219782Y228786D02*
G03X219656Y228753I62J-496D01*
G01X216921Y227643*
G03X216756Y227533I188J-463*
G01X214251Y225029*
G03X214105Y224675I354J-354*
G01Y149166*
G03X214144Y148971I500J0*
G01X214247Y148729*
G03X214290Y148648I460J194*
G01X214705Y147269D02*
G03X214290Y148648I-2500J0D01*
G01X214426Y146122D02*
G03X214705Y147269I-2221J1147D01*
G01X214426Y146122D02*
G03X215038Y145421I444J-230D01*
G01X215676Y145531D02*
G03X215038Y145421I-0J-1900D01*
G01X215676Y145531D02*
X216602D01*
G03X216797Y145571I0J500*
G01X217040Y145674*
G03X217121Y145717I-195J460*
G01X220420Y145232D02*
G03X217121Y145717I-1921J-1601D01*
G01X220420Y145232D02*
G03X221304Y145553I384J321D01*
G01Y152521*
X221860Y153864D02*
G03X221304Y152521I1344J-1343D01*
G01X221860Y153864D02*
X226905Y158909D01*
G03X227051Y159263I-354J354*
G01Y166476*
X227608Y167819D02*
G03X227051Y166476I1343J-1343D01*
G01X227608Y167819D02*
X232293Y172504D01*
G03X232429Y172758I-353J354*
G01X237079Y171070D02*
G03X232429Y172758I-2200J1188D01*
G01X237079Y171070D02*
G03X237069Y170613I440J-238D01*
G01X237322Y169518D02*
G03X237069Y170613I-2500J-0D01*
G01X235322Y167068D02*
G03X237322Y169518I-500J2450D01*
G01X235322Y167068D02*
G03X235234Y167042I100J-490D01*
G01X234990Y166943*
G03X234824Y166833I188J-464*
G01X232398Y164407*
G03X232251Y164053I353J-354*
G01Y157689*
X231695Y156345D02*
G03X232251Y157689I-1344J1344D01*
G01X231695Y156345D02*
X227250Y151900D01*
G03X227104Y151547I354J-353*
G01Y145487*
G03X227957Y145133I500J-0*
G01X229443Y146619*
X230787Y147176D02*
G03X229443Y146619I-0J-1900D01*
G01X230787Y147176D02*
X233698D01*
G03X234052Y147322I0J500*
G01X235111Y147760D02*
G03X234052Y147322I0J-1500D01*
G01X235111Y147760D02*
X237080D01*
X237616Y147661D02*
G03X237080Y147760I-536J-1401D01*
G01X237616Y147661D02*
G03X237974I179J466D01*
G01X238511Y147760D02*
G03X237974Y147661I0J-1500D01*
G01X238511Y147760D02*
X239385D01*
G03X239739Y147906I0J500*
G01X242249Y150416*
G03X242395Y150770I-354J354*
G01Y197209*
X242952Y198553D02*
G03X242395Y197209I1343J-1344D01*
G01X242952Y198553D02*
X248366Y203967D01*
G03X248476Y204133I-354J353*
G01X249531Y206736*
G03X249565Y206872I-463J188*
G01X253958Y202479D02*
G03X249565Y206872I-415J3978D01*
G01X253958Y202479D02*
G03X253822Y202445I52J-497D01*
G01X251219Y201390*
G03X251053Y201280I187J-464*
G01X246342Y196568*
G03X246195Y196215I353J-353*
G01Y193003*
G03X247049Y192650I500J0*
G01X248366Y193967*
G03X248476Y194133I-354J353*
G01X249531Y196736*
G03X249565Y196872I-463J188*
G01X253958Y192479D02*
G03X249565Y196872I-415J3978D01*
G01X253958Y192479D02*
G03X253822Y192445I52J-497D01*
G01X251219Y191390*
G03X251053Y191280I187J-464*
G01X247742Y187969*
G03X247595Y187615I353J-354*
G01Y184525*
G03X248559Y184337I500J0*
G01X249531Y186736*
G03X249565Y186872I-463J188*
G01X253958Y182479D02*
G03X249565Y186872I-415J3978D01*
G01X253958Y182479D02*
G03X253822Y182445I52J-497D01*
G01X251219Y181390*
G03X251053Y181280I187J-464*
G01X249142Y179369*
G03X248995Y179015I353J-354*
G01Y178423*
G03X249945Y178205I500J0*
G01X253958Y172479D02*
G03X249945Y178205I-415J3978D01*
G01X253958Y172479D02*
G03X253822Y172445I52J-497D01*
G01X251219Y171390*
G03X251053Y171280I187J-464*
G01X250542Y170769*
G03X250396Y170415I354J-354*
G01Y170096*
G03X251190Y169692I500J-0*
G01X253958Y162479D02*
G03X251190Y169692I-415J3978D01*
G01X253958Y162479D02*
G03X253822Y162445I52J-497D01*
G01X252208Y161791*
G03X251896Y161327I188J-464*
G01Y160808*
G03X252523Y160325I500J0*
G01Y152589D02*
G03Y160325I1020J3868D01*
G01Y152589D02*
G03X251896Y152106I-127J-483D01*
G01Y150808*
G03X252523Y150325I500J0*
G01X256228Y143492D02*
G03X252523Y150325I-2685J2965D01*
G01X256228Y143492D02*
G03X256064Y143122I336J-370D01*
X256210Y142768I500J-0*
G01X258207Y140771*
G03X259061Y141125I354J354*
G01Y220093*
G03X258914Y220446I-500J-0*
G01X251827Y227533*
G03X251662Y227643I-353J-353*
G01X248927Y228753*
G03X248800Y228786I-188J-463*
G01X253261Y233247D02*
G03X248800Y228786I-3970J-491D01*
G01X253261Y233247D02*
G03X253294Y233120I496J61D01*
G01X254404Y230386*
G03X254514Y230220I464J188*
G01X262304Y222430*
X262861Y221087D02*
G03X262304Y222430I-1900J-0D01*
G01X262861Y221087D02*
Y175775D01*
G03X263714Y175421I500J-0*
G01X265244Y176951*
X266588Y177508D02*
G03X265244Y176951I-0J-1900D01*
G01X266588Y177508D02*
X267357D01*
G03X267551Y177547I-0J500*
G01X267794Y177650*
G03X267875Y177693I-195J460*
G01Y173522D02*
G03Y177693I1378J2086D01*
G01Y173522D02*
G03X267794Y173565I-276J-417D01*
G01X267710Y173601*
G03X267161Y173494I-195J-460*
G01X266735Y173068*
G03X266588Y172714I353J-354*
G01Y170598*
G03X266628Y170403I500J-0*
G01X266731Y170160*
G03X266774Y170079I460J195*
G01X263582Y166459D02*
G03X266774Y170079I1106J2242D01*
G01X263582Y166459D02*
G03X262861Y166011I-221J-448D01*
G01Y148690*
G03X263541Y148224I500J0*
G01X265787Y147999D02*
G03X263541Y148224I-1345J-2107D01*
G01X265787Y147999D02*
G03X265861Y147961I269J422D01*
G01X265929Y147932*
G03X266124Y147892I195J460*
G01X282535*
X282557D02*
G03X282535I-22J-2000D01*
G01X282557D02*
G03X282562I5J500D01*
G01X286400*
G03X286900Y148392I-0J500*
G01Y149060*
G03X286189Y149513I-500J0*
G01X284724Y149189D02*
G03X286189Y149513I0J3468D01*
G01X284724Y149189D02*
X280394D01*
Y156126D02*
G03Y149189I-0J-3469D01*
G01Y156126D02*
X282007D01*
G03X282423Y156903I0J500*
G01X286091Y160296D02*
G03X282423Y156903I-1563J-1989D01*
G01X286091Y160296D02*
G03X286900Y160689I309J393D01*
G01Y178681*
G03X286091Y179074I-500J0*
G01X282423Y182467D02*
G03X286091Y179074I2105J-1404D01*
G01X282423Y182467D02*
G03X282007Y183244I-416J277D01*
G01X280394*
Y190181D02*
G03Y183244I-0J-3468D01*
G01Y190181D02*
X284724D01*
X286189Y189857D02*
G03X284724Y190181I-1465J-3144D01*
G01X286189Y189857D02*
G03X286900Y190310I211J453D01*
G01Y194746*
G03X286860Y194941I-500J-0*
G01X286831Y195009*
G03X286793Y195083I-460J-195*
G01X291007D02*
G03X286793I-2107J1345D01*
G01X291007D02*
G03X290969Y195009I422J-269D01*
G01X290940Y194941*
G03X290900Y194746I460J-195*
G01Y147574*
G03X290940Y147379I500J0*
G01X290969Y147311*
G03X291007Y147237I460J195*
G01X287555Y143784D02*
G03X291007Y147237I1345J2108D01*
G01X287555Y143784D02*
G03X287481Y143823I-269J-421D01*
G01X287413Y143852*
G03X287218Y143892I-195J-460*
G01X282536*
X282514D02*
G03X282536I21J2000D01*
G01X282514D02*
G03X282509I-5J-500D01*
G01X266124*
G03X265929Y143852I0J-500*
G01X265861Y143823*
G03X265787Y143785I195J-460*
G01X263541Y143560D02*
G03X265787Y143785I901J2332D01*
G01X263541Y143560D02*
G03X262861Y143094I-180J-466D01*
G01Y119213*
G03X263435Y118719I500J0*
G01X262431Y114161D02*
G03X263435Y118719I1378J2086D01*
G01X262431Y114161D02*
G03X262350Y114204I-276J-417D01*
G01X261830Y114424*
G03X261790Y114440I-195J-460*
G01X261033Y114903D02*
G03X261790Y114440I1343J1344D01*
G01X261033Y114903D02*
X260362Y115574D01*
G03X259535Y115382I-353J-354*
G01X259058Y114616D02*
G03X259535Y115382I-1415J1414D01*
G01X259058Y114616D02*
X246795Y102354D01*
G03X246649Y102000I354J-354*
X247149Y101500I500J0*
G01X301504*
G03X307004Y107000I-0J5500*
G01Y232764*
X178680Y203735D02*
G03X179807Y203334I1379J2086D01*
G01X178680Y203735D02*
G03X178600Y203779I-275J-417D01*
G01X178357Y203881*
G03X178162Y203921I-195J-460*
G01X121552*
G03X121357Y203881I-0J-500*
G01X121114Y203779*
G03X121033Y203735I195J-461*
G01X120105Y203362D02*
G03X121033Y203735I-450J2459D01*
G01X120105Y203362D02*
G03X119695Y202870I90J-492D01*
X119842Y202517I500J0*
G01X121428Y200930*
X121985Y199586D02*
G03X121428Y200930I-1900J0D01*
G01X121985Y199586D02*
Y188124D01*
G03X122441Y187626I500J-0*
G01X123600Y187221D02*
G03X122441Y187626I-1378J-2086D01*
G01X123600Y187221D02*
G03X123681Y187177I276J417D01*
G01X123924Y187075*
G03X124119Y187035I195J460*
G01X129023*
G03X129376Y187182I-0J500*
G01X139011Y196816*
X140354Y197372D02*
G03X139011Y196816I0J-1900D01*
G01X140354Y197372D02*
X174793D01*
G03X175147Y197519I0J500*
G01X180111Y202483*
G03X179807Y203334I-354J353*
G01X251293Y129257D02*
G03X250440Y129611I-500J0D01*
G01X242126Y121297*
G03X241980Y120944I354J-353*
G01Y120669*
X240480Y119169D02*
G03X241980Y120669I-0J1500D01*
G01X240480Y119169D02*
X238511D01*
X237974Y119269D02*
G03X238511Y119169I537J1400D01*
G01X237974Y119269D02*
G03X237616I-179J-467D01*
G01X237080Y119169D02*
G03X237616Y119269I-0J1500D01*
G01X237080Y119169D02*
X235111D01*
X233611Y120669D02*
G03X235111Y119169I1500J0D01*
G01X233611Y120669D02*
Y122638D01*
X233663Y123029D02*
G03X233611Y122638I1448J-391D01*
G01X233663Y123029D02*
G03X233616Y123404I-483J130D01*
G01X233609Y125843D02*
G03X233616Y123404I2186J-1213D01*
G01X233609Y125843D02*
G03X233672Y126085I-437J242D01*
X233657Y126208I-500J0*
G01X233611Y126575D02*
G03X233657Y126208I1500J-0D01*
G01X233611Y126575D02*
Y128543D01*
X233650Y128885D02*
G03X233611Y128543I1461J-342D01*
G01X233650Y128885D02*
G03X233602Y129239I-487J114D01*
G01X233295Y130439D02*
G03X233602Y129239I2500J0D01*
G01X233624Y131678D02*
G03X233295Y130439I2171J-1239D01*
G01X233624Y131678D02*
G03X233689Y131926I-435J248D01*
G01X233689*
G03X233670Y132065I-500J-0*
G01X233611Y132480D02*
G03X233670Y132065I1500J0D01*
G01X233611Y132480D02*
Y134449D01*
X233658Y134821D02*
G03X233611Y134449I1453J-372D01*
G01X233658Y134821D02*
G03X233673Y134945I-485J124D01*
G01X233673*
G03X233610Y135188I-500J-0*
G01X233340Y136876D02*
G03X233610Y135188I2455J-472D01*
G01X233340Y136876D02*
G03X233349Y136970I-491J94D01*
G01X233349*
G03X232849Y137470I-500J0*
G01X232846*
G03X232492Y137324I-0J-500*
G01X230050Y134882*
G03X229904Y134528I354J-354*
G01Y118935*
X229347Y117591D02*
G03X229904Y118935I-1343J1344D01*
G01X229347Y117591D02*
X225193Y113437D01*
G03X225083Y113271I353J-353*
G01X224984Y113027*
G03X224958Y112939I463J-188*
G01X222189Y110960D02*
G03X224958Y112939I319J2479D01*
G01X222189Y110960D02*
G03X221626Y110464I-63J-496D01*
X221811Y110075I500J-0*
G01X222617Y109191D02*
G03X221811Y110075I-3326J-2223D01*
G01X222617Y109191D02*
G03X223033Y108969I416J278D01*
G01X223142*
X224556Y108383D02*
G03X223142Y108969I-1414J-1414D01*
G01X224556Y108383D02*
X224730Y108209D01*
G03X225551Y108386I353J354*
G01X231575Y110252D02*
G03X225551Y108386I-2284J-3283D01*
G01X231575Y110252D02*
G03X231705Y110188I286J411D01*
G01X234576Y109244*
G03X234732Y109219I156J475*
G01X243766*
G03X244119Y109365I-0J500*
G01X251147Y116393*
G03X251293Y116746I-354J353*
G01Y129257*
X221304Y141710D02*
G03X220420Y142030I-500J0D01*
G01X217121Y141546D02*
G03X220420Y142030I1378J2085D01*
G01X217121Y141546D02*
G03X217040Y141589I-276J-417D01*
G01X216845Y141672*
G03X216296Y141565I-195J-461*
G01X212402Y137671*
G03X212255Y137317I353J-354*
G01Y134047*
G03X213070Y133658I500J0*
G01X216727Y130336D02*
G03X213070Y133658I-2085J1378D01*
G01X216727Y130336D02*
G03X216684Y130255I417J-276D01*
G01X216637Y130145*
G03X217453Y129599I461J-195*
G01X218519Y130043D02*
G03X217453Y129599I0J-1500D01*
G01X218519Y130043D02*
X220488D01*
X220725Y130025D02*
G03X220488Y130043I-237J-1482D01*
G01X220725Y130025D02*
G03X221304Y130518I79J493D01*
G01Y141710*
X210119Y148648D02*
G03X212898Y144867I2086J-1379D01*
G01X210119Y148648D02*
G03X210162Y148729I-417J275D01*
G01X210265Y148971*
G03X210305Y149166I-460J195*
G01Y188110*
G03X209719Y188603I-500J0*
G01X208844Y188606D02*
G03X209719Y188603I446J2460D01*
G01X208844Y188606D02*
G03X208255Y188114I-89J-492D01*
G01Y140105*
G03X209109Y139752I500J0*
G01X213391Y144034*
G03X212898Y144867I-354J353*
G01X304891Y212054D02*
Y144307D01*
X304334Y142963D02*
G03X304891Y144307I-1343J1344D01*
G01X304334Y142963D02*
X303657Y142286D01*
G03X303547Y142120I353J-354*
G01X303448Y141876*
G03X303422Y141788I463J-188*
G01X300472Y144737D02*
G03X303422Y141788I500J-2449D01*
G01X300472Y144737D02*
G03X300560Y144764I-100J490D01*
G01X300779Y144853*
G03X301091Y145316I-188J463*
G01Y148845*
G03X300452Y149326I-500J0*
G01X299488Y149189D02*
G03X300452Y149326I0J3468D01*
G01X299488Y149189D02*
X297126D01*
Y156126D02*
G03Y149189I-0J-3469D01*
G01Y156126D02*
X299488D01*
X300452Y155989D02*
G03X299488Y156126I-964J-3332D01*
G01X300452Y155989D02*
G03X301091Y156470I139J481D01*
G01Y182900*
G03X300452Y183381I-500J0*
G01X299488Y183244D02*
G03X300452Y183381I0J3469D01*
G01X299488Y183244D02*
X297126D01*
Y190181D02*
G03Y183244I-0J-3468D01*
G01Y190181D02*
X299488D01*
X300452Y190044D02*
G03X299488Y190181I-964J-3331D01*
G01X300452Y190044D02*
G03X301091Y190525I139J481D01*
G01Y211059*
G03X300945Y211413I-500J0*
G01X287660Y224697*
G03X287307Y224844I-353J-353*
G01X275304*
X273960Y225400D02*
G03X275304Y224844I1344J1344D01*
G01X273960Y225400D02*
X271827Y227533D01*
G03X271662Y227643I-353J-353*
G01X268927Y228753*
G03X268800Y228786I-188J-463*
G01X273261Y233247D02*
G03X268800Y228786I-3970J-491D01*
G01X273261Y233247D02*
G03X273294Y233120I496J61D01*
G01X274404Y230386*
G03X274514Y230220I464J188*
G01X275944Y228790*
G03X276298Y228644I354J354*
G01X276608*
G03X276906Y229545I-0J500*
G01X281677D02*
G03X276906I-2386J3211D01*
G01X281677D02*
G03X281975Y228644I298J-401D01*
G01X286608*
G03X286906Y229545I-0J500*
G01X290017Y228822D02*
G03X286906Y229545I-726J3934D01*
G01X290017Y228822D02*
G03X289755Y227977I91J-491D01*
G01X304335Y213397*
X304891Y212054D02*
G03X304335Y213397I-1900J-0D01*
G01X263291Y232756D02*
G03X263291I-4000J0D01*
G01X243291D02*
G03X243291I-4000J0D01*
G01X233291D02*
G03X233291I-4000J0D01*
G01X193666Y119158D02*
G03X193518Y119126I30J-499D01*
X193369Y119158I-178J-467*
G01X192139Y119568D02*
G03X193369Y119158I1379J2086D01*
G01X192139Y119568D02*
G03X192058Y119612I-276J-417D01*
G01X191816Y119714*
G03X191621Y119754I-195J-460*
G01X191526*
G03X191172Y119608I-0J-500*
G01X190112Y119169D02*
G03X191172Y119608I0J1500D01*
G01X190112Y119169D02*
X188144D01*
X187607Y119269D02*
G03X188144Y119169I537J1400D01*
G01X187607Y119269D02*
G03X187249I-179J-467D01*
G01X186712Y119169D02*
G03X187249Y119269I0J1500D01*
G01X186712Y119169D02*
X184744D01*
X183244Y120669D02*
G03X184744Y119169I1500J0D01*
G01X183244Y120669D02*
Y122638D01*
X183457Y123409D02*
G03X183244Y122638I1287J-771D01*
G01X183457Y123409D02*
G03X183528Y123666I-429J257D01*
G01Y124164*
G03Y124169I-500J-0*
G01Y124188D02*
G03Y124169I1900J-0D01*
G01Y124188D02*
Y124825D01*
G03X183488Y125020I-500J0*
G01X183386Y125263*
G03X183342Y125344I-461J-195*
G01X187514D02*
G03X183342I-2086J1378D01*
G01X187514D02*
G03X187470Y125263I417J-276D01*
G01X187368Y125020*
G03X187328Y124825I460J-195*
G01Y124613*
G03X187907Y124119I500J-0*
G01X188144Y124138D02*
G03X187907Y124119I-0J-1500D01*
G01X188144Y124138D02*
X190112D01*
X191172Y123700D02*
G03X190112Y124138I-1060J-1062D01*
G01X191172Y123700D02*
G03X191525Y123554I353J354D01*
G01X191621*
G03X191816Y123594I-0J500*
G01X192058Y123696*
G03X192139Y123740I-195J461*
G01X193666Y119158D02*
G03X192139Y123740I-148J2496D01*
G01X195629Y152111D02*
G03X195490Y151287I2361J-824D01*
G01X195629Y152111D02*
G03X195031Y152759I-472J164D01*
G01X192316Y156557D02*
G03X195031Y152759I2086J-1378D01*
G01X192316Y156557D02*
G03X192360Y156638I-417J276D01*
G01X192462Y156881*
G03X192502Y157076I-460J195*
G01Y202976*
G03X191884Y203462I-500J-0*
G01X189913Y203805D02*
G03X191884Y203462I1379J2086D01*
G01X189913Y203805D02*
G03X189832Y203848I-275J-417D01*
G01X189590Y203951*
G03X189395Y203991I-195J-460*
G01X187200*
G03X186846Y203844I-0J-500*
G01X177131Y194129*
X175787Y193572D02*
G03X177131Y194129I0J1900D01*
G01X175787Y193572D02*
X141348D01*
G03X140995Y193426I0J-500*
G01X131361Y183792*
X130017Y183235D02*
G03X131361Y183792I0J1900D01*
G01X130017Y183235D02*
X125525D01*
G03X125025Y182735I-0J-500*
X125038Y182620I500J0*
G01X124174Y180095D02*
G03X125038Y182620I-1568J1947D01*
G01X124174Y180095D02*
G03X124163Y179326I314J-389D01*
G01X124986Y177928D02*
G03X124163Y179326I-2450J-500D01*
G01X124986Y177928D02*
G03X125012Y177840I490J100D01*
G01X125111Y177596*
G03X125221Y177430I464J188*
G01X127801Y174850*
G03X128155Y174703I354J353*
G01X141599*
G03X141952Y174850I-0J500*
G01X151589Y184486*
X152932Y185043D02*
G03X151589Y184486I0J-1900D01*
G01X152932Y185043D02*
X156348D01*
G03X156543Y185082I-0J500*
G01X156786Y185185*
G03X156866Y185228I-195J460*
G01X159590Y185250D02*
G03X156866Y185228I-1345J-2107D01*
G01X159590Y185250D02*
G03X159664Y185211I269J422D01*
G01X159732Y185182*
G03X159927Y185143I195J461*
G01X160712*
X162126Y184557D02*
G03X160712Y185143I-1414J-1414D01*
G01X162126Y184557D02*
X165308Y181375D01*
X165894Y179961D02*
G03X165308Y181375I-2000J-0D01*
G01X165894Y179961D02*
Y176298D01*
G03X165933Y176103I500J0*
G01X165962Y176035*
G03X166001Y175961I461J195*
G01X161786D02*
G03X166001I2108J-1345D01*
G01X161786D02*
G03X161825Y176035I-421J269D01*
G01X161854Y176103*
G03X161893Y176298I-461J195*
G01X161893D02*
Y178925D01*
X161893D02*
G03X161747Y179279I-500J0D01*
G01X160117Y180909*
G03X159510Y180986I-354J-354*
G01X156866Y181057D02*
G03X159510Y180986I1379J2086D01*
G01X156866Y181057D02*
G03X156786Y181100I-275J-417D01*
G01X156543Y181203*
G03X156348Y181243I-195J-460*
G01X153927*
G03X153573Y181096I-0J-500*
G01X146447Y173970*
G03X146300Y173616I353J-354*
X146800Y173116I500J0*
G01X149180*
X150523Y172560D02*
G03X149180Y173116I-1343J-1344D01*
G01X150523Y172560D02*
X155343Y167739D01*
X155900Y166396D02*
G03X155343Y167739I-1900J-0D01*
G01X155900Y166396D02*
Y152360D01*
G03X155939Y152165I500J-0*
G01X156042Y151922*
G03X156085Y151841I461J195*
G01X151914D02*
G03X156085I2086J-1378D01*
G01X151914D02*
G03X151957Y151922I-417J276D01*
G01X152060Y152165*
G03X152100Y152360I-460J195*
G01Y165402*
G03X151953Y165755I-500J-0*
G01X148539Y169170*
G03X148185Y169316I-354J-354*
G01X146157*
G03X145963Y169277I0J-500*
G01X145720Y169174*
G03X145639Y169130I195J-461*
G01X141854Y170539D02*
G03X145639Y169130I2406J677D01*
G01X141854Y170539D02*
G03X141373Y170903I-481J-136D01*
G01X127161*
X125817Y171460D02*
G03X127161Y170903I1344J1343D01*
G01X125817Y171460D02*
X122534Y174743D01*
G03X122368Y174853I-354J-354*
G01X122124Y174952*
G03X122036Y174978I-188J-464*
G01X120968Y179375D02*
G03X122036Y174978I1568J-1947D01*
G01X120968Y179375D02*
G03X120979Y180144I-314J389D01*
G01X120158Y181535D02*
G03X120979Y180144I2448J507D01*
G01X120158Y181535D02*
G03X120022Y181787I-490J-101D01*
G01X118741Y183068*
X118185Y184411D02*
G03X118741Y183068I1900J0D01*
G01X118185Y184411D02*
Y198592D01*
G03X118038Y198946I-500J0*
G01X112271Y204713*
X111714Y206057D02*
G03X112271Y204713I1900J-0D01*
G01X111714Y206057D02*
Y227079D01*
X112271Y228422D02*
G03X111714Y227079I1343J-1343D01*
G01X112271Y228422D02*
X114069Y230220D01*
G03X114178Y230386I-354J354*
G01X115289Y233120*
G03X115322Y233247I-464J188*
G01X119782Y228786D02*
G03X115322Y233247I-491J3970D01*
G01X119782Y228786D02*
G03X119656Y228753I62J-496D01*
G01X116921Y227643*
G03X116756Y227533I188J-463*
G01X115661Y226438*
G03X115514Y226085I353J-353*
G01Y207051*
G03X115661Y206697I500J-0*
G01X116350Y206008*
G03X117196Y206271I354J353*
G01X121033Y207907D02*
G03X117196Y206271I-1378J-2086D01*
G01X121033Y207907D02*
G03X121114Y207863I276J417D01*
G01X121357Y207761*
G03X121552Y207721I195J460*
G01X178162*
G03X178357Y207761I-0J500*
G01X178600Y207863*
G03X178680Y207907I-195J461*
G01X182546Y206073D02*
G03X178680Y207907I-2487J-252D01*
G01X182546Y206073D02*
G03X183397Y205769I498J50D01*
G01X184862Y207234*
X186206Y207791D02*
G03X184862Y207234I-0J-1900D01*
G01X186206Y207791D02*
X189395D01*
G03X189590Y207830I-0J500*
G01X189832Y207933*
G03X189913Y207976I-194J460*
G01X190110Y208094D02*
G03X189913Y207976I1182J-2203D01*
G01X190110Y208094D02*
G03X190374Y208535I-236J441D01*
X190228Y208888I-500J-0*
G01X184285Y214831*
G03X183931Y214977I-354J-354*
G01X165170*
X163826Y215534D02*
G03X165170Y214977I1344J1343D01*
G01X163826Y215534D02*
X151827Y227533D01*
G03X151662Y227643I-353J-353*
G01X148927Y228753*
G03X148800Y228786I-188J-463*
G01X153261Y233247D02*
G03X148800Y228786I-3970J-491D01*
G01X153261Y233247D02*
G03X153294Y233120I496J61D01*
G01X154404Y230386*
G03X154514Y230220I464J188*
G01X165810Y218924*
G03X166164Y218777I354J353*
G01X169376*
G03X169876Y219277I-0J500*
X169729Y219631I-500J0*
G01X161827Y227533*
G03X161662Y227643I-353J-353*
G01X158927Y228753*
G03X158800Y228786I-188J-463*
G01X163261Y233247D02*
G03X158800Y228786I-3970J-491D01*
G01X163261Y233247D02*
G03X163294Y233120I496J61D01*
G01X164404Y230386*
G03X164514Y230220I464J188*
G01X172520Y222214*
G03X172874Y222068I354J354*
G01X186743*
X188086Y221511D02*
G03X186743Y222068I-1343J-1343D01*
G01X188086Y221511D02*
X199333Y210265D01*
X199890Y208921D02*
G03X199333Y210265I-1900J0D01*
G01X199890Y208921D02*
Y153184D01*
G03X199929Y152989I500J0*
G01X200032Y152747*
G03X200075Y152666I460J194*
G01X195490Y151287D02*
G03X200075Y152666I2500J0D01*
G01X181776Y182205D02*
G03X181732Y182124I417J-276D01*
G01X181630Y181881*
G03X181590Y181686I460J-195*
G01Y120843*
G03X181630Y120649I500J0*
G01X181732Y120406*
G03X181776Y120325I461J195*
G01X177604D02*
G03X181776I2086J-1379D01*
G01X177604D02*
G03X177648Y120406I-417J276D01*
G01X177750Y120649*
G03X177790Y120843I-460J194*
G01Y181686*
G03X177750Y181881I-500J0*
G01X177648Y182124*
G03X177604Y182205I-461J-195*
G01X181776D02*
G03X177604I-2086J1378D01*
G01X173291Y106969D02*
G03X173291I-4000J0D01*
G01X163291D02*
G03X163291I-4000J0D01*
G01X153291D02*
G03X153291I-4000J0D01*
G01X143291D02*
G03X143291I-4000J0D01*
G01X133291D02*
G03X133291I-4000J0D01*
G01X123291D02*
G03X123291I-4000J0D01*
G01X143291Y232756D02*
G03X143291I-4000J0D01*
G01X133291D02*
G03X133291I-4000J0D01*
G01X273009Y123690D02*
G03X273009I-4000J0D01*
G01Y133690D02*
G03X273009I-4000J0D01*
G01X293219Y231999D02*
X307004D01*
X292932Y231099D02*
X307004D01*
X292367Y230199D02*
X307004D01*
X291303Y229299D02*
X307004D01*
X289613Y228399D02*
X307004D01*
X290233Y227499D02*
X307004D01*
X291133Y226599D02*
X307004D01*
X292033Y225699D02*
X307004D01*
X292933Y224799D02*
X307004D01*
X293833Y223899D02*
X307004D01*
X294733Y222999D02*
X307004D01*
X295633Y222099D02*
X307004D01*
X296533Y221199D02*
X307004D01*
X297433Y220299D02*
X307004D01*
X298333Y219399D02*
X307004D01*
X299233Y218499D02*
X307004D01*
X300133Y217599D02*
X307004D01*
X301033Y216699D02*
X307004D01*
X301933Y215799D02*
X307004D01*
X302833Y214899D02*
X307004D01*
X303733Y213999D02*
X307004D01*
X304578Y213099D02*
X307004D01*
X304886Y212199D02*
X307004D01*
X304891Y211299D02*
X307004D01*
X304891Y210399D02*
X307004D01*
X304891Y209499D02*
X307004D01*
X304891Y208599D02*
X307004D01*
X304891Y207699D02*
X307004D01*
X304891Y206799D02*
X307004D01*
X304891Y205899D02*
X307004D01*
X304891Y204999D02*
X307004D01*
X304891Y204099D02*
X307004D01*
X304891Y203199D02*
X307004D01*
X304891Y202299D02*
X307004D01*
X304891Y201399D02*
X307004D01*
X304891Y200499D02*
X307004D01*
X304891Y199599D02*
X307004D01*
X304891Y198699D02*
X307004D01*
X304891Y197799D02*
X307004D01*
X304891Y196899D02*
X307004D01*
X304891Y195999D02*
X307004D01*
X304891Y195099D02*
X307004D01*
X304891Y194199D02*
X307004D01*
X304891Y193299D02*
X307004D01*
X304891Y192399D02*
X307004D01*
X304891Y191499D02*
X307004D01*
X304891Y190599D02*
X307004D01*
X304891Y189699D02*
X307004D01*
X304891Y188799D02*
X307004D01*
X304891Y187899D02*
X307004D01*
X304891Y186999D02*
X307004D01*
X304891Y186099D02*
X307004D01*
X304891Y185199D02*
X307004D01*
X304891Y184299D02*
X307004D01*
X304891Y183399D02*
X307004D01*
X304891Y182499D02*
X307004D01*
X304891Y181599D02*
X307004D01*
X304891Y180699D02*
X307004D01*
X304891Y179799D02*
X307004D01*
X304891Y178899D02*
X307004D01*
X304891Y177999D02*
X307004D01*
X304891Y177099D02*
X307004D01*
X304891Y176199D02*
X307004D01*
X304891Y175299D02*
X307004D01*
X304891Y174399D02*
X307004D01*
X304891Y173499D02*
X307004D01*
X304891Y172599D02*
X307004D01*
X304891Y171699D02*
X307004D01*
X304891Y170799D02*
X307004D01*
X304891Y169899D02*
X307004D01*
X304891Y168999D02*
X307004D01*
X304891Y168099D02*
X307004D01*
X304891Y167199D02*
X307004D01*
X304891Y166299D02*
X307004D01*
X304891Y165399D02*
X307004D01*
X304891Y164499D02*
X307004D01*
X304891Y163599D02*
X307004D01*
X304891Y162699D02*
X307004D01*
X304891Y161799D02*
X307004D01*
X304891Y160899D02*
X307004D01*
X304891Y159999D02*
X307004D01*
X304891Y159099D02*
X307004D01*
X304891Y158199D02*
X307004D01*
X304891Y157299D02*
X307004D01*
X304891Y156399D02*
X307004D01*
X304891Y155499D02*
X307004D01*
X304891Y154599D02*
X307004D01*
X304891Y153699D02*
X307004D01*
X304891Y152799D02*
X307004D01*
X304891Y151899D02*
X307004D01*
X304891Y150999D02*
X307004D01*
X304891Y150099D02*
X307004D01*
X304891Y149199D02*
X307004D01*
X304891Y148299D02*
X307004D01*
X304891Y147399D02*
X307004D01*
X304891Y146499D02*
X307004D01*
X304891Y145599D02*
X307004D01*
X304891Y144699D02*
X307004D01*
X304822Y143799D02*
X307004D01*
X304270Y142899D02*
X307004D01*
X303498Y141999D02*
X307004D01*
X303171Y141099D02*
X307004D01*
X302345Y140199D02*
X307004D01*
X262861Y139299D02*
X307004D01*
X262861Y138399D02*
X307004D01*
X270232Y137499D02*
X307004D01*
X271755Y136599D02*
X307004D01*
X272468Y135699D02*
X307004D01*
X272853Y134799D02*
X307004D01*
X273004Y133899D02*
X307004D01*
X272949Y132999D02*
X307004D01*
X272679Y132099D02*
X307004D01*
X272139Y131199D02*
X307004D01*
X271130Y130299D02*
X307004D01*
X262861Y129399D02*
X307004D01*
X262861Y128499D02*
X307004D01*
X269860Y127599D02*
X307004D01*
X271645Y126699D02*
X307004D01*
X272408Y125799D02*
X307004D01*
X272822Y124899D02*
X307004D01*
X272997Y123999D02*
X307004D01*
X272965Y123099D02*
X307004D01*
X272721Y122199D02*
X307004D01*
X272216Y121299D02*
X307004D01*
X271282Y120399D02*
X307004D01*
X262861Y119499D02*
X307004D01*
X264657Y118599D02*
X307004D01*
X265844Y117699D02*
X307004D01*
X266248Y116799D02*
X307004D01*
X266285Y115899D02*
X307004D01*
X265975Y114999D02*
X307004D01*
X265088Y114099D02*
X307004D01*
X257640Y113199D02*
X307004D01*
X256740Y112299D02*
X307004D01*
X255840Y111399D02*
X307004D01*
X254940Y110499D02*
X307004D01*
X254040Y109599D02*
X307004D01*
X253140Y108699D02*
X307004D01*
X252240Y107799D02*
X307004D01*
X251340Y106899D02*
X307003D01*
X293289Y232899D02*
X307002D01*
X250440Y105999D02*
X306912D01*
X293153Y233799D02*
X306906D01*
X249540Y105099D02*
X306665D01*
X292788Y234699D02*
X306653D01*
X248640Y104199D02*
X306237D01*
X292105Y235599D02*
X306217D01*
X247740Y103299D02*
X305572D01*
X290703Y236499D02*
X305542D01*
X246840Y102399D02*
X304517D01*
X104038Y237399D02*
X304466D01*
X262861Y210399D02*
X301091D01*
X262861Y209499D02*
X301091D01*
X262861Y208599D02*
X301091D01*
X262861Y207699D02*
X301091D01*
X262861Y206799D02*
X301091D01*
X262861Y205899D02*
X301091D01*
X262861Y204999D02*
X301091D01*
X262861Y204099D02*
X301091D01*
X262861Y203199D02*
X301091D01*
X262861Y202299D02*
X301091D01*
X262861Y201399D02*
X301091D01*
X262861Y200499D02*
X301091D01*
X262861Y199599D02*
X301091D01*
X289946Y198699D02*
X301091D01*
X290991Y197799D02*
X301091D01*
X291355Y196899D02*
X301091D01*
X291363Y195999D02*
X301091D01*
X291017Y195099D02*
X301091D01*
X290900Y194199D02*
X301091D01*
X290900Y193299D02*
X301091D01*
X290900Y192399D02*
X301091D01*
X290900Y191499D02*
X301091D01*
X290900Y190599D02*
X301091D01*
X290900Y182499D02*
X301091D01*
X290900Y181599D02*
X301091D01*
X290900Y180699D02*
X301091D01*
X290900Y179799D02*
X301091D01*
X290900Y178899D02*
X301091D01*
X290900Y177999D02*
X301091D01*
X290900Y177099D02*
X301091D01*
X290900Y176199D02*
X301091D01*
X290900Y175299D02*
X301091D01*
X290900Y174399D02*
X301091D01*
X290900Y173499D02*
X301091D01*
X290900Y172599D02*
X301091D01*
X290900Y171699D02*
X301091D01*
X290900Y170799D02*
X301091D01*
X290900Y169899D02*
X301091D01*
X290900Y168999D02*
X301091D01*
X290900Y168099D02*
X301091D01*
X290900Y167199D02*
X301091D01*
X290900Y166299D02*
X301091D01*
X290900Y165399D02*
X301091D01*
X290900Y164499D02*
X301091D01*
X290900Y163599D02*
X301091D01*
X290900Y162699D02*
X301091D01*
X290900Y161799D02*
X301091D01*
X290900Y160899D02*
X301091D01*
X290900Y159999D02*
X301091D01*
X290900Y159099D02*
X301091D01*
X290900Y158199D02*
X301091D01*
X290900Y157299D02*
X301091D01*
X290900Y148299D02*
X301091D01*
X290932Y147399D02*
X301091D01*
X291325Y146499D02*
X301091D01*
X291383Y145599D02*
X301091D01*
X290900Y156399D02*
X301086D01*
X262861Y211299D02*
X301030D01*
X299748Y149199D02*
X300945D01*
X300550Y183399D02*
X300632D01*
X291097Y144699D02*
X300311D01*
X262861Y212199D02*
X300159D01*
X262861Y140199D02*
X299599D01*
X262861Y213099D02*
X299259D01*
X290267Y143799D02*
X298980D01*
X262861Y141099D02*
X298773D01*
X262861Y142899D02*
X298548D01*
X262861Y141999D02*
X298489D01*
X262861Y213999D02*
X298359D01*
X262861Y214899D02*
X297459D01*
X290900Y149199D02*
X296866D01*
X262861Y215799D02*
X296559D01*
X290900Y183399D02*
X296102D01*
X262861Y216699D02*
X295659D01*
X290900Y189699D02*
X295361D01*
X290900Y155499D02*
X295136D01*
X290900Y150099D02*
X294784D01*
X262861Y217599D02*
X294759D01*
X290900Y184299D02*
X294635D01*
X290900Y188799D02*
X294355D01*
X290900Y154599D02*
X294252D01*
X290900Y150999D02*
X294080D01*
X290900Y185199D02*
X294005D01*
X290900Y187899D02*
X293867D01*
X262861Y218499D02*
X293859D01*
X290900Y153699D02*
X293817D01*
X290900Y151899D02*
X293741D01*
X290900Y186099D02*
X293712D01*
X290900Y186999D02*
X293669D01*
X290900Y152799D02*
X293660D01*
X262861Y219399D02*
X292959D01*
X262861Y220299D02*
X292059D01*
X262857Y221199D02*
X291159D01*
X262569Y222099D02*
X290259D01*
X261736Y222999D02*
X289359D01*
X260836Y223899D02*
X288459D01*
X280703Y236499D02*
X287880D01*
X262861Y198699D02*
X287854D01*
X265810Y143799D02*
X287531D01*
X259936Y224799D02*
X287514D01*
X281500Y229299D02*
X287083D01*
X262861Y194199D02*
X286900D01*
X262861Y193299D02*
X286900D01*
X262861Y192399D02*
X286900D01*
X262861Y191499D02*
X286900D01*
X262861Y190599D02*
X286900D01*
X269983Y177999D02*
X286900D01*
X271260Y177099D02*
X286900D01*
X271683Y176199D02*
X286900D01*
X271734Y175299D02*
X286900D01*
X271442Y174399D02*
X286900D01*
X270596Y173499D02*
X286900D01*
X266588Y172599D02*
X286900D01*
X266588Y171699D02*
X286900D01*
X266588Y170799D02*
X286900D01*
X266883Y169899D02*
X286900D01*
X267170Y168999D02*
X286900D01*
X267115Y168099D02*
X286900D01*
X266687Y167199D02*
X286900D01*
X265381Y166299D02*
X286900D01*
X262861Y165399D02*
X286900D01*
X262861Y164499D02*
X286900D01*
X262861Y163599D02*
X286900D01*
X262861Y162699D02*
X286900D01*
X262861Y161799D02*
X286900D01*
X262861Y160899D02*
X286900D01*
X265119Y148299D02*
X286891D01*
X284984Y149199D02*
X286880D01*
X285837Y178899D02*
X286850D01*
X262861Y197799D02*
X286809D01*
X262861Y195099D02*
X286783D01*
X282105Y235599D02*
X286477D01*
X262861Y196899D02*
X286445D01*
X262861Y195999D02*
X286437D01*
X282367Y230199D02*
X286215D01*
X282788Y234699D02*
X285795D01*
X282932Y231099D02*
X285651D01*
X283153Y233799D02*
X285430D01*
X283219Y231999D02*
X285364D01*
X283289Y232899D02*
X285294D01*
X262861Y178899D02*
X283218D01*
X262861Y159999D02*
X282647D01*
X262861Y156399D02*
X282453D01*
X262861Y182499D02*
X282443D01*
X262861Y179799D02*
X282337D01*
X262861Y157299D02*
X282208D01*
X262861Y159099D02*
X282125D01*
X262861Y181599D02*
X282055D01*
X262861Y180699D02*
X282024D01*
X262861Y158199D02*
X282000D01*
X262861Y149199D02*
X280134D01*
X262861Y183399D02*
X279370D01*
X262861Y189699D02*
X278629D01*
X262861Y155499D02*
X278404D01*
X262861Y150099D02*
X278052D01*
X262861Y184299D02*
X277903D01*
X270703Y236499D02*
X277880D01*
X262861Y188799D02*
X277623D01*
X262861Y154599D02*
X277519D01*
X262861Y150999D02*
X277348D01*
X262861Y185199D02*
X277273D01*
X262861Y187899D02*
X277134D01*
X262861Y153699D02*
X277085D01*
X275436Y229299D02*
X277083D01*
X262861Y151899D02*
X277009D01*
X262861Y186099D02*
X276980D01*
X262861Y186999D02*
X276937D01*
X262861Y152799D02*
X276928D01*
X272105Y235599D02*
X276477D01*
X274536Y230199D02*
X276215D01*
X272788Y234699D02*
X275795D01*
X274115Y231099D02*
X275651D01*
X273153Y233799D02*
X275430D01*
X273749Y231999D02*
X275364D01*
X273384Y232899D02*
X275294D01*
X259036Y225699D02*
X273662D01*
X258136Y226599D02*
X272762D01*
X257236Y227499D02*
X271862D01*
X256336Y228399D02*
X269800D01*
X262861Y177999D02*
X268524D01*
X262861Y127599D02*
X268159D01*
X267166Y173499D02*
X267911D01*
X260703Y236499D02*
X267880D01*
X262861Y137499D02*
X267787D01*
X261303Y229299D02*
X267279D01*
X262861Y130299D02*
X266888D01*
X262861Y120399D02*
X266736D01*
X262105Y235599D02*
X266477D01*
X262861Y126699D02*
X266373D01*
X262861Y136599D02*
X266263D01*
X262367Y230199D02*
X266215D01*
X262861Y131199D02*
X265880D01*
X262861Y121299D02*
X265803D01*
X262788Y234699D02*
X265795D01*
X262932Y231099D02*
X265651D01*
X262861Y125799D02*
X265610D01*
X262861Y135699D02*
X265550D01*
X263153Y233799D02*
X265430D01*
X262861Y177099D02*
X265410D01*
X263219Y231999D02*
X265364D01*
X262861Y132099D02*
X265340D01*
X262861Y122199D02*
X265298D01*
X263289Y232899D02*
X265294D01*
X262861Y124899D02*
X265196D01*
X262861Y134799D02*
X265166D01*
X262861Y132999D02*
X265069D01*
X262861Y123099D02*
X265053D01*
X262861Y123999D02*
X265021D01*
X262861Y133899D02*
X265015D01*
X262861Y176199D02*
X264492D01*
X262952Y166299D02*
X263995D01*
X263050Y148299D02*
X263765D01*
X263208Y175299D02*
X263514D01*
X258540Y114099D02*
X262530D01*
X259357Y114999D02*
X260937D01*
X214105Y219399D02*
X259061D01*
X214105Y218499D02*
X259061D01*
X214105Y217599D02*
X259061D01*
X214105Y216699D02*
X259061D01*
X214105Y215799D02*
X259061D01*
X214105Y214899D02*
X259061D01*
X214105Y213999D02*
X259061D01*
X214105Y213099D02*
X259061D01*
X214105Y212199D02*
X259061D01*
X214105Y211299D02*
X259061D01*
X254225Y210399D02*
X259061D01*
X256141Y209499D02*
X259061D01*
X256922Y208599D02*
X259061D01*
X257346Y207699D02*
X259061D01*
X257529Y206799D02*
X259061D01*
X257504Y205899D02*
X259061D01*
X257268Y204999D02*
X259061D01*
X256774Y204099D02*
X259061D01*
X255863Y203199D02*
X259061D01*
X253462Y202299D02*
X259061D01*
X251241Y201399D02*
X259061D01*
X250272Y200499D02*
X259061D01*
X256019Y199599D02*
X259061D01*
X256856Y198699D02*
X259061D01*
X257312Y197799D02*
X259061D01*
X257519Y196899D02*
X259061D01*
X257517Y195999D02*
X259061D01*
X257306Y195099D02*
X259061D01*
X256845Y194199D02*
X259061D01*
X255998Y193299D02*
X259061D01*
X253708Y192399D02*
X259061D01*
X251488Y191499D02*
X259061D01*
X250372Y190599D02*
X259061D01*
X255887Y189699D02*
X259061D01*
X256786Y188799D02*
X259061D01*
X257275Y187899D02*
X259061D01*
X257507Y186999D02*
X259061D01*
X257527Y186099D02*
X259061D01*
X257340Y185199D02*
X259061D01*
X256911Y184299D02*
X259061D01*
X256121Y183399D02*
X259061D01*
X254118Y182499D02*
X259061D01*
X251734Y181599D02*
X259061D01*
X250472Y180699D02*
X259061D01*
X255742Y179799D02*
X259061D01*
X256712Y178899D02*
X259061D01*
X257234Y177999D02*
X259061D01*
X257492Y177099D02*
X259061D01*
X257535Y176199D02*
X259061D01*
X257372Y175299D02*
X259061D01*
X256973Y174399D02*
X259061D01*
X256235Y173499D02*
X259061D01*
X254598Y172599D02*
X259061D01*
X251981Y171699D02*
X259061D01*
X250572Y170799D02*
X259061D01*
X255582Y169899D02*
X259061D01*
X256632Y168999D02*
X259061D01*
X257191Y168099D02*
X259061D01*
X257474Y167199D02*
X259061D01*
X257540Y166299D02*
X259061D01*
X257401Y165399D02*
X259061D01*
X257031Y164499D02*
X259061D01*
X256341Y163599D02*
X259061D01*
X254912Y162699D02*
X259061D01*
X252228Y161799D02*
X259061D01*
X251896Y160899D02*
X259061D01*
X255403Y159999D02*
X259061D01*
X256547Y159099D02*
X259061D01*
X257144Y158199D02*
X259061D01*
X257454Y157299D02*
X259061D01*
X257543Y156399D02*
X259061D01*
X257427Y155499D02*
X259061D01*
X257085Y154599D02*
X259061D01*
X256440Y153699D02*
X259061D01*
X255160Y152799D02*
X259061D01*
X251896Y151899D02*
X259061D01*
X251896Y150999D02*
X259061D01*
X255199Y150099D02*
X259061D01*
X256456Y149199D02*
X259061D01*
X257094Y148299D02*
X259061D01*
X257431Y147399D02*
X259061D01*
X257543Y146499D02*
X259061D01*
X257450Y145599D02*
X259061D01*
X257136Y144699D02*
X259061D01*
X256532Y143799D02*
X259061D01*
X256116Y142899D02*
X259061D01*
X256979Y141999D02*
X259061D01*
X257879Y141099D02*
X259060D01*
X214105Y220299D02*
X259016D01*
X214105Y221199D02*
X258162D01*
X250703Y236499D02*
X257880D01*
X255436Y229299D02*
X257279D01*
X214105Y222099D02*
X257262D01*
X252105Y235599D02*
X256477D01*
X214105Y222999D02*
X256362D01*
X254536Y230199D02*
X256215D01*
X252788Y234699D02*
X255795D01*
X254115Y231099D02*
X255651D01*
X214105Y223899D02*
X255462D01*
X253153Y233799D02*
X255430D01*
X253749Y231999D02*
X255364D01*
X253384Y232899D02*
X255294D01*
X214120Y224799D02*
X254562D01*
X214921Y225699D02*
X253662D01*
X214105Y210399D02*
X252861D01*
X215821Y226599D02*
X252762D01*
X216721Y227499D02*
X251862D01*
X250436Y169899D02*
X251505D01*
X249572Y179799D02*
X251344D01*
X249472Y189699D02*
X251200D01*
X249372Y199599D02*
X251067D01*
X214105Y209499D02*
X250945D01*
X248995Y178899D02*
X250375D01*
X248572Y188799D02*
X250300D01*
X248472Y198699D02*
X250230D01*
X214105Y208599D02*
X250165D01*
X247684Y187899D02*
X249812D01*
X218783Y228399D02*
X249800D01*
X247572Y197799D02*
X249775D01*
X249231Y177999D02*
X249760D01*
X214105Y207699D02*
X249741D01*
X247595Y186999D02*
X249580D01*
X246672Y196899D02*
X249568D01*
X214105Y206799D02*
X249552D01*
X247595Y186099D02*
X249273D01*
X246195Y195999D02*
X249232D01*
X214105Y205899D02*
X249191D01*
X247595Y185199D02*
X248908D01*
X246195Y195099D02*
X248867D01*
X214105Y204999D02*
X248827D01*
X247649Y184299D02*
X248541D01*
X246195Y194199D02*
X248503D01*
X214105Y204099D02*
X248460D01*
X240703Y236499D02*
X247880D01*
X246195Y193299D02*
X247698D01*
X214105Y203199D02*
X247598D01*
X241303Y229299D02*
X247279D01*
X214105Y202299D02*
X246698D01*
X242105Y235599D02*
X246477D01*
X242367Y230199D02*
X246215D01*
X214105Y201399D02*
X245798D01*
X242788Y234699D02*
X245795D01*
X242932Y231099D02*
X245651D01*
X243153Y233799D02*
X245430D01*
X243219Y231999D02*
X245364D01*
X243289Y232899D02*
X245294D01*
X214105Y200499D02*
X244898D01*
X214105Y199599D02*
X243998D01*
X214105Y198699D02*
X243098D01*
X214105Y197799D02*
X242489D01*
X214105Y196899D02*
X242395D01*
X214105Y195999D02*
X242395D01*
X214105Y195099D02*
X242395D01*
X214105Y194199D02*
X242395D01*
X214105Y193299D02*
X242395D01*
X214105Y192399D02*
X242395D01*
X214105Y191499D02*
X242395D01*
X214105Y190599D02*
X242395D01*
X214105Y189699D02*
X242395D01*
X214105Y188799D02*
X242395D01*
X214105Y187899D02*
X242395D01*
X214105Y186999D02*
X242395D01*
X214105Y186099D02*
X242395D01*
X214105Y185199D02*
X242395D01*
X214105Y184299D02*
X242395D01*
X214105Y183399D02*
X242395D01*
X214105Y182499D02*
X242395D01*
X214105Y181599D02*
X242395D01*
X214105Y180699D02*
X242395D01*
X214105Y179799D02*
X242395D01*
X214105Y178899D02*
X242395D01*
X214105Y177999D02*
X242395D01*
X214105Y177099D02*
X242395D01*
X214105Y176199D02*
X242395D01*
X214105Y175299D02*
X242395D01*
X236170Y174399D02*
X242395D01*
X237049Y173499D02*
X242395D01*
X237356Y172599D02*
X242395D01*
X237316Y171699D02*
X242395D01*
X237020Y170799D02*
X242395D01*
X237293Y169899D02*
X242395D01*
X237267Y168999D02*
X242395D01*
X236880Y168099D02*
X242395D01*
X235756Y167199D02*
X242395D01*
X234290Y166299D02*
X242395D01*
X233390Y165399D02*
X242395D01*
X232490Y164499D02*
X242395D01*
X232251Y163599D02*
X242395D01*
X232251Y162699D02*
X242395D01*
X232251Y161799D02*
X242395D01*
X232251Y160899D02*
X242395D01*
X232251Y159999D02*
X242395D01*
X232251Y159099D02*
X242395D01*
X232251Y158199D02*
X242395D01*
X232211Y157299D02*
X242395D01*
X231746Y156399D02*
X242395D01*
X230848Y155499D02*
X242395D01*
X229948Y154599D02*
X242395D01*
X229048Y153699D02*
X242395D01*
X228148Y152799D02*
X242395D01*
X227248Y151899D02*
X242395D01*
X227104Y150999D02*
X242395D01*
X227104Y150099D02*
X241931D01*
X227104Y149199D02*
X241031D01*
X227104Y148299D02*
X240131D01*
X230703Y236499D02*
X237880D01*
X231303Y229299D02*
X237279D01*
X232105Y235599D02*
X236477D01*
X232367Y230199D02*
X236215D01*
X232788Y234699D02*
X235795D01*
X232932Y231099D02*
X235651D01*
X233153Y233799D02*
X235430D01*
X233219Y231999D02*
X235364D01*
X233289Y232899D02*
X235294D01*
X227104Y147399D02*
X234135D01*
X214105Y174399D02*
X233588D01*
X214105Y173499D02*
X232709D01*
X214105Y172599D02*
X232367D01*
X214105Y171699D02*
X231487D01*
X214105Y170799D02*
X230587D01*
X214105Y169899D02*
X229687D01*
X227104Y146499D02*
X229323D01*
X214105Y168999D02*
X228787D01*
X227104Y145599D02*
X228423D01*
X214105Y168099D02*
X227887D01*
X220703Y236499D02*
X227880D01*
X221303Y229299D02*
X227279D01*
X214105Y167199D02*
X227194D01*
X214105Y166299D02*
X227051D01*
X214105Y165399D02*
X227051D01*
X214105Y164499D02*
X227051D01*
X214105Y163599D02*
X227051D01*
X214105Y162699D02*
X227051D01*
X214105Y161799D02*
X227051D01*
X214105Y160899D02*
X227051D01*
X214105Y159999D02*
X227051D01*
X214105Y159099D02*
X227024D01*
X222105Y235599D02*
X226477D01*
X222367Y230199D02*
X226215D01*
X214105Y158199D02*
X226194D01*
X222788Y234699D02*
X225795D01*
X222932Y231099D02*
X225651D01*
X223153Y233799D02*
X225430D01*
X223219Y231999D02*
X225364D01*
X214105Y157299D02*
X225294D01*
X223289Y232899D02*
X225294D01*
X103987Y102399D02*
X224884D01*
X214105Y156399D02*
X224394D01*
X220883Y103299D02*
X223984D01*
X214105Y155499D02*
X223494D01*
X222177Y104199D02*
X223084D01*
X214105Y154599D02*
X222594D01*
X214105Y153699D02*
X221713D01*
X214105Y152799D02*
X221324D01*
X214105Y151899D02*
X221304D01*
X214105Y150999D02*
X221304D01*
X214105Y150099D02*
X221304D01*
X214105Y149199D02*
X221304D01*
X214483Y148299D02*
X221304D01*
X214701Y147399D02*
X221304D01*
X214583Y146499D02*
X221304D01*
X220042Y145599D02*
X221304D01*
X211383Y111399D02*
X220863D01*
X219232Y114999D02*
X220454D01*
X216532Y112299D02*
X220283D01*
X218332Y114099D02*
X220097D01*
X217432Y113199D02*
X220020D01*
X210703Y236499D02*
X217880D01*
X210883Y103299D02*
X217700D01*
X211180Y110499D02*
X217410D01*
X214465Y145599D02*
X216863D01*
X212105Y235599D02*
X216477D01*
X212177Y104199D02*
X216405D01*
X212305Y109599D02*
X216278D01*
X212788Y234699D02*
X215795D01*
X212827Y105099D02*
X215755D01*
X212898Y108699D02*
X215685D01*
X213153Y233799D02*
X215430D01*
X213172Y105999D02*
X215411D01*
X213204Y107799D02*
X215378D01*
X213291Y106899D02*
X215292D01*
X213289Y232899D02*
X215199D01*
X213219Y231999D02*
X214833D01*
X212932Y231099D02*
X214468D01*
X212386Y230199D02*
X214047D01*
X212164Y229299D02*
X213147D01*
X182166Y118599D02*
X211226D01*
X200703Y236499D02*
X207880D01*
X200883Y103299D02*
X207700D01*
X201180Y110499D02*
X207403D01*
X201383Y111399D02*
X207200D01*
X202105Y235599D02*
X206477D01*
X205436Y229299D02*
X206418D01*
X202177Y104199D02*
X206405D01*
X202305Y109599D02*
X206278D01*
X204536Y230199D02*
X206196D01*
X202788Y234699D02*
X205795D01*
X202827Y105099D02*
X205755D01*
X202898Y108699D02*
X205685D01*
X204115Y231099D02*
X205651D01*
X203153Y233799D02*
X205430D01*
X203172Y105999D02*
X205411D01*
X203204Y107799D02*
X205378D01*
X203749Y231999D02*
X205364D01*
X203384Y232899D02*
X205294D01*
X203291Y106899D02*
X205292D01*
X194784Y119499D02*
X204733D01*
X195680Y120399D02*
X204196D01*
X195992Y121299D02*
X204023D01*
X195958Y122199D02*
X203123D01*
X195558Y123099D02*
X202319D01*
X194385Y123999D02*
X202071D01*
X172701Y222099D02*
X202070D01*
X188399Y221199D02*
X202070D01*
X189299Y220299D02*
X202070D01*
X190199Y219399D02*
X202070D01*
X191099Y218499D02*
X202070D01*
X191999Y217599D02*
X202070D01*
X192899Y216699D02*
X202070D01*
X193799Y215799D02*
X202070D01*
X194699Y214899D02*
X202070D01*
X195599Y213999D02*
X202070D01*
X196499Y213099D02*
X202070D01*
X197399Y212199D02*
X202070D01*
X198299Y211299D02*
X202070D01*
X199199Y210399D02*
X202070D01*
X199800Y209499D02*
X202070D01*
X199890Y208599D02*
X202070D01*
X199890Y207699D02*
X202070D01*
X199890Y206799D02*
X202070D01*
X199890Y205899D02*
X202070D01*
X199890Y204999D02*
X202070D01*
X199890Y204099D02*
X202070D01*
X199890Y203199D02*
X202070D01*
X199890Y202299D02*
X202070D01*
X199890Y201399D02*
X202070D01*
X199890Y200499D02*
X202070D01*
X199890Y199599D02*
X202070D01*
X199890Y198699D02*
X202070D01*
X199890Y197799D02*
X202070D01*
X199890Y196899D02*
X202070D01*
X199890Y195999D02*
X202070D01*
X199890Y195099D02*
X202070D01*
X199890Y194199D02*
X202070D01*
X199890Y193299D02*
X202070D01*
X199890Y192399D02*
X202070D01*
X199890Y191499D02*
X202070D01*
X199890Y190599D02*
X202070D01*
X199890Y189699D02*
X202070D01*
X199890Y188799D02*
X202070D01*
X199890Y187899D02*
X202070D01*
X199890Y186999D02*
X202070D01*
X199890Y186099D02*
X202070D01*
X199890Y185199D02*
X202070D01*
X199890Y184299D02*
X202070D01*
X199890Y183399D02*
X202070D01*
X199890Y182499D02*
X202070D01*
X199890Y181599D02*
X202070D01*
X199890Y180699D02*
X202070D01*
X199890Y179799D02*
X202070D01*
X199890Y178899D02*
X202070D01*
X199890Y177999D02*
X202070D01*
X199890Y177099D02*
X202070D01*
X199890Y176199D02*
X202070D01*
X199890Y175299D02*
X202070D01*
X199890Y174399D02*
X202070D01*
X199890Y173499D02*
X202070D01*
X199890Y172599D02*
X202070D01*
X199890Y171699D02*
X202070D01*
X199890Y170799D02*
X202070D01*
X199890Y169899D02*
X202070D01*
X199890Y168999D02*
X202070D01*
X199890Y168099D02*
X202070D01*
X199890Y167199D02*
X202070D01*
X199890Y166299D02*
X202070D01*
X199890Y165399D02*
X202070D01*
X199890Y164499D02*
X202070D01*
X199890Y163599D02*
X202070D01*
X199890Y162699D02*
X202070D01*
X199890Y161799D02*
X202070D01*
X199890Y160899D02*
X202070D01*
X199890Y159999D02*
X202070D01*
X199890Y159099D02*
X202070D01*
X199890Y158199D02*
X202070D01*
X199890Y157299D02*
X202070D01*
X199890Y156399D02*
X202070D01*
X199890Y155499D02*
X202070D01*
X199890Y154599D02*
X202070D01*
X199890Y153699D02*
X202070D01*
X200010Y152799D02*
X202070D01*
X200414Y151899D02*
X202070D01*
X200473Y150999D02*
X202070D01*
X200189Y150099D02*
X202070D01*
X199364Y149199D02*
X202070D01*
X181590Y148299D02*
X202070D01*
X181590Y147399D02*
X202070D01*
X181590Y146499D02*
X202070D01*
X181590Y145599D02*
X202070D01*
X181590Y144699D02*
X202070D01*
X181590Y143799D02*
X202070D01*
X181590Y142899D02*
X202070D01*
X181590Y141999D02*
X202070D01*
X181590Y141099D02*
X202070D01*
X181590Y140199D02*
X202070D01*
X181590Y139299D02*
X202070D01*
X181590Y138399D02*
X202070D01*
X181590Y137499D02*
X202070D01*
X181590Y136599D02*
X202070D01*
X181590Y135699D02*
X202070D01*
X181590Y134799D02*
X202070D01*
X181590Y133899D02*
X202070D01*
X181590Y132999D02*
X202070D01*
X181590Y132099D02*
X202070D01*
X181590Y131199D02*
X202070D01*
X181590Y130299D02*
X202070D01*
X181590Y129399D02*
X202070D01*
X187187Y128499D02*
X202070D01*
X187769Y127599D02*
X202070D01*
X187928Y126699D02*
X202070D01*
X187751Y125799D02*
X202070D01*
X187333Y124899D02*
X202070D01*
X171736Y222999D02*
X202070D01*
X170836Y223899D02*
X201366D01*
X169936Y224799D02*
X200466D01*
X169036Y225699D02*
X199566D01*
X168136Y226599D02*
X198666D01*
X190703Y236499D02*
X197880D01*
X190883Y103299D02*
X197700D01*
X195509Y110499D02*
X197403D01*
X196537Y111399D02*
X197200D01*
X181590Y149199D02*
X196615D01*
X192105Y235599D02*
X196477D01*
X192177Y104199D02*
X196405D01*
X194609Y109599D02*
X196278D01*
X192788Y234699D02*
X195795D01*
X181590Y150099D02*
X195790D01*
X192827Y105099D02*
X195755D01*
X194145Y108699D02*
X195685D01*
X181590Y151899D02*
X195566D01*
X181590Y150999D02*
X195506D01*
X193153Y233799D02*
X195430D01*
X193172Y105999D02*
X195411D01*
X193779Y107799D02*
X195378D01*
X193219Y231999D02*
X195364D01*
X193289Y232899D02*
X195294D01*
X193414Y106899D02*
X195292D01*
X181590Y152799D02*
X193637D01*
X190743Y123999D02*
X192650D01*
X185301Y202299D02*
X192502D01*
X184401Y201399D02*
X192502D01*
X183501Y200499D02*
X192502D01*
X182601Y199599D02*
X192502D01*
X181701Y198699D02*
X192502D01*
X180801Y197799D02*
X192502D01*
X179901Y196899D02*
X192502D01*
X179001Y195999D02*
X192502D01*
X178101Y195099D02*
X192502D01*
X177201Y194199D02*
X192502D01*
X140868Y193299D02*
X192502D01*
X139968Y192399D02*
X192502D01*
X139068Y191499D02*
X192502D01*
X138168Y190599D02*
X192502D01*
X137268Y189699D02*
X192502D01*
X136368Y188799D02*
X192502D01*
X135468Y187899D02*
X192502D01*
X134568Y186999D02*
X192502D01*
X133668Y186099D02*
X192502D01*
X181598Y185199D02*
X192502D01*
X182085Y184299D02*
X192502D01*
X182183Y183399D02*
X192502D01*
X181943Y182499D02*
X192502D01*
X181590Y181599D02*
X192502D01*
X181590Y180699D02*
X192502D01*
X181590Y179799D02*
X192502D01*
X181590Y178899D02*
X192502D01*
X181590Y177999D02*
X192502D01*
X181590Y177099D02*
X192502D01*
X181590Y176199D02*
X192502D01*
X181590Y175299D02*
X192502D01*
X181590Y174399D02*
X192502D01*
X181590Y173499D02*
X192502D01*
X181590Y172599D02*
X192502D01*
X181590Y171699D02*
X192502D01*
X181590Y170799D02*
X192502D01*
X181590Y169899D02*
X192502D01*
X181590Y168999D02*
X192502D01*
X181590Y168099D02*
X192502D01*
X181590Y167199D02*
X192502D01*
X181590Y166299D02*
X192502D01*
X181590Y165399D02*
X192502D01*
X181590Y164499D02*
X192502D01*
X181590Y163599D02*
X192502D01*
X181590Y162699D02*
X192502D01*
X181590Y161799D02*
X192502D01*
X181590Y160899D02*
X192502D01*
X181590Y159999D02*
X192502D01*
X181590Y159099D02*
X192502D01*
X181590Y158199D02*
X192502D01*
X181590Y157299D02*
X192502D01*
X186201Y203199D02*
X192450D01*
X181590Y153699D02*
X192387D01*
X191050Y119499D02*
X192251D01*
X181590Y156399D02*
X192220D01*
X181590Y154599D02*
X191970D01*
X181590Y155499D02*
X191923D01*
X181856Y117699D02*
X191317D01*
X180970Y116799D02*
X190410D01*
X115514Y208599D02*
X190370D01*
X115514Y209499D02*
X189617D01*
X101500Y115899D02*
X189510D01*
X115514Y210399D02*
X188717D01*
X101500Y114999D02*
X188610D01*
X180703Y236499D02*
X187880D01*
X115514Y211299D02*
X187817D01*
X101500Y114099D02*
X187710D01*
X180883Y103299D02*
X187700D01*
X115514Y212199D02*
X186917D01*
X101500Y113199D02*
X186810D01*
X182105Y235599D02*
X186477D01*
X182177Y104199D02*
X186405D01*
X115514Y213099D02*
X186017D01*
X101500Y112299D02*
X185910D01*
X182788Y234699D02*
X185795D01*
X183604Y105099D02*
X185755D01*
X181709Y207699D02*
X185622D01*
X183153Y233799D02*
X185430D01*
X183219Y231999D02*
X185364D01*
X183289Y232899D02*
X185294D01*
X115514Y213999D02*
X185117D01*
X101500Y111399D02*
X185010D01*
X182360Y206799D02*
X184427D01*
X115514Y214899D02*
X184200D01*
X181172Y110499D02*
X184110D01*
X182128Y119499D02*
X183806D01*
X181590Y128499D02*
X183669D01*
X181590Y123999D02*
X183528D01*
X182597Y205899D02*
X183527D01*
X181590Y124899D02*
X183523D01*
X181590Y123099D02*
X183316D01*
X181735Y120399D02*
X183268D01*
X181590Y122199D02*
X183244D01*
X181590Y121299D02*
X183244D01*
X182305Y109599D02*
X183210D01*
X181590Y125799D02*
X183105D01*
X181590Y127599D02*
X183087D01*
X181590Y126699D02*
X182928D01*
X101500Y116799D02*
X178410D01*
X170703Y236499D02*
X177880D01*
X165084Y181599D02*
X177790D01*
X165752Y180699D02*
X177790D01*
X165894Y179799D02*
X177790D01*
X165894Y178899D02*
X177790D01*
X165894Y177999D02*
X177790D01*
X165894Y177099D02*
X177790D01*
X165904Y176199D02*
X177790D01*
X166298Y175299D02*
X177790D01*
X166384Y174399D02*
X177790D01*
X166130Y173499D02*
X177790D01*
X165370Y172599D02*
X177790D01*
X151384Y171699D02*
X177790D01*
X152284Y170799D02*
X177790D01*
X153184Y169899D02*
X177790D01*
X154084Y168999D02*
X177790D01*
X154984Y168099D02*
X177790D01*
X155722Y167199D02*
X177790D01*
X155900Y166299D02*
X177790D01*
X155900Y165399D02*
X177790D01*
X155900Y164499D02*
X177790D01*
X155900Y163599D02*
X177790D01*
X155900Y162699D02*
X177790D01*
X155900Y161799D02*
X177790D01*
X155900Y160899D02*
X177790D01*
X155900Y159999D02*
X177790D01*
X155900Y159099D02*
X177790D01*
X155900Y158199D02*
X177790D01*
X155900Y157299D02*
X177790D01*
X155900Y156399D02*
X177790D01*
X155900Y155499D02*
X177790D01*
X155900Y154599D02*
X177790D01*
X155900Y153699D02*
X177790D01*
X155900Y152799D02*
X177790D01*
X156053Y151899D02*
X177790D01*
X156442Y150999D02*
X177790D01*
X156473Y150099D02*
X177790D01*
X156157Y149199D02*
X177790D01*
X155252Y148299D02*
X177790D01*
X101500Y147399D02*
X177790D01*
X101500Y146499D02*
X177790D01*
X101500Y145599D02*
X177790D01*
X101500Y144699D02*
X177790D01*
X101500Y143799D02*
X177790D01*
X101500Y142899D02*
X177790D01*
X101500Y141999D02*
X177790D01*
X101500Y141099D02*
X177790D01*
X101500Y140199D02*
X177790D01*
X101500Y139299D02*
X177790D01*
X101500Y138399D02*
X177790D01*
X101500Y137499D02*
X177790D01*
X101500Y136599D02*
X177790D01*
X101500Y135699D02*
X177790D01*
X101500Y134799D02*
X177790D01*
X101500Y133899D02*
X177790D01*
X101500Y132999D02*
X177790D01*
X101500Y132099D02*
X177790D01*
X101500Y131199D02*
X177790D01*
X101500Y130299D02*
X177790D01*
X101500Y129399D02*
X177790D01*
X101500Y128499D02*
X177790D01*
X101500Y127599D02*
X177790D01*
X101500Y126699D02*
X177790D01*
X101500Y125799D02*
X177790D01*
X101500Y124899D02*
X177790D01*
X101500Y123999D02*
X177790D01*
X101500Y123099D02*
X177790D01*
X101500Y122199D02*
X177790D01*
X101500Y121299D02*
X177790D01*
X159693Y185199D02*
X177782D01*
X170883Y103299D02*
X177700D01*
X101500Y120399D02*
X177645D01*
X101500Y117699D02*
X177524D01*
X164184Y182499D02*
X177437D01*
X171172Y110499D02*
X177410D01*
X162384Y184299D02*
X177295D01*
X101500Y119499D02*
X177252D01*
X101500Y118599D02*
X177214D01*
X163284Y183399D02*
X177197D01*
X172105Y235599D02*
X176477D01*
X172177Y104199D02*
X176405D01*
X172305Y109599D02*
X176278D01*
X172788Y234699D02*
X175795D01*
X172827Y105099D02*
X175755D01*
X172898Y108699D02*
X175685D01*
X173153Y233799D02*
X175430D01*
X173172Y105999D02*
X175411D01*
X173204Y107799D02*
X175378D01*
X173447Y231999D02*
X175364D01*
X173289Y232899D02*
X175294D01*
X173291Y106899D02*
X175292D01*
X167236Y227499D02*
X172058D01*
X166336Y228399D02*
X170882D01*
X165336Y219399D02*
X169861D01*
X164436Y220299D02*
X169062D01*
X163536Y221199D02*
X168162D01*
X160703Y236499D02*
X167880D01*
X160883Y103299D02*
X167700D01*
X161172Y110499D02*
X167410D01*
X165436Y229299D02*
X167279D01*
X162636Y222099D02*
X167262D01*
X162105Y235599D02*
X166477D01*
X162177Y104199D02*
X166405D01*
X161736Y222999D02*
X166362D01*
X162305Y109599D02*
X166278D01*
X164536Y230199D02*
X166215D01*
X162788Y234699D02*
X165795D01*
X162827Y105099D02*
X165755D01*
X162898Y108699D02*
X165685D01*
X164115Y231099D02*
X165651D01*
X160836Y223899D02*
X165462D01*
X163153Y233799D02*
X165430D01*
X163172Y105999D02*
X165411D01*
X163204Y107799D02*
X165378D01*
X163749Y231999D02*
X165364D01*
X163384Y232899D02*
X165294D01*
X163291Y106899D02*
X165292D01*
X159936Y224799D02*
X164562D01*
X159036Y225699D02*
X163662D01*
X115514Y215799D02*
X163562D01*
X158136Y226599D02*
X162762D01*
X115514Y216699D02*
X162662D01*
X150483Y172599D02*
X162417D01*
X151376Y178899D02*
X161893D01*
X150476Y177999D02*
X161893D01*
X149576Y177099D02*
X161893D01*
X148676Y176199D02*
X161884D01*
X157236Y227499D02*
X161862D01*
X115514Y217599D02*
X161762D01*
X146314Y173499D02*
X161657D01*
X147776Y175299D02*
X161489D01*
X146876Y174399D02*
X161403D01*
X152276Y179799D02*
X161227D01*
X115514Y218499D02*
X160862D01*
X158772Y180699D02*
X160327D01*
X115514Y219399D02*
X159962D01*
X156336Y228399D02*
X159800D01*
X115514Y220299D02*
X159062D01*
X115514Y221199D02*
X158162D01*
X150703Y236499D02*
X157880D01*
X153176Y180699D02*
X157718D01*
X150883Y103299D02*
X157700D01*
X151172Y110499D02*
X157410D01*
X155436Y229299D02*
X157279D01*
X115514Y222099D02*
X157262D01*
X132768Y185199D02*
X156815D01*
X152105Y235599D02*
X156477D01*
X152177Y104199D02*
X156405D01*
X115514Y222999D02*
X156362D01*
X152305Y109599D02*
X156278D01*
X154536Y230199D02*
X156215D01*
X152788Y234699D02*
X155795D01*
X152827Y105099D02*
X155755D01*
X152898Y108699D02*
X155685D01*
X154115Y231099D02*
X155651D01*
X115514Y223899D02*
X155462D01*
X153153Y233799D02*
X155430D01*
X153172Y105999D02*
X155411D01*
X153204Y107799D02*
X155378D01*
X153749Y231999D02*
X155364D01*
X153384Y232899D02*
X155294D01*
X153291Y106899D02*
X155292D01*
X115514Y224799D02*
X154562D01*
X115514Y225699D02*
X153662D01*
X115821Y226599D02*
X152762D01*
X101500Y148299D02*
X152748D01*
X116326Y165399D02*
X152100D01*
X116326Y164499D02*
X152100D01*
X116326Y163599D02*
X152100D01*
X116326Y162699D02*
X152100D01*
X116326Y161799D02*
X152100D01*
X116326Y160899D02*
X152100D01*
X116326Y159999D02*
X152100D01*
X116326Y159099D02*
X152100D01*
X116326Y158199D02*
X152100D01*
X116326Y157299D02*
X152100D01*
X116326Y156399D02*
X152100D01*
X116326Y155499D02*
X152100D01*
X116326Y154599D02*
X152100D01*
X116326Y153699D02*
X152100D01*
X116326Y152799D02*
X152100D01*
X101633Y151899D02*
X151947D01*
X116721Y227499D02*
X151862D01*
X101500Y149199D02*
X151843D01*
X101500Y150999D02*
X151558D01*
X101500Y150099D02*
X151526D01*
X116326Y166299D02*
X151410D01*
X131868Y184299D02*
X151402D01*
X116326Y167199D02*
X150510D01*
X130788Y183399D02*
X150502D01*
X118783Y228399D02*
X149800D01*
X116326Y168099D02*
X149610D01*
X125064Y182499D02*
X149602D01*
X145415Y168999D02*
X148710D01*
X125066Y181599D02*
X148702D01*
X140703Y236499D02*
X147880D01*
X124714Y180699D02*
X147802D01*
X140883Y103299D02*
X147700D01*
X141172Y110499D02*
X147410D01*
X141303Y229299D02*
X147279D01*
X123997Y179799D02*
X146902D01*
X142105Y235599D02*
X146477D01*
X142177Y104199D02*
X146405D01*
X142305Y109599D02*
X146278D01*
X142367Y230199D02*
X146215D01*
X124558Y178899D02*
X146002D01*
X142788Y234699D02*
X145795D01*
X142827Y105099D02*
X145755D01*
X142898Y108699D02*
X145685D01*
X142932Y231099D02*
X145651D01*
X143153Y233799D02*
X145430D01*
X143172Y105999D02*
X145411D01*
X143204Y107799D02*
X145378D01*
X143219Y231999D02*
X145364D01*
X143289Y232899D02*
X145294D01*
X143291Y106899D02*
X145292D01*
X124970Y177999D02*
X145102D01*
X125552Y177099D02*
X144202D01*
X126452Y176199D02*
X143302D01*
X116326Y168999D02*
X143106D01*
X127352Y175299D02*
X142402D01*
X116326Y169899D02*
X142136D01*
X116326Y170799D02*
X141678D01*
X130703Y236499D02*
X137880D01*
X130883Y103299D02*
X137700D01*
X131172Y110499D02*
X137410D01*
X131303Y229299D02*
X137279D01*
X132105Y235599D02*
X136477D01*
X132177Y104199D02*
X136405D01*
X132305Y109599D02*
X136278D01*
X132367Y230199D02*
X136215D01*
X132788Y234699D02*
X135795D01*
X132827Y105099D02*
X135755D01*
X132898Y108699D02*
X135685D01*
X132932Y231099D02*
X135651D01*
X133153Y233799D02*
X135430D01*
X133172Y105999D02*
X135411D01*
X133204Y107799D02*
X135378D01*
X133219Y231999D02*
X135364D01*
X133289Y232899D02*
X135294D01*
X133291Y106899D02*
X135292D01*
X120703Y236499D02*
X127880D01*
X120883Y103299D02*
X127700D01*
X121172Y110499D02*
X127410D01*
X121303Y229299D02*
X127279D01*
X122105Y235599D02*
X126477D01*
X122177Y104199D02*
X126405D01*
X122305Y109599D02*
X126278D01*
X122367Y230199D02*
X126215D01*
X122788Y234699D02*
X125795D01*
X122827Y105099D02*
X125755D01*
X122898Y108699D02*
X125685D01*
X122932Y231099D02*
X125651D01*
X116326Y171699D02*
X125578D01*
X123153Y233799D02*
X125430D01*
X123172Y105999D02*
X125411D01*
X123204Y107799D02*
X125378D01*
X123219Y231999D02*
X125364D01*
X123289Y232899D02*
X125294D01*
X123291Y106899D02*
X125292D01*
X116326Y172599D02*
X124678D01*
X116326Y173499D02*
X123778D01*
X116326Y174399D02*
X122878D01*
X116326Y175299D02*
X121226D01*
X116326Y179799D02*
X121153D01*
X116326Y178899D02*
X120515D01*
X116326Y180699D02*
X120498D01*
X116326Y176199D02*
X120359D01*
X116326Y181599D02*
X120140D01*
X116326Y177999D02*
X120102D01*
X116326Y177099D02*
X120058D01*
X116326Y182499D02*
X119310D01*
X116326Y183399D02*
X118477D01*
X116326Y184299D02*
X118188D01*
X101500Y197799D02*
X118185D01*
X101500Y196899D02*
X118185D01*
X101506Y195999D02*
X118185D01*
X116326Y195099D02*
X118185D01*
X116326Y194199D02*
X118185D01*
X116326Y193299D02*
X118185D01*
X116326Y192399D02*
X118185D01*
X116326Y191499D02*
X118185D01*
X116326Y190599D02*
X118185D01*
X116326Y189699D02*
X118185D01*
X116326Y188799D02*
X118185D01*
X116326Y187899D02*
X118185D01*
X116326Y186999D02*
X118185D01*
X116326Y186099D02*
X118185D01*
X116326Y185199D02*
X118185D01*
X101500Y198699D02*
X118173D01*
X115514Y207699D02*
X118004D01*
X102962Y236499D02*
X117880D01*
X102932Y103299D02*
X117700D01*
X101500Y110499D02*
X117410D01*
X101500Y199599D02*
X117385D01*
X115583Y206799D02*
X117354D01*
X116514Y205899D02*
X116893D01*
X101500Y200499D02*
X116485D01*
X102287Y235599D02*
X116477D01*
X102267Y104199D02*
X116405D01*
X101500Y109599D02*
X116278D01*
X101851Y234699D02*
X115795D01*
X101839Y105099D02*
X115755D01*
X101500Y108699D02*
X115685D01*
X101500Y201399D02*
X115585D01*
X101598Y233799D02*
X115430D01*
X101592Y105999D02*
X115411D01*
X101500Y107799D02*
X115378D01*
X101501Y106899D02*
X115292D01*
X101502Y232899D02*
X115199D01*
X101500Y231999D02*
X114833D01*
X101500Y202299D02*
X114685D01*
X101500Y231099D02*
X114468D01*
X101500Y230199D02*
X114047D01*
X101500Y203199D02*
X113785D01*
X101500Y229299D02*
X113147D01*
X101500Y204099D02*
X112885D01*
X101500Y228399D02*
X112248D01*
X101500Y204999D02*
X112036D01*
X101500Y227499D02*
X111761D01*
X101500Y205899D02*
X111721D01*
X101500Y226599D02*
X111714D01*
X101500Y225699D02*
X111714D01*
X101500Y224799D02*
X111714D01*
X101500Y223899D02*
X111714D01*
X101500Y222999D02*
X111714D01*
X101500Y222099D02*
X111714D01*
X101500Y221199D02*
X111714D01*
X101500Y220299D02*
X111714D01*
X101500Y219399D02*
X111714D01*
X101500Y218499D02*
X111714D01*
X101500Y217599D02*
X111714D01*
X101500Y216699D02*
X111714D01*
X101500Y215799D02*
X111714D01*
X101500Y214899D02*
X111714D01*
X101500Y213999D02*
X111714D01*
X101500Y213099D02*
X111714D01*
X101500Y212199D02*
X111714D01*
X101500Y211299D02*
X111714D01*
X101500Y210399D02*
X111714D01*
X101500Y209499D02*
X111714D01*
X101500Y208599D02*
X111714D01*
X101500Y207699D02*
X111714D01*
X101500Y206799D02*
X111714D01*
X119818Y203199D02*
X180101D01*
X120059Y202299D02*
X179927D01*
X120959Y201399D02*
X179027D01*
X121751Y200499D02*
X178127D01*
X121985Y199599D02*
X177227D01*
X121985Y198699D02*
X176327D01*
X121985Y197799D02*
X175427D01*
X121985Y196899D02*
X139099D01*
X121985Y195999D02*
X138194D01*
X121985Y195099D02*
X137294D01*
X121985Y194199D02*
X136394D01*
X121985Y193299D02*
X135494D01*
X121985Y192399D02*
X134594D01*
X121985Y191499D02*
X133694D01*
X121985Y190599D02*
X132794D01*
X121985Y189699D02*
X131894D01*
X121985Y188799D02*
X130994D01*
X122038Y187899D02*
X130094D01*
X249327Y128499D02*
X251293D01*
X248427Y127599D02*
X251293D01*
X247527Y126699D02*
X251293D01*
X246627Y125799D02*
X251293D01*
X245727Y124899D02*
X251293D01*
X244827Y123999D02*
X251293D01*
X243927Y123099D02*
X251293D01*
X243027Y122199D02*
X251293D01*
X242127Y121299D02*
X251293D01*
X241955Y120399D02*
X251293D01*
X241417Y119499D02*
X251293D01*
X229874Y118599D02*
X251293D01*
X229447Y117699D02*
X251293D01*
X228554Y116799D02*
X251293D01*
X250227Y129399D02*
X251273D01*
X227654Y115899D02*
X250653D01*
X226754Y114999D02*
X249753D01*
X225854Y114099D02*
X248853D01*
X225054Y113199D02*
X247953D01*
X224733Y112299D02*
X247053D01*
X223952Y111399D02*
X246153D01*
X231172Y110499D02*
X245253D01*
X233496Y109599D02*
X244353D01*
X229904Y119499D02*
X234173D01*
X229904Y123099D02*
X233676D01*
X229904Y132099D02*
X233660D01*
X229983Y134799D02*
X233652D01*
X229904Y120399D02*
X233636D01*
X229904Y133899D02*
X233611D01*
X229904Y132999D02*
X233611D01*
X229904Y128499D02*
X233611D01*
X229904Y127599D02*
X233611D01*
X229904Y126699D02*
X233611D01*
X229904Y122199D02*
X233611D01*
X229904Y121299D02*
X233611D01*
X229904Y125799D02*
X233585D01*
X229904Y129399D02*
X233522D01*
X229904Y131199D02*
X233413D01*
X230867Y135699D02*
X233396D01*
X229904Y123999D02*
X233376D01*
X229904Y124899D02*
X233310D01*
X231767Y136599D02*
X233303D01*
X229904Y130299D02*
X233299D01*
X221627Y110499D02*
X227410D01*
X222305Y109599D02*
X226278D01*
X224145Y108699D02*
X225685D01*
X215830Y141099D02*
X221304D01*
X214930Y140199D02*
X221304D01*
X214030Y139299D02*
X221304D01*
X213130Y138399D02*
X221304D01*
X212290Y137499D02*
X221304D01*
X212255Y136599D02*
X221304D01*
X212255Y135699D02*
X221304D01*
X212255Y134799D02*
X221304D01*
X215857Y133899D02*
X221304D01*
X216786Y132999D02*
X221304D01*
X217112Y132099D02*
X221304D01*
X217088Y131199D02*
X221304D01*
X216705Y130299D02*
X221253D01*
X220393Y141999D02*
X221212D01*
X212278Y133899D02*
X213426D01*
X208255Y144699D02*
X213428D01*
X208255Y143799D02*
X213156D01*
X208255Y142899D02*
X212256D01*
X208255Y141999D02*
X211356D01*
X208255Y141099D02*
X210456D01*
X208255Y145599D02*
X210345D01*
X208255Y187899D02*
X210305D01*
X208255Y186999D02*
X210305D01*
X208255Y186099D02*
X210305D01*
X208255Y185199D02*
X210305D01*
X208255Y184299D02*
X210305D01*
X208255Y183399D02*
X210305D01*
X208255Y182499D02*
X210305D01*
X208255Y181599D02*
X210305D01*
X208255Y180699D02*
X210305D01*
X208255Y179799D02*
X210305D01*
X208255Y178899D02*
X210305D01*
X208255Y177999D02*
X210305D01*
X208255Y177099D02*
X210305D01*
X208255Y176199D02*
X210305D01*
X208255Y175299D02*
X210305D01*
X208255Y174399D02*
X210305D01*
X208255Y173499D02*
X210305D01*
X208255Y172599D02*
X210305D01*
X208255Y171699D02*
X210305D01*
X208255Y170799D02*
X210305D01*
X208255Y169899D02*
X210305D01*
X208255Y168999D02*
X210305D01*
X208255Y168099D02*
X210305D01*
X208255Y167199D02*
X210305D01*
X208255Y166299D02*
X210305D01*
X208255Y165399D02*
X210305D01*
X208255Y164499D02*
X210305D01*
X208255Y163599D02*
X210305D01*
X208255Y162699D02*
X210305D01*
X208255Y161799D02*
X210305D01*
X208255Y160899D02*
X210305D01*
X208255Y159999D02*
X210305D01*
X208255Y159099D02*
X210305D01*
X208255Y158199D02*
X210305D01*
X208255Y157299D02*
X210305D01*
X208255Y156399D02*
X210305D01*
X208255Y155499D02*
X210305D01*
X208255Y154599D02*
X210305D01*
X208255Y153699D02*
X210305D01*
X208255Y152799D02*
X210305D01*
X208255Y151899D02*
X210305D01*
X208255Y150999D02*
X210305D01*
X208255Y150099D02*
X210305D01*
X208255Y149199D02*
X210305D01*
X208255Y148299D02*
X209926D01*
X208255Y146499D02*
X209826D01*
X208255Y147399D02*
X209708D01*
X208255Y140199D02*
X209556D01*
X107000Y239764D02*
G03X100000Y232764I0J-7000D01*
G01X107000Y239764D02*
X301504D01*
X308504Y232764D02*
G03X301504Y239764I-7000J0D01*
G01X308504Y232764D02*
Y107000D01*
X301504Y100000D02*
G03X308504Y107000I-0J7000D01*
G01X301504Y100000D02*
X107000D01*
X100000Y107000D02*
G03X107000Y100000I7000J0D01*
G01X100000Y107000D02*
Y232764D01*
G54D13*
X119291Y106969D03*
X129291D03*
X139291D03*
X149291D03*
X159291D03*
X169291D03*
X179291D03*
X189291D03*
X199291D03*
X209291D03*
X219291D03*
X229291D03*
X269009Y123690D03*
Y133690D03*
X253543Y136457D03*
Y146457D03*
Y156457D03*
Y166457D03*
Y176457D03*
Y186457D03*
Y196457D03*
Y206457D03*
X119291Y232756D03*
X129291D03*
X139291D03*
X149291D03*
X159291D03*
X169291D03*
X179291D03*
X189291D03*
X199291D03*
X209291D03*
X219291D03*
X229291D03*
X239291D03*
X249291D03*
X259291D03*
X269291D03*
X279291D03*
X289291D03*
G54D16*
X234291Y106969D02*
X230529Y108206D01*
Y105731*
X234291Y106969*
X230529Y106000D02*
X231346D01*
X230529Y107500D02*
X232675D01*
X232000Y106215D02*
Y107722D01*
X233500Y106708D02*
Y107229D01*
X253543Y132345D02*
X254746Y135186D01*
X252341*
X253543Y132345*
X253266Y133000D02*
X253821D01*
X252631Y134500D02*
X254455D01*
X253000Y133629D02*
Y135186D01*
X254500Y134605D02*
Y135186D01*
X229291Y106969D02*
X244905D01*
X253543Y115607*
Y136457*
X282559Y183244D02*
Y184744D01*
Y190181D02*
Y188681D01*
X276925Y186713D02*
X278425D01*
X282559Y149189D02*
Y150689D01*
Y156126D02*
Y154626D01*
X276925Y152657D02*
X278425D01*
X298307Y149189D02*
Y150689D01*
Y156126D02*
Y154626D01*
X293657Y152657D02*
X295157D01*
X298307Y183244D02*
Y184744D01*
Y190181D02*
Y188681D01*
X293657Y186713D02*
X295157D01*
X289291Y236756D02*
Y235256D01*
X285291Y232756D02*
X286791D01*
X289291Y228756D02*
Y230256D01*
X293291Y232756D02*
X291791D01*
X279291Y236756D02*
Y235256D01*
X275291Y232756D02*
X276791D01*
X283291D02*
X281791D01*
X253543Y152457D02*
Y153957D01*
X257543Y156457D02*
X256043D01*
X253543Y160457D02*
Y158957D01*
G54D26*
X284528Y158307D03*
Y181063D03*
G54D27*
X298307Y186713D03*
Y152657D03*
G54D28*
X282559D03*
Y186713D03*
G54D29*
X192827Y110504D02*
X189291Y109069D01*
X191391Y106969*
X192827Y110504*
X191160Y107200D02*
X191485D01*
X190360Y108000D02*
X191810D01*
X189560Y108800D02*
X192135D01*
X190600Y109600D02*
X192460D01*
X192571Y110400D02*
X192785D01*
X189600Y108760D02*
Y109194D01*
X190400Y107960D02*
Y109519D01*
X191200Y107160D02*
Y109843D01*
X192000Y108468D02*
Y110168D01*
X192800Y110438D02*
Y110493D01*
X179690Y120356D02*
X179278Y119382D01*
X180102*
X179690Y120356*
X179539Y120000D02*
X179841D01*
X180000Y119382D02*
Y119624D01*
X179690Y182173D02*
X180102Y183147D01*
X179278*
X179690Y182173*
X179594Y182400D02*
X179786D01*
X180000Y182906D02*
Y183147D01*
X185428Y125312D02*
X185840Y126286D01*
X185016*
X185428Y125312*
X185306Y125600D02*
X185550D01*
X185600Y125719D02*
Y126286D01*
X190501Y121654D02*
X189553Y122055D01*
Y121252*
X190501Y121654*
X189553Y121600D02*
X190375D01*
X189600Y121272D02*
Y122035D01*
X190400Y121611D02*
Y121696D01*
X192108Y121654D02*
X193082Y121242D01*
Y122066*
X192108Y121654*
X192235Y121600D02*
X193082D01*
X192800Y121361D02*
Y121947D01*
X171950Y230097D02*
X171374Y232488D01*
X169559Y230673*
X171950Y230097*
X170692Y230400D02*
X171877D01*
X170086Y231200D02*
X171685D01*
X170886Y232000D02*
X171492D01*
X169600Y230663D02*
Y230714D01*
X170400Y230470D02*
Y231514D01*
X171200Y230278D02*
Y232314D01*
X214642Y130304D02*
X215054Y131278D01*
X214229*
X214642Y130304*
X214601Y130400D02*
X214682D01*
X214262Y131200D02*
X215021D01*
X214400Y130875D02*
Y131278D01*
X223505Y117713D02*
X222525Y117316D01*
X223108Y116733*
X223505Y117713*
X223041Y116800D02*
X223135D01*
X223226Y117600D02*
X223459D01*
X223200Y116960D02*
Y117589D01*
X234722Y145276D02*
X235671Y144874D01*
Y145677*
X234722Y145276*
X235489Y145600D02*
X235671D01*
X235200Y145073D02*
Y145478D01*
X223505Y114436D02*
X222525Y114039D01*
X223108Y113456*
X223505Y114436*
X222964Y113600D02*
X223166D01*
X223415Y114400D02*
X223490D01*
X223200Y113684D02*
Y114313D01*
X234722Y139370D02*
X235671Y138969D01*
Y139771*
X234722Y139370*
X235124Y139200D02*
X235671D01*
X235200Y139168D02*
Y139572D01*
X233825Y168521D02*
X234805Y168918D01*
X234222Y169501*
X233825Y168521*
X233938Y168800D02*
X234514D01*
X234400Y168754D02*
Y169323D01*
X235795Y123220D02*
X236207Y124194D01*
X235383*
X235795Y123220*
X235465Y124000D02*
X236125D01*
X236000Y123704D02*
Y124194D01*
X250054Y162968D02*
X253484Y164358D01*
X251444Y166398*
X250054Y162968*
X250148Y163200D02*
X250627D01*
X250472Y164000D02*
X252601D01*
X250796Y164800D02*
X253043D01*
X251121Y165600D02*
X252243D01*
X250400Y163108D02*
Y163822D01*
X251200Y163432D02*
Y165796D01*
X252000Y163756D02*
Y165843D01*
X252800Y164081D02*
Y165043D01*
X262399Y116247D02*
X263373Y115835D01*
Y116659*
X262399Y116247*
X262982Y116000D02*
X263373D01*
X262400Y116246D02*
Y116247D01*
X263200Y115908D02*
Y116586D01*
X252827Y229220D02*
X251391Y232756D01*
X249291Y230656*
X252827Y229220*
X251892Y229600D02*
X252673D01*
X249922Y230400D02*
X252348D01*
X249835Y231200D02*
X252023D01*
X250635Y232000D02*
X251698D01*
X249600Y230531D02*
Y230965D01*
X250400Y230206D02*
Y231765D01*
X251200Y229881D02*
Y232565D01*
X252000Y229556D02*
Y231257D01*
X252800Y229231D02*
Y229287D01*
X202827Y229220D02*
X201391Y232756D01*
X199291Y230656*
X202827Y229220*
X201892Y229600D02*
X202673D01*
X199922Y230400D02*
X202348D01*
X199835Y231200D02*
X202023D01*
X200635Y232000D02*
X201698D01*
X200000Y230368D02*
Y231365D01*
X200800Y230043D02*
Y232165D01*
X201600Y229719D02*
Y232242D01*
X202400Y229394D02*
Y230272D01*
X217089Y143631D02*
X218063Y143219D01*
Y144044*
X217089Y143631*
X217960Y144000D02*
X218063D01*
X217600Y143415D02*
Y143847D01*
X235795Y129029D02*
X236207Y130003D01*
X235383*
X235795Y129029*
X235553Y129600D02*
X236037D01*
X236000Y129513D02*
Y130003D01*
X250054Y172968D02*
X253484Y174358D01*
X251444Y176398*
X250054Y172968*
X250310Y173600D02*
X251614D01*
X250634Y174400D02*
X253443D01*
X250958Y175200D02*
X252643D01*
X251283Y176000D02*
X251843D01*
X250400Y173108D02*
Y173822D01*
X251200Y173432D02*
Y175796D01*
X252000Y173756D02*
Y175843D01*
X252800Y174081D02*
Y175043D01*
X250054Y192968D02*
X253484Y194358D01*
X251444Y196398*
X250054Y192968*
X250310Y193600D02*
X251614D01*
X250634Y194400D02*
X253443D01*
X250958Y195200D02*
X252643D01*
X251283Y196000D02*
X251843D01*
X250400Y193108D02*
Y193822D01*
X251200Y193432D02*
Y195796D01*
X252000Y193756D02*
Y195843D01*
X252800Y194081D02*
Y195043D01*
X235795Y134994D02*
X236207Y135968D01*
X235383*
X235795Y134994*
X235708Y135200D02*
X235882D01*
X236000Y135478D02*
Y135968D01*
X250054Y182968D02*
X253484Y184358D01*
X251444Y186398*
X250054Y182968*
X250148Y183200D02*
X250627D01*
X250472Y184000D02*
X252601D01*
X250796Y184800D02*
X253043D01*
X251121Y185600D02*
X252243D01*
X250400Y183108D02*
Y183822D01*
X251200Y183432D02*
Y185796D01*
X252000Y183756D02*
Y185843D01*
X252800Y184081D02*
Y185043D01*
X301969Y143285D02*
X300989Y142888D01*
X301572Y142305*
X301969Y143285*
X301476Y142400D02*
X301610D01*
X301760Y143200D02*
X301935D01*
X301600Y142374D02*
Y143135D01*
X154000Y151873D02*
X153588Y150899D01*
X154412*
X154000Y151873*
X153715Y151200D02*
X154284D01*
X153600Y150899D02*
Y150928D01*
X154400Y150899D02*
Y150927D01*
X145670Y171216D02*
X144696Y171628D01*
Y170804*
X145670Y171216*
X144696Y171200D02*
X145632D01*
X144800Y170848D02*
Y171584D01*
X145600Y171186D02*
Y171246D01*
X197990Y152697D02*
X197577Y151723D01*
X198402*
X197990Y152697*
X197695Y152000D02*
X198285D01*
X197600Y151723D02*
Y151777D01*
X198400Y151723D02*
Y151727D01*
X162827Y229220D02*
X161391Y232756D01*
X159291Y230656*
X162827Y229220*
X161892Y229600D02*
X162673D01*
X159922Y230400D02*
X162348D01*
X159835Y231200D02*
X162023D01*
X160635Y232000D02*
X161698D01*
X160000Y230368D02*
Y231365D01*
X160800Y230043D02*
Y232165D01*
X161600Y229719D02*
Y232242D01*
X162400Y229394D02*
Y230272D01*
X212205Y148679D02*
X211792Y147705D01*
X212617*
X212205Y148679*
X211917Y148000D02*
X212492D01*
X212000Y147705D02*
Y148196D01*
X215756Y229220D02*
X219291Y230656D01*
X217191Y232756*
X215756Y229220*
X215910Y229600D02*
X216691D01*
X216235Y230400D02*
X218661D01*
X216560Y231200D02*
X218747D01*
X216884Y232000D02*
X217947D01*
X216000Y229320D02*
Y229822D01*
X216800Y229644D02*
Y231792D01*
X217600Y229969D02*
Y232347D01*
X218400Y230294D02*
Y231547D01*
X219200Y230619D02*
Y230747D01*
X250054Y202968D02*
X253484Y204358D01*
X251444Y206398*
X250054Y202968*
X250148Y203200D02*
X250627D01*
X250472Y204000D02*
X252601D01*
X250796Y204800D02*
X253043D01*
X251121Y205600D02*
X252243D01*
X250400Y203108D02*
Y203822D01*
X251200Y203432D02*
Y205796D01*
X252000Y203756D02*
Y205843D01*
X252800Y204081D02*
Y205043D01*
X272827Y229220D02*
X271391Y232756D01*
X269291Y230656*
X272827Y229220*
X271892Y229600D02*
X272673D01*
X269922Y230400D02*
X272348D01*
X269835Y231200D02*
X272023D01*
X270635Y232000D02*
X271698D01*
X269600Y230531D02*
Y230965D01*
X270400Y230206D02*
Y231765D01*
X271200Y229881D02*
Y232565D01*
X272000Y229556D02*
Y231257D01*
X272800Y229231D02*
Y229287D01*
X194402Y156589D02*
X193990Y155615D01*
X194814*
X194402Y156589*
X194153Y156000D02*
X194651D01*
X194400Y155615D02*
Y156584D01*
X152827Y229220D02*
X151391Y232756D01*
X149291Y230656*
X152827Y229220*
X151892Y229600D02*
X152673D01*
X149922Y230400D02*
X152348D01*
X149835Y231200D02*
X152023D01*
X150635Y232000D02*
X151698D01*
X149600Y230531D02*
Y230965D01*
X150400Y230206D02*
Y231765D01*
X151200Y229881D02*
Y232565D01*
X152000Y229556D02*
Y231257D01*
X152800Y229231D02*
Y229287D01*
X264688Y170111D02*
X264276Y169137D01*
X265100*
X264688Y170111*
X264472Y169600D02*
X264904D01*
X264800Y169137D02*
Y169847D01*
X267843Y175608D02*
X268817Y175195D01*
Y176020*
X267843Y175608*
X268807Y175200D02*
X268817D01*
X268771Y176000D02*
X268817D01*
X268000Y175541D02*
Y175674D01*
X268800Y175203D02*
Y176012D01*
X156835Y183143D02*
X157809Y182730D01*
Y183555*
X156835Y183143*
X156971Y183200D02*
X157809D01*
X157600Y182819D02*
Y183466D01*
X123533Y176431D02*
X123136Y177411D01*
X122553Y176828*
X123533Y176431*
X122622Y176800D02*
X123384D01*
X123200Y176566D02*
Y177253D01*
X123632Y185135D02*
X122658Y185547D01*
Y184723*
X123632Y185135*
X122658Y184800D02*
X122840D01*
X123200Y184952D02*
Y185318D01*
X189882Y205891D02*
X190856Y205478D01*
Y206303*
X189882Y205891*
X190569Y205600D02*
X190856D01*
X190400Y205671D02*
Y206110D01*
X209290Y192476D02*
X208878Y191502D01*
X209702*
X209290Y192476*
X209089Y192000D02*
X209491D01*
X209600Y191502D02*
Y191744D01*
X209291Y227756D02*
X210776Y231271D01*
X207806*
X209291Y227756*
X209188Y228000D02*
X209394D01*
X208850Y228800D02*
X209732D01*
X208512Y229600D02*
X210070D01*
X208174Y230400D02*
X210408D01*
X207836Y231200D02*
X210746D01*
X208000Y230813D02*
Y231271D01*
X208800Y228919D02*
Y231271D01*
X209600Y228487D02*
Y231271D01*
X210400Y230380D02*
Y231271D01*
X115756Y229220D02*
X119291Y230656D01*
X117191Y232756*
X115756Y229220*
X115910Y229600D02*
X116691D01*
X116235Y230400D02*
X118661D01*
X116560Y231200D02*
X118747D01*
X116884Y232000D02*
X117947D01*
X116000Y229320D02*
Y229822D01*
X116800Y229644D02*
Y231792D01*
X117600Y229969D02*
Y232347D01*
X118400Y230294D02*
Y231547D01*
X119200Y230619D02*
Y230747D01*
X121065Y205821D02*
X120091Y206233D01*
Y205409*
X121065Y205821*
X120091Y205600D02*
X120542D01*
X120800Y205709D02*
Y205933D01*
X178649Y205821D02*
X179623Y205409D01*
Y206233*
X178649Y205821*
X179171Y205600D02*
X179623D01*
X179200Y205588D02*
Y206054D01*
X179291Y106969D02*
X183266D01*
X192557Y116259*
X211715*
X214939Y119483*
Y123294*
X219204Y127559*
X219504*
X189291Y106969D02*
X195629Y113306D01*
X214853*
X219204Y117657*
Y121654*
X219504*
X179690Y118946D02*
Y183583D01*
X185728Y121654D02*
X185428D01*
Y124188*
X185428*
Y126722*
X189128Y121654D02*
X191473D01*
X191473*
X193518*
X206655D02*
X206355D01*
X203970Y124039*
Y223981*
X198703Y229249*
X172799*
X169291Y232756*
X210055Y121654D02*
X210355D01*
X214642Y125940*
Y131714*
X222508Y116716D02*
X226604Y120812D01*
Y141092*
X230787Y145276*
X236095*
X222508Y113439D02*
X228004Y118935D01*
Y135522*
X231852Y139370*
X236095*
X222904Y121654D02*
X223204D01*
X225204Y123654*
Y152541*
X230351Y157689*
Y165047*
X234822Y169518*
X236095Y121654D02*
X235795D01*
Y124630*
X239495Y121654D02*
X239795D01*
X249996Y131854*
Y162910*
X253543Y166457*
X263809Y116247D02*
X262376D01*
X260961Y117662*
Y221087*
X249291Y232756*
X206655Y127559D02*
X206355D01*
Y225692*
X199291Y232756*
X210055Y127559D02*
X210355D01*
Y138311*
X215676Y143631*
X218499*
X222904Y127559D02*
X223204D01*
Y152521*
X228951Y158269*
Y166476*
X234806Y172331*
X236095Y127559D02*
X235795D01*
Y130439*
X239495Y127559D02*
X239795D01*
X248496Y136259*
Y171410*
X253543Y176457*
X239495Y139370D02*
X239795D01*
X245695Y145270*
Y188609*
X253543Y196457*
X236095Y133465D02*
X235795D01*
Y136404*
X239495Y133465D02*
X239795D01*
X247095Y140765*
Y180009*
X253543Y186457*
X300972Y142288D02*
X302991Y144307D01*
X154000Y150463D02*
Y166396D01*
X149180Y171216*
X144260*
X197990Y151287D02*
Y208921D01*
X186743Y220168*
X171879*
X159291Y232756*
X212205Y147269D02*
Y225669D01*
X219291Y232756*
X239495Y145276D02*
X239795D01*
X244295Y149775*
Y197209*
X253543Y206457*
X302991Y144307D02*
Y212054D01*
X288301Y226744*
X275304*
X269291Y232756*
X194402Y155179D02*
Y207401D01*
X184925Y216877*
X165170*
X149291Y232756*
X234879Y172258D02*
X234806Y172331D01*
X264688Y168701D02*
Y173708D01*
X266588Y175608*
X269253*
X122606Y182042D02*
X122530Y181966D01*
X120085Y184411*
Y199586*
X113614Y206057*
X142593Y172803D02*
X152932Y183143D01*
X158245*
X142593Y172803D02*
X127161D01*
X122536Y177428*
X122222Y185135D02*
X130017D01*
X140354Y195472*
X175787*
X186206Y205891*
X191292*
X209290Y191066D02*
Y201644D01*
X209291Y201645*
Y232756*
X113614Y206057D02*
Y227079D01*
X119291Y232756*
X119655Y205821D02*
X180059D01*
G54D30*
X107874Y107874D03*
X300787D03*
X107874Y231890D03*
X301062Y232292D03*
G54D31*
X123622Y102953D03*
X134449D03*
X145276D03*
X154134D03*
X165945D03*
X174803D03*
X184646D03*
X195472D03*
X216142D03*
X251575Y104921D03*
X276181Y106890D03*
X105906Y121654D03*
X115748Y120669D03*
X179690Y118946D03*
X185630Y115748D03*
X193518Y121654D03*
X222508Y116716D03*
Y113439D03*
X233858Y115748D03*
X263809Y116247D03*
X279134Y117717D03*
X292913Y121654D03*
X297835Y118701D03*
X303740D03*
X109843Y132480D03*
X110827Y125591D03*
X103937Y129528D03*
X140354Y132480D03*
X146260Y130512D03*
X144291Y126575D03*
X151181Y125591D03*
X162008Y128543D03*
X164961Y125591D03*
X170866Y124606D03*
X185428Y126722D03*
X214642Y131714D03*
X220079Y132480D03*
X231890Y124606D03*
X235795Y130439D03*
Y124630D03*
X249606Y125591D03*
X277165Y131496D03*
X292913D03*
X304724D03*
X103937Y138386D03*
X108858Y139370D03*
X114764Y137402D03*
X142323Y138386D03*
X147244Y135433D03*
X165945Y140354D03*
X169882Y141339D03*
X165945Y135433D03*
X173819Y133465D03*
X187598Y139370D03*
X213441Y136906D03*
X235795Y136404D03*
X278150Y141339D03*
X300972Y142288D03*
X103059Y147142D03*
X102953Y151181D03*
X112795Y146260D03*
X105906Y145276D03*
X111811Y151181D03*
X108858D03*
X105906D03*
X116732Y145276D03*
X117717Y152165D03*
X114764Y151181D03*
X123622Y152165D03*
X148228Y145276D03*
X154000Y150463D03*
X161024Y144291D03*
X166929Y147244D03*
X192520Y143307D03*
X189567Y152165D03*
X197990Y151287D03*
X212205Y147269D03*
X209054Y143489D03*
X218499Y143631D03*
X234843Y152165D03*
X264442Y145892D03*
X264370Y150197D03*
X288900Y145892D03*
X121654Y157087D03*
X120669Y161024D03*
X117717D03*
Y158071D03*
Y155118D03*
X128543Y157087D03*
X132480Y162008D03*
X129528Y161024D03*
X126575D03*
X123622D03*
X186614Y160039D03*
X194402Y155179D03*
X216142Y157087D03*
X238780Y156102D03*
X293898Y160039D03*
X121654Y169882D03*
X117717Y171850D03*
Y168898D03*
X120669Y165945D03*
X117717D03*
X126575D03*
X123622D03*
X133465Y164961D03*
X144260Y171216D03*
X175787Y164961D03*
X174803Y171850D03*
X186614D03*
X200394Y169882D03*
X234879Y172258D03*
X234822Y169518D03*
X264688Y168701D03*
X299803Y169882D03*
X298819Y162992D03*
X122606Y182042D03*
X122536Y177428D03*
X117717Y180709D03*
Y177756D03*
Y174803D03*
X141339Y178740D03*
X135433Y181693D03*
Y176772D03*
X144291Y181693D03*
X163894Y174616D03*
X169882Y179724D03*
X239764Y181693D03*
X269253Y175608D03*
X296850Y174803D03*
X122222Y185135D03*
X117717Y192520D03*
Y189567D03*
Y186614D03*
Y183661D03*
X143307Y186614D03*
X138386Y185630D03*
X158245Y183143D03*
X167913Y185630D03*
X179690Y183583D03*
X200394Y182677D03*
X209290Y191066D03*
X221063Y183661D03*
X238780Y187598D03*
X266339Y189567D03*
X272244Y188583D03*
X295866Y192520D03*
X102953Y196457D03*
X103937Y201378D03*
X108858D03*
X105906Y196457D03*
X108858D03*
X111811D03*
X113780Y200394D03*
X114764Y196457D03*
X117717Y195472D03*
X138386Y201378D03*
X148883Y200146D03*
X167913Y198425D03*
X188821Y193676D03*
X228937Y200394D03*
X278150Y194488D03*
X288900Y196428D03*
X107874Y209252D03*
X108858Y206299D03*
X103937Y207283D03*
X119655Y205821D03*
X139370Y212205D03*
X170866Y209252D03*
X180059Y205821D03*
X191292Y205891D03*
X223031Y203346D03*
X227953Y205315D03*
X224016Y207283D03*
X102953Y222047D03*
X109843Y213189D03*
X110827Y222047D03*
X106890Y220079D03*
X104921Y215157D03*
X117717Y216142D03*
X129528Y218110D03*
X145276Y214173D03*
X148228Y219094D03*
X182677Y213189D03*
X239764Y215157D03*
X248622Y214173D03*
X251575Y221063D03*
X246654Y218110D03*
X256496Y217126D03*
X268307D03*
X269291Y221063D03*
X275197Y218110D03*
X291929Y215157D03*
X284055Y219094D03*
X304724Y220079D03*
X126575Y224016D03*
X135433Y223031D03*
X124606Y235827D03*
X135433D03*
X144291D03*
X154134D03*
X164961Y236811D03*
X173819Y234843D03*
X184646Y235827D03*
X194488D03*
X205315D03*
X214173Y236811D03*
X224016Y235827D03*
X233858D03*
X244685D03*
X254528D03*
X265354D03*
G54D32*
X222904Y127559D03*
X219504D03*
X239495Y145276D03*
X236095D03*
X222904Y121654D03*
X219504D03*
X210055D03*
X206655D03*
X210055Y127559D03*
X206655D03*
X189128Y121654D03*
X185728D03*
X239495D03*
X236095D03*
X239495Y127559D03*
X236095D03*
X239495Y133465D03*
X236095D03*
X239495Y139370D03*
X236095D03*
G74*
X0Y0D02*
M02*
