*
*
G04 PADS VX.2.4 Build Number: 11282995 generated Gerber (RS-274-X) file*
G04 PC Version=2.1*
*
%IN "ESP32-PicoD4_EVK.pcb"*%
*
%MOIN*%
*
%FSLAX35Y35*%
*
*
*
*
G04 PC Standard Apertures*
*
*
G04 Thermal Relief Aperture macro.*
%AMTER*
1,1,$1,0,0*
1,0,$1-$2,0,0*
21,0,$3,$4,0,0,45*
21,0,$3,$4,0,0,135*
%
*
*
G04 Annular Aperture macro.*
%AMANN*
1,1,$1,0,0*
1,0,$2,0,0*
%
*
*
G04 Odd Aperture macro.*
%AMODD*
1,1,$1,0,0*
1,0,$1-0.005,0,0*
%
*
*
G04 PC Custom Aperture Macros*
*
*
*
*
*
*
G04 PC Aperture Table*
*
%ADD010C,0.001*%
%ADD011C,0.01*%
*
*
*
*
G04 PC Circuitry*
G04 Layer Name ESP32-PicoD4_EVK.pcb - circuitry*
%LPD*%
*
*
G04 PC Custom Flashes*
G04 Layer Name ESP32-PicoD4_EVK.pcb - flashes*
%LPD*%
*
*
G04 PC Circuitry*
G04 Layer Name ESP32-PicoD4_EVK.pcb - circuitry*
%LPD*%
*
G54D10*
G01X100000Y182677D02*
X100003D01*
X308504D02*
X308507D01*
X204252Y100000D02*
X204255D01*
X204252Y239764D02*
X204255D01*
X99992Y206201D02*
X99995D01*
X258546Y204627D02*
X258549D01*
G54D11*
X293126Y182713D02*
X301126Y190713D01*
Y182713*
X293126Y190713*
Y182713*
X295488D02*
X303488Y190713D01*
Y182713*
X295488Y190713*
Y182713*
X297126Y187894D02*
G75*
G03Y185531I-0J-1181D01*
G01X297126D02*
X299488D01*
X299488D02*
G03Y187894I0J1182D01*
G01X297126*
X293126Y148657D02*
X301126Y156657D01*
Y148657*
X293126Y156657*
Y148657*
X295488D02*
X303488Y156657D01*
Y148657*
X295488Y156657*
Y148657*
X297126Y153839D02*
G03Y151476I-0J-1182D01*
G01X299488*
G03Y153839I0J1181*
G01X297126*
X280394Y148657D02*
X284394Y152657D01*
X280394Y156657*
X276394Y152657*
X280394Y148657*
Y152657D02*
Y156657D01*
X284724Y148657D02*
X288724Y152657D01*
X284724Y156657*
X280724Y152657*
X284724Y148657*
Y152657D02*
Y156657D01*
X280394Y153839D02*
G03Y151476I-0J-1182D01*
G01X284724*
G03Y153839I0J1181*
G01X280394*
Y182713D02*
X284394Y186713D01*
X280394Y190713*
X276394Y186713*
X280394Y182713*
Y186713D02*
Y190713D01*
X284724Y182713D02*
X288724Y186713D01*
X284724Y190713*
X280724Y186713*
X284724Y182713*
Y186713D02*
Y190713D01*
X280394Y187894D02*
G03Y185531I-0J-1181D01*
G01X280394D02*
X284724D01*
X284724D02*
G03Y187894I0J1182D01*
G01X280394*
X191525Y63442D02*
X189252D01*
X189025Y60630*
X189252Y60942*
X189934Y61255*
X190616*
X191297Y60942*
X191752Y60317*
X191979Y59380*
X191752Y58755*
X191525Y57817*
X191070Y57192*
X190388Y56880*
X189707*
X189025Y57192*
X188797Y57505*
X188570Y58130*
X194479Y63442D02*
X196979D01*
X195616Y60942*
X196297*
X196752Y60630*
X196979Y60317*
X197207Y59380*
Y58755*
X196979Y57817*
X196525Y57192*
X195843Y56880*
X195161*
X194479Y57192*
X194252Y57505*
X194025Y58130*
X199479Y57505D02*
X199252Y57192D01*
X199479Y56880*
X199707Y57192*
X199479Y57505*
X203116Y63442D02*
X202434Y63130D01*
X201979Y62192*
X201752Y60630*
Y59692*
X201979Y58130*
X202434Y57192*
X203116Y56880*
X203570*
X204252Y57192*
X204707Y58130*
X204934Y59692*
Y60630*
X204707Y62192*
X204252Y63130*
X203570Y63442*
X203116*
X206979Y61255D02*
Y56880D01*
Y60005D02*
X207661Y60942D01*
X208116Y61255*
X208797*
X209252Y60942*
X209479Y60005*
Y56880*
Y60005D02*
X210161Y60942D01*
X210616Y61255*
X211297*
X211752Y60942*
X211979Y60005*
Y56880*
X214025Y61255D02*
Y56880D01*
Y60005D02*
X214707Y60942D01*
X215161Y61255*
X215843*
X216297Y60942*
X216525Y60005*
Y56880*
Y60005D02*
X217207Y60942D01*
X217661Y61255*
X218343*
X218797Y60942*
X219025Y60005*
Y56880*
X323000Y172695D02*
X325500D01*
X324136Y170195*
X324818*
X325272Y169882*
X325500Y169570*
X325727Y168632*
Y168007*
X325500Y167070*
X325045Y166445*
X324363Y166132*
X323681*
X323000Y166445*
X322772Y166757*
X322545Y167382*
X330727Y172695D02*
X328454D01*
X328227Y169882*
X328454Y170195*
X329136Y170507*
X329818*
X330500Y170195*
X330954Y169570*
X331181Y168632*
X330954Y168007*
X330727Y167070*
X330272Y166445*
X329591Y166132*
X328909*
X328227Y166445*
X328000Y166757*
X327772Y167382*
X333454Y166757D02*
X333227Y166445D01*
X333454Y166132*
X333681Y166445*
X333454Y166757*
X338681Y172695D02*
X336409D01*
X336181Y169882*
X336409Y170195*
X337091Y170507*
X337772*
X338454Y170195*
X338909Y169570*
X339136Y168632*
X338909Y168007*
X338681Y167070*
X338227Y166445*
X337545Y166132*
X336863*
X336181Y166445*
X335954Y166757*
X335727Y167382*
X341181Y170507D02*
Y166132D01*
Y169257D02*
X341863Y170195D01*
X342318Y170507*
X343000*
X343454Y170195*
X343681Y169257*
Y166132*
Y169257D02*
X344363Y170195D01*
X344818Y170507*
X345500*
X345954Y170195*
X346181Y169257*
Y166132*
X348227Y170507D02*
Y166132D01*
Y169257D02*
X348909Y170195D01*
X349363Y170507*
X350045*
X350500Y170195*
X350727Y169257*
Y166132*
Y169257D02*
X351409Y170195D01*
X351863Y170507*
X352545*
X353000Y170195*
X353227Y169257*
Y166132*
X165860Y32285D02*
X163587Y27910D01*
X166996*
X165860Y32285D02*
Y25723D01*
X170406Y32285D02*
X169724Y31973D01*
X169269Y31035*
X169042Y29473*
Y28535*
X169269Y26973*
X169724Y26035*
X170406Y25723*
X170860*
X171542Y26035*
X171996Y26973*
X172224Y28535*
Y29473*
X171996Y31035*
X171542Y31973*
X170860Y32285*
X170406*
X174496Y26348D02*
X174269Y26035D01*
X174496Y25723*
X174724Y26035*
X174496Y26348*
X177224Y32285D02*
X179724D01*
X178360Y29785*
X179042*
X179496Y29473*
X179724Y29160*
X179951Y28223*
Y27598*
X179724Y26660*
X179269Y26035*
X178587Y25723*
X177906*
X177224Y26035*
X176996Y26348*
X176769Y26973*
X181996Y30098D02*
Y25723D01*
Y28848D02*
X182678Y29785D01*
X183133Y30098*
X183815*
X184269Y29785*
X184496Y28848*
Y25723*
Y28848D02*
X185178Y29785D01*
X185633Y30098*
X186315*
X186769Y29785*
X186996Y28848*
Y25723*
X189042Y30098D02*
Y25723D01*
Y28848D02*
X189724Y29785D01*
X190178Y30098*
X190860*
X191315Y29785*
X191542Y28848*
Y25723*
Y28848D02*
X192224Y29785D01*
X192678Y30098*
X193360*
X193815Y29785*
X194042Y28848*
Y25723*
X115291Y102969D02*
X123291Y110969D01*
X115291D02*
X123291Y102969D01*
X125291D02*
X133291Y110969D01*
X125291D02*
X133291Y102969D01*
X135291D02*
X143291Y110969D01*
X135291D02*
X143291Y102969D01*
X145291D02*
X153291Y110969D01*
X145291D02*
X153291Y102969D01*
X155291D02*
X163291Y110969D01*
X155291D02*
X163291Y102969D01*
X165291D02*
X173291Y110969D01*
X165291D02*
X173291Y102969D01*
X175291D02*
X183291Y110969D01*
X175291D02*
X183291Y102969D01*
X185291D02*
X193291Y110969D01*
X185291D02*
X193291Y102969D01*
X195291D02*
X203291Y110969D01*
X195291D02*
X203291Y102969D01*
X205291D02*
X213291Y110969D01*
X205291D02*
X213291Y102969D01*
X215291D02*
X223291Y110969D01*
X215291D02*
X223291Y102969D01*
X225291D02*
X233291Y110969D01*
X225291D02*
X233291Y102969D01*
X265009Y119690D02*
X273009Y127690D01*
X265009D02*
X273009Y119690D01*
X265009Y129690D02*
X273009Y137690D01*
X265009D02*
X273009Y129690D01*
X249543Y132457D02*
X257543Y140457D01*
X249543D02*
X257543Y132457D01*
X249543Y142457D02*
X257543Y150457D01*
X249543D02*
X257543Y142457D01*
X249543Y152457D02*
X257543Y160457D01*
X249543D02*
X257543Y152457D01*
X249543Y162457D02*
X257543Y170457D01*
X249543D02*
X257543Y162457D01*
X249543Y172457D02*
X257543Y180457D01*
X249543D02*
X257543Y172457D01*
X249543Y182457D02*
X257543Y190457D01*
X249543D02*
X257543Y182457D01*
X249543Y192457D02*
X257543Y200457D01*
X249543D02*
X257543Y192457D01*
X249543Y202457D02*
X257543Y210457D01*
X249543D02*
X257543Y202457D01*
X115291Y228756D02*
X123291Y236756D01*
X115291D02*
X123291Y228756D01*
X125291D02*
X133291Y236756D01*
X125291D02*
X133291Y228756D01*
X135291D02*
X143291Y236756D01*
X135291D02*
X143291Y228756D01*
X145291D02*
X153291Y236756D01*
X145291D02*
X153291Y228756D01*
X155291D02*
X163291Y236756D01*
X155291D02*
X163291Y228756D01*
X165291D02*
X173291Y236756D01*
X165291D02*
X173291Y228756D01*
X175291D02*
X183291Y236756D01*
X175291D02*
X183291Y228756D01*
X185291D02*
X193291Y236756D01*
X185291D02*
X193291Y228756D01*
X195291D02*
X203291Y236756D01*
X195291D02*
X203291Y228756D01*
X205291D02*
X213291Y236756D01*
X205291D02*
X213291Y228756D01*
X215291D02*
X223291Y236756D01*
X215291D02*
X223291Y228756D01*
X225291D02*
X233291Y236756D01*
X225291D02*
X233291Y228756D01*
X235291D02*
X243291Y236756D01*
X235291D02*
X243291Y228756D01*
X245291D02*
X253291Y236756D01*
X245291D02*
X253291Y228756D01*
X255291D02*
X263291Y236756D01*
X255291D02*
X263291Y228756D01*
X265291D02*
X273291Y236756D01*
X265291D02*
X273291Y228756D01*
X275291D02*
X283291Y236756D01*
X275291D02*
X283291Y228756D01*
X285291D02*
X293291Y236756D01*
X285291D02*
X293291Y228756D01*
X280528Y154307D02*
X288528D01*
X280528Y162307*
X288528*
X280528Y154307*
Y177063D02*
X288528D01*
X280528Y185063*
X288528*
X280528Y177063*
X103874Y107874D02*
X111874D01*
X107874Y103874D02*
Y111874D01*
X119622Y98953D02*
X127622D01*
Y106953*
X119622*
Y98953*
X123622Y102953D02*
Y106953D01*
X130449Y98953D02*
X138449D01*
Y106953*
X130449*
Y98953*
X134449Y102953D02*
Y106953D01*
X141276Y98953D02*
X149276D01*
Y106953*
X141276*
Y98953*
X145276Y102953D02*
Y106953D01*
X150134Y98953D02*
X158134D01*
Y106953*
X150134*
Y98953*
X154134Y102953D02*
Y106953D01*
X161945Y98953D02*
X169945D01*
Y106953*
X161945*
Y98953*
X165945Y102953D02*
Y106953D01*
X170803Y98953D02*
X178803D01*
Y106953*
X170803*
Y98953*
X174803Y102953D02*
Y106953D01*
X180646Y98953D02*
X188646D01*
Y106953*
X180646*
Y98953*
X184646Y102953D02*
Y106953D01*
X191472Y98953D02*
X199472D01*
Y106953*
X191472*
Y98953*
X195472Y102953D02*
Y106953D01*
X212142Y98953D02*
X220142D01*
Y106953*
X212142*
Y98953*
X216142Y102953D02*
Y106953D01*
X247575Y100921D02*
X255575D01*
Y108921*
X247575*
Y100921*
X251575Y104921D02*
Y108921D01*
X272181Y102890D02*
X280181D01*
Y110890*
X272181*
Y102890*
X276181Y106890D02*
Y110890D01*
X296787Y107874D02*
X304787D01*
X300787Y103874D02*
Y111874D01*
X101906Y117654D02*
X109906D01*
Y125654*
X101906*
Y117654*
X105906Y121654D02*
Y125654D01*
X111748Y116669D02*
X119748D01*
Y124669*
X111748*
Y116669*
X115748Y120669D02*
Y124669D01*
X175690Y114946D02*
X183690D01*
Y122946*
X175690*
Y114946*
X179690Y118946D02*
Y122946D01*
X181630Y111748D02*
X189630D01*
Y119748*
X181630*
Y111748*
X185630Y115748D02*
Y119748D01*
X189518Y117654D02*
X197518D01*
Y125654*
X189518*
Y117654*
X193518Y121654D02*
Y125654D01*
X218508Y112716D02*
X226508D01*
Y120716*
X218508*
Y112716*
X222508Y116716D02*
Y120716D01*
X218508Y109439D02*
X226508D01*
Y117439*
X218508*
Y109439*
X222508Y113439D02*
Y117439D01*
X229858Y111748D02*
X237858D01*
Y119748*
X229858*
Y111748*
X233858Y115748D02*
Y119748D01*
X259809Y112247D02*
X267809D01*
Y120247*
X259809*
Y112247*
X263809Y116247D02*
Y120247D01*
X275134Y113717D02*
X283134D01*
Y121717*
X275134*
Y113717*
X279134Y117717D02*
Y121717D01*
X288913Y117654D02*
X296913D01*
Y125654*
X288913*
Y117654*
X292913Y121654D02*
Y125654D01*
X293835Y114701D02*
X301835D01*
Y122701*
X293835*
Y114701*
X297835Y118701D02*
Y122701D01*
X299740Y114701D02*
X307740D01*
Y122701*
X299740*
Y114701*
X303740Y118701D02*
Y122701D01*
X105843Y128480D02*
X113843D01*
Y136480*
X105843*
Y128480*
X109843Y132480D02*
Y136480D01*
X106827Y121591D02*
X114827D01*
Y129591*
X106827*
Y121591*
X110827Y125591D02*
Y129591D01*
X99937Y125528D02*
X107937D01*
Y133528*
X99937*
Y125528*
X103937Y129528D02*
Y133528D01*
X136354Y128480D02*
X144354D01*
Y136480*
X136354*
Y128480*
X140354Y132480D02*
Y136480D01*
X142260Y126512D02*
X150260D01*
Y134512*
X142260*
Y126512*
X146260Y130512D02*
Y134512D01*
X140291Y122575D02*
X148291D01*
Y130575*
X140291*
Y122575*
X144291Y126575D02*
Y130575D01*
X147181Y121591D02*
X155181D01*
Y129591*
X147181*
Y121591*
X151181Y125591D02*
Y129591D01*
X158008Y124543D02*
X166008D01*
Y132543*
X158008*
Y124543*
X162008Y128543D02*
Y132543D01*
X160961Y121591D02*
X168961D01*
Y129591*
X160961*
Y121591*
X164961Y125591D02*
Y129591D01*
X166866Y120606D02*
X174866D01*
Y128606*
X166866*
Y120606*
X170866Y124606D02*
Y128606D01*
X181428Y122722D02*
X189428D01*
Y130722*
X181428*
Y122722*
X185428Y126722D02*
Y130722D01*
X210642Y127714D02*
X218642D01*
Y135714*
X210642*
Y127714*
X214642Y131714D02*
Y135714D01*
X216079Y128480D02*
X224079D01*
Y136480*
X216079*
Y128480*
X220079Y132480D02*
Y136480D01*
X227890Y120606D02*
X235890D01*
Y128606*
X227890*
Y120606*
X231890Y124606D02*
Y128606D01*
X231795Y126439D02*
X239795D01*
Y134439*
X231795*
Y126439*
X235795Y130439D02*
Y134439D01*
X231795Y120630D02*
X239795D01*
Y128630*
X231795*
Y120630*
X235795Y124630D02*
Y128630D01*
X245606Y121591D02*
X253606D01*
Y129591*
X245606*
Y121591*
X249606Y125591D02*
Y129591D01*
X273165Y127496D02*
X281165D01*
Y135496*
X273165*
Y127496*
X277165Y131496D02*
Y135496D01*
X288913Y127496D02*
X296913D01*
Y135496*
X288913*
Y127496*
X292913Y131496D02*
Y135496D01*
X300724Y127496D02*
X308724D01*
Y135496*
X300724*
Y127496*
X304724Y131496D02*
Y135496D01*
X99937Y134386D02*
X107937D01*
Y142386*
X99937*
Y134386*
X103937Y138386D02*
Y142386D01*
X104858Y135370D02*
X112858D01*
Y143370*
X104858*
Y135370*
X108858Y139370D02*
Y143370D01*
X110764Y133402D02*
X118764D01*
Y141402*
X110764*
Y133402*
X114764Y137402D02*
Y141402D01*
X138323Y134386D02*
X146323D01*
Y142386*
X138323*
Y134386*
X142323Y138386D02*
Y142386D01*
X143244Y131433D02*
X151244D01*
Y139433*
X143244*
Y131433*
X147244Y135433D02*
Y139433D01*
X161945Y136354D02*
X169945D01*
Y144354*
X161945*
Y136354*
X165945Y140354D02*
Y144354D01*
X165882Y137339D02*
X173882D01*
Y145339*
X165882*
Y137339*
X169882Y141339D02*
Y145339D01*
X161945Y131433D02*
X169945D01*
Y139433*
X161945*
Y131433*
X165945Y135433D02*
Y139433D01*
X169819Y129465D02*
X177819D01*
Y137465*
X169819*
Y129465*
X173819Y133465D02*
Y137465D01*
X183598Y135370D02*
X191598D01*
Y143370*
X183598*
Y135370*
X187598Y139370D02*
Y143370D01*
X209441Y132906D02*
X217441D01*
Y140906*
X209441*
Y132906*
X213441Y136906D02*
Y140906D01*
X231795Y132404D02*
X239795D01*
Y140404*
X231795*
Y132404*
X235795Y136404D02*
Y140404D01*
X274150Y137339D02*
X282150D01*
Y145339*
X274150*
Y137339*
X278150Y141339D02*
Y145339D01*
X296972Y138288D02*
X304972D01*
Y146288*
X296972*
Y138288*
X300972Y142288D02*
Y146288D01*
X99059Y143142D02*
X107059D01*
Y151142*
X99059*
Y143142*
X103059Y147142D02*
Y151142D01*
X98953Y147181D02*
X106953D01*
Y155181*
X98953*
Y147181*
X102953Y151181D02*
Y155181D01*
X108795Y142260D02*
X116795D01*
Y150260*
X108795*
Y142260*
X112795Y146260D02*
Y150260D01*
X101906Y141276D02*
X109906D01*
Y149276*
X101906*
Y141276*
X105906Y145276D02*
Y149276D01*
X107811Y147181D02*
X115811D01*
Y155181*
X107811*
Y147181*
X111811Y151181D02*
Y155181D01*
X104858Y147181D02*
X112858D01*
Y155181*
X104858*
Y147181*
X108858Y151181D02*
Y155181D01*
X101906Y147181D02*
X109906D01*
Y155181*
X101906*
Y147181*
X105906Y151181D02*
Y155181D01*
X112732Y141276D02*
X120732D01*
Y149276*
X112732*
Y141276*
X116732Y145276D02*
Y149276D01*
X113717Y148165D02*
X121717D01*
Y156165*
X113717*
Y148165*
X117717Y152165D02*
Y156165D01*
X110764Y147181D02*
X118764D01*
Y155181*
X110764*
Y147181*
X114764Y151181D02*
Y155181D01*
X119622Y148165D02*
X127622D01*
Y156165*
X119622*
Y148165*
X123622Y152165D02*
Y156165D01*
X144228Y141276D02*
X152228D01*
Y149276*
X144228*
Y141276*
X148228Y145276D02*
Y149276D01*
X150000Y146463D02*
X158000D01*
Y154463*
X150000*
Y146463*
X154000Y150463D02*
Y154463D01*
X157024Y140291D02*
X165024D01*
Y148291*
X157024*
Y140291*
X161024Y144291D02*
Y148291D01*
X162929Y143244D02*
X170929D01*
Y151244*
X162929*
Y143244*
X166929Y147244D02*
Y151244D01*
X188520Y139307D02*
X196520D01*
Y147307*
X188520*
Y139307*
X192520Y143307D02*
Y147307D01*
X185567Y148165D02*
X193567D01*
Y156165*
X185567*
Y148165*
X189567Y152165D02*
Y156165D01*
X193990Y147287D02*
X201990D01*
Y155287*
X193990*
Y147287*
X197990Y151287D02*
Y155287D01*
X208205Y143269D02*
X216205D01*
Y151269*
X208205*
Y143269*
X212205Y147269D02*
Y151269D01*
X205054Y139489D02*
X213054D01*
Y147489*
X205054*
Y139489*
X209054Y143489D02*
Y147489D01*
X214499Y139631D02*
X222499D01*
Y147631*
X214499*
Y139631*
X218499Y143631D02*
Y147631D01*
X230843Y148165D02*
X238843D01*
Y156165*
X230843*
Y148165*
X234843Y152165D02*
Y156165D01*
X260442Y141892D02*
X268442D01*
Y149892*
X260442*
Y141892*
X264442Y145892D02*
Y149892D01*
X260370Y146197D02*
X268370D01*
Y154197*
X260370*
Y146197*
X264370Y150197D02*
Y154197D01*
X284900Y141892D02*
X292900D01*
Y149892*
X284900*
Y141892*
X288900Y145892D02*
Y149892D01*
X117654Y153087D02*
X125654D01*
Y161087*
X117654*
Y153087*
X121654Y157087D02*
Y161087D01*
X116669Y157024D02*
X124669D01*
Y165024*
X116669*
Y157024*
X120669Y161024D02*
Y165024D01*
X113717Y157024D02*
X121717D01*
Y165024*
X113717*
Y157024*
X117717Y161024D02*
Y165024D01*
X113717Y154071D02*
X121717D01*
Y162071*
X113717*
Y154071*
X117717Y158071D02*
Y162071D01*
X113717Y151118D02*
X121717D01*
Y159118*
X113717*
Y151118*
X117717Y155118D02*
Y159118D01*
X124543Y153087D02*
X132543D01*
Y161087*
X124543*
Y153087*
X128543Y157087D02*
Y161087D01*
X128480Y158008D02*
X136480D01*
Y166008*
X128480*
Y158008*
X132480Y162008D02*
Y166008D01*
X125528Y157024D02*
X133528D01*
Y165024*
X125528*
Y157024*
X129528Y161024D02*
Y165024D01*
X122575Y157024D02*
X130575D01*
Y165024*
X122575*
Y157024*
X126575Y161024D02*
Y165024D01*
X119622Y157024D02*
X127622D01*
Y165024*
X119622*
Y157024*
X123622Y161024D02*
Y165024D01*
X182614Y156039D02*
X190614D01*
Y164039*
X182614*
Y156039*
X186614Y160039D02*
Y164039D01*
X190402Y151179D02*
X198402D01*
Y159179*
X190402*
Y151179*
X194402Y155179D02*
Y159179D01*
X212142Y153087D02*
X220142D01*
Y161087*
X212142*
Y153087*
X216142Y157087D02*
Y161087D01*
X234780Y152102D02*
X242780D01*
Y160102*
X234780*
Y152102*
X238780Y156102D02*
Y160102D01*
X289898Y156039D02*
X297898D01*
Y164039*
X289898*
Y156039*
X293898Y160039D02*
Y164039D01*
X117654Y165882D02*
X125654D01*
Y173882*
X117654*
Y165882*
X121654Y169882D02*
Y173882D01*
X113717Y167850D02*
X121717D01*
Y175850*
X113717*
Y167850*
X117717Y171850D02*
Y175850D01*
X113717Y164898D02*
X121717D01*
Y172898*
X113717*
Y164898*
X117717Y168898D02*
Y172898D01*
X116669Y161945D02*
X124669D01*
Y169945*
X116669*
Y161945*
X120669Y165945D02*
Y169945D01*
X113717Y161945D02*
X121717D01*
Y169945*
X113717*
Y161945*
X117717Y165945D02*
Y169945D01*
X122575Y161945D02*
X130575D01*
Y169945*
X122575*
Y161945*
X126575Y165945D02*
Y169945D01*
X119622Y161945D02*
X127622D01*
Y169945*
X119622*
Y161945*
X123622Y165945D02*
Y169945D01*
X129465Y160961D02*
X137465D01*
Y168961*
X129465*
Y160961*
X133465Y164961D02*
Y168961D01*
X140260Y167216D02*
X148260D01*
Y175216*
X140260*
Y167216*
X144260Y171216D02*
Y175216D01*
X171787Y160961D02*
X179787D01*
Y168961*
X171787*
Y160961*
X175787Y164961D02*
Y168961D01*
X170803Y167850D02*
X178803D01*
Y175850*
X170803*
Y167850*
X174803Y171850D02*
Y175850D01*
X182614Y167850D02*
X190614D01*
Y175850*
X182614*
Y167850*
X186614Y171850D02*
Y175850D01*
X196394Y165882D02*
X204394D01*
Y173882*
X196394*
Y165882*
X200394Y169882D02*
Y173882D01*
X230879Y168258D02*
X238879D01*
Y176258*
X230879*
Y168258*
X234879Y172258D02*
Y176258D01*
X230822Y165518D02*
X238822D01*
Y173518*
X230822*
Y165518*
X234822Y169518D02*
Y173518D01*
X260688Y164701D02*
X268688D01*
Y172701*
X260688*
Y164701*
X264688Y168701D02*
Y172701D01*
X295803Y165882D02*
X303803D01*
Y173882*
X295803*
Y165882*
X299803Y169882D02*
Y173882D01*
X294819Y158992D02*
X302819D01*
Y166992*
X294819*
Y158992*
X298819Y162992D02*
Y166992D01*
X118606Y178042D02*
X126606D01*
Y186042*
X118606*
Y178042*
X122606Y182042D02*
Y186042D01*
X118536Y173428D02*
X126536D01*
Y181428*
X118536*
Y173428*
X122536Y177428D02*
Y181428D01*
X113717Y176709D02*
X121717D01*
Y184709*
X113717*
Y176709*
X117717Y180709D02*
Y184709D01*
X113717Y173756D02*
X121717D01*
Y181756*
X113717*
Y173756*
X117717Y177756D02*
Y181756D01*
X113717Y170803D02*
X121717D01*
Y178803*
X113717*
Y170803*
X117717Y174803D02*
Y178803D01*
X137339Y174740D02*
X145339D01*
Y182740*
X137339*
Y174740*
X141339Y178740D02*
Y182740D01*
X131433Y177693D02*
X139433D01*
Y185693*
X131433*
Y177693*
X135433Y181693D02*
Y185693D01*
X131433Y172772D02*
X139433D01*
Y180772*
X131433*
Y172772*
X135433Y176772D02*
Y180772D01*
X140291Y177693D02*
X148291D01*
Y185693*
X140291*
Y177693*
X144291Y181693D02*
Y185693D01*
X159894Y170616D02*
X167894D01*
Y178616*
X159894*
Y170616*
X163894Y174616D02*
Y178616D01*
X165882Y175724D02*
X173882D01*
Y183724*
X165882*
Y175724*
X169882Y179724D02*
Y183724D01*
X235764Y177693D02*
X243764D01*
Y185693*
X235764*
Y177693*
X239764Y181693D02*
Y185693D01*
X265253Y171608D02*
X273253D01*
Y179608*
X265253*
Y171608*
X269253Y175608D02*
Y179608D01*
X292850Y170803D02*
X300850D01*
Y178803*
X292850*
Y170803*
X296850Y174803D02*
Y178803D01*
X118222Y181135D02*
X126222D01*
Y189135*
X118222*
Y181135*
X122222Y185135D02*
Y189135D01*
X113717Y188520D02*
X121717D01*
Y196520*
X113717*
Y188520*
X117717Y192520D02*
Y196520D01*
X113717Y185567D02*
X121717D01*
Y193567*
X113717*
Y185567*
X117717Y189567D02*
Y193567D01*
X113717Y182614D02*
X121717D01*
Y190614*
X113717*
Y182614*
X117717Y186614D02*
Y190614D01*
X113717Y179661D02*
X121717D01*
Y187661*
X113717*
Y179661*
X117717Y183661D02*
Y187661D01*
X139307Y182614D02*
X147307D01*
Y190614*
X139307*
Y182614*
X143307Y186614D02*
Y190614D01*
X134386Y181630D02*
X142386D01*
Y189630*
X134386*
Y181630*
X138386Y185630D02*
Y189630D01*
X154245Y179143D02*
X162245D01*
Y187143*
X154245*
Y179143*
X158245Y183143D02*
Y187143D01*
X163913Y181630D02*
X171913D01*
Y189630*
X163913*
Y181630*
X167913Y185630D02*
Y189630D01*
X175690Y179583D02*
X183690D01*
Y187583*
X175690*
Y179583*
X179690Y183583D02*
Y187583D01*
X196394Y178677D02*
X204394D01*
Y186677*
X196394*
Y178677*
X200394Y182677D02*
Y186677D01*
X205290Y187066D02*
X213290D01*
Y195066*
X205290*
Y187066*
X209290Y191066D02*
Y195066D01*
X217063Y179661D02*
X225063D01*
Y187661*
X217063*
Y179661*
X221063Y183661D02*
Y187661D01*
X234780Y183598D02*
X242780D01*
Y191598*
X234780*
Y183598*
X238780Y187598D02*
Y191598D01*
X262339Y185567D02*
X270339D01*
Y193567*
X262339*
Y185567*
X266339Y189567D02*
Y193567D01*
X268244Y184583D02*
X276244D01*
Y192583*
X268244*
Y184583*
X272244Y188583D02*
Y192583D01*
X291866Y188520D02*
X299866D01*
Y196520*
X291866*
Y188520*
X295866Y192520D02*
Y196520D01*
X98953Y192457D02*
X106953D01*
Y200457*
X98953*
Y192457*
X102953Y196457D02*
Y200457D01*
X99937Y197378D02*
X107937D01*
Y205378*
X99937*
Y197378*
X103937Y201378D02*
Y205378D01*
X104858Y197378D02*
X112858D01*
Y205378*
X104858*
Y197378*
X108858Y201378D02*
Y205378D01*
X101906Y192457D02*
X109906D01*
Y200457*
X101906*
Y192457*
X105906Y196457D02*
Y200457D01*
X104858Y192457D02*
X112858D01*
Y200457*
X104858*
Y192457*
X108858Y196457D02*
Y200457D01*
X107811Y192457D02*
X115811D01*
Y200457*
X107811*
Y192457*
X111811Y196457D02*
Y200457D01*
X109780Y196394D02*
X117780D01*
Y204394*
X109780*
Y196394*
X113780Y200394D02*
Y204394D01*
X110764Y192457D02*
X118764D01*
Y200457*
X110764*
Y192457*
X114764Y196457D02*
Y200457D01*
X113717Y191472D02*
X121717D01*
Y199472*
X113717*
Y191472*
X117717Y195472D02*
Y199472D01*
X134386Y197378D02*
X142386D01*
Y205378*
X134386*
Y197378*
X138386Y201378D02*
Y205378D01*
X144883Y196146D02*
X152883D01*
Y204146*
X144883*
Y196146*
X148883Y200146D02*
Y204146D01*
X163913Y194425D02*
X171913D01*
Y202425*
X163913*
Y194425*
X167913Y198425D02*
Y202425D01*
X184821Y189676D02*
X192821D01*
Y197676*
X184821*
Y189676*
X188821Y193676D02*
Y197676D01*
X224937Y196394D02*
X232937D01*
Y204394*
X224937*
Y196394*
X228937Y200394D02*
Y204394D01*
X274150Y190488D02*
X282150D01*
Y198488*
X274150*
Y190488*
X278150Y194488D02*
Y198488D01*
X284900Y192428D02*
X292900D01*
Y200428*
X284900*
Y192428*
X288900Y196428D02*
Y200428D01*
X103874Y205252D02*
X111874D01*
Y213252*
X103874*
Y205252*
X107874Y209252D02*
Y213252D01*
X104858Y202299D02*
X112858D01*
Y210299*
X104858*
Y202299*
X108858Y206299D02*
Y210299D01*
X99937Y203283D02*
X107937D01*
Y211283*
X99937*
Y203283*
X103937Y207283D02*
Y211283D01*
X115655Y201821D02*
X123655D01*
Y209821*
X115655*
Y201821*
X119655Y205821D02*
Y209821D01*
X135370Y208205D02*
X143370D01*
Y216205*
X135370*
Y208205*
X139370Y212205D02*
Y216205D01*
X166866Y205252D02*
X174866D01*
Y213252*
X166866*
Y205252*
X170866Y209252D02*
Y213252D01*
X176059Y201821D02*
X184059D01*
Y209821*
X176059*
Y201821*
X180059Y205821D02*
Y209821D01*
X187292Y201891D02*
X195292D01*
Y209891*
X187292*
Y201891*
X191292Y205891D02*
Y209891D01*
X219031Y199346D02*
X227031D01*
Y207346*
X219031*
Y199346*
X223031Y203346D02*
Y207346D01*
X223953Y201315D02*
X231953D01*
Y209315*
X223953*
Y201315*
X227953Y205315D02*
Y209315D01*
X220016Y203283D02*
X228016D01*
Y211283*
X220016*
Y203283*
X224016Y207283D02*
Y211283D01*
X98953Y218047D02*
X106953D01*
Y226047*
X98953*
Y218047*
X102953Y222047D02*
Y226047D01*
X105843Y209189D02*
X113843D01*
Y217189*
X105843*
Y209189*
X109843Y213189D02*
Y217189D01*
X106827Y218047D02*
X114827D01*
Y226047*
X106827*
Y218047*
X110827Y222047D02*
Y226047D01*
X102890Y216079D02*
X110890D01*
Y224079*
X102890*
Y216079*
X106890Y220079D02*
Y224079D01*
X100921Y211157D02*
X108921D01*
Y219157*
X100921*
Y211157*
X104921Y215157D02*
Y219157D01*
X113717Y212142D02*
X121717D01*
Y220142*
X113717*
Y212142*
X117717Y216142D02*
Y220142D01*
X125528Y214110D02*
X133528D01*
Y222110*
X125528*
Y214110*
X129528Y218110D02*
Y222110D01*
X141276Y210173D02*
X149276D01*
Y218173*
X141276*
Y210173*
X145276Y214173D02*
Y218173D01*
X144228Y215094D02*
X152228D01*
Y223094*
X144228*
Y215094*
X148228Y219094D02*
Y223094D01*
X178677Y209189D02*
X186677D01*
Y217189*
X178677*
Y209189*
X182677Y213189D02*
Y217189D01*
X235764Y211157D02*
X243764D01*
Y219157*
X235764*
Y211157*
X239764Y215157D02*
Y219157D01*
X244622Y210173D02*
X252622D01*
Y218173*
X244622*
Y210173*
X248622Y214173D02*
Y218173D01*
X247575Y217063D02*
X255575D01*
Y225063*
X247575*
Y217063*
X251575Y221063D02*
Y225063D01*
X242654Y214110D02*
X250654D01*
Y222110*
X242654*
Y214110*
X246654Y218110D02*
Y222110D01*
X252496Y213126D02*
X260496D01*
Y221126*
X252496*
Y213126*
X256496Y217126D02*
Y221126D01*
X264307Y213126D02*
X272307D01*
Y221126*
X264307*
Y213126*
X268307Y217126D02*
Y221126D01*
X265291Y217063D02*
X273291D01*
Y225063*
X265291*
Y217063*
X269291Y221063D02*
Y225063D01*
X271197Y214110D02*
X279197D01*
Y222110*
X271197*
Y214110*
X275197Y218110D02*
Y222110D01*
X287929Y211157D02*
X295929D01*
Y219157*
X287929*
Y211157*
X291929Y215157D02*
Y219157D01*
X280055Y215094D02*
X288055D01*
Y223094*
X280055*
Y215094*
X284055Y219094D02*
Y223094D01*
X300724Y216079D02*
X308724D01*
Y224079*
X300724*
Y216079*
X304724Y220079D02*
Y224079D01*
X103874Y231890D02*
X111874D01*
X107874Y227890D02*
Y235890D01*
X122575Y220016D02*
X130575D01*
Y228016*
X122575*
Y220016*
X126575Y224016D02*
Y228016D01*
X131433Y219031D02*
X139433D01*
Y227031*
X131433*
Y219031*
X135433Y223031D02*
Y227031D01*
X297062Y232292D02*
X305062D01*
X301062Y228292D02*
Y236292D01*
X120606Y231827D02*
X128606D01*
Y239827*
X120606*
Y231827*
X124606Y235827D02*
Y239827D01*
X131433Y231827D02*
X139433D01*
Y239827*
X131433*
Y231827*
X135433Y235827D02*
Y239827D01*
X140291Y231827D02*
X148291D01*
Y239827*
X140291*
Y231827*
X144291Y235827D02*
Y239827D01*
X150134Y231827D02*
X158134D01*
Y239827*
X150134*
Y231827*
X154134Y235827D02*
Y239827D01*
X160961Y232811D02*
X168961D01*
Y240811*
X160961*
Y232811*
X164961Y236811D02*
Y240811D01*
X169819Y230843D02*
X177819D01*
Y238843*
X169819*
Y230843*
X173819Y234843D02*
Y238843D01*
X180646Y231827D02*
X188646D01*
Y239827*
X180646*
Y231827*
X184646Y235827D02*
Y239827D01*
X190488Y231827D02*
X198488D01*
Y239827*
X190488*
Y231827*
X194488Y235827D02*
Y239827D01*
X201315Y231827D02*
X209315D01*
Y239827*
X201315*
Y231827*
X205315Y235827D02*
Y239827D01*
X210173Y232811D02*
X218173D01*
Y240811*
X210173*
Y232811*
X214173Y236811D02*
Y240811D01*
X220016Y231827D02*
X228016D01*
Y239827*
X220016*
Y231827*
X224016Y235827D02*
Y239827D01*
X229858Y231827D02*
X237858D01*
Y239827*
X229858*
Y231827*
X233858Y235827D02*
Y239827D01*
X240685Y231827D02*
X248685D01*
Y239827*
X240685*
Y231827*
X244685Y235827D02*
Y239827D01*
X250528Y231827D02*
X258528D01*
Y239827*
X250528*
Y231827*
X254528Y235827D02*
Y239827D01*
X261354Y231827D02*
X269354D01*
Y239827*
X261354*
Y231827*
X265354Y235827D02*
Y239827D01*
X107000Y239764D02*
G03X100000Y232764I0J-7000D01*
G01X107000Y239764D02*
X301504D01*
X308504Y232764D02*
G03X301504Y239764I-7000J0D01*
G01X308504Y232764D02*
Y107000D01*
X301504Y100000D02*
G03X308504Y107000I-0J7000D01*
G01X301504Y100000D02*
X107000D01*
X100000Y107000D02*
G03X107000Y100000I7000J0D01*
G01X100000Y107000D02*
Y232764D01*
Y60630D02*
X185570D01*
X100000D02*
X110000Y63130D01*
Y58130*
X100000Y60630*
X308504D02*
X222934D01*
X308504D02*
X298504Y58130D01*
Y63130*
X308504Y60630*
X100000Y177677D02*
Y55630D01*
X308504Y177677D02*
Y55630D01*
X338341Y100000D02*
Y163132D01*
Y100000D02*
X335841Y110000D01*
X340841*
X338341Y100000*
Y239764D02*
Y176632D01*
Y239764D02*
X340841Y229764D01*
X335841*
X338341Y239764*
X209252Y100000D02*
X343341D01*
X209252Y239764D02*
X343341D01*
X99992Y29473D02*
X160587D01*
X99992D02*
X109992Y31973D01*
Y26973*
X99992Y29473*
X258546D02*
X197951D01*
X258546D02*
X248546Y26973D01*
Y31973*
X258546Y29473*
X99992Y201201D02*
Y24473D01*
X258546Y199627D02*
Y24473D01*
X100000Y268000D02*
X358000D01*
X100000Y244000D02*
X358000D01*
X100000Y220000D02*
X358000D01*
X100000Y196000D02*
X358000D01*
X100000Y172000D02*
X358000D01*
X100000Y148000D02*
X358000D01*
X100000Y124000D02*
X358000D01*
X100000Y100000D02*
X358000D01*
X100000Y268000D02*
Y100000D01*
X184000Y268000D02*
Y100000D01*
X220000Y268000D02*
Y100000D01*
X256000Y268000D02*
Y100000D01*
X310000Y268000D02*
Y100000D01*
X358000Y268000D02*
Y100000D01*
X128818Y250000D02*
X130364Y252375D01*
X130727Y254375*
Y257625*
X131091Y257875*
X138182*
X138545Y257625*
Y255000*
X138182Y254750*
X130727*
X134818D02*
X135545Y253000D01*
X137455Y251125*
X139727Y250000*
X145545Y252625D02*
X144818Y253875D01*
X143727Y254750*
X142182Y256500D02*
X152273D01*
X150091Y258250D02*
Y250000D01*
X149727Y249750*
X147091Y250250*
X188818Y253000D02*
X194091D01*
X193364D02*
X192545Y251500D01*
X191455Y250625*
X189182Y249750*
X193364D02*
X191455Y250875D01*
X189545Y251500*
Y251750*
X190727Y252625*
X191455Y253875*
Y254125D02*
Y258250D01*
X189182D02*
X189909Y257000D01*
X192545D02*
X193364Y258250D01*
X194091Y256500D02*
X189182D01*
X188818Y254375D02*
X190364Y255250D01*
X191455Y256500*
X193727Y255000*
X194455D02*
X195182Y256750D01*
Y258250*
Y256750D02*
X200091D01*
X199364D02*
X198545Y254125D01*
X196727Y251125*
X194818Y249750*
X199727D02*
X198182Y251125D01*
X196364Y254125*
X195545Y256750*
X202182Y250000D02*
X213091D01*
X212273Y251125D02*
X202909D01*
X203727Y252625D02*
Y254375D01*
X204091Y254750*
X211545*
X211909Y254375*
Y252625*
X211545Y252375*
X204091*
X203727Y252625*
Y253500D02*
X211909D01*
X207818Y254750D02*
Y250000D01*
X202545Y255625D02*
X213455D01*
X203727Y256750D02*
Y257875D01*
X204091Y258250*
X211545*
X211909Y257875*
Y256750*
X211545Y256500*
X204091*
X203727Y256750*
Y257375D02*
X211909D01*
X225545Y253500D02*
X227091Y254750D01*
X228182Y256125*
X227091Y254750D02*
Y249750D01*
X231545Y251750D02*
X230091Y253250D01*
X229364Y254750D02*
X236091D01*
X234545Y255875D02*
Y250000D01*
X234182Y249750*
X232727Y250000*
X231545Y251750D02*
X230091Y253250D01*
X224818Y256750D02*
X226364Y257625D01*
X226727Y258500*
X226364Y257625D02*
X230455D01*
X228909Y256500D02*
X227455Y257625D01*
X232364Y258500D02*
X231909Y257625D01*
X230818Y256750*
X231909Y257625D02*
X236091D01*
X234545Y256500D02*
X233455Y257625D01*
X238182Y254125D02*
X248727D01*
X241182D02*
X240455Y252625D01*
X240818Y252375*
X246818*
X247182Y252125*
X246818Y250000*
X246455Y249750*
X243455Y250000*
X240091Y255875D02*
Y257625D01*
X240455Y257875*
X246818*
X247182Y257625*
Y255875*
X246818Y255625*
X240455*
X240091Y255875*
X285500Y256000D02*
Y256375D01*
X285773Y257125*
X286045Y257500*
X286591Y257875*
X287682*
X288227Y257500*
X288500Y257125*
X288773Y256375*
Y255625*
X288500Y254875*
X288227Y254500*
X287136Y253750*
Y252625*
Y250750D02*
X286864Y250375D01*
X287136Y250000*
X287409Y250375*
X287136Y250750*
X291227Y256000D02*
Y256375D01*
X291500Y257125*
X291773Y257500*
X292318Y257875*
X293409*
X293955Y257500*
X294227Y257125*
X294500Y256375*
Y255625*
X294227Y254875*
X293955Y254500*
X292864Y253750*
Y252625*
Y250750D02*
X292591Y250375D01*
X292864Y250000*
X293136Y250375*
X292864Y250750*
X326682Y257875D02*
Y250000D01*
X324773Y257875D02*
X328591D01*
X332682D02*
X332136Y257500D01*
X331591Y256750*
X331318Y256000*
X331045Y254875*
Y253000*
X331318Y251875*
X331591Y251125*
X332136Y250375*
X332682Y250000*
X333773*
X334318Y250375*
X334864Y251125*
X335136Y251875*
X335409Y253000*
Y254875*
X335136Y256000*
X334864Y256750*
X334318Y257500*
X333773Y257875*
X332682*
X337864D02*
Y250000D01*
X341136*
X106273Y232000D02*
Y232375D01*
X106545Y233125*
X106818Y233500*
X107364Y233875*
X108455*
X109000Y233500*
X109273Y233125*
X109545Y232375*
Y231625*
X109273Y230875*
X108727Y229750*
X106000Y226000*
X109818*
X201636Y233875D02*
X198909Y228625D01*
X203000*
X201636Y233875D02*
Y226000D01*
X232000Y232000D02*
X244000D01*
X238000Y226000D02*
Y238000D01*
X264636Y233875D02*
X266818Y230125D01*
Y226000*
X269000Y233875D02*
X266818Y230125D01*
X271455Y233875D02*
Y226000D01*
Y233875D02*
X275000D01*
X271455Y230125D02*
X273636D01*
X271455Y226000D02*
X275000D01*
X281273Y232750D02*
X280727Y233500D01*
X279909Y233875*
X278818*
X278000Y233500*
X277455Y232750*
Y232000*
X277727Y231250*
X278000Y230875*
X278545Y230500*
X280182Y229750*
X280727Y229375*
X281000Y229000*
X281273Y228250*
Y227125*
X280727Y226375*
X279909Y226000*
X278818*
X278000Y226375*
X277455Y227125*
X317818Y232750D02*
Y226000D01*
X315364Y229375D02*
X320273D01*
X327636Y235375D02*
X322727Y223375D01*
X330091Y229375D02*
X335000D01*
X339091Y233875D02*
X338273Y233500D01*
X337727Y232375*
X337455Y230500*
Y229375*
X337727Y227500*
X338273Y226375*
X339091Y226000*
X339636*
X340455Y226375*
X341000Y227500*
X341273Y229375*
Y230500*
X341000Y232375*
X340455Y233500*
X339636Y233875*
X339091*
X344000Y226750D02*
X343727Y226375D01*
X344000Y226000*
X344273Y226375*
X344000Y226750*
X348364Y233875D02*
X347545Y233500D01*
X347000Y232375*
X346727Y230500*
Y229375*
X347000Y227500*
X347545Y226375*
X348364Y226000*
X348909*
X349727Y226375*
X350273Y227500*
X350545Y229375*
Y230500*
X350273Y232375*
X349727Y233500*
X348909Y233875*
X348364*
X107636Y209875D02*
X106818Y209500D01*
X106273Y208375*
X106000Y206500*
Y205375*
X106273Y203500*
X106818Y202375*
X107636Y202000*
X108182*
X109000Y202375*
X109545Y203500*
X109818Y205375*
Y206500*
X109545Y208375*
X109000Y209500*
X108182Y209875*
X107636*
X112545Y202750D02*
X112273Y202375D01*
X112545Y202000*
X112818Y202375*
X112545Y202750*
X116636Y209875D02*
X115818Y209500D01*
X115545Y208750*
Y208000*
X115818Y207250*
X116364Y206875*
X117455Y206500*
X118273Y206125*
X118818Y205375*
X119091Y204625*
Y203500*
X118818Y202750*
X118545Y202375*
X117727Y202000*
X116636*
X115818Y202375*
X115545Y202750*
X115273Y203500*
Y204625*
X115545Y205375*
X116091Y206125*
X116909Y206500*
X118000Y206875*
X118545Y207250*
X118818Y208000*
Y208750*
X118545Y209500*
X117727Y209875*
X116636*
X121545Y208375D02*
X122091Y208750D01*
X122909Y209875*
Y202000*
X125636Y208000D02*
Y208375D01*
X125909Y209125*
X126182Y209500*
X126727Y209875*
X127818*
X128364Y209500*
X128636Y209125*
X128909Y208375*
Y207625*
X128636Y206875*
X128091Y205750*
X125364Y202000*
X129182*
X133000Y209875D02*
X132182Y209500D01*
X131909Y208750*
Y208000*
X132182Y207250*
X132727Y206875*
X133818Y206500*
X134636Y206125*
X135182Y205375*
X135455Y204625*
Y203500*
X135182Y202750*
X134909Y202375*
X134091Y202000*
X133000*
X132182Y202375*
X131909Y202750*
X131636Y203500*
Y204625*
X131909Y205375*
X132455Y206125*
X133273Y206500*
X134364Y206875*
X134909Y207250*
X135182Y208000*
Y208750*
X134909Y209500*
X134091Y209875*
X133000*
X198500D02*
X195773Y204625D01*
X199864*
X198500Y209875D02*
Y202000D01*
X203955Y209875D02*
X203136Y209500D01*
X202591Y208375*
X202318Y206500*
Y205375*
X202591Y203500*
X203136Y202375*
X203955Y202000*
X204500*
X205318Y202375*
X205864Y203500*
X206136Y205375*
Y206500*
X205864Y208375*
X205318Y209500*
X204500Y209875*
X203955*
X232000Y202000D02*
X244000Y214000D01*
X232000D02*
X244000Y202000D01*
X264636Y209875D02*
X266818Y206125D01*
Y202000*
X269000Y209875D02*
X266818Y206125D01*
X271455Y209875D02*
Y202000D01*
Y209875D02*
X275000D01*
X271455Y206125D02*
X273636D01*
X271455Y202000D02*
X275000D01*
X281273Y208750D02*
X280727Y209500D01*
X279909Y209875*
X278818*
X278000Y209500*
X277455Y208750*
Y208000*
X277727Y207250*
X278000Y206875*
X278545Y206500*
X280182Y205750*
X280727Y205375*
X281000Y205000*
X281273Y204250*
Y203125*
X280727Y202375*
X279909Y202000*
X278818*
X278000Y202375*
X277455Y203125*
X317818Y208750D02*
Y202000D01*
X315364Y205375D02*
X320273D01*
X327636Y211375D02*
X322727Y199375D01*
X330091Y205375D02*
X335000D01*
X339091Y209875D02*
X338273Y209500D01*
X337727Y208375*
X337455Y206500*
Y205375*
X337727Y203500*
X338273Y202375*
X339091Y202000*
X339636*
X340455Y202375*
X341000Y203500*
X341273Y205375*
Y206500*
X341000Y208375*
X340455Y209500*
X339636Y209875*
X339091*
X344000Y202750D02*
X343727Y202375D01*
X344000Y202000*
X344273Y202375*
X344000Y202750*
X348364Y209875D02*
X347545Y209500D01*
X347000Y208375*
X346727Y206500*
Y205375*
X347000Y203500*
X347545Y202375*
X348364Y202000*
X348909*
X349727Y202375*
X350273Y203500*
X350545Y205375*
Y206500*
X350273Y208375*
X349727Y209500*
X348909Y209875*
X348364*
X107636Y185875D02*
X106818Y185500D01*
X106273Y184375*
X106000Y182500*
Y181375*
X106273Y179500*
X106818Y178375*
X107636Y178000*
X108182*
X109000Y178375*
X109545Y179500*
X109818Y181375*
Y182500*
X109545Y184375*
X109000Y185500*
X108182Y185875*
X107636*
X112545Y178750D02*
X112273Y178375D01*
X112545Y178000*
X112818Y178375*
X112545Y178750*
X115545Y184000D02*
Y184375D01*
X115818Y185125*
X116091Y185500*
X116636Y185875*
X117727*
X118273Y185500*
X118545Y185125*
X118818Y184375*
Y183625*
X118545Y182875*
X118000Y181750*
X115273Y178000*
X119091*
X125091Y185875D02*
X122364D01*
X122091Y182500*
X122364Y182875*
X123182Y183250*
X124000*
X124818Y182875*
X125364Y182125*
X125636Y181000*
X125364Y180250*
X125091Y179125*
X124545Y178375*
X123727Y178000*
X122909*
X122091Y178375*
X121818Y178750*
X121545Y179500*
X130818Y185875D02*
X128091Y180625D01*
X132182*
X130818Y185875D02*
Y178000D01*
X194273Y184000D02*
Y184375D01*
X194545Y185125*
X194818Y185500*
X195364Y185875*
X196455*
X197000Y185500*
X197273Y185125*
X197545Y184375*
Y183625*
X197273Y182875*
X196727Y181750*
X194000Y178000*
X197818*
X200273Y184375D02*
X200818Y184750D01*
X201636Y185875*
Y178000*
X204364Y184000D02*
Y184375D01*
X204636Y185125*
X204909Y185500*
X205455Y185875*
X206545*
X207091Y185500*
X207364Y185125*
X207636Y184375*
Y183625*
X207364Y182875*
X206818Y181750*
X204091Y178000*
X207909*
X232000D02*
X244000D01*
Y190000*
X232000*
Y178000*
X238000Y184000D02*
Y190000D01*
X264636Y185875D02*
X266818Y182125D01*
Y178000*
X269000Y185875D02*
X266818Y182125D01*
X271455Y185875D02*
Y178000D01*
Y185875D02*
X275000D01*
X271455Y182125D02*
X273636D01*
X271455Y178000D02*
X275000D01*
X281273Y184750D02*
X280727Y185500D01*
X279909Y185875*
X278818*
X278000Y185500*
X277455Y184750*
Y184000*
X277727Y183250*
X278000Y182875*
X278545Y182500*
X280182Y181750*
X280727Y181375*
X281000Y181000*
X281273Y180250*
Y179125*
X280727Y178375*
X279909Y178000*
X278818*
X278000Y178375*
X277455Y179125*
X317818Y184750D02*
Y178000D01*
X315364Y181375D02*
X320273D01*
X327636Y187375D02*
X322727Y175375D01*
X330091Y181375D02*
X335000D01*
X339091Y185875D02*
X338273Y185500D01*
X337727Y184375*
X337455Y182500*
Y181375*
X337727Y179500*
X338273Y178375*
X339091Y178000*
X339636*
X340455Y178375*
X341000Y179500*
X341273Y181375*
Y182500*
X341000Y184375*
X340455Y185500*
X339636Y185875*
X339091*
X344000Y178750D02*
X343727Y178375D01*
X344000Y178000*
X344273Y178375*
X344000Y178750*
X348364Y185875D02*
X347545Y185500D01*
X347000Y184375*
X346727Y182500*
Y181375*
X347000Y179500*
X347545Y178375*
X348364Y178000*
X348909*
X349727Y178375*
X350273Y179500*
X350545Y181375*
Y182500*
X350273Y184375*
X349727Y185500*
X348909Y185875*
X348364*
X107636Y161875D02*
X106818Y161500D01*
X106273Y160375*
X106000Y158500*
Y157375*
X106273Y155500*
X106818Y154375*
X107636Y154000*
X108182*
X109000Y154375*
X109545Y155500*
X109818Y157375*
Y158500*
X109545Y160375*
X109000Y161500*
X108182Y161875*
X107636*
X112545Y154750D02*
X112273Y154375D01*
X112545Y154000*
X112818Y154375*
X112545Y154750*
X118545Y160750D02*
X118273Y161500D01*
X117455Y161875*
X116909*
X116091Y161500*
X115545Y160375*
X115273Y158500*
Y156625*
X115545Y155125*
X116091Y154375*
X116909Y154000*
X117182*
X118000Y154375*
X118545Y155125*
X118818Y156250*
Y156625*
X118545Y157750*
X118000Y158500*
X117182Y158875*
X116909*
X116091Y158500*
X115545Y157750*
X115273Y156625*
X127545Y159250D02*
X130545Y154000D01*
Y159250D02*
X127545Y154000D01*
X139273Y160375D02*
X139818Y160750D01*
X140636Y161875*
Y154000*
X143364Y154750D02*
X143091Y154375D01*
X143364Y154000*
X143636Y154375*
X143364Y154750*
X149909Y161875D02*
X147182Y154000D01*
X146091Y161875D02*
X149909D01*
X199318Y160000D02*
Y160375D01*
X199591Y161125*
X199864Y161500*
X200409Y161875*
X201500*
X202045Y161500*
X202318Y161125*
X202591Y160375*
Y159625*
X202318Y158875*
X201773Y157750*
X199045Y154000*
X202864*
X238000D02*
X244000Y160000D01*
X238000Y166000*
X232000Y160000*
X238000Y154000*
Y160000D02*
Y166000D01*
X264636Y161875D02*
X266818Y158125D01*
Y154000*
X269000Y161875D02*
X266818Y158125D01*
X271455Y161875D02*
Y154000D01*
Y161875D02*
X275000D01*
X271455Y158125D02*
X273636D01*
X271455Y154000D02*
X275000D01*
X281273Y160750D02*
X280727Y161500D01*
X279909Y161875*
X278818*
X278000Y161500*
X277455Y160750*
Y160000*
X277727Y159250*
X278000Y158875*
X278545Y158500*
X280182Y157750*
X280727Y157375*
X281000Y157000*
X281273Y156250*
Y155125*
X280727Y154375*
X279909Y154000*
X278818*
X278000Y154375*
X277455Y155125*
X317818Y160750D02*
Y154000D01*
X315364Y157375D02*
X320273D01*
X327636Y163375D02*
X322727Y151375D01*
X330091Y157375D02*
X335000D01*
X339091Y161875D02*
X338273Y161500D01*
X337727Y160375*
X337455Y158500*
Y157375*
X337727Y155500*
X338273Y154375*
X339091Y154000*
X339636*
X340455Y154375*
X341000Y155500*
X341273Y157375*
Y158500*
X341000Y160375*
X340455Y161500*
X339636Y161875*
X339091*
X344000Y154750D02*
X343727Y154375D01*
X344000Y154000*
X344273Y154375*
X344000Y154750*
X348364Y161875D02*
X347545Y161500D01*
X347000Y160375*
X346727Y158500*
Y157375*
X347000Y155500*
X347545Y154375*
X348364Y154000*
X348909*
X349727Y154375*
X350273Y155500*
X350545Y157375*
Y158500*
X350273Y160375*
X349727Y161500*
X348909Y161875*
X348364*
X107636Y137875D02*
X106818Y137500D01*
X106273Y136375*
X106000Y134500*
Y133375*
X106273Y131500*
X106818Y130375*
X107636Y130000*
X108182*
X109000Y130375*
X109545Y131500*
X109818Y133375*
Y134500*
X109545Y136375*
X109000Y137500*
X108182Y137875*
X107636*
X112545Y130750D02*
X112273Y130375D01*
X112545Y130000*
X112818Y130375*
X112545Y130750*
X118545Y136750D02*
X118273Y137500D01*
X117455Y137875*
X116909*
X116091Y137500*
X115545Y136375*
X115273Y134500*
Y132625*
X115545Y131125*
X116091Y130375*
X116909Y130000*
X117182*
X118000Y130375*
X118545Y131125*
X118818Y132250*
Y132625*
X118545Y133750*
X118000Y134500*
X117182Y134875*
X116909*
X116091Y134500*
X115545Y133750*
X115273Y132625*
X124818Y137875D02*
X122091D01*
X121818Y134500*
X122091Y134875*
X122909Y135250*
X123727*
X124545Y134875*
X125091Y134125*
X125364Y133000*
X125091Y132250*
X124818Y131125*
X124273Y130375*
X123455Y130000*
X122636*
X121818Y130375*
X121545Y130750*
X121273Y131500*
X199318Y136000D02*
Y136375D01*
X199591Y137125*
X199864Y137500*
X200409Y137875*
X201500*
X202045Y137500*
X202318Y137125*
X202591Y136375*
Y135625*
X202318Y134875*
X201773Y133750*
X199045Y130000*
X202864*
X232000D02*
X244000D01*
X232000Y142000*
X244000*
X232000Y130000*
X264636Y137875D02*
X266818Y134125D01*
Y130000*
X269000Y137875D02*
X266818Y134125D01*
X271455Y137875D02*
Y130000D01*
Y137875D02*
X275000D01*
X271455Y134125D02*
X273636D01*
X271455Y130000D02*
X275000D01*
X281273Y136750D02*
X280727Y137500D01*
X279909Y137875*
X278818*
X278000Y137500*
X277455Y136750*
Y136000*
X277727Y135250*
X278000Y134875*
X278545Y134500*
X280182Y133750*
X280727Y133375*
X281000Y133000*
X281273Y132250*
Y131125*
X280727Y130375*
X279909Y130000*
X278818*
X278000Y130375*
X277455Y131125*
X317818Y136750D02*
Y130000D01*
X315364Y133375D02*
X320273D01*
X327636Y139375D02*
X322727Y127375D01*
X330091Y133375D02*
X335000D01*
X339091Y137875D02*
X338273Y137500D01*
X337727Y136375*
X337455Y134500*
Y133375*
X337727Y131500*
X338273Y130375*
X339091Y130000*
X339636*
X340455Y130375*
X341000Y131500*
X341273Y133375*
Y134500*
X341000Y136375*
X340455Y137500*
X339636Y137875*
X339091*
X344000Y130750D02*
X343727Y130375D01*
X344000Y130000*
X344273Y130375*
X344000Y130750*
X348364Y137875D02*
X347545Y137500D01*
X347000Y136375*
X346727Y134500*
Y133375*
X347000Y131500*
X347545Y130375*
X348364Y130000*
X348909*
X349727Y130375*
X350273Y131500*
X350545Y133375*
Y134500*
X350273Y136375*
X349727Y137500*
X348909Y137875*
X348364*
X107636Y113875D02*
X106818Y113500D01*
X106273Y112375*
X106000Y110500*
Y109375*
X106273Y107500*
X106818Y106375*
X107636Y106000*
X108182*
X109000Y106375*
X109545Y107500*
X109818Y109375*
Y110500*
X109545Y112375*
X109000Y113500*
X108182Y113875*
X107636*
X112545Y106750D02*
X112273Y106375D01*
X112545Y106000*
X112818Y106375*
X112545Y106750*
X118545Y112750D02*
X118273Y113500D01*
X117455Y113875*
X116909*
X116091Y113500*
X115545Y112375*
X115273Y110500*
Y108625*
X115545Y107125*
X116091Y106375*
X116909Y106000*
X117182*
X118000Y106375*
X118545Y107125*
X118818Y108250*
Y108625*
X118545Y109750*
X118000Y110500*
X117182Y110875*
X116909*
X116091Y110500*
X115545Y109750*
X115273Y108625*
X127545Y111250D02*
X130545Y106000D01*
Y111250D02*
X127545Y106000D01*
X139273Y112375D02*
X139818Y112750D01*
X140636Y113875*
Y106000*
X143364Y106750D02*
X143091Y106375D01*
X143364Y106000*
X143636Y106375*
X143364Y106750*
X146364Y112000D02*
Y112375D01*
X146636Y113125*
X146909Y113500*
X147455Y113875*
X148545*
X149091Y113500*
X149364Y113125*
X149636Y112375*
Y111625*
X149364Y110875*
X148818Y109750*
X146091Y106000*
X149909*
X199318Y112000D02*
Y112375D01*
X199591Y113125*
X199864Y113500*
X200409Y113875*
X201500*
X202045Y113500*
X202318Y113125*
X202591Y112375*
Y111625*
X202318Y110875*
X201773Y109750*
X199045Y106000*
X202864*
X232000D02*
X244000Y118000D01*
Y106000*
X232000Y118000*
Y106000*
X264636Y113875D02*
X266818Y110125D01*
Y106000*
X269000Y113875D02*
X266818Y110125D01*
X271455Y113875D02*
Y106000D01*
Y113875D02*
X275000D01*
X271455Y110125D02*
X273636D01*
X271455Y106000D02*
X275000D01*
X281273Y112750D02*
X280727Y113500D01*
X279909Y113875*
X278818*
X278000Y113500*
X277455Y112750*
Y112000*
X277727Y111250*
X278000Y110875*
X278545Y110500*
X280182Y109750*
X280727Y109375*
X281000Y109000*
X281273Y108250*
Y107125*
X280727Y106375*
X279909Y106000*
X278818*
X278000Y106375*
X277455Y107125*
X317818Y112750D02*
Y106000D01*
X315364Y109375D02*
X320273D01*
X327636Y115375D02*
X322727Y103375D01*
X330091Y109375D02*
X335000D01*
X339091Y113875D02*
X338273Y113500D01*
X337727Y112375*
X337455Y110500*
Y109375*
X337727Y107500*
X338273Y106375*
X339091Y106000*
X339636*
X340455Y106375*
X341000Y107500*
X341273Y109375*
Y110500*
X341000Y112375*
X340455Y113500*
X339636Y113875*
X339091*
X344000Y106750D02*
X343727Y106375D01*
X344000Y106000*
X344273Y106375*
X344000Y106750*
X348364Y113875D02*
X347545Y113500D01*
X347000Y112375*
X346727Y110500*
Y109375*
X347000Y107500*
X347545Y106375*
X348364Y106000*
X348909*
X349727Y106375*
X350273Y107500*
X350545Y109375*
Y110500*
X350273Y112375*
X349727Y113500*
X348909Y113875*
X348364*
G74*
X0Y0D02*
M02*
