M48
;FILE_FORMAT=2:4
INCH,LZ
FMAT,2
ICI,OFF
;TYPE=PLATED
T1C.01
T2C.02362
T3C.02559
T4C.032
T5C.07874
%
M72
G90
G93X0Y0
T1C.01F095S3
X010591Y012165
X011083Y012559
X011575Y012067
X012362Y010295
X013445Y010295
X014429Y012657
X014528Y010295
X015118Y012559
X015413Y010295
X016496Y012559
X016594Y010295
X017087Y012461
X01748Y010295
X017969Y011895
X018465Y010295
X018543Y012672
X018563Y011575
X019352Y012165
X019547Y010295
X021614Y010295
X022251Y011344
X022251Y011672
X023189Y012461
X023386Y011575
X02358Y012463
X024961Y012559
X025157Y010492
X026381Y011625
X027618Y010689
X027913Y011772
X029291Y012165
X029783Y01187
X030374Y01187
X030472Y01315
X030097Y014229
X029291Y01315
X02889Y014589
X027815Y014134
X027717Y01315
X026444Y014589
X026437Y01502
X02358Y013044
X02358Y01364
X023484Y015217
X022008Y013248
X02185Y014363
X021464Y013171
X021344Y013691
X02122Y014727
X020905Y014349
X019799Y015129
X019252Y014331
X018957Y015217
X01876Y013937
X017382Y013346
X016988Y014134
X016693Y014724
X016594Y013543
X016594Y014035
X016201Y012854
X016102Y014429
X0154Y015046
X014823Y014528
X014724Y013543
X014626Y013051
X014232Y013839
X014035Y013248
X012362Y015217
X011772Y015217
X011673Y014528
X011476Y01374
X011476Y015118
X01128Y014626
X011181Y015118
X010984Y013248
X010886Y015118
X010886Y013937
X010591Y014528
X010591Y015118
X010394Y012953
X010394Y013839
X010306Y014714
X010295Y015118
X011772Y016102
X011772Y015807
X011772Y015512
X011772Y017185
X011772Y01689
X011772Y016594
X011772Y017776
X011772Y01748
X012067Y016102
X012067Y016594
X012165Y016988
X012165Y015709
X012254Y017743
X012362Y016102
X012362Y016594
X012657Y016102
X012657Y016594
X012854Y015709
X012953Y016102
X013248Y016201
X013346Y016496
X013543Y017677
X014426Y017122
X016389Y017462
X01748Y017185
X017579Y016496
X018661Y017185
X018661Y016004
X01944Y015518
X020039Y016988
X021614Y015709
X023482Y016952
X023488Y017226
X023878Y01561
X026469Y01687
X026925Y017561
X02939Y016004
X029685Y01748
X029882Y016299
X02998Y016988
X029587Y019252
X02889Y019643
X027815Y019449
X027224Y018858
X026634Y018957
X023976Y018169
X023878Y01876
X022894Y020039
X022106Y018366
X020929Y019107
X020039Y018268
X018882Y019368
X017969Y018358
X016988Y017972
X016791Y018563
X016791Y019843
X015824Y018314
X014888Y020015
X014429Y018169
X014331Y018661
X014134Y017874
X013839Y018563
X013839Y020138
X013543Y018169
X012261Y018204
X012222Y018514
X011772Y019547
X011772Y018661
X011772Y019252
X011772Y018366
X011772Y018071
X011772Y018957
X011476Y019646
X011378Y020039
X011181Y019646
X010886Y019646
X010886Y020138
X010591Y019646
X010394Y020138
X010295Y019646
X010295Y022205
X010394Y020728
X010492Y021516
X010689Y022008
X010787Y020925
X010886Y02063
X010984Y021319
X011083Y022205
X011772Y021614
X011965Y020582
X012657Y022402
X012953Y021811
X013543Y022303
X013937Y02122
X014528Y021417
X014823Y021909
X017087Y020925
X018006Y020582
X018268Y021319
X019129Y020589
X022303Y020335
X022402Y020728
X022795Y020531
X023976Y021516
X024665Y021811
X024862Y021417
X025157Y022106
X02565Y021713
X026831Y021713
X026929Y022106
X02752Y021811
X028406Y021909
X029193Y021516
X030472Y022008
X026535Y023583
X025453Y023583
X024469Y023583
X023386Y023583
X022402Y023583
X021417Y023681
X020531Y023583
X019449Y023583
X018465Y023583
X017382Y023484
X016496Y023681
X015413Y023583
X014429Y023583
X013543Y023583
X012461Y023583
T2C.02362F197S55
X029713Y018671G85X029949Y018671
X029713Y015266G85X029949Y015266
X028039Y015266G85X028472Y015266
X028039Y018671G85X028472Y018671
T3C.02559F197S55
X028453Y015831
X028453Y018106
T4C.032F197S55
X011929Y010697
X012929Y010697
X013929Y010697
X014929Y010697
X015929Y010697
X016929Y010697
X017929Y010697
X018929Y010697
X019929Y010697
X020929Y010697
X021929Y010697
X022929Y010697
X026901Y012369
X026901Y013369
X025354Y013646
X025354Y014646
X025354Y015646
X025354Y016646
X025354Y017646
X011929Y023276
X012929Y023276
X013929Y023276
X014929Y023276
X015929Y023276
X016929Y023276
X017929Y023276
X018929Y023276
X019929Y023276
X020929Y023276
X021929Y023276
X022929Y023276
X023929Y023276
X024929Y023276
X025354Y020646
X025354Y018646
X025354Y019646
X025929Y023276
X026929Y023276
X027929Y023276
X028929Y023276
T5C.07874F081S55
X010787Y010787
X030079Y010787
X030106Y023229
X010787Y023189
M30
