*
*
G04 PADS VX.2.4 Build Number: 11282995 generated Gerber (RS-274-X) file*
G04 PC Version=2.1*
*
%IN "ESP32-PicoD4_EVK.pcb"*%
*
%MOIN*%
*
%FSLAX35Y35*%
*
*
*
*
G04 PC Standard Apertures*
*
*
G04 Thermal Relief Aperture macro.*
%AMTER*
1,1,$1,0,0*
1,0,$1-$2,0,0*
21,0,$3,$4,0,0,45*
21,0,$3,$4,0,0,135*
%
*
*
G04 Annular Aperture macro.*
%AMANN*
1,1,$1,0,0*
1,0,$2,0,0*
%
*
*
G04 Odd Aperture macro.*
%AMODD*
1,1,$1,0,0*
1,0,$1-0.005,0,0*
%
*
*
G04 PC Custom Aperture Macros*
*
*
*
*
*
*
G04 PC Aperture Table*
*
%ADD010C,0.001*%
%ADD011C,0.01*%
%ADD031C,0.02*%
%ADD041C,0.02575*%
%ADD042C,0.06*%
%ADD043C,0.01492*%
%ADD044C,0.042*%
%ADD045C,0.025*%
%ADD046C,0.0287*%
%ADD047O,0.06118X0.02968*%
%ADD048R,0.1163X0.12024*%
%ADD049O,0.01984X0.03756*%
%ADD050O,0.03756X0.01984*%
%ADD051C,0.02181*%
%ADD052R,0.12024X0.1163*%
%ADD053C,0.01591*%
%ADD054C,0.03559*%
%ADD055O,0.07299X0.04937*%
%ADD056O,0.09268X0.04937*%
%ADD057C,0.021*%
*
*
*
*
G04 PC Circuitry*
G04 Layer Name ESP32-PicoD4_EVK.pcb - circuitry*
%LPD*%
*
*
G04 PC Custom Flashes*
G04 Layer Name ESP32-PicoD4_EVK.pcb - flashes*
%LPD*%
*
*
G04 PC Circuitry*
G04 Layer Name ESP32-PicoD4_EVK.pcb - circuitry*
%LPD*%
*
G54D10*
G54D11*
G01X107000Y239764D02*
G75*
G03X100000Y232764I0J-7000D01*
G01X107000Y239764D02*
X301504D01*
X308504Y232764D02*
G03X301504Y239764I-7000J0D01*
G01X308504Y232764D02*
Y107000D01*
X301504Y100000D02*
G03X308504Y107000I-0J7000D01*
G01X301504Y100000D02*
X107000D01*
X100000Y107000D02*
G03X107000Y100000I7000J0D01*
G01X100000Y107000D02*
Y232764D01*
G54D31*
X285047Y125768D02*
X284047D01*
Y126768*
X285047*
Y125768*
X284047Y126000D02*
X285047D01*
X289047Y125768D02*
X288047D01*
Y126768*
X289047*
Y125768*
X288047Y126000D02*
X289047D01*
X264214Y164266D02*
X263214D01*
Y165266*
X264214*
Y164266*
X264000D02*
Y165266D01*
X268214Y164266D02*
X267214D01*
Y165266*
X268214*
Y164266*
X268000D02*
Y165266D01*
X167382Y153667D02*
X168382D01*
Y152667*
X167382*
Y153667*
X168000Y152667D02*
Y153667D01*
X163382D02*
X164382D01*
Y152667*
X163382*
Y153667*
X164000Y152667D02*
Y153667D01*
X237655Y167876D02*
Y168876D01*
X238655*
Y167876*
X237655*
Y168000D02*
X238655D01*
X238000Y167876D02*
Y168876D01*
X237655Y163876D02*
Y164876D01*
X238655*
Y163876*
X237655*
Y164000D02*
X238655D01*
X238000Y163876D02*
Y164876D01*
X297472Y125768D02*
X296472D01*
Y126768*
X297472*
Y125768*
X296472Y126000D02*
X297472D01*
X301472Y125768D02*
X300472D01*
Y126768*
X301472*
Y125768*
X300472Y126000D02*
X301472D01*
X157480Y138258D02*
X158480D01*
Y137258*
X157480*
Y138258*
Y138000D02*
X158480D01*
X158000Y137258D02*
Y138258D01*
X153480D02*
X154480D01*
Y137258*
X153480*
Y138258*
Y138000D02*
X154480D01*
X154000Y137258D02*
Y138258D01*
X285047Y137376D02*
X284047D01*
Y138376*
X285047*
Y137376*
X284047Y138000D02*
X285047D01*
X289047Y137376D02*
X288047D01*
Y138376*
X289047*
Y137376*
X288047Y138000D02*
X289047D01*
X250169Y117632D02*
X251169D01*
Y116632*
X250169*
Y117632*
X246169D02*
X247169D01*
Y116632*
X246169*
Y117632*
X272340Y207784D02*
X271340D01*
Y208784*
X272340*
Y207784*
X271340Y208000D02*
X272340D01*
X272000Y207784D02*
Y208784D01*
X276340Y207784D02*
X275340D01*
Y208784*
X276340*
Y207784*
X275340Y208000D02*
X276340D01*
X276000Y207784D02*
Y208784D01*
X297472Y137376D02*
X296472D01*
Y138376*
X297472*
Y137376*
X296472Y138000D02*
X297472D01*
X301472Y137376D02*
X300472D01*
Y138376*
X301472*
Y137376*
X300472Y138000D02*
X301472D01*
X222477Y155050D02*
X223477D01*
Y154050*
X222477*
Y155050*
X218477D02*
X219477D01*
Y154050*
X218477*
Y155050*
X195865Y209546D02*
Y210546D01*
X196865*
Y209546*
X195865*
Y210000D02*
X196865D01*
X196000Y209546D02*
Y210546D01*
X195865Y205546D02*
Y206546D01*
X196865*
Y205546*
X195865*
Y206000D02*
X196865D01*
X196000Y205546D02*
Y206546D01*
X187018Y209546D02*
Y210546D01*
X188018*
Y209546*
X187018*
Y210000D02*
X188018D01*
X188000Y209546D02*
Y210546D01*
X187018Y205546D02*
Y206546D01*
X188018*
Y205546*
X187018*
Y206000D02*
X188018D01*
X188000Y205546D02*
Y206546D01*
X207316Y176848D02*
Y177848D01*
X208316*
Y176848*
X207316*
X208000D02*
Y177848D01*
X207316Y172848D02*
Y173848D01*
X208316*
Y172848*
X207316*
X208000D02*
Y173848D01*
X191903Y130409D02*
Y129409D01*
X190903*
Y130409*
X191903*
X190903Y130000D02*
X191903D01*
Y134409D02*
Y133409D01*
X190903*
Y134409*
X191903*
X190903Y134000D02*
X191903D01*
X208346Y162866D02*
Y161866D01*
X207346*
Y162866*
X208346*
X207346Y162000D02*
X208346D01*
X208000Y161866D02*
Y162866D01*
X208346Y166866D02*
Y165866D01*
X207346*
Y166866*
X208346*
X207346Y166000D02*
X208346D01*
X208000Y165866D02*
Y166866D01*
X243222Y197695D02*
Y196695D01*
X242222*
Y197695*
X243222*
Y201695D02*
Y200695D01*
X242222*
Y201695*
X243222*
X267688Y182203D02*
X268688D01*
Y181203*
X267688*
Y182203*
Y182000D02*
X268688D01*
X268000Y181203D02*
Y182203D01*
X263688D02*
X264688D01*
Y181203*
X263688*
Y182203*
Y182000D02*
X264688D01*
X264000Y181203D02*
Y182203D01*
X265433Y197286D02*
Y196286D01*
X264433*
Y197286*
X265433*
Y201286D02*
Y200286D01*
X264433*
Y201286*
X265433*
X271909Y197284D02*
Y196284D01*
X270909*
Y197284*
X271909*
Y201284D02*
Y200284D01*
X270909*
Y201284*
X271909*
X154487Y145141D02*
X153487D01*
Y146141*
X154487*
Y145141*
X153487Y146000D02*
X154487D01*
X154000Y145141D02*
Y146141D01*
X158487Y145141D02*
X157487D01*
Y146141*
X158487*
Y145141*
X157487Y146000D02*
X158487D01*
X158000Y145141D02*
Y146141D01*
X164382Y168415D02*
X163382D01*
Y169415*
X164382*
Y168415*
X164000D02*
Y169415D01*
X168382Y168415D02*
X167382D01*
Y169415*
X168382*
Y168415*
X168000D02*
Y169415D01*
X167382Y161541D02*
X168382D01*
Y160541*
X167382*
Y161541*
X168000Y160541D02*
Y161541D01*
X163382D02*
X164382D01*
Y160541*
X163382*
Y161541*
X164000Y160541D02*
Y161541D01*
X190015Y180466D02*
X191015D01*
Y179466*
X190015*
Y180466*
Y180000D02*
X191015D01*
X186015Y180466D02*
X187015D01*
Y179466*
X186015*
Y180466*
Y180000D02*
X187015D01*
G54D41*
X111811Y184500D02*
Y182925D01*
X106299*
Y184500*
X111811*
X107724Y182925D02*
Y184500D01*
X110299Y182925D02*
Y184500D01*
X111811Y164409D02*
Y162835D01*
X106299*
Y164409*
X111811*
X106299Y164370D02*
X111811D01*
X107724Y162835D02*
Y164409D01*
X110299Y162835D02*
Y164409D01*
G54D42*
X119291Y106969D03*
X129291D03*
X139291D03*
X149291D03*
X159291D03*
X169291D03*
X179291D03*
X189291D03*
X199291D03*
X209291D03*
X219291D03*
X229291D03*
X269009Y123690D03*
Y133690D03*
X253543Y136457D03*
Y146457D03*
Y156457D03*
Y166457D03*
Y176457D03*
Y186457D03*
Y196457D03*
Y206457D03*
X119291Y232756D03*
X129291D03*
X139291D03*
X149291D03*
X159291D03*
X169291D03*
X179291D03*
X189291D03*
X199291D03*
X209291D03*
X219291D03*
X229291D03*
X239291D03*
X249291D03*
X259291D03*
X269291D03*
X279291D03*
X289291D03*
G54D43*
X128751Y166887D02*
X128259D01*
Y169053*
X128751*
Y166887*
X128259Y167145D02*
X128751D01*
X128259Y168638D02*
X128751D01*
X128350Y166887D02*
Y169053D01*
X130720Y166887D02*
X130228D01*
Y169053*
X130720*
Y166887*
X130228Y167145D02*
X130720D01*
X130228Y168638D02*
X130720D01*
X132688Y166887D02*
X132196D01*
Y169053*
X132688*
Y166887*
X132196Y167145D02*
X132688D01*
X132196Y168638D02*
X132688D01*
X134657Y166887D02*
X134165D01*
Y169053*
X134657*
Y166887*
X134165Y167145D02*
X134657D01*
X134165Y168638D02*
X134657D01*
X134319Y166887D02*
Y169053D01*
X136625Y166887D02*
X136133D01*
Y169053*
X136625*
Y166887*
X136133Y167145D02*
X136625D01*
X136133Y168638D02*
X136625D01*
X138594Y166887D02*
X138102D01*
Y169053*
X138594*
Y166887*
X138102Y167145D02*
X138594D01*
X138102Y168638D02*
X138594D01*
X140562Y166887D02*
X140070D01*
Y169053*
X140562*
Y166887*
X140070Y167145D02*
X140562D01*
X140070Y168638D02*
X140562D01*
X140287Y166887D02*
Y169053D01*
X142531Y166887D02*
X142039D01*
Y169053*
X142531*
Y166887*
X142039Y167145D02*
X142531D01*
X142039Y168638D02*
X142531D01*
X144499Y166887D02*
X144007D01*
Y169053*
X144499*
Y166887*
X144007Y167145D02*
X144499D01*
X144007Y168638D02*
X144499D01*
X146468Y166887D02*
X145976D01*
Y169053*
X146468*
Y166887*
X145976Y167145D02*
X146468D01*
X145976Y168638D02*
X146468D01*
X146256Y166887D02*
Y169053D01*
X148436Y166887D02*
X147944D01*
Y169053*
X148436*
Y166887*
X147944Y167145D02*
X148436D01*
X147944Y168638D02*
X148436D01*
X150405Y166887D02*
X149913D01*
Y169053*
X150405*
Y166887*
X149913Y167145D02*
X150405D01*
X149913Y168638D02*
X150405D01*
X153653Y170627D02*
Y170135D01*
X151488*
Y170627*
X153653*
X152224Y170135D02*
Y170627D01*
X153653Y172596D02*
Y172104D01*
X151488*
Y172596*
X153653*
X152224Y172104D02*
Y172596D01*
X153653Y174564D02*
Y174072D01*
X151488*
Y174564*
X153653*
X152224Y174072D02*
Y174564D01*
X153653Y176533D02*
Y176041D01*
X151488*
Y176533*
X153653*
X151488Y176098D02*
X153653D01*
X152224Y176041D02*
Y176533D01*
X153653Y178501D02*
Y178009D01*
X151488*
Y178501*
X153653*
X152224Y178009D02*
Y178501D01*
X153653Y180470D02*
Y179978D01*
X151488*
Y180470*
X153653*
X152224Y179978D02*
Y180470D01*
X153653Y182438D02*
Y181946D01*
X151488*
Y182438*
X153653*
X151488Y182067D02*
X153653D01*
X152224Y181946D02*
Y182438D01*
X153653Y184407D02*
Y183915D01*
X151488*
Y184407*
X153653*
X152224Y183915D02*
Y184407D01*
X153653Y186375D02*
Y185883D01*
X151488*
Y186375*
X153653*
X152224Y185883D02*
Y186375D01*
X153653Y188344D02*
Y187852D01*
X151488*
Y188344*
X153653*
X151488Y188035D02*
X153653D01*
X152224Y187852D02*
Y188344D01*
X153653Y190312D02*
Y189820D01*
X151488*
Y190312*
X151488D02*
X153653D01*
X152224Y189820D02*
Y190312D01*
X153653Y192281D02*
Y191789D01*
X151488*
Y192281*
X153653*
X152224Y191789D02*
Y192281D01*
X150405Y193364D02*
X149913D01*
Y195529*
X150405*
Y193364*
X149913Y194004D02*
X150405D01*
X149913Y195496D02*
X150405D01*
X148436Y193364D02*
X147944D01*
Y195529*
X148436*
Y193364*
X147944Y194004D02*
X148436D01*
X147944Y195496D02*
X148436D01*
X146468Y193364D02*
X145976D01*
Y195529*
X146468*
Y193364*
X145976Y194004D02*
X146468D01*
X145976Y195496D02*
X146468D01*
X146256Y193364D02*
Y195529D01*
X144499Y193364D02*
X144007D01*
Y195529*
X144499*
Y193364*
X144007Y194004D02*
X144499D01*
X144007Y195496D02*
X144499D01*
X142531Y193364D02*
X142039D01*
Y195529*
X142531*
Y193364*
X142039Y194004D02*
X142531D01*
X142039Y195496D02*
X142531D01*
X140562Y193364D02*
X140070D01*
Y195529*
X140562*
Y193364*
X140070Y194004D02*
X140562D01*
X140070Y195496D02*
X140562D01*
X140287Y193364D02*
Y195529D01*
X138594Y193364D02*
X138102D01*
Y195529*
X138594*
Y193364*
X138102Y194004D02*
X138594D01*
X138102Y195496D02*
X138594D01*
X136625Y193364D02*
X136133D01*
Y195529*
X136625*
Y193364*
X136133Y194004D02*
X136625D01*
X136133Y195496D02*
X136625D01*
X134657Y193364D02*
X134165D01*
Y195529*
X134657*
Y193364*
X134165Y194004D02*
X134657D01*
X134165Y195496D02*
X134657D01*
X134319Y193364D02*
Y195529D01*
X132688Y193364D02*
X132196D01*
Y195529*
X132688*
Y193364*
X132196Y194004D02*
X132688D01*
X132196Y195496D02*
X132688D01*
X130720Y193364D02*
X130228D01*
Y195529*
X130720*
Y193364*
X130228Y194004D02*
X130720D01*
X130228Y195496D02*
X130720D01*
X128751Y193364D02*
X128259D01*
Y195529*
X128751*
Y193364*
X128259Y194004D02*
X128751D01*
X128259Y195496D02*
X128751D01*
X128350Y193364D02*
Y195529D01*
X127177Y192281D02*
Y191789D01*
X125011*
Y192281*
X127177*
X125366Y191789D02*
Y192281D01*
X126858Y191789D02*
Y192281D01*
X127177Y190312D02*
Y189820D01*
X125011*
Y190312*
X125011D02*
X127177D01*
X125366Y189820D02*
Y190312D01*
X126858Y189820D02*
Y190312D01*
X127177Y188344D02*
Y187852D01*
X125011*
Y188344*
X127177*
X125011Y188035D02*
X127177D01*
X125366Y187852D02*
Y188344D01*
X126858Y187852D02*
Y188344D01*
X127177Y186375D02*
Y185883D01*
X125011*
Y186375*
X127177*
X125366Y185883D02*
Y186375D01*
X126858Y185883D02*
Y186375D01*
X127177Y184407D02*
Y183915D01*
X125011*
Y184407*
X127177*
X125366Y183915D02*
Y184407D01*
X126858Y183915D02*
Y184407D01*
X127177Y182438D02*
Y181946D01*
X125011*
Y182438*
X127177*
X125011Y182067D02*
X127177D01*
X125366Y181946D02*
Y182438D01*
X126858Y181946D02*
Y182438D01*
X127177Y180470D02*
Y179978D01*
X125011*
Y180470*
X127177*
X125366Y179978D02*
Y180470D01*
X126858Y179978D02*
Y180470D01*
X127177Y178501D02*
Y178009D01*
X125011*
Y178501*
X127177*
X125366Y178009D02*
Y178501D01*
X126858Y178009D02*
Y178501D01*
X127177Y176533D02*
Y176041D01*
X125011*
Y176533*
X127177*
X125011Y176098D02*
X127177D01*
X125366Y176041D02*
Y176533D01*
X126858Y176041D02*
Y176533D01*
X127177Y174564D02*
Y174072D01*
X125011*
Y174564*
X127177*
X125366Y174072D02*
Y174564D01*
X126858Y174072D02*
Y174564D01*
X127177Y172596D02*
Y172104D01*
X125011*
Y172596*
X127177*
X125366Y172104D02*
Y172596D01*
X126858Y172104D02*
Y172596D01*
X127177Y170627D02*
Y170135D01*
X125011*
Y170627*
X127177*
X125366Y170135D02*
Y170627D01*
X126858Y170135D02*
Y170627D01*
G54D44*
X132932Y174808D02*
Y187608D01*
X145732*
Y174808*
X132932*
Y175600D02*
X145732D01*
X132932Y179800D02*
X145732D01*
X132932Y184000D02*
X145732D01*
X133600Y174808D02*
Y187608D01*
X137800Y174808D02*
Y187608D01*
X142000Y174808D02*
Y187608D01*
G54D45*
X292650Y106120D02*
Y102896D01*
X285291*
Y106120*
X292650*
X285291Y105000D02*
X292650D01*
X287500Y102896D02*
Y106120D01*
X290000Y102896D02*
Y106120D01*
X292500Y102896D02*
Y106120D01*
X292650Y112520D02*
Y109296D01*
X285291*
Y112520*
X292650*
X285291Y110000D02*
X292650D01*
X285291Y112500D02*
X292650D01*
X287500Y109296D02*
Y112520D01*
X290000Y109296D02*
Y112520D01*
X292500Y109296D02*
Y112520D01*
X273752Y106120D02*
Y102896D01*
X266394*
Y106120*
X273752*
X266394Y105000D02*
X273752D01*
X267500Y102896D02*
Y106120D01*
X270000Y102896D02*
Y106120D01*
X272500Y102896D02*
Y106120D01*
X273752Y112520D02*
Y109296D01*
X266394*
Y112520*
X273752*
X266394Y110000D02*
X273752D01*
X266394Y112500D02*
X273752D01*
X267500Y109296D02*
Y112520D01*
X270000Y109296D02*
Y112520D01*
X272500Y109296D02*
Y112520D01*
X262827Y106120D02*
Y102896D01*
X255469*
Y106120*
X262827*
X255469Y105000D02*
X262827D01*
X257500Y102896D02*
Y106120D01*
X260000Y102896D02*
Y106120D01*
X262500Y102896D02*
Y106120D01*
X262827Y112520D02*
Y109296D01*
X255469*
Y112520*
X262827*
X255469Y110000D02*
X262827D01*
X255469Y112500D02*
X262827D01*
X257500Y109296D02*
Y112520D01*
X260000Y109296D02*
Y112520D01*
X262500Y109296D02*
Y112520D01*
X243929Y106120D02*
Y102896D01*
X236571*
Y106120*
X243929*
X236571Y105000D02*
X243929D01*
X237500Y102896D02*
Y106120D01*
X240000Y102896D02*
Y106120D01*
X242500Y102896D02*
Y106120D01*
X243929Y112520D02*
Y109296D01*
X236571*
Y112520*
X243929*
X236571Y110000D02*
X243929D01*
X236571Y112500D02*
X243929D01*
X237500Y109296D02*
Y112520D01*
X240000Y109296D02*
Y112520D01*
X242500Y109296D02*
Y112520D01*
G54D46*
X182495Y199075D02*
X184365D01*
Y197008*
X182495*
Y199075*
Y197583D02*
X184365D01*
X183232Y197008D02*
Y199075D01*
X175014D02*
X176885D01*
Y197008*
X175014*
Y199075*
Y197583D02*
X176885D01*
X178755Y190217D02*
X180625D01*
Y188150*
X178755*
Y190217*
Y188972D02*
X180625D01*
X180362Y188150D02*
Y190217D01*
X200251Y199553D02*
X202122D01*
Y197486*
X200251*
Y199553*
Y197583D02*
X202122D01*
X200453Y197486D02*
Y199553D01*
X192771D02*
X194641D01*
Y197486*
X192771*
Y199553*
Y197583D02*
X194641D01*
X196511Y190694D02*
X198381D01*
Y188627*
X196511*
Y190694*
Y188972D02*
X198381D01*
X197583Y188627D02*
Y190694D01*
G54D47*
X224165Y123914D03*
Y128914D03*
Y133914D03*
Y138914D03*
X203299D03*
Y133914D03*
Y128914D03*
Y123914D03*
G54D48*
X223893Y167336D03*
G54D49*
X228815Y175604D03*
X226846D03*
X224878D03*
X222909D03*
X220941D03*
X218972D03*
Y159069D03*
X220941D03*
X222909D03*
X224878D03*
X226846D03*
X228815D03*
G54D50*
X215626Y172258D03*
Y170289D03*
Y168321D03*
Y166352D03*
Y164384D03*
Y162415D03*
X232161D03*
Y164384D03*
Y166352D03*
Y168321D03*
Y170289D03*
Y172258D03*
G54D51*
X298769Y201394D02*
Y200213D01*
X296450*
Y201394*
X298769*
X296450Y200330D02*
X298769D01*
X298480Y200213D02*
Y201394D01*
X298769Y205134D02*
Y203953D01*
X296450*
Y205134*
X298769*
X296450Y204693D02*
X298769D01*
X298480Y203953D02*
Y205134D01*
X298769Y208874D02*
Y207693D01*
X296450*
Y208874*
X298769*
X298480Y207693D02*
Y208874D01*
X287369D02*
Y207693D01*
X285050*
Y208874*
X287369*
X285393Y207693D02*
Y208874D01*
X287369Y201394D02*
Y200213D01*
X285050*
Y201394*
X287369*
X285050Y200330D02*
X287369D01*
X285393Y200213D02*
Y201394D01*
G54D52*
X225726Y203103D03*
G54D53*
X275807Y156201D02*
Y156791D01*
X281122*
Y156201*
X275807*
X276551D02*
Y156791D01*
X278141Y156201D02*
Y156791D01*
X279732Y156201D02*
Y156791D01*
X275807Y159350D02*
Y159941D01*
X281122*
Y159350*
X275807*
X276551D02*
Y159941D01*
X278141Y159350D02*
Y159941D01*
X279732Y159350D02*
Y159941D01*
X275807Y164468D02*
Y165059D01*
X281122*
Y164468*
X275807*
X276551D02*
Y165059D01*
X278141Y164468D02*
Y165059D01*
X279732Y164468D02*
Y165059D01*
X275807Y168406D02*
Y168996D01*
X281122*
Y168406*
X275807*
X276551D02*
Y168996D01*
X278141Y168406D02*
Y168996D01*
X279732Y168406D02*
Y168996D01*
X275807Y170374D02*
Y170965D01*
X281122*
Y170374*
X275807*
X276551D02*
Y170965D01*
X278141Y170374D02*
Y170965D01*
X279732Y170374D02*
Y170965D01*
X275807Y174311D02*
Y174902D01*
X281122*
Y174311*
X275807*
Y174756D02*
X281122D01*
X276551Y174311D02*
Y174902D01*
X278141Y174311D02*
Y174902D01*
X279732Y174311D02*
Y174902D01*
X275807Y179429D02*
Y180020D01*
X281122*
Y179429*
X275807*
Y179527D02*
X281122D01*
X276551Y179429D02*
Y180020D01*
X278141Y179429D02*
Y180020D01*
X279732Y179429D02*
Y180020D01*
X275807Y182579D02*
Y183169D01*
X281122*
Y182579*
X275807*
Y182708D02*
X281122D01*
X276551Y182579D02*
Y183169D01*
X278141Y182579D02*
Y183169D01*
X279732Y182579D02*
Y183169D01*
X275807Y181398D02*
Y181988D01*
X281122*
Y181398*
X275807*
X276551D02*
Y181988D01*
X278141Y181398D02*
Y181988D01*
X279732Y181398D02*
Y181988D01*
X275807Y178248D02*
Y178839D01*
X281122*
Y178248*
X275807*
X276551D02*
Y178839D01*
X278141Y178248D02*
Y178839D01*
X279732Y178248D02*
Y178839D01*
X275807Y176280D02*
Y176870D01*
X281122*
Y176280*
X275807*
Y176346D02*
X281122D01*
X276551Y176280D02*
Y176870D01*
X278141Y176280D02*
Y176870D01*
X279732Y176280D02*
Y176870D01*
X275807Y172343D02*
Y172933D01*
X281122*
Y172343*
X281122D02*
X275807D01*
X276551D02*
Y172933D01*
X278141Y172343D02*
Y172933D01*
X279732Y172343D02*
Y172933D01*
X275807Y166437D02*
Y167028D01*
X281122*
Y166437*
X275807*
Y166803D02*
X281122D01*
X276551Y166437D02*
Y167028D01*
X278141Y166437D02*
Y167028D01*
X279732Y166437D02*
Y167028D01*
X275807Y162500D02*
Y163091D01*
X281122*
Y162500*
X275807*
X276551D02*
Y163091D01*
X278141Y162500D02*
Y163091D01*
X279732Y162500D02*
Y163091D01*
X275807Y160531D02*
Y161122D01*
X281122*
Y160531*
X275807*
X276551D02*
Y161122D01*
X278141Y160531D02*
Y161122D01*
X279732Y160531D02*
Y161122D01*
X275807Y157382D02*
Y157972D01*
X281122*
Y157382*
X275807*
X276551D02*
Y157972D01*
X278141Y157382D02*
Y157972D01*
X279732Y157382D02*
Y157972D01*
G54D54*
X284528Y158307D03*
Y181063D03*
G54D55*
X298307Y186713D03*
Y152657D03*
G54D56*
X282559D03*
Y186713D03*
G54D57*
X220370Y192103D02*
X219270D01*
Y195803*
X220370*
Y192103*
X219270Y192400D02*
X220370D01*
X219270Y194500D02*
X220370D01*
X219700Y192103D02*
Y195803D01*
X222339Y192103D02*
X221239D01*
Y195803*
X222339*
Y192103*
X221239Y192400D02*
X222339D01*
X221239Y194500D02*
X222339D01*
X221800Y192103D02*
Y195803D01*
X224307Y192103D02*
X223207D01*
Y195803*
X224307*
Y192103*
X223207Y192400D02*
X224307D01*
X223207Y194500D02*
X224307D01*
X223900Y192103D02*
Y195803D01*
X226276Y192103D02*
X225176D01*
Y195803*
X226276*
Y192103*
X225176Y192400D02*
X226276D01*
X225176Y194500D02*
X226276D01*
X226000Y192103D02*
Y195803D01*
X228244Y192103D02*
X227144D01*
Y195803*
X228244*
Y192103*
X227144Y192400D02*
X228244D01*
X227144Y194500D02*
X228244D01*
X228100Y192103D02*
Y195803D01*
X230213Y192103D02*
X229113D01*
Y195803*
X230213*
Y192103*
X229113Y192400D02*
X230213D01*
X229113Y194500D02*
X230213D01*
X230200Y192103D02*
Y195803D01*
X232181Y192103D02*
X231081D01*
Y195803*
X232181*
Y192103*
X231081Y192400D02*
X232181D01*
X231081Y194500D02*
X232181D01*
X236726Y197748D02*
Y196648D01*
X233026*
Y197748*
X236726*
X234400Y196648D02*
Y197748D01*
X236500Y196648D02*
Y197748D01*
X236726Y199716D02*
Y198616D01*
X233026*
Y199716*
X236726*
X233026Y198700D02*
X236726D01*
X234400Y198616D02*
Y199716D01*
X236500Y198616D02*
Y199716D01*
X236726Y201685D02*
Y200585D01*
X233026*
Y201685*
X236726*
X233026Y200800D02*
X236726D01*
X234400Y200585D02*
Y201685D01*
X236500Y200585D02*
Y201685D01*
X236726Y203653D02*
Y202553D01*
X233026*
Y203653*
X236726*
X233026Y202900D02*
X236726D01*
X234400Y202553D02*
Y203653D01*
X236500Y202553D02*
Y203653D01*
X236726Y205622D02*
Y204522D01*
X233026*
Y205622*
X236726*
X233026Y205000D02*
X236726D01*
X234400Y204522D02*
Y205622D01*
X236500Y204522D02*
Y205622D01*
X236726Y207591D02*
Y206491D01*
X236726D02*
X233026D01*
X233026D02*
Y207591D01*
X233026D02*
X236726D01*
X233026Y207100D02*
X236726D01*
X234400Y206491D02*
Y207591D01*
X236500Y206491D02*
Y207591D01*
X236726Y209559D02*
Y208459D01*
X233026*
Y209559*
X236726*
X233026Y209200D02*
X236726D01*
X234400Y208459D02*
Y209559D01*
X236500Y208459D02*
Y209559D01*
X232181Y210403D02*
X231081D01*
Y214103*
X232181*
Y210403*
X231081Y211300D02*
X232181D01*
X231081Y213400D02*
X232181D01*
X230213Y210403D02*
X229113D01*
Y214103*
X230213*
Y210403*
X229113Y211300D02*
X230213D01*
X229113Y213400D02*
X230213D01*
X230200Y210403D02*
Y214103D01*
X228244Y210403D02*
X227144D01*
Y214103*
X228244*
Y210403*
X227144Y211300D02*
X228244D01*
X227144Y213400D02*
X228244D01*
X228100Y210403D02*
Y214103D01*
X226276Y210403D02*
X225176D01*
Y214103*
X226276*
Y210403*
X225176Y211300D02*
X226276D01*
X225176Y213400D02*
X226276D01*
X226000Y210403D02*
Y214103D01*
X224307Y210403D02*
X223207D01*
Y214103*
X224307*
Y210403*
X223207Y211300D02*
X224307D01*
X223207Y213400D02*
X224307D01*
X223900Y210403D02*
Y214103D01*
X222339Y210403D02*
X221239D01*
Y214103*
X222339*
Y210403*
X221239Y211300D02*
X222339D01*
X221239Y213400D02*
X222339D01*
X221800Y210403D02*
Y214103D01*
X220370Y210403D02*
X219270D01*
Y214103*
X220370*
Y210403*
X219270Y211300D02*
X220370D01*
X219270Y213400D02*
X220370D01*
X219700Y210403D02*
Y214103D01*
X218426Y209559D02*
Y208459D01*
X214726*
Y209559*
X218426*
X214726Y209200D02*
X218426D01*
X215500Y208459D02*
Y209559D01*
X217600Y208459D02*
Y209559D01*
X218426Y207591D02*
Y206491D01*
X218426D02*
X214726D01*
X214726D02*
Y207591D01*
X214726D02*
X218426D01*
X214726Y207100D02*
X218426D01*
X215500Y206491D02*
Y207591D01*
X217600Y206491D02*
Y207591D01*
X218426Y205622D02*
Y204522D01*
X214726*
Y205622*
X218426*
X214726Y205000D02*
X218426D01*
X215500Y204522D02*
Y205622D01*
X217600Y204522D02*
Y205622D01*
X218426Y203653D02*
Y202553D01*
X214726*
Y203653*
X218426*
X214726Y202900D02*
X218426D01*
X215500Y202553D02*
Y203653D01*
X217600Y202553D02*
Y203653D01*
X218426Y201685D02*
Y200585D01*
X214726*
Y201685*
X218426*
X214726Y200800D02*
X218426D01*
X215500Y200585D02*
Y201685D01*
X217600Y200585D02*
Y201685D01*
X218426Y199716D02*
Y198616D01*
X214726*
Y199716*
X218426*
X214726Y198700D02*
X218426D01*
X215500Y198616D02*
Y199716D01*
X217600Y198616D02*
Y199716D01*
X218426Y197748D02*
Y196648D01*
X214726*
Y197748*
X218426*
X215500Y196648D02*
Y197748D01*
X217600Y196648D02*
Y197748D01*
G74*
X0Y0D02*
M02*
