*
*
G04 PADS VX.2.4 Build Number: 11282995 generated Gerber (RS-274-X) file*
G04 PC Version=2.1*
*
%IN "ESP32-PicoD4_EVK.pcb"*%
*
%MOIN*%
*
%FSLAX35Y35*%
*
*
*
*
G04 PC Standard Apertures*
*
*
G04 Thermal Relief Aperture macro.*
%AMTER*
1,1,$1,0,0*
1,0,$1-$2,0,0*
21,0,$3,$4,0,0,45*
21,0,$3,$4,0,0,135*
%
*
*
G04 Annular Aperture macro.*
%AMANN*
1,1,$1,0,0*
1,0,$2,0,0*
%
*
*
G04 Odd Aperture macro.*
%AMODD*
1,1,$1,0,0*
1,0,$1-0.005,0,0*
%
*
*
G04 PC Custom Aperture Macros*
*
*
*
*
*
*
G04 PC Aperture Table*
*
%ADD010C,0.001*%
%ADD011C,0.01*%
%ADD042C,0.06*%
%ADD054C,0.03559*%
%ADD055O,0.07299X0.04937*%
%ADD056O,0.09268X0.04937*%
%ADD058R,0.02968X0.02968*%
*
*
*
*
G04 PC Circuitry*
G04 Layer Name ESP32-PicoD4_EVK.pcb - circuitry*
%LPD*%
*
*
G04 PC Custom Flashes*
G04 Layer Name ESP32-PicoD4_EVK.pcb - flashes*
%LPD*%
*
*
G04 PC Circuitry*
G04 Layer Name ESP32-PicoD4_EVK.pcb - circuitry*
%LPD*%
*
G54D10*
G54D11*
G01X107000Y239764D02*
G75*
G03X100000Y232764I0J-7000D01*
G01X107000Y239764D02*
X301504D01*
X308504Y232764D02*
G03X301504Y239764I-7000J0D01*
G01X308504Y232764D02*
Y107000D01*
X301504Y100000D02*
G03X308504Y107000I-0J7000D01*
G01X301504Y100000D02*
X107000D01*
X100000Y107000D02*
G03X107000Y100000I7000J0D01*
G01X100000Y107000D02*
Y232764D01*
G54D42*
X119291Y106969D03*
X129291D03*
X139291D03*
X149291D03*
X159291D03*
X169291D03*
X179291D03*
X189291D03*
X199291D03*
X209291D03*
X219291D03*
X229291D03*
X269009Y123690D03*
Y133690D03*
X253543Y136457D03*
Y146457D03*
Y156457D03*
Y166457D03*
Y176457D03*
Y186457D03*
Y196457D03*
Y206457D03*
X119291Y232756D03*
X129291D03*
X139291D03*
X149291D03*
X159291D03*
X169291D03*
X179291D03*
X189291D03*
X199291D03*
X209291D03*
X219291D03*
X229291D03*
X239291D03*
X249291D03*
X259291D03*
X269291D03*
X279291D03*
X289291D03*
G54D54*
X284528Y158307D03*
Y181063D03*
G54D55*
X298307Y186713D03*
Y152657D03*
G54D56*
X282559D03*
Y186713D03*
G54D58*
X222904Y127559D03*
X219504D03*
X239495Y145276D03*
X236095D03*
X222904Y121654D03*
X219504D03*
X210055D03*
X206655D03*
X210055Y127559D03*
X206655D03*
X189128Y121654D03*
X185728D03*
X239495D03*
X236095D03*
X239495Y127559D03*
X236095D03*
X239495Y133465D03*
X236095D03*
X239495Y139370D03*
X236095D03*
G74*
X0Y0D02*
M02*
