*
*
G04 PADS VX.2.4 Build Number: 11282995 generated Gerber (RS-274-X) file*
G04 PC Version=2.1*
*
%IN "ESP32-PicoD4_EVK.pcb"*%
*
%MOIN*%
*
%FSLAX35Y35*%
*
*
*
*
G04 PC Standard Apertures*
*
*
G04 Thermal Relief Aperture macro.*
%AMTER*
1,1,$1,0,0*
1,0,$1-$2,0,0*
21,0,$3,$4,0,0,45*
21,0,$3,$4,0,0,135*
%
*
*
G04 Annular Aperture macro.*
%AMANN*
1,1,$1,0,0*
1,0,$2,0,0*
%
*
*
G04 Odd Aperture macro.*
%AMODD*
1,1,$1,0,0*
1,0,$1-0.005,0,0*
%
*
*
G04 PC Custom Aperture Macros*
*
*
*
*
*
*
G04 PC Aperture Table*
*
%ADD010C,0.001*%
%ADD011C,0.01*%
%ADD012C,0.01575*%
%ADD037C,0.00787*%
%ADD038C,0.004*%
%ADD039C,0.00591*%
%ADD040C,0.00394*%
*
*
*
*
G04 PC Circuitry*
G04 Layer Name ESP32-PicoD4_EVK.pcb - circuitry*
%LPD*%
*
G54D10*
G01X261624Y190601D02*
X260096Y195069D01*
X258872*
X258399Y195010*
X258399D02*
X257986Y194892D01*
X257637Y194718*
X257408Y194489*
X257233Y194138*
X257117Y193792*
X257175Y193386*
X257294Y192909*
X257472Y192377*
X257767Y191965*
X257767D02*
X258122Y191550D01*
X258953Y190956*
X259425Y190780*
X259960Y190661*
X260435Y190601*
X261624*
X260913Y191042D02*
X260252D01*
X260244Y191043*
X259463Y191163*
X259455Y191165*
X259094Y191285*
X259082Y191291*
X258721Y191531*
X258714Y191538*
X258173Y192079*
X258163Y192093*
X257802Y192874*
X257800Y192880*
X257680Y193240*
X257677Y193256*
Y193617*
X257678Y193626*
X257738Y193927*
X257743Y193940*
X257863Y194180*
X257879Y194198*
X258299Y194499*
X258320Y194507*
X259041Y194628*
X259050*
X259711*
X259758Y194595*
X260960Y191108*
X260913Y191042*
X256956Y191805D02*
X256840Y192154D01*
X256484Y192806*
X256012Y193337*
X255425Y193689*
X254783Y193806*
X254266Y193691*
X253982Y193407*
X253870Y193184*
Y192960*
X253989Y192308*
X254095Y192044*
X256345*
X256394Y192001*
X256454Y191580*
X256455Y191573*
X256455*
X256452Y191557*
X256332Y191197*
X256315Y191172*
X256074Y190992*
X256051Y190983*
X255631Y190922*
X255618*
X255077Y190982*
X255060Y190987*
X254573Y191231*
X254702Y190888*
X255277Y190600*
X255921Y190542*
X256503Y190658*
X256846Y190944*
X256956Y191164*
Y191805*
X256215Y192475D02*
X256215D01*
X256165Y192425*
X254482*
X254432Y192466*
X254372Y192827*
X254371Y192835*
X254372Y192845*
X254432Y193146*
X254446Y193171*
X254626Y193351*
X254652Y193365*
X254953Y193425*
X254971Y193426*
X255331Y193365*
X255349Y193359*
X255649Y193179*
X255659Y193171*
X255959Y192871*
X255966Y192863*
X256206Y192502*
X256215Y192475*
X253820Y190811D02*
X253675Y191196D01*
X253367Y190990*
X253346Y190982*
X252865Y190922*
X252859*
X252618*
X252596Y190927*
X252355Y191047*
X252350Y191051*
X252170Y191171*
X252156Y191185*
X252036Y191365*
X252027Y191393*
Y191573*
X252033Y191595*
X252093Y191716*
X252110Y191735*
X252290Y191855*
X252292Y191856*
X252592Y192037*
X252596Y192038*
X252946Y192214*
X253109Y192431*
Y192882*
X252880Y193283*
X252533Y193573*
X252065Y193748*
X251597Y193807*
X251253Y193749*
X250993Y193593*
X251089Y193208*
X251394Y193361*
X251408Y193365*
X251768Y193426*
X251789Y193425*
X252270Y193305*
X252270D02*
X252285Y193298D01*
X252466Y193177*
X252485Y193152*
X252606Y192791*
X252608Y192775*
X252603Y192753*
X252543Y192633*
X252526Y192613*
X252345Y192493*
X252340Y192490*
X252101Y192370*
X251687Y192134*
X251521Y191968*
X251467Y191752*
X251524Y191471*
X251756Y191065*
X252103Y190775*
X252570Y190600*
X253098Y190541*
X253502Y190599*
X253820Y190811*
X249731Y189311D02*
X249587Y189697D01*
X249217Y189486*
X249198Y189480*
X248717Y189420*
X248706*
X248165Y189480*
X248148Y189485*
X247667Y189725*
X247651Y189737*
X247291Y190158*
X247283Y190170*
X247043Y190711*
X247041Y190716*
X246921Y191076*
X246918Y191092*
X246999Y191131*
X247297Y190893*
X247590Y190717*
X247942Y190600*
X248288Y190542*
X248748Y190657*
X249085Y190938*
X249142Y191391*
X249024Y192040*
X248728Y192748*
X248198Y193337*
X247611Y193690*
X247028Y193806*
X246739Y193748*
X246513Y193692*
X246348Y193527*
X246231Y193294*
X246138Y193304*
X246028Y193747*
X245535*
X246534Y190810*
X246890Y190039*
X247419Y189510*
X248066Y189157*
X248833Y189039*
X249357Y189097*
X249731Y189311*
X248641Y191633D02*
X248641D01*
X248640Y191625*
X248580Y191264*
X248566Y191237*
X248326Y190997*
X248299Y190983*
X247938Y190923*
X247922*
X247561Y190983*
X247544Y190989*
X247124Y191229*
X247110Y191240*
X246810Y191601*
X246802Y191613*
X246441Y192455*
X246438Y192466*
X246378Y192827*
X246377Y192835*
X246382Y192858*
X246503Y193098*
X246507Y193106*
X246688Y193346*
X246720Y193365*
X246720D02*
X247080Y193426D01*
X247095*
X247516Y193366*
X247538Y193357*
X247959Y193056*
X247968Y193048*
X248269Y192687*
X248276Y192675*
X248517Y192134*
X248519Y192126*
X248640Y191645*
X248641Y191633*
X250986Y190601D02*
X249937Y193747D01*
X249442*
X250490Y190601*
X250986*
X249617Y194819D02*
X249570Y194913D01*
X249401Y195138*
X249134Y195245*
X248942Y195149*
Y194956*
X249103Y194740*
X249370Y194633*
X249576Y194736*
X249617Y194819*
X245456Y190601D02*
X244408Y193747D01*
X243912*
X244070Y193272*
X244073Y193256*
X243992Y193217*
X243694Y193455*
X243401Y193631*
X243049Y193748*
X242703Y193806*
X242306Y193692*
X242087Y193473*
X242030Y193078*
X242148Y192548*
X242797Y190601*
X243292*
X242713Y192339*
X242712Y192342*
X242592Y192823*
X242590Y192835*
Y193136*
X242605Y193171*
X242785Y193351*
X242811Y193365*
X243111Y193425*
X243130Y193426*
X243490Y193365*
X243510Y193358*
X243870Y193117*
X243882Y193107*
X244122Y192806*
X244125Y192803*
X244365Y192442*
X244371Y192430*
X244961Y190601*
X245456*
X241569Y191805D02*
X241452Y192154D01*
X241097Y192806*
X240625Y193337*
X240038Y193689*
X239396Y193806*
X238879Y193691*
X238594Y193407*
X238483Y193184*
Y192960*
X238601Y192308*
X238707Y192044*
X240957*
X241007Y192001*
X241067Y191580*
X241068Y191573*
X241068*
X241065Y191557*
X240945Y191197*
X240927Y191172*
X240687Y190992*
X240664Y190983*
X240243Y190922*
X240231*
X239690Y190982*
X239673Y190987*
X239186Y191231*
X239314Y190888*
X239889Y190600*
X240534Y190542*
X241116Y190658*
X241458Y190944*
X241569Y191164*
Y191805*
X240827Y192475D02*
X240827D01*
X240777Y192425*
X239094*
X239045Y192466*
X238985Y192827*
X238984Y192835*
X238985Y192845*
X239045Y193146*
X239059Y193171*
X239239Y193351*
X239265Y193365*
X239565Y193425*
X239583Y193426*
X239944Y193365*
X239961Y193359*
X240262Y193179*
X240272Y193171*
X240572Y192871*
X240578Y192863*
X240819Y192502*
X240827Y192475*
X238142Y191451D02*
X238024Y192098D01*
X237670Y192807*
X237199Y193337*
X236611Y193690*
X236029Y193806*
X235739Y193748*
X235513Y193692*
X235346Y193525*
X235229Y193348*
X235140Y193360*
X234490Y195310*
X233995*
X235584Y190601*
X236080*
X235921Y191076*
X235919Y191092*
X236000Y191131*
X236591Y190658*
X237290Y190542*
X237807Y190657*
X238085Y190935*
X238142Y191451*
X237641Y191633D02*
X237641D01*
Y191625*
X237581Y191264*
X237567Y191237*
X237326Y190997*
X237299Y190983*
X236939Y190923*
X236923Y190922*
X236502Y190983*
X236482Y190990*
X236121Y191231*
X236110Y191240*
X235810Y191601*
X235802Y191613*
X235442Y192455*
X235438Y192466*
X235378Y192827*
Y192835*
X235378*
X235381Y192854*
X235501Y193154*
X235512Y193171*
X235693Y193351*
X235720Y193365*
X236081Y193426*
X236096*
X236517Y193366*
X236539Y193357*
X236959Y193056*
X236969Y193048*
X237269Y192687*
X237277Y192675*
X237517Y192134*
X237520Y192126*
X237640Y191645*
X237641Y191633*
X229656Y189087D02*
X229560Y189471D01*
X229307Y189420*
X229307D02*
X229283Y189421D01*
X228862Y189541*
X228841Y189554*
X228480Y189915*
X228474Y189921*
X228054Y190523*
X228045Y190551*
X228045*
Y190554*
X228222Y193747*
X227664*
Y191032*
X227571Y191006*
X227391Y191306*
X225724Y193747*
X225248*
X227953Y190041*
X228312Y189623*
X228665Y189270*
X229011Y189097*
X229416Y189039*
X229656Y189087*
X232653Y190601D02*
X231064Y195310D01*
X230568*
X231268Y193212*
X231270Y193196*
X231185Y193161*
X230890Y193455*
X230538Y193631*
X230245Y193749*
X229900Y193806*
X229442Y193692*
X229162Y193411*
X229047Y192894*
X229164Y192250*
X229519Y191541*
X229992Y191008*
X230284Y190775*
X230869Y190541*
X231155*
X231450Y190600*
X231670Y190655*
X231778Y190817*
X231897Y191054*
X231988Y191050*
X232156Y190601*
X232653*
X231751Y191513D02*
X231751D01*
X231750Y191503*
X231690Y191203*
X231676Y191177*
X231496Y190997*
X231469Y190983*
X231108Y190923*
X231093Y190922*
X230672Y190983*
X230647Y190994*
X230287Y191294*
X230283Y191297*
X229923Y191658*
X229911Y191675*
X229671Y192276*
X229668Y192287*
X229608Y192708*
X229607Y192715*
X229607*
X229608Y192723*
X229668Y193084*
X229677Y193106*
X229858Y193346*
X229888Y193365*
X230188Y193425*
X230205Y193426*
X230626Y193366*
X230647Y193358*
X231007Y193117*
X231015Y193111*
X231376Y192750*
X231386Y192735*
X231567Y192314*
X231569Y192308*
X231689Y191887*
X231690Y191882*
X231750Y191521*
X231751Y191513*
X223757Y190601D02*
X222228Y195069D01*
X221733*
X223093Y191108*
X223096Y191092*
X223046Y191042*
X221372*
X221519Y190601*
X223757*
X221173D02*
X221139Y190704D01*
X218383Y193280*
X218367Y193316*
X218417Y193366*
X220036*
X219941Y193747*
X217525*
X217559Y193644*
X220255Y191068*
X220271Y191032*
X220221Y190982*
X218429*
X218572Y190601*
X221173*
X217626D02*
X216687Y193300D01*
X216684Y193316*
X216734Y193366*
X217211*
X217116Y193747*
X216614*
X216567Y193779*
X216388Y194258*
X216152Y194729*
X215802Y195079*
X215396Y195311*
X214928Y195370*
X214703*
X214703D02*
X214633Y195335D01*
X214783Y194936*
X215042Y194988*
X215063Y194987*
X215063D02*
X215304Y194927D01*
X215314Y194924*
X215555Y194803*
X215568Y194794*
X215748Y194614*
X215759Y194597*
X215879Y194296*
X215880Y194295*
X216060Y193815*
X216063Y193797*
X216013Y193747*
X215296*
X215391Y193366*
X216133*
X216180Y193333*
X217131Y190601*
X217626*
X214700Y195157D02*
Y195369D01*
X214800Y194940D02*
Y195370D01*
X214900Y194960D02*
Y195370D01*
X215000Y194980D02*
Y195361D01*
X215100Y194978D02*
Y195348D01*
X215200Y194953D02*
Y195336D01*
X215300Y193730D02*
Y193747D01*
Y194928D02*
Y195323D01*
X215400Y193366D02*
Y193747D01*
Y194881D02*
Y195309D01*
X215500Y193366D02*
Y193747D01*
Y194831D02*
Y195252D01*
X215600Y193366D02*
Y193747D01*
Y194762D02*
Y195195D01*
X215700Y193366D02*
Y193747D01*
Y194662D02*
Y195138D01*
X215800Y193366D02*
Y193747D01*
Y194494D02*
Y195080D01*
X215900Y193366D02*
Y193747D01*
Y194241D02*
Y194981D01*
X216000Y193366D02*
Y193747D01*
Y193974D02*
Y194881D01*
X216100Y193366D02*
Y194781D01*
X216200Y193276D02*
Y194634D01*
X216300Y192989D02*
Y194434D01*
X216400Y192701D02*
Y194226D01*
X216500Y192414D02*
Y193959D01*
X216600Y192126D02*
Y193749D01*
X216700Y191839D02*
Y193263D01*
Y193352D02*
Y193747D01*
X216800Y191551D02*
Y192975D01*
Y193366D02*
Y193747D01*
X216900Y191264D02*
Y192688D01*
Y193366D02*
Y193747D01*
X217000Y190976D02*
Y192400D01*
Y193366D02*
Y193747D01*
X217100Y190689D02*
Y192113D01*
Y193366D02*
Y193747D01*
X217200Y190601D02*
Y191825D01*
Y193366D02*
Y193411D01*
X217300Y190601D02*
Y191538D01*
X217400Y190601D02*
Y191250D01*
X217500Y190601D02*
Y190963D01*
X217600Y190601D02*
Y190675D01*
Y193605D02*
Y193747D01*
X217700Y193510D02*
Y193747D01*
X217800Y193414D02*
Y193747D01*
X217900Y193319D02*
Y193747D01*
X218000Y193223D02*
Y193747D01*
X218100Y193127D02*
Y193747D01*
X218200Y193032D02*
Y193747D01*
X218300Y192936D02*
Y193747D01*
X218400Y192841D02*
Y193264D01*
Y193363D02*
Y193747D01*
X218500Y190794D02*
Y190982D01*
Y192745D02*
Y193170D01*
Y193366D02*
Y193747D01*
X218600Y190601D02*
Y190982D01*
Y192650D02*
Y193077D01*
Y193366D02*
Y193747D01*
X218700Y190601D02*
Y190982D01*
Y192554D02*
Y192983D01*
Y193366D02*
Y193747D01*
X218800Y190601D02*
Y190982D01*
Y192459D02*
Y192890D01*
Y193366D02*
Y193747D01*
X218900Y190601D02*
Y190982D01*
Y192363D02*
Y192796D01*
Y193366D02*
Y193747D01*
X219000Y190601D02*
Y190982D01*
Y192267D02*
Y192703D01*
Y193366D02*
Y193747D01*
X219100Y190601D02*
Y190982D01*
Y192172D02*
Y192610D01*
Y193366D02*
Y193747D01*
X219200Y190601D02*
Y190982D01*
Y192076D02*
Y192516D01*
Y193366D02*
Y193747D01*
X219300Y190601D02*
Y190982D01*
Y191981D02*
Y192423D01*
Y193366D02*
Y193747D01*
X219400Y190601D02*
Y190982D01*
Y191885D02*
Y192329D01*
Y193366D02*
Y193747D01*
X219500Y190601D02*
Y190982D01*
Y191790D02*
Y192236D01*
Y193366D02*
Y193747D01*
X219600Y190601D02*
Y190982D01*
Y191694D02*
Y192142D01*
Y193366D02*
Y193747D01*
X219700Y190601D02*
Y190982D01*
Y191599D02*
Y192049D01*
Y193366D02*
Y193747D01*
X219800Y190601D02*
Y190982D01*
Y191503D02*
Y191955D01*
Y193366D02*
Y193747D01*
X219900Y190601D02*
Y190982D01*
Y191407D02*
Y191862D01*
Y193366D02*
Y193747D01*
X220000Y190601D02*
Y190982D01*
Y191312D02*
Y191768D01*
Y193366D02*
Y193511D01*
X220100Y190601D02*
Y190982D01*
Y191216D02*
Y191675D01*
X220200Y190601D02*
Y190982D01*
Y191121D02*
Y191581D01*
X220300Y190601D02*
Y191488D01*
X220400Y190601D02*
Y191394D01*
X220500Y190601D02*
Y191301D01*
X220600Y190601D02*
Y191207D01*
X220700Y190601D02*
Y191114D01*
X220800Y190601D02*
Y191020D01*
X220900Y190601D02*
Y190927D01*
X221000Y190601D02*
Y190833D01*
X221100Y190601D02*
Y190740D01*
X221400Y190958D02*
Y191042D01*
X221500Y190658D02*
Y191042D01*
X221600Y190601D02*
Y191042D01*
X221700Y190601D02*
Y191042D01*
X221800Y190601D02*
Y191042D01*
Y194875D02*
Y195069D01*
X221900Y190601D02*
Y191042D01*
Y194583D02*
Y195069D01*
X222000Y190601D02*
Y191042D01*
Y194292D02*
Y195069D01*
X222100Y190601D02*
Y191042D01*
Y194001D02*
Y195069D01*
X222200Y190601D02*
Y191042D01*
Y193709D02*
Y195069D01*
X222300Y190601D02*
Y191042D01*
Y193418D02*
Y194860D01*
X222400Y190601D02*
Y191042D01*
Y193127D02*
Y194568D01*
X222500Y190601D02*
Y191042D01*
Y192835D02*
Y194276D01*
X222600Y190601D02*
Y191042D01*
Y192544D02*
Y193983D01*
X222700Y190601D02*
Y191042D01*
Y192253D02*
Y193691D01*
X222800Y190601D02*
Y191042D01*
Y191961D02*
Y193399D01*
X222900Y190601D02*
Y191042D01*
Y191670D02*
Y193106D01*
X223000Y190601D02*
Y191042D01*
Y191379D02*
Y192814D01*
X223100Y190601D02*
Y192522D01*
X223200Y190601D02*
Y192229D01*
X223300Y190601D02*
Y191937D01*
X223400Y190601D02*
Y191645D01*
X223500Y190601D02*
Y191352D01*
X223600Y190601D02*
Y191060D01*
X223700Y190601D02*
Y190768D01*
X225300Y193675D02*
Y193747D01*
X225400Y193538D02*
Y193747D01*
X225500Y193401D02*
Y193747D01*
X225600Y193265D02*
Y193747D01*
X225700Y193128D02*
Y193747D01*
X225800Y192991D02*
Y193636D01*
X225900Y192854D02*
Y193489D01*
X226000Y192717D02*
Y193343D01*
X226100Y192580D02*
Y193196D01*
X226200Y192443D02*
Y193050D01*
X226300Y192306D02*
Y192904D01*
X226400Y192169D02*
Y192757D01*
X226500Y192032D02*
Y192611D01*
X226600Y191895D02*
Y192464D01*
X226700Y191758D02*
Y192318D01*
X226800Y191621D02*
Y192171D01*
X226900Y191484D02*
Y192025D01*
X227000Y191347D02*
Y191879D01*
X227100Y191210D02*
Y191732D01*
X227200Y191073D02*
Y191586D01*
X227300Y190936D02*
Y191439D01*
X227400Y190799D02*
Y191291D01*
X227500Y190662D02*
Y191124D01*
X227600Y190525D02*
Y190984D01*
X227700Y190388D02*
Y193747D01*
X227800Y190251D02*
Y193747D01*
X227900Y190115D02*
Y193747D01*
X228000Y189987D02*
Y193747D01*
X228100Y189870D02*
Y190456D01*
Y191551D02*
Y193747D01*
X228200Y189754D02*
Y190313D01*
Y193351D02*
Y193747D01*
X228300Y189637D02*
Y190171D01*
X228400Y189535D02*
Y190028D01*
X228500Y189435D02*
Y189895D01*
X228600Y189335D02*
Y189795D01*
X228700Y189252D02*
Y189695D01*
X228800Y189202D02*
Y189595D01*
X228900Y189152D02*
Y189531D01*
X229000Y189102D02*
Y189502D01*
X229100Y189084D02*
Y189473D01*
Y192604D02*
Y193132D01*
X229200Y189070D02*
Y189445D01*
Y192179D02*
Y193449D01*
X229300Y189056D02*
Y189419D01*
Y191979D02*
Y193549D01*
X229400Y189041D02*
Y189439D01*
Y191779D02*
Y193649D01*
X229500Y189056D02*
Y189459D01*
Y191579D02*
Y193706D01*
X229600Y189076D02*
Y189312D01*
Y191450D02*
Y193731D01*
X229700Y191337D02*
Y192203D01*
Y193136D02*
Y193756D01*
X229800Y191225D02*
Y191953D01*
Y193269D02*
Y193781D01*
X229900Y191112D02*
Y191703D01*
Y193368D02*
Y193806D01*
X230000Y191002D02*
Y191580D01*
Y193388D02*
Y193789D01*
X230100Y190922D02*
Y191480D01*
Y193408D02*
Y193773D01*
X230200Y190842D02*
Y191380D01*
Y193426D02*
Y193756D01*
X230300Y190769D02*
Y191283D01*
Y193412D02*
Y193726D01*
X230400Y190729D02*
Y191200D01*
Y193398D02*
Y193686D01*
X230500Y190689D02*
Y191116D01*
Y193384D02*
Y193646D01*
X230600Y190649D02*
Y191033D01*
Y193369D02*
Y193600D01*
Y195214D02*
Y195310D01*
X230700Y190609D02*
Y190979D01*
Y193322D02*
Y193550D01*
Y194914D02*
Y195310D01*
X230800Y190569D02*
Y190964D01*
Y193256D02*
Y193500D01*
Y194614D02*
Y195310D01*
X230900Y190541D02*
Y190950D01*
Y193189D02*
Y193445D01*
Y194314D02*
Y195310D01*
X231000Y190541D02*
Y190936D01*
Y193122D02*
Y193345D01*
Y194014D02*
Y195310D01*
X231100Y190541D02*
Y190922D01*
Y193026D02*
Y193245D01*
Y193714D02*
Y195203D01*
X231200Y190550D02*
Y190938D01*
Y192926D02*
Y193150D01*
Y193414D02*
Y194907D01*
X231300Y190570D02*
Y190955D01*
Y192826D02*
Y194611D01*
X231400Y190590D02*
Y190971D01*
Y192703D02*
Y194314D01*
X231500Y190613D02*
Y191001D01*
Y192469D02*
Y194018D01*
X231600Y190638D02*
Y191101D01*
Y192199D02*
Y193722D01*
X231700Y190700D02*
Y191253D01*
Y191823D02*
Y193425D01*
X231800Y190861D02*
Y193129D01*
X231900Y191060D02*
Y192833D01*
X232000Y191018D02*
Y192536D01*
X232100Y190752D02*
Y192240D01*
X232200Y190601D02*
Y191944D01*
X232300Y190601D02*
Y191648D01*
X232400Y190601D02*
Y191351D01*
X232500Y190601D02*
Y191055D01*
X232600Y190601D02*
Y190759D01*
X234000Y195294D02*
Y195310D01*
X234100Y194997D02*
Y195310D01*
X234200Y194701D02*
Y195310D01*
X234300Y194405D02*
Y195310D01*
X234400Y194108D02*
Y195310D01*
X234500Y193812D02*
Y195280D01*
X234600Y193516D02*
Y194980D01*
X234700Y193220D02*
Y194680D01*
X234800Y192923D02*
Y194380D01*
X234900Y192627D02*
Y194080D01*
X235000Y192331D02*
Y193780D01*
X235100Y192034D02*
Y193480D01*
X235200Y191738D02*
Y193328D01*
X235300Y191442D02*
Y193455D01*
X235400Y191146D02*
Y192697D01*
Y192901D02*
Y193578D01*
X235500Y190849D02*
Y192319D01*
Y193151D02*
Y193678D01*
X235600Y190601D02*
Y192086D01*
Y193259D02*
Y193713D01*
X235700Y190601D02*
Y191852D01*
Y193357D02*
Y193738D01*
X235800Y190601D02*
Y191619D01*
Y193379D02*
Y193760D01*
X235900Y190601D02*
Y191493D01*
Y193395D02*
Y193780D01*
X236000Y190601D02*
Y190840D01*
Y191131D02*
Y191373D01*
Y193412D02*
Y193800D01*
X236100Y191051D02*
Y191253D01*
Y193425D02*
Y193792D01*
X236200Y190971D02*
Y191178D01*
Y193411D02*
Y193772D01*
X236300Y190891D02*
Y191112D01*
Y193397D02*
Y193752D01*
X236400Y190811D02*
Y191045D01*
Y193382D02*
Y193732D01*
X236500Y190731D02*
Y190983D01*
Y193368D02*
Y193712D01*
X236600Y190657D02*
Y190969D01*
Y193313D02*
Y193692D01*
X236700Y190640D02*
Y190954D01*
Y193242D02*
Y193636D01*
X236800Y190624D02*
Y190940D01*
Y193170D02*
Y193576D01*
X236900Y190607D02*
Y190926D01*
Y193099D02*
Y193516D01*
X237000Y190590D02*
Y190933D01*
Y193010D02*
Y193456D01*
X237100Y190574D02*
Y190950D01*
Y192890D02*
Y193396D01*
X237200Y190557D02*
Y190966D01*
Y192770D02*
Y193336D01*
X237300Y190544D02*
Y190983D01*
Y192622D02*
Y193223D01*
X237400Y190567D02*
Y191070D01*
Y192397D02*
Y193111D01*
X237500Y190589D02*
Y191170D01*
Y192172D02*
Y192998D01*
X237600Y190611D02*
Y191380D01*
Y191805D02*
Y192886D01*
X237700Y190633D02*
Y192747D01*
X237800Y190655D02*
Y192547D01*
X237900Y190750D02*
Y192347D01*
X238000Y190850D02*
Y192147D01*
X238100Y191073D02*
Y191682D01*
X238500Y192866D02*
Y193218D01*
X238600Y192316D02*
Y193412D01*
X238700Y192062D02*
Y193512D01*
X238800Y192044D02*
Y193612D01*
X238900Y192044D02*
Y193696D01*
X239000Y192044D02*
Y192735D01*
Y192920D02*
Y193718D01*
X239100Y192044D02*
Y192425D01*
Y193212D02*
Y193740D01*
X239200Y191193D02*
Y191224D01*
Y192044D02*
Y192425D01*
Y193312D02*
Y193763D01*
X239300Y190926D02*
Y191174D01*
Y192044D02*
Y192425D01*
Y193372D02*
Y193785D01*
X239400Y190845D02*
Y191124D01*
Y192044D02*
Y192425D01*
Y193392D02*
Y193805D01*
X239500Y190795D02*
Y191074D01*
Y192044D02*
Y192425D01*
Y193412D02*
Y193787D01*
X239600Y190745D02*
Y191024D01*
Y192044D02*
Y192425D01*
Y193423D02*
Y193769D01*
X239700Y190695D02*
Y190981D01*
Y192044D02*
Y192425D01*
Y193406D02*
Y193751D01*
X239800Y190645D02*
Y190970D01*
Y192044D02*
Y192425D01*
Y193389D02*
Y193733D01*
X239900Y190599D02*
Y190959D01*
Y192044D02*
Y192425D01*
Y193373D02*
Y193714D01*
X240000Y190590D02*
Y190948D01*
Y192044D02*
Y192425D01*
Y193336D02*
Y193696D01*
X240100Y190581D02*
Y190937D01*
Y192044D02*
Y192425D01*
Y193276D02*
Y193652D01*
X240200Y190572D02*
Y190926D01*
Y192044D02*
Y192425D01*
Y193216D02*
Y193592D01*
X240300Y190563D02*
Y190931D01*
Y192044D02*
Y192425D01*
Y193143D02*
Y193532D01*
X240400Y190554D02*
Y190945D01*
Y192044D02*
Y192425D01*
Y193043D02*
Y193472D01*
X240500Y190545D02*
Y190959D01*
Y192044D02*
Y192425D01*
Y192943D02*
Y193412D01*
X240600Y190555D02*
Y190973D01*
Y192044D02*
Y192425D01*
Y192830D02*
Y193352D01*
X240700Y190575D02*
Y191002D01*
Y192044D02*
Y192425D01*
Y192680D02*
Y193252D01*
X240800Y190595D02*
Y191077D01*
Y192044D02*
Y192430D01*
Y192530D02*
Y193140D01*
X240900Y190615D02*
Y191152D01*
Y192044D02*
Y193027D01*
X241000Y190635D02*
Y191362D01*
Y192020D02*
Y192915D01*
X241100Y190655D02*
Y192800D01*
X241200Y190728D02*
Y192617D01*
X241300Y190812D02*
Y192433D01*
X241400Y190895D02*
Y192250D01*
X241500Y191027D02*
Y192011D01*
X242100Y192763D02*
Y193486D01*
X242200Y192391D02*
Y193586D01*
X242300Y192091D02*
Y193686D01*
X242400Y191791D02*
Y193719D01*
X242500Y191491D02*
Y193748D01*
X242600Y191191D02*
Y192791D01*
Y193165D02*
Y193776D01*
X242700Y190891D02*
Y192391D01*
Y193266D02*
Y193805D01*
X242800Y190601D02*
Y192078D01*
Y193362D02*
Y193790D01*
X242900Y190601D02*
Y191778D01*
Y193383D02*
Y193773D01*
X243000Y190601D02*
Y191478D01*
Y193403D02*
Y193756D01*
X243100Y190601D02*
Y191178D01*
Y193423D02*
Y193731D01*
X243200Y190601D02*
Y190878D01*
Y193414D02*
Y193698D01*
X243300Y193397D02*
Y193665D01*
X243400Y193380D02*
Y193631D01*
X243500Y193363D02*
Y193572D01*
X243600Y193297D02*
Y193512D01*
X243700Y193231D02*
Y193450D01*
X243800Y193164D02*
Y193370D01*
X243900Y193084D02*
Y193290D01*
X244000Y192959D02*
Y193212D01*
Y193483D02*
Y193747D01*
X244100Y192834D02*
Y193747D01*
X244200Y192690D02*
Y193747D01*
X244300Y192540D02*
Y193747D01*
X244400Y192340D02*
Y193747D01*
X244500Y192030D02*
Y193470D01*
X244600Y191720D02*
Y193170D01*
X244700Y191410D02*
Y192870D01*
X244800Y191100D02*
Y192570D01*
X244900Y190790D02*
Y192270D01*
X245000Y190601D02*
Y191970D01*
X245100Y190601D02*
Y191670D01*
X245200Y190601D02*
Y191370D01*
X245300Y190601D02*
Y191070D01*
X245400Y190601D02*
Y190770D01*
X245600Y193557D02*
Y193747D01*
X245700Y193263D02*
Y193747D01*
X245800Y192968D02*
Y193747D01*
X245900Y192674D02*
Y193747D01*
X246000Y192380D02*
Y193747D01*
X246100Y192086D02*
Y193457D01*
X246200Y191792D02*
Y193268D01*
X246300Y191498D02*
Y193431D01*
X246400Y191204D02*
Y192694D01*
Y192893D02*
Y193579D01*
X246500Y190910D02*
Y192318D01*
Y193093D02*
Y193679D01*
X246600Y190667D02*
Y192085D01*
Y193229D02*
Y193713D01*
X246700Y190450D02*
Y191851D01*
Y193358D02*
Y193738D01*
X246800Y190233D02*
Y191618D01*
Y193379D02*
Y193760D01*
X246900Y190029D02*
Y191493D01*
Y193396D02*
Y193780D01*
X247000Y189929D02*
Y190838D01*
Y191131D02*
Y191373D01*
Y193412D02*
Y193800D01*
X247100Y189829D02*
Y190582D01*
Y191051D02*
Y191253D01*
Y193425D02*
Y193792D01*
X247200Y189729D02*
Y190357D01*
Y190971D02*
Y191185D01*
Y193411D02*
Y193772D01*
X247300Y189629D02*
Y190147D01*
Y190891D02*
Y191128D01*
Y193396D02*
Y193752D01*
X247400Y189529D02*
Y190031D01*
Y190831D02*
Y191071D01*
Y193382D02*
Y193732D01*
X247500Y189466D02*
Y189914D01*
Y190771D02*
Y191014D01*
Y193368D02*
Y193712D01*
X247600Y189411D02*
Y189797D01*
Y190714D02*
Y190976D01*
Y193313D02*
Y193692D01*
X247700Y189357D02*
Y189709D01*
Y190681D02*
Y190960D01*
Y193241D02*
Y193636D01*
X247800Y189302D02*
Y189659D01*
Y190647D02*
Y190943D01*
Y193170D02*
Y193576D01*
X247900Y189247D02*
Y189609D01*
Y190614D02*
Y190926D01*
Y193098D02*
Y193516D01*
X248000Y189193D02*
Y189559D01*
Y190590D02*
Y190933D01*
Y193010D02*
Y193456D01*
X248100Y189152D02*
Y189509D01*
Y190574D02*
Y190950D01*
Y192890D02*
Y193396D01*
X248200Y189136D02*
Y189476D01*
Y190557D02*
Y190966D01*
Y192770D02*
Y193335D01*
X248300Y189121D02*
Y189465D01*
Y190545D02*
Y190983D01*
Y192621D02*
Y193224D01*
X248400Y189105D02*
Y189454D01*
Y190570D02*
Y191071D01*
Y192396D02*
Y193113D01*
X248500Y189090D02*
Y189442D01*
Y190595D02*
Y191171D01*
Y192171D02*
Y193002D01*
X248600Y189075D02*
Y189431D01*
Y190620D02*
Y191383D01*
Y191803D02*
Y192891D01*
X248700Y189059D02*
Y189420D01*
Y190645D02*
Y192780D01*
X248800Y189044D02*
Y189430D01*
Y190700D02*
Y192576D01*
X248900Y189046D02*
Y189442D01*
Y190784D02*
Y192336D01*
X249000Y189057D02*
Y189455D01*
Y190867D02*
Y192096D01*
Y194878D02*
Y195178D01*
X249100Y189069D02*
Y189467D01*
Y191059D02*
Y191620D01*
Y194744D02*
Y195228D01*
X249200Y189080D02*
Y189480D01*
Y194701D02*
Y195219D01*
X249300Y189091D02*
Y189533D01*
Y194661D02*
Y195179D01*
X249400Y189122D02*
Y189591D01*
Y194648D02*
Y195139D01*
X249500Y189179D02*
Y189648D01*
Y193572D02*
Y193747D01*
Y194698D02*
Y195006D01*
X249600Y189236D02*
Y189662D01*
Y193272D02*
Y193747D01*
Y194785D02*
Y194853D01*
X249700Y189293D02*
Y189395D01*
Y192972D02*
Y193747D01*
X249800Y192672D02*
Y193747D01*
X249900Y192372D02*
Y193747D01*
X250000Y192072D02*
Y193559D01*
X250100Y191772D02*
Y193259D01*
X250200Y191472D02*
Y192959D01*
X250300Y191172D02*
Y192659D01*
X250400Y190872D02*
Y192359D01*
X250500Y190601D02*
Y192059D01*
X250600Y190601D02*
Y191759D01*
X250700Y190601D02*
Y191459D01*
X250800Y190601D02*
Y191159D01*
X250900Y190601D02*
Y190859D01*
X251000Y193564D02*
Y193597D01*
X251100Y193214D02*
Y193657D01*
X251200Y193264D02*
Y193717D01*
X251300Y193314D02*
Y193757D01*
X251400Y193363D02*
Y193774D01*
X251500Y191589D02*
Y191883D01*
Y193381D02*
Y193790D01*
X251600Y191337D02*
Y192047D01*
Y193397D02*
Y193806D01*
X251700Y191162D02*
Y192141D01*
Y193414D02*
Y193794D01*
X251800Y191028D02*
Y192198D01*
Y193422D02*
Y193781D01*
X251900Y190944D02*
Y192256D01*
Y193397D02*
Y193769D01*
X252000Y190861D02*
Y192313D01*
Y193372D02*
Y193756D01*
X252100Y190778D02*
Y191268D01*
Y191726D02*
Y192370D01*
Y193347D02*
Y193735D01*
X252200Y190739D02*
Y191151D01*
Y191795D02*
Y192420D01*
Y193322D02*
Y193698D01*
X252300Y190701D02*
Y191084D01*
Y191861D02*
Y192470D01*
Y193288D02*
Y193660D01*
X252400Y190664D02*
Y191025D01*
Y191921D02*
Y192530D01*
Y193221D02*
Y193623D01*
X252500Y190626D02*
Y190975D01*
Y191981D02*
Y192596D01*
Y193108D02*
Y193585D01*
X252600Y190597D02*
Y190925D01*
Y192041D02*
Y192747D01*
Y192808D02*
Y193517D01*
X252700Y190586D02*
Y190922D01*
Y192091D02*
Y193433D01*
X252800Y190575D02*
Y190922D01*
Y192141D02*
Y193350D01*
X252900Y190563D02*
Y190927D01*
Y192191D02*
Y193248D01*
X253000Y190552D02*
Y190939D01*
Y192286D02*
Y193073D01*
X253100Y190542D02*
Y190952D01*
Y192419D02*
Y192898D01*
X253200Y190556D02*
Y190964D01*
X253300Y190570D02*
Y190977D01*
X253400Y190585D02*
Y191012D01*
X253500Y190599D02*
Y191079D01*
X253600Y190665D02*
Y191146D01*
X253700Y190731D02*
Y191130D01*
X253800Y190798D02*
Y190864D01*
X253900Y192797D02*
Y193243D01*
X254000Y192280D02*
Y193425D01*
X254100Y192044D02*
Y193525D01*
X254200Y192044D02*
Y193625D01*
X254300Y192044D02*
Y193699D01*
X254400Y192044D02*
Y192660D01*
Y192983D02*
Y193721D01*
X254500Y192044D02*
Y192425D01*
Y193225D02*
Y193743D01*
X254600Y191159D02*
Y191217D01*
Y192044D02*
Y192425D01*
Y193325D02*
Y193765D01*
X254700Y190892D02*
Y191167D01*
Y192044D02*
Y192425D01*
Y193375D02*
Y193788D01*
X254800Y190839D02*
Y191117D01*
Y192044D02*
Y192425D01*
Y193395D02*
Y193803D01*
X254900Y190789D02*
Y191067D01*
Y192044D02*
Y192425D01*
Y193415D02*
Y193785D01*
X255000Y190739D02*
Y191017D01*
Y192044D02*
Y192425D01*
Y193421D02*
Y193767D01*
X255100Y190689D02*
Y190980D01*
Y192044D02*
Y192425D01*
Y193404D02*
Y193748D01*
X255200Y190639D02*
Y190969D01*
Y192044D02*
Y192425D01*
Y193387D02*
Y193730D01*
X255300Y190598D02*
Y190958D01*
Y192044D02*
Y192425D01*
Y193371D02*
Y193712D01*
X255400Y190589D02*
Y190946D01*
Y192044D02*
Y192425D01*
Y193328D02*
Y193694D01*
X255500Y190580D02*
Y190935D01*
Y192044D02*
Y192425D01*
Y193268D02*
Y193644D01*
X255600Y190571D02*
Y190924D01*
Y192044D02*
Y192425D01*
Y193208D02*
Y193584D01*
X255700Y190562D02*
Y190932D01*
Y192044D02*
Y192425D01*
Y193130D02*
Y193524D01*
X255800Y190553D02*
Y190947D01*
Y192044D02*
Y192425D01*
Y193030D02*
Y193464D01*
X255900Y190543D02*
Y190961D01*
Y192044D02*
Y192425D01*
Y192930D02*
Y193404D01*
X256000Y190557D02*
Y190975D01*
Y192044D02*
Y192425D01*
Y192812D02*
Y193344D01*
X256100Y190577D02*
Y191011D01*
Y192044D02*
Y192425D01*
Y192662D02*
Y193238D01*
X256200Y190597D02*
Y191086D01*
Y192044D02*
Y192439D01*
Y192512D02*
Y193126D01*
X256300Y190617D02*
Y191161D01*
Y192044D02*
Y193013D01*
X256400Y190637D02*
Y191400D01*
Y191961D02*
Y192901D01*
X256500Y190657D02*
Y192777D01*
X256600Y190739D02*
Y192594D01*
X256700Y190822D02*
Y192410D01*
X256800Y190905D02*
Y192227D01*
X256900Y191052D02*
Y191973D01*
X257200Y193287D02*
Y194040D01*
X257300Y192893D02*
Y194273D01*
X257400Y192593D02*
Y194473D01*
X257500Y192338D02*
Y194581D01*
X257600Y192198D02*
Y194681D01*
X257700Y192058D02*
Y193180D01*
Y193735D02*
Y194749D01*
X257800Y191926D02*
Y192880D01*
Y194054D02*
Y194799D01*
X257900Y191809D02*
Y192662D01*
Y194214D02*
Y194849D01*
X258000Y191692D02*
Y192446D01*
Y194285D02*
Y194896D01*
X258100Y191576D02*
Y192229D01*
Y194356D02*
Y194925D01*
X258200Y191494D02*
Y192051D01*
Y194428D02*
Y194953D01*
X258300Y191423D02*
Y191951D01*
Y194499D02*
Y194982D01*
X258400Y191351D02*
Y191851D01*
Y194521D02*
Y195010D01*
X258500Y191280D02*
Y191751D01*
Y194537D02*
Y195023D01*
X258600Y191209D02*
Y191651D01*
Y194554D02*
Y195035D01*
X258700Y191137D02*
Y191551D01*
Y194571D02*
Y195048D01*
X258800Y191066D02*
Y191479D01*
Y194587D02*
Y195060D01*
X258900Y190994D02*
Y191412D01*
Y194604D02*
Y195069D01*
X259000Y190939D02*
Y191346D01*
Y194621D02*
Y195069D01*
X259100Y190901D02*
Y191283D01*
Y194628D02*
Y195069D01*
X259200Y190864D02*
Y191250D01*
Y194628D02*
Y195069D01*
X259300Y190826D02*
Y191216D01*
Y194628D02*
Y195069D01*
X259400Y190789D02*
Y191183D01*
Y194628D02*
Y195069D01*
X259500Y190763D02*
Y191157D01*
Y194628D02*
Y195069D01*
X259600Y190741D02*
Y191142D01*
Y194628D02*
Y195069D01*
X259700Y190718D02*
Y191126D01*
Y194628D02*
Y195069D01*
X259800Y190696D02*
Y191111D01*
Y194473D02*
Y195069D01*
X259900Y190674D02*
Y191096D01*
Y194183D02*
Y195069D01*
X260000Y190656D02*
Y191080D01*
Y193893D02*
Y195069D01*
X260100Y190643D02*
Y191065D01*
Y193603D02*
Y195057D01*
X260200Y190631D02*
Y191050D01*
Y193313D02*
Y194765D01*
X260300Y190618D02*
Y191042D01*
Y193023D02*
Y194473D01*
X260400Y190606D02*
Y191042D01*
Y192733D02*
Y194180D01*
X260500Y190601D02*
Y191042D01*
Y192443D02*
Y193888D01*
X260600Y190601D02*
Y191042D01*
Y192153D02*
Y193596D01*
X260700Y190601D02*
Y191042D01*
Y191863D02*
Y193303D01*
X260800Y190601D02*
Y191042D01*
Y191573D02*
Y193011D01*
X260900Y190601D02*
Y191042D01*
Y191283D02*
Y192719D01*
X261000Y190601D02*
Y192426D01*
X261100Y190601D02*
Y192134D01*
X261200Y190601D02*
Y191842D01*
X261300Y190601D02*
Y191549D01*
X261400Y190601D02*
Y191257D01*
X261500Y190601D02*
Y190965D01*
X261600Y190601D02*
Y190673D01*
*
G04 PC Custom Flashes*
G04 Layer Name ESP32-PicoD4_EVK.pcb - flashes*
%LPD*%
*
*
G04 PC Circuitry*
G04 Layer Name ESP32-PicoD4_EVK.pcb - circuitry*
%LPD*%
*
G54D10*
G54D11*
X107000Y239764D02*
G75*
G03X100000Y232764I0J-7000D01*
G01X107000Y239764D02*
X301504D01*
X308504Y232764D02*
G03X301504Y239764I-7000J0D01*
G01X308504Y232764D02*
Y107000D01*
X301504Y100000D02*
G03X308504Y107000I-0J7000D01*
G01X301504Y100000D02*
X107000D01*
X100000Y107000D02*
G03X107000Y100000I7000J0D01*
G01X100000Y107000D02*
Y232764D01*
X265734Y210236D02*
Y189246D01*
X215093Y138090D02*
X227614D01*
Y131513*
X215093*
Y138090*
X201313D02*
X213834D01*
Y131513*
X201313*
Y138090*
X230841Y155807D02*
X243362D01*
Y149229*
X230841*
Y155807*
G54D12*
X261650Y208768D02*
Y199467D01*
Y208768D02*
X256997D01*
X261650Y204339D02*
X258787D01*
X261650Y199467D02*
X256997D01*
X248765Y207439D02*
X249481Y208325D01*
X250555Y208768*
X251986*
X253060Y208325*
X253776Y207439*
Y206554*
X253418Y205668*
X253060Y205225*
X252344Y204782*
X250197Y203896*
X249481Y203453*
X249123Y203010*
X248765Y202124*
Y200796*
X249481Y199910*
X250555Y199467*
X251986*
X253060Y199910*
X253776Y200796*
X245544Y208768D02*
Y199467D01*
Y208768D02*
X242323D01*
X241249Y208325*
X240891Y207882*
X240533Y206997*
Y205668*
X240891Y204782*
X241249Y204339*
X242323Y203896*
X245544*
X236596Y208768D02*
X232659D01*
X234807Y205225*
X233733*
X233017Y204782*
X232659Y204339*
X232301Y203010*
Y202124*
X232659Y200796*
X233375Y199910*
X234449Y199467*
X235522*
X236596Y199910*
X236954Y200353*
X237312Y201239*
X228722Y206554D02*
Y206997D01*
X228364Y207882*
X228006Y208325*
X227291Y208768*
X225859*
X225143Y208325*
X224785Y207882*
X224427Y206997*
Y206111*
X224785Y205225*
X225501Y203896*
X229080Y199467*
X224069*
X220848Y203453D02*
X214406D01*
X211185Y208768D02*
Y199467D01*
Y208768D02*
X207963D01*
X206890Y208325*
X206532Y207882*
X206174Y206997*
Y205668*
X206532Y204782*
X206890Y204339*
X207963Y203896*
X211185*
X202953Y208768D02*
X202595Y208325D01*
X202237Y208768*
X202595Y209211*
X202953Y208768*
X202595Y205668D02*
Y199467D01*
X194721Y204339D02*
X195437Y205225D01*
X196152Y205668*
X197226*
X197942Y205225*
X198658Y204339*
X199016Y203010*
Y202124*
X198658Y200796*
X197942Y199910*
X197226Y199467*
X196152*
X195437Y199910*
X194721Y200796*
X189710Y205668D02*
X190426Y205225D01*
X191142Y204339*
X191500Y203010*
Y202124*
X191142Y200796*
X190426Y199910*
X189710Y199467*
X188636*
X187920Y199910*
X187205Y200796*
X186847Y202124*
Y203010*
X187205Y204339*
X187920Y205225*
X188636Y205668*
X189710*
X183626Y208768D02*
Y199467D01*
Y208768D02*
X181120D01*
X180046Y208325*
X179331Y207439*
X178973Y206554*
X178615Y205225*
Y203010*
X178973Y201682*
X179331Y200796*
X180046Y199910*
X181120Y199467*
X183626*
X171815Y208768D02*
X175394Y202567D01*
X170025*
X171815Y208768D02*
Y199467D01*
X166804Y197695D02*
X159288D01*
X157140Y208768D02*
Y199467D01*
Y208768D02*
X152487D01*
X157140Y204339D02*
X154277D01*
X157140Y199467D02*
X152487D01*
X149266Y208768D02*
X146403Y199467D01*
X143540Y208768D02*
X146403Y199467D01*
X140318Y208768D02*
Y199467D01*
X135308Y208768D02*
X140318Y202567D01*
X138529Y204782D02*
X135308Y199467D01*
G54D37*
X241260Y154607D02*
Y150473D01*
X239543*
X236107Y153622D02*
X236250Y154016D01*
X236536Y154410*
X236822Y154607*
X237395*
X237681Y154410*
X237968Y154016*
X238111Y153622*
X238254Y153032*
Y152048*
X238111Y151457*
X237968Y151063*
X237681Y150670*
X237395Y150473*
X236822*
X236536Y150670*
X236250Y151063*
X236107Y151457*
X234818Y154607D02*
Y150473D01*
Y154607D02*
X233816D01*
X233386Y154410*
X233100Y154016*
X232957Y153622*
X232814Y153032*
Y152048*
X232957Y151457*
X233100Y151063*
X233386Y150670*
X233816Y150473*
X234818*
X224016Y136614D02*
Y132480D01*
X222727Y136614D02*
Y132480D01*
Y136614D02*
X221582Y132480D01*
X220437Y136614D02*
X221582Y132480D01*
X220437Y136614D02*
Y132480D01*
X219148Y136614D02*
Y133661D01*
X219005Y133071*
X218719Y132677*
X218289Y132480*
X218003*
X217573Y132677*
X217287Y133071*
X217144Y133661*
Y136614*
X209585Y135906D02*
X209729Y136300D01*
X210015Y136693*
X210301Y136890*
X210874*
X211160Y136693*
X211447Y136300*
X211590Y135906*
X211733Y135315*
Y134331*
X211590Y133740*
X211447Y133347*
X211160Y132953*
X210874Y132756*
X210301*
X210015Y132953*
X209729Y133347*
X209585Y133740*
X207152Y136890D02*
X208297Y132756D01*
X207152Y136890D02*
X206006Y132756D01*
X207868Y134134D02*
X206436D01*
X204718Y136890D02*
Y132756D01*
Y136890D02*
X202714Y132756D01*
Y136890D02*
Y132756D01*
X179659Y132480D02*
X196118D01*
Y125607*
X179659*
Y132480*
G54D38*
X224004Y125759D02*
G03X224504Y126259I-0J500D01*
G01X224004Y125759D02*
X218404D01*
X217904Y126259D02*
G03X218404Y125759I500J0D01*
G01Y129359D02*
G03X217904Y128859I-0J-500D01*
G01X218404Y129359D02*
X224004D01*
X224504Y128859D02*
G03X224004Y129359I-500J0D01*
G01X240595Y143476D02*
G03X241095Y143976I0J500D01*
G01X240595Y143476D02*
X234995D01*
X234495Y143976D02*
G03X234995Y143476I500J-0D01*
G01Y147076D02*
G03X234495Y146576I0J-500D01*
G01X234995Y147076D02*
X240595D01*
X241095Y146576D02*
G03X240595Y147076I-500J-0D01*
G01X224004Y119854D02*
G03X224504Y120354I-0J500D01*
G01X224004Y119854D02*
X218404D01*
X217904Y120354D02*
G03X218404Y119854I500J-0D01*
G01Y123454D02*
G03X217904Y122954I-0J-500D01*
G01X218404Y123454D02*
X224004D01*
X224504Y122954D02*
G03X224004Y123454I-500J-0D01*
G01X211155Y119854D02*
G03X211655Y120354I0J500D01*
G01X211155Y119854D02*
X205555D01*
X205055Y120354D02*
G03X205555Y119854I500J-0D01*
G01Y123454D02*
G03X205055Y122954I0J-500D01*
G01X205555Y123454D02*
X211155D01*
X211655Y122954D02*
G03X211155Y123454I-500J-0D01*
G01Y125759D02*
G03X211655Y126259I0J500D01*
G01X211155Y125759D02*
X205555D01*
X205055Y126259D02*
G03X205555Y125759I500J0D01*
G01Y129359D02*
G03X205055Y128859I0J-500D01*
G01X205555Y129359D02*
X211155D01*
X211655Y128859D02*
G03X211155Y129359I-500J0D01*
G01X190228Y119854D02*
G03X190728Y120354I0J500D01*
G01X190228Y119854D02*
X184628D01*
X184128Y120354D02*
G03X184628Y119854I500J-0D01*
G01Y123454D02*
G03X184128Y122954I0J-500D01*
G01X184628Y123454D02*
X190228D01*
X190728Y122954D02*
G03X190228Y123454I-500J-0D01*
G01X240595Y119854D02*
G03X241095Y120354I0J500D01*
G01X240595Y119854D02*
X234995D01*
X234495Y120354D02*
G03X234995Y119854I500J-0D01*
G01Y123454D02*
G03X234495Y122954I0J-500D01*
G01X234995Y123454D02*
X240595D01*
X241095Y122954D02*
G03X240595Y123454I-500J-0D01*
G01Y125759D02*
G03X241095Y126259I0J500D01*
G01X240595Y125759D02*
X234995D01*
X234495Y126259D02*
G03X234995Y125759I500J0D01*
G01Y129359D02*
G03X234495Y128859I0J-500D01*
G01X234995Y129359D02*
X240595D01*
X241095Y128859D02*
G03X240595Y129359I-500J0D01*
G01Y131665D02*
G03X241095Y132165I0J500D01*
G01X240595Y131665D02*
X234995D01*
X234495Y132165D02*
G03X234995Y131665I500J-0D01*
G01Y135265D02*
G03X234495Y134765I0J-500D01*
G01X234995Y135265D02*
X240595D01*
X241095Y134765D02*
G03X240595Y135265I-500J-0D01*
G01Y137570D02*
G03X241095Y138070I0J500D01*
G01X240595Y137570D02*
X234995D01*
X234495Y138070D02*
G03X234995Y137570I500J0D01*
G01Y141170D02*
G03X234495Y140670I0J-500D01*
G01X234995Y141170D02*
X240595D01*
X241095Y140670D02*
G03X240595Y141170I-500J0D01*
G54D39*
G54D40*
G01X192162Y129528D02*
X192251Y129774D01*
X192430Y130020*
X192609Y130143*
X192967*
X193146Y130020*
X193325Y129774*
X193414Y129528*
X193504Y129158*
Y128543*
X193414Y128174*
X193325Y127928*
X193146Y127682*
X192967Y127559*
X192609*
X192430Y127682*
X192251Y127928*
X192162Y128174*
X190641Y130143D02*
X191356Y127559D01*
X190641Y130143D02*
X189925Y127559D01*
X191088Y128420D02*
X190193D01*
X189120Y130143D02*
Y127559D01*
Y130143D02*
X187867Y127559D01*
Y130143D02*
Y127559D01*
X187062Y128666D02*
X185451D01*
X184646Y130143D02*
Y127559D01*
Y130143D02*
X183482D01*
X184646Y128912D02*
X183930D01*
X184646Y127559D02*
X183482D01*
X182677Y130143D02*
Y127559D01*
Y130143D02*
X181872D01*
X181603Y130020*
X181514Y129897*
X181424Y129651*
Y129281*
X181514Y129035*
X181603Y128912*
X181872Y128789*
X182677*
X118021Y228346D02*
Y228494D01*
X118128Y228789*
X118236Y228937*
X118450Y229085*
X118880*
X119094Y228937*
X119202Y228789*
X119309Y228494*
Y228199*
X119202Y227904*
X118987Y227461*
X117913Y225984*
X119417*
X120383Y228494D02*
X120598Y228642D01*
X120920Y229085*
Y225984*
X127863Y228346D02*
Y228494D01*
X127971Y228789*
X128078Y228937*
X128293Y229085*
X128722*
X128937Y228937*
X129044Y228789*
X129152Y228494*
Y228199*
X129044Y227904*
X128830Y227461*
X127756Y225984*
X129259*
X130333Y228346D02*
Y228494D01*
X130440Y228789*
X130548Y228937*
X130762Y229085*
X131192*
X131407Y228937*
X131514Y228789*
X131621Y228494*
Y228199*
X131514Y227904*
X131299Y227461*
X130225Y225984*
X131729*
X137717Y228494D02*
X137931Y228642D01*
X138253Y229085*
Y225984*
X140616Y228051D02*
X140508Y227608D01*
X140293Y227313*
X139971Y227165*
X139864*
X139542Y227313*
X139327Y227608*
X139220Y228051*
Y228199*
X139327Y228642*
X139542Y228937*
X139864Y229085*
X139971*
X140293Y228937*
X140508Y228642*
X140616Y228051*
Y227313*
X140508Y226575*
X140293Y226132*
X139971Y225984*
X139757*
X139435Y226132*
X139435D02*
X139327Y226427D01*
X147863Y228346D02*
Y228494D01*
X147971Y228789*
X148078Y228937*
X148293Y229085*
X148722*
X148937Y228937*
X149044Y228789*
X149152Y228494*
Y228199*
X149044Y227904*
X148830Y227461*
X147756Y225984*
X149259*
X150440Y229085D02*
X151621D01*
X150977Y227904*
X151299*
X151514Y227756*
X151621Y227608*
X151729Y227165*
Y226870*
X151621Y226427*
X151407Y226132*
X151084Y225984*
X150762*
X150440Y226132*
X150333Y226280*
X150225Y226575*
X157756Y228494D02*
X157971Y228642D01*
X158293Y229085*
Y225984*
X159796Y229085D02*
X159474Y228937D01*
X159366Y228642*
X159366D02*
Y228346D01*
X159366D02*
X159474Y228051D01*
X159689Y227904*
X160118Y227756*
X160440Y227608*
X160655Y227313*
X160762Y227018*
Y226575*
X160655Y226280*
X160548Y226132*
X160225Y225984*
X159796*
X159474Y226132*
X159366Y226280*
X159366D02*
X159259Y226575D01*
Y227018*
X159366Y227313*
X159366D02*
X159581Y227608D01*
X159903Y227756*
X160333Y227904*
X160548Y228051*
X160655Y228346*
Y228642*
X160548Y228937*
X160225Y229085*
X159796*
X170293D02*
X169220D01*
X169112Y227756*
X169220Y227904*
X169542Y228051*
X169864*
X170186Y227904*
X170401Y227608*
X170508Y227165*
X170401Y226870*
X170293Y226427*
X170079Y226132*
X169757Y225984*
X169435*
X169435D02*
X169112Y226132D01*
X169005Y226280*
X168898Y226575*
X177913Y228494D02*
X178128Y228642D01*
X178450Y229085*
Y225984*
X180061Y229085D02*
X179739Y228937D01*
X179524Y228494*
X179417Y227756*
Y227313*
X179524Y226575*
X179739Y226132*
X180061Y225984*
X180276*
X180598Y226132*
X180812Y226575*
X180920Y227313*
Y227756*
X180812Y228494*
X180598Y228937*
X180276Y229085*
X180061*
X189979Y228051D02*
X189871Y227608D01*
X189656Y227313*
X189334Y227165*
X189227*
X188905Y227313*
X188690Y227608*
X188583Y228051*
Y228199*
X188690Y228642*
X188905Y228937*
X189227Y229085*
X189334*
X189656Y228937*
X189871Y228642*
X189979Y228051*
Y227313*
X189871Y226575*
X189656Y226132*
X189334Y225984*
X189120*
X188797Y226132*
X188690Y226427*
X199302Y229085D02*
X198228Y227018D01*
X199839*
X199302Y229085D02*
Y225984D01*
X209306Y229085D02*
X208984Y228937D01*
X208769Y228494*
X208661Y227756*
Y227313*
X208769Y226575*
X208984Y226132*
X209306Y225984*
X209520*
X209843Y226132*
X210057Y226575*
X210165Y227313*
Y227756*
X210057Y228494*
X209843Y228937*
X209520Y229085*
X209306*
X218611Y228346D02*
Y228494D01*
X218719Y228789*
X218826Y228937*
X219041Y229085*
X219470*
X219685Y228937*
X219792Y228789*
X219900Y228494*
Y228199*
X219792Y227904*
X219578Y227461*
X218504Y225984*
X220007*
X227913Y228494D02*
X228128Y228642D01*
X228450Y229085*
Y225984*
X230812Y229085D02*
X229739D01*
X229631Y227756*
X229739Y227904*
X230061Y228051*
X230383*
X230705Y227904*
X230920Y227608*
X231027Y227165*
X230920Y226870*
X230812Y226427*
X230598Y226132*
X230276Y225984*
X229953*
X229631Y226132*
X229524Y226280*
X229417Y226575*
X237913Y228494D02*
X238128Y228642D01*
X238450Y229085*
Y225984*
X239631Y229085D02*
X240812D01*
X240168Y227904*
X240490*
X240705Y227756*
X240812Y227608*
X240920Y227165*
Y226870*
X240812Y226427*
X240598Y226132*
X240276Y225984*
X239953*
X239631Y226132*
X239524Y226280*
X239417Y226575*
X247913Y228494D02*
X248128Y228642D01*
X248450Y229085*
Y225984*
X249524Y228346D02*
Y228494D01*
X249631Y228789*
X249739Y228937*
X249953Y229085*
X250383*
X250598Y228937*
X250705Y228789*
X250812Y228494*
Y228199*
X250705Y227904*
X250490Y227461*
X249417Y225984*
X250920*
X257913Y228494D02*
X258128Y228642D01*
X258450Y229085*
Y225984*
X260490Y229085D02*
X259417Y227018D01*
X261027*
X260490Y229085D02*
Y225984D01*
X267627Y228346D02*
Y228494D01*
X267734Y228789*
X267842Y228937*
X268057Y229085*
X268486*
X268701Y228937*
X268808Y228789*
X268916Y228494*
Y228199*
X268808Y227904*
X268593Y227461*
X267520Y225984*
X269023*
X271492Y229085D02*
X270419Y225984D01*
X269989Y229085D02*
X271492D01*
X277989Y228346D02*
X277881Y228642D01*
X277666Y228937*
X277452Y229085*
X277022*
X276807Y228937*
X276593Y228642*
X276485Y228346*
X276378Y227904*
Y227165*
X276485Y226722*
X276593Y226427*
X276807Y226132*
X277022Y225984*
X277452*
X277666Y226132*
X277881Y226427*
X277989Y226722*
Y227165*
X277452D02*
X277989D01*
X278955Y229085D02*
Y225984D01*
Y229085D02*
X280458Y225984D01*
Y229085D02*
Y225984D01*
X281424Y229085D02*
Y225984D01*
Y229085D02*
X282176D01*
X282498Y228937*
X282713Y228642*
X282820Y228346*
X282928Y227904*
Y227165*
X282820Y226722*
X282713Y226427*
X282498Y226132*
X282176Y225984*
X281424*
X287831Y228346D02*
X287724Y228642D01*
X287509Y228937*
X287294Y229085*
X286865*
X286650Y228937*
X286435Y228642*
X286328Y228346*
X286220Y227904*
Y227165*
X286328Y226722*
X286435Y226427*
X286650Y226132*
X286865Y225984*
X287294*
X287509Y226132*
X287724Y226427*
X287831Y226722*
Y227165*
X287294D02*
X287831D01*
X288797Y229085D02*
Y225984D01*
Y229085D02*
X290301Y225984D01*
Y229085D02*
Y225984D01*
X291267Y229085D02*
Y225984D01*
Y229085D02*
X292019D01*
X292341Y228937*
X292555Y228642*
X292663Y228346*
X292770Y227904*
Y227165*
X292663Y226722*
X292555Y226427*
X292341Y226132*
X292019Y225984*
X291267*
X117323Y113927D02*
X118182Y110827D01*
X119041Y113927D02*
X118182Y110827D01*
X120007Y113927D02*
Y110827D01*
Y113927D02*
X120974D01*
X121296Y113780*
X121403Y113632*
X121510Y113337*
Y112894*
X121403Y112598*
X121296Y112451*
X120974Y112303*
X120007*
X127538Y113927D02*
X128719D01*
X128074Y112746*
X128397*
X128611Y112598*
X128719Y112451*
X128826Y112008*
Y111713*
X128719Y111270*
X128504Y110974*
X128182Y110827*
X127860*
X127538Y110974*
X127430Y111122*
X127323Y111417*
X131296Y113927D02*
X130222Y110827D01*
X129792Y113927D02*
X131296D01*
X137538D02*
X138719D01*
X138074Y112746*
X138397*
X138611Y112598*
X138719Y112451*
X138826Y112008*
Y111713*
X138719Y111270*
X138504Y110974*
X138182Y110827*
X137860*
X137538Y110974*
X137430Y111122*
X137323Y111417*
X140329Y113927D02*
X140007Y113780D01*
X139900Y113484*
Y113189*
X140007Y112894*
X140222Y112746*
X140651Y112598*
X140974Y112451*
X141188Y112156*
X141296Y111860*
Y111417*
X141188Y111122*
X141081Y110974*
X140759Y110827*
X140329*
X140007Y110974*
X139900Y111122*
X139792Y111417*
Y111860*
X139900Y112156*
X140115Y112451*
X140437Y112598*
X140866Y112746*
X141081Y112894*
X141188Y113189*
Y113484*
X141081Y113780*
X140759Y113927*
X140329*
X146850D02*
X147709Y110827D01*
X148568Y113927D02*
X147709Y110827D01*
X149535Y113927D02*
Y110827D01*
Y113927D02*
X151038Y110827D01*
Y113927D02*
Y110827D01*
X157538Y113927D02*
X158719D01*
X158074Y112746*
X158397*
X158611Y112598*
X158719Y112451*
X158826Y112008*
Y111713*
X158719Y111270*
X158504Y110974*
X158182Y110827*
X157860*
X157538Y110974*
X157430Y111122*
X157323Y111417*
X160866Y113927D02*
X159792Y111860D01*
X161403*
X160866Y113927D02*
Y110827D01*
X167538Y113927D02*
X168719D01*
X168074Y112746*
X168397*
X168611Y112598*
X168719Y112451*
X168826Y112008*
Y111713*
X168719Y111270*
X168504Y110974*
X168182Y110827*
X167860*
X167538Y110974*
X167430Y111122*
X167323Y111417*
X171188Y113927D02*
X170115D01*
X170007Y112598*
X170115Y112746*
X170437Y112894*
X170759*
X171081Y112746*
X171296Y112451*
X171403Y112008*
X171296Y111713*
X171188Y111270*
X170974Y110974*
X170651Y110827*
X170329*
X170007Y110974*
X169900Y111122*
X169792Y111417*
X177538Y113927D02*
X178719D01*
X178074Y112746*
X178397*
X178611Y112598*
X178719Y112451*
X178826Y112008*
Y111713*
X178719Y111270*
X178504Y110974*
X178182Y110827*
X177860*
X177538Y110974*
X177430Y111122*
X177323Y111417*
X179900Y113189D02*
Y113337D01*
X180007Y113632*
X180115Y113780*
X180329Y113927*
X180759*
X180974Y113780*
X181081Y113632*
X181188Y113337*
Y113041*
X181081Y112746*
X180866Y112303*
X179792Y110827*
X181296*
X187538Y113927D02*
X188719D01*
X188074Y112746*
X188397*
X188611Y112598*
X188719Y112451*
X188826Y112008*
Y111713*
X188719Y111270*
X188504Y110974*
X188182Y110827*
X187860*
X187538Y110974*
X187430Y111122*
X187323Y111417*
X190007Y113927D02*
X191188D01*
X190544Y112746*
X190866*
X191081Y112598*
X191188Y112451*
X191296Y112008*
Y111713*
X191188Y111270*
X190974Y110974*
X190651Y110827*
X190329*
X190007Y110974*
X189900Y111122*
X189792Y111417*
X197430Y113189D02*
Y113337D01*
X197538Y113632*
X197645Y113780*
X197860Y113927*
X198289*
X198504Y113780*
X198611Y113632*
X198719Y113337*
Y113041*
X198611Y112746*
X198397Y112303*
X197323Y110827*
X198826*
X201188Y113927D02*
X200115D01*
X200007Y112598*
X200115Y112746*
X200437Y112894*
X200759*
X201081Y112746*
X201296Y112451*
X201403Y112008*
X201296Y111713*
X201188Y111270*
X200974Y110974*
X200651Y110827*
X200329*
X200007Y110974*
X199900Y111122*
X199792Y111417*
X207430Y113189D02*
Y113337D01*
X207538Y113632*
X207645Y113780*
X207860Y113927*
X208289*
X208504Y113780*
X208611Y113632*
X208719Y113337*
Y113041*
X208611Y112746*
X208397Y112303*
X207323Y110827*
X208826*
X211081Y113484D02*
X210974Y113780D01*
X210651Y113927*
X210437*
X210115Y113780*
X209900Y113337*
X209792Y112598*
Y111860*
X209900Y111270*
X210115Y110974*
X210437Y110827*
X210544*
X210866Y110974*
X211081Y111270*
X211188Y111713*
Y111860*
X211081Y112303*
X210866Y112598*
X210544Y112746*
X210437*
X210115Y112598*
X209900Y112303*
X209792Y111860*
X216356Y113927D02*
X217538D01*
X216893Y112746*
X217215*
X217430Y112598*
X217538Y112451*
X217645Y112008*
Y111713*
X217538Y111270*
X217323Y110974*
X217001Y110827*
X216679*
X216356Y110974*
X216249Y111122*
X216142Y111417*
X218611Y113927D02*
X219470Y110827D01*
X220329Y113927D02*
X219470Y110827D01*
X221510Y113927D02*
X222691D01*
X222047Y112746*
X222369*
X222584Y112598*
X222691Y112451*
X222799Y112008*
Y111713*
X222691Y111270*
X222477Y110974*
X222155Y110827*
X221832*
X221832D02*
X221510Y110974D01*
X221403Y111122*
X221296Y111417*
X228561Y113927D02*
X227487D01*
X227380Y112598*
X227487Y112746*
X227810Y112894*
X228132*
X228454Y112746*
X228669Y112451*
X228776Y112008*
X228669Y111713*
X228561Y111270*
X228346Y110974*
X228024Y110827*
X227702*
X227380Y110974*
X227273Y111122*
X227165Y111417*
X229742Y113927D02*
X230601Y110827D01*
X231460Y113927D02*
X230601Y110827D01*
G74*
X0Y0D02*
M02*
