*
*
G04 PADS VX.2.4 Build Number: 11282995 generated Gerber (RS-274-X) file*
G04 PC Version=2.1*
*
%IN "ESP32-PicoD4_EVK.pcb"*%
*
%MOIN*%
*
%FSLAX35Y35*%
*
*
*
*
G04 PC Standard Apertures*
*
*
G04 Thermal Relief Aperture macro.*
%AMTER*
1,1,$1,0,0*
1,0,$1-$2,0,0*
21,0,$3,$4,0,0,45*
21,0,$3,$4,0,0,135*
%
*
*
G04 Annular Aperture macro.*
%AMANN*
1,1,$1,0,0*
1,0,$2,0,0*
%
*
*
G04 Odd Aperture macro.*
%AMODD*
1,1,$1,0,0*
1,0,$1-0.005,0,0*
%
*
*
G04 PC Custom Aperture Macros*
*
*
*
*
*
*
G04 PC Aperture Table*
*
%ADD010C,0.001*%
%ADD011C,0.01*%
%ADD012C,0.01575*%
%ADD037C,0.00787*%
%ADD038C,0.004*%
%ADD039C,0.00591*%
%ADD040C,0.00394*%
*
*
*
*
G04 PC Circuitry*
G04 Layer Name ESP32-PicoD4_EVK.pcb - circuitry*
%LPD*%
*
G54D10*
G01X241429Y195321D02*
X239900Y199789D01*
X238677*
X238203Y199729*
X237790Y199612*
X237441Y199437*
X237212Y199208*
X237037Y198858*
X236922Y198512*
X236980Y198105*
X237099Y197629*
X237276Y197097*
X237571Y196684*
X237926Y196269*
X238758Y195676*
X239229Y195499*
X239764Y195380*
X240240Y195321*
X240240D02*
X241429D01*
X240718Y195761D02*
X240056D01*
X240049Y195762*
X239267Y195882*
X239259Y195884*
X238898Y196004*
X238887Y196010*
X238526Y196251*
X238518Y196257*
X237977Y196798*
X237967Y196812*
X237607Y197594*
X237605Y197599*
X237484Y197960*
X237482Y197975*
Y198336*
X237483Y198346*
X237543Y198646*
X237547Y198659*
X237667Y198899*
X237683Y198918*
X238104Y199218*
X238125Y199227*
X238846Y199347*
X238854Y199348*
X239515*
X239563Y199314*
X240765Y195828*
X240718Y195761*
X236761Y196525D02*
X236644Y196873D01*
X236289Y197526*
X235817Y198057*
X235230Y198409*
X234588Y198525*
X234071Y198411*
X233786Y198126*
X233675Y197903*
Y197679*
X233793Y197028*
X233793D02*
X233899Y196763D01*
X236149*
X236199Y196720*
X236259Y196299*
Y196292*
X236259*
X236257Y196277*
X236137Y195916*
X236119Y195892*
X235879Y195711*
X235856Y195702*
X235435Y195642*
X235423*
X234882Y195702*
X234865Y195707*
X234378Y195950*
X234506Y195607*
X235081Y195319*
X235726Y195261*
X236307Y195377*
X236650Y195663*
X236761Y195883*
Y196525*
X236019Y197194D02*
X236019D01*
X235969Y197144*
X234286*
X234237Y197186*
X234177Y197546*
X234176Y197555*
X234177Y197564*
X234237Y197865*
X234251Y197890*
X234431Y198071*
X234457Y198084*
X234757Y198145*
X234775*
X235136Y198085*
X235153Y198078*
X235454Y197898*
X235463Y197890*
X235764Y197590*
X235770Y197582*
X236011Y197222*
X236019Y197194*
X233624Y195531D02*
X233480Y195915D01*
X233172Y195710*
X233150Y195702*
X232669Y195642*
X232663Y195641*
X232423*
X232400Y195647*
X232160Y195767*
X232155Y195770*
X231974Y195890*
X231960Y195904*
X231840Y196084*
X231832Y196112*
Y196292*
X231837Y196315*
X231897Y196435*
X231914Y196454*
X232094Y196574*
X232096Y196576*
X232397Y196756*
X232400Y196758*
X232750Y196933*
X232914Y197150*
Y197601*
X232684Y198003*
X232337Y198292*
X231870Y198467*
X231402Y198526*
X231058Y198469*
X230797Y198312*
X230893Y197928*
X231198Y198080*
X231212Y198085*
X231573Y198145*
X231593Y198144*
X232074Y198024*
X232090Y198017*
X232270Y197897*
X232290Y197871*
X232410Y197510*
X232413Y197494*
X232407Y197472*
X232347Y197352*
X232330Y197333*
X232150Y197212*
X232145Y197209*
X231905Y197090*
X231492Y196853*
X231326Y196688*
X231272Y196471*
X231328Y196190*
X231560Y195784*
X231907Y195495*
X232374Y195320*
X232903Y195261*
X233306Y195318*
X233624Y195531*
X229536Y194031D02*
X229391Y194417D01*
X229021Y194205*
X229003Y194199*
X228522Y194139*
X228510*
X227969Y194199*
X227952Y194204*
X227472Y194444*
X227456Y194457*
X227095Y194877*
X227088Y194890*
X226847Y195431*
X226845Y195435*
X226725Y195796*
X226723Y195811*
X226804Y195851*
X227102Y195612*
X227395Y195436*
X227746Y195319*
X228093Y195261*
X228553Y195376*
X228889Y195657*
X228946Y196111*
X228828Y196759*
X228533Y197467*
X228003Y198057*
X227416Y198409*
X226833Y198525*
X226543Y198467*
X226317Y198411*
X226153Y198246*
X226036Y198013*
X225943Y198023*
X225832Y198466*
X225340*
X226338Y195530*
X226694Y194759*
X227224Y194229*
X227871Y193876*
X228637Y193758*
X229161Y193816*
X229536Y194031*
X228446Y196352D02*
X228446D01*
X228445Y196344*
X228385Y195984*
X228371Y195956*
X228130Y195716*
X228103Y195702*
X227743Y195642*
X227726*
X227366Y195702*
X227349Y195708*
X226928Y195948*
X226915Y195960*
X226614Y196320*
X226607Y196333*
X226246Y197174*
X226243Y197186*
X226182Y197546*
Y197555*
X226187Y197577*
X226307Y197817*
X226312Y197825*
X226492Y198065*
X226524Y198085*
X226885Y198145*
X226900*
X227321Y198085*
X227343Y198076*
X227763Y197776*
X227773Y197767*
X228073Y197406*
X228081Y197395*
X228321Y196854*
X228324Y196845*
X228444Y196365*
X228446Y196352*
X230791Y195321D02*
X229742Y198466D01*
X229246*
X230295Y195321*
X230295D02*
X230791D01*
X229422Y199538D02*
X229375Y199632D01*
X229205Y199858*
X228939Y199964*
X228746Y199868*
Y199675*
X228908Y199459*
X229175Y199352*
X229380Y199455*
X229422Y199538*
X225261Y195321D02*
X224212Y198466D01*
X223716*
X223875Y197991*
X223877Y197975*
X223796Y197936*
X223498Y198175*
X223205Y198350*
X222854Y198468*
X222508Y198525*
X222111Y198412*
X221891Y198192*
X221835Y197797*
X221952Y197267*
X222601Y195321*
X222601D02*
X223097D01*
X223097D02*
X222518Y197058D01*
X222517Y197062*
X222396Y197542*
X222395Y197555*
Y197855*
X222410Y197890*
X222590Y198071*
X222616Y198084*
X222616D02*
X222916Y198145D01*
X222934*
X223295Y198085*
X223314Y198077*
X223675Y197837*
X223686Y197826*
X223927Y197526*
X223929Y197522*
X224170Y197162*
X224176Y197149*
X224765Y195321*
X224765D02*
X225261D01*
X221373Y196525D02*
X221257Y196873D01*
X220901Y197526*
X220429Y198057*
X219842Y198409*
X219200Y198525*
X218683Y198411*
X218399Y198126*
X218287Y197903*
Y197679*
X218406Y197027*
X218512Y196763*
X220762*
X220811Y196720*
X220872Y196299*
Y196292*
X220872*
X220870Y196277*
X220749Y195916*
X220732Y195892*
X220491Y195711*
X220469Y195702*
X220048Y195642*
X220035*
X219494Y195702*
X219477Y195707*
X218990Y195950*
X219119Y195607*
X219694Y195319*
X220339Y195261*
X220920Y195377*
X221263Y195663*
X221373Y195883*
Y196525*
X220632Y197194D02*
X220632D01*
X220582Y197144*
X218899*
X218849Y197186*
X218789Y197546*
Y197555*
X218790Y197564*
X218850Y197865*
X218863Y197890*
X219044Y198071*
X219069Y198084*
X219370Y198145*
X219388*
X219748Y198085*
X219766Y198078*
X220066Y197898*
X220076Y197890*
X220377Y197590*
X220383Y197582*
X220623Y197222*
X220632Y197194*
X217947Y196170D02*
X217829Y196817D01*
X217474Y197526*
X217003Y198057*
X216416Y198409*
X215833Y198525*
X215544Y198467*
X215318Y198411*
X215151Y198244*
X215033Y198068*
X214944Y198080*
X214295Y200029*
X213799*
X215388Y195321*
X215388D02*
X215884D01*
X215884D02*
X215726Y195796D01*
X215723Y195811*
X215804Y195851*
X216395Y195378*
X217094Y195261*
X217611Y195376*
X217889Y195654*
X217947Y196170*
X217446Y196352D02*
X217446D01*
X217445Y196344*
X217385Y195984*
X217371Y195956*
X217131Y195716*
X217104Y195702*
X216743Y195642*
X216728*
X216307Y195702*
X216286Y195710*
X215926Y195950*
X215915Y195960*
X215614Y196320*
X215607Y196333*
X215246Y197174*
X215243Y197186*
X215183Y197546*
X215182Y197555*
X215182*
X215186Y197573*
X215306Y197874*
X215317Y197890*
X215497Y198071*
X215524Y198085*
X215885Y198145*
X215900*
X216321Y198085*
X216343Y198076*
X216764Y197776*
X216773Y197767*
X217074Y197406*
X217081Y197395*
X217321Y196854*
X217324Y196845*
X217445Y196365*
X217446Y196352*
X209461Y193807D02*
X209365Y194190D01*
X209111Y194140*
X209087*
X209087D02*
X208667Y194261D01*
X208645Y194273*
X208284Y194634*
X208279Y194641*
X207858Y195242*
X207849Y195271*
X207849D02*
X207849D01*
Y195273*
X208027Y198466*
X207468*
Y195751*
X207375Y195726*
X207196Y196025*
X205529Y198466*
X205052*
X207758Y194761*
X208116Y194343*
X208470Y193989*
X208816Y193816*
X209220Y193758*
X209461Y193807*
X212458Y195321D02*
X210869Y200029D01*
X210373*
X211072Y197931*
X211075Y197915*
X210989Y197880*
X210695Y198175*
X210343Y198350*
X210049Y198468*
X209704Y198525*
X209247Y198411*
X208967Y198131*
X208852Y197614*
X208969Y196969*
X209323Y196260*
X209797Y195728*
X210088Y195494*
X210674Y195260*
X210960*
X211254Y195319*
X211475Y195374*
X211582Y195536*
X211701Y195774*
X211793Y195769*
X211961Y195321*
X211961D02*
X212458D01*
X211556Y196232D02*
X211556D01*
X211555Y196222*
X211494Y195922*
X211481Y195896*
X211300Y195716*
X211273Y195702*
X210913Y195642*
X210897*
X210477Y195702*
X210452Y195713*
X210091Y196013*
X210088Y196017*
X209727Y196377*
X209716Y196394*
X209476Y196995*
X209472Y197007*
X209412Y197427*
Y197434*
X209412*
X209413Y197443*
X209473Y197803*
X209482Y197825*
X209662Y198065*
X209692Y198084*
X209692D02*
X209993Y198145D01*
X210010*
X210431Y198085*
X210451Y198077*
X210812Y197837*
X210820Y197830*
X211180Y197470*
X211191Y197454*
X211371Y197033*
X211373Y197027*
X211493Y196607*
X211495Y196601*
X211555Y196240*
X211556Y196232*
X203562Y195321D02*
X202033Y199789D01*
X201538*
X202897Y195828*
X202900Y195811*
X202850Y195761*
X201176*
X201323Y195321*
X201323D02*
X203562D01*
X200978D02*
X200943Y195423D01*
X198188Y197999*
X198172Y198035*
X198222Y198085*
X199841*
X199746Y198466*
X197330*
X197364Y198364*
X200060Y195788*
X200075Y195751*
X200025Y195701*
X198234*
X198377Y195321*
X198377D02*
X200978D01*
X197430D02*
X196492Y198019D01*
X196489Y198035*
X196539Y198085*
X197016*
X196921Y198466*
X196419*
X196372Y198499*
X196192Y198977*
X195957Y199448*
X195607Y199799*
X195200Y200031*
X194733Y200089*
X194507*
X194438Y200054*
X194587Y199656*
X194846Y199707*
X194868*
X195108Y199647*
X195119Y199643*
X195359Y199523*
X195372Y199513*
X195552Y199333*
X195563Y199316*
X195684Y199016*
Y199015*
X195864Y198534*
X195868Y198516*
X195818Y198466*
X195100*
X195195Y198085*
X195938*
X195985Y198052*
X196935Y195321*
X196935D02*
X197430D01*
X194500Y199888D02*
Y200086D01*
X194600Y199658D02*
Y200089D01*
X194700Y199678D02*
Y200089D01*
X194800Y199698D02*
Y200081D01*
X194900Y199699D02*
Y200068D01*
X195000Y199674D02*
Y200056D01*
X195100Y199649D02*
Y200043D01*
X195200Y198085D02*
Y198466D01*
Y199602D02*
Y200031D01*
X195300Y198085D02*
Y198466D01*
Y199552D02*
Y199974D01*
X195400Y198085D02*
Y198466D01*
Y199485D02*
Y199917D01*
X195500Y198085D02*
Y198466D01*
Y199385D02*
Y199859D01*
X195600Y198085D02*
Y198466D01*
Y199225D02*
Y199802D01*
X195700Y198085D02*
Y198466D01*
Y198972D02*
Y199705D01*
X195800Y198085D02*
Y198466D01*
Y198706D02*
Y199605D01*
X195900Y198085D02*
Y199505D01*
X196000Y198009D02*
Y199362D01*
X196100Y197721D02*
Y199162D01*
X196200Y197434D02*
Y198957D01*
X196300Y197146D02*
Y198690D01*
X196400Y196859D02*
Y198470D01*
X196500Y196571D02*
Y197995D01*
Y198067D02*
Y198466D01*
X196600Y196284D02*
Y197707D01*
Y198085D02*
Y198466D01*
X196700Y195996D02*
Y197420D01*
Y198085D02*
Y198466D01*
X196800Y195709D02*
Y197132D01*
Y198085D02*
Y198466D01*
X196900Y195421D02*
Y196845D01*
Y198085D02*
Y198466D01*
X197000Y195321D02*
Y196557D01*
Y198085D02*
Y198149D01*
X197100Y195321D02*
Y196270D01*
X197200Y195321D02*
Y195982D01*
X197300Y195321D02*
Y195695D01*
X197400Y195321D02*
Y195407D01*
Y198329D02*
Y198466D01*
X197500Y198233D02*
Y198466D01*
X197600Y198138D02*
Y198466D01*
X197700Y198042D02*
Y198466D01*
X197800Y197947D02*
Y198466D01*
X197900Y197851D02*
Y198466D01*
X198000Y197756D02*
Y198466D01*
X198100Y197660D02*
Y198466D01*
X198200Y197564D02*
Y197987D01*
Y198080D02*
Y198466D01*
X198300Y195525D02*
Y195701D01*
Y197469D02*
Y197894D01*
Y198085D02*
Y198466D01*
X198400Y195321D02*
Y195701D01*
Y197373D02*
Y197800D01*
Y198085D02*
Y198466D01*
X198500Y195321D02*
Y195701D01*
Y197278D02*
Y197707D01*
Y198085D02*
Y198466D01*
X198600Y195321D02*
Y195701D01*
Y197182D02*
Y197614D01*
Y198085D02*
Y198466D01*
X198700Y195321D02*
Y195701D01*
Y197087D02*
Y197520D01*
Y198085D02*
Y198466D01*
X198800Y195321D02*
Y195701D01*
Y196991D02*
Y197427D01*
Y198085D02*
Y198466D01*
X198900Y195321D02*
Y195701D01*
Y196896D02*
Y197333D01*
Y198085D02*
Y198466D01*
X199000Y195321D02*
Y195701D01*
Y196800D02*
Y197240D01*
Y198085D02*
Y198466D01*
X199100Y195321D02*
Y195701D01*
Y196704D02*
Y197146D01*
Y198085D02*
Y198466D01*
X199200Y195321D02*
Y195701D01*
Y196609D02*
Y197053D01*
Y198085D02*
Y198466D01*
X199300Y195321D02*
Y195701D01*
Y196513D02*
Y196959D01*
Y198085D02*
Y198466D01*
X199400Y195321D02*
Y195701D01*
Y196418D02*
Y196866D01*
Y198085D02*
Y198466D01*
X199500Y195321D02*
Y195701D01*
Y196322D02*
Y196772D01*
Y198085D02*
Y198466D01*
X199600Y195321D02*
Y195701D01*
Y196227D02*
Y196679D01*
Y198085D02*
Y198466D01*
X199700Y195321D02*
Y195701D01*
Y196131D02*
Y196585D01*
Y198085D02*
Y198466D01*
X199800Y195321D02*
Y195701D01*
Y196036D02*
Y196492D01*
Y198085D02*
Y198249D01*
X199900Y195321D02*
Y195701D01*
Y195940D02*
Y196398D01*
X200000Y195321D02*
Y195701D01*
Y195844D02*
Y196305D01*
X200100Y195321D02*
Y196211D01*
X200200Y195321D02*
Y196118D01*
X200300Y195321D02*
Y196024D01*
X200400Y195321D02*
Y195931D01*
X200500Y195321D02*
Y195837D01*
X200600Y195321D02*
Y195744D01*
X200700Y195321D02*
Y195650D01*
X200800Y195321D02*
Y195557D01*
X200900Y195321D02*
Y195464D01*
X201200Y195691D02*
Y195761D01*
X201300Y195391D02*
Y195761D01*
X201400Y195321D02*
Y195761D01*
X201500Y195321D02*
Y195761D01*
X201600Y195321D02*
Y195761D01*
Y199607D02*
Y199789D01*
X201700Y195321D02*
Y195761D01*
Y199316D02*
Y199789D01*
X201800Y195321D02*
Y195761D01*
Y199024D02*
Y199789D01*
X201900Y195321D02*
Y195761D01*
Y198733D02*
Y199789D01*
X202000Y195321D02*
Y195761D01*
Y198442D02*
Y199789D01*
X202100Y195321D02*
Y195761D01*
Y198151D02*
Y199593D01*
X202200Y195321D02*
Y195761D01*
Y197859D02*
Y199300D01*
X202300Y195321D02*
Y195761D01*
Y197568D02*
Y199008D01*
X202400Y195321D02*
Y195761D01*
Y197277D02*
Y198716D01*
X202500Y195321D02*
Y195761D01*
Y196985D02*
Y198423D01*
X202600Y195321D02*
Y195761D01*
Y196694D02*
Y198131D01*
X202700Y195321D02*
Y195761D01*
Y196403D02*
Y197839D01*
X202800Y195321D02*
Y195761D01*
Y196111D02*
Y197547D01*
X202900Y195321D02*
Y195808D01*
Y195815D02*
Y197254D01*
X203000Y195321D02*
Y196962D01*
X203100Y195321D02*
Y196670D01*
X203200Y195321D02*
Y196377D01*
X203300Y195321D02*
Y196085D01*
X203400Y195321D02*
Y195793D01*
X203500Y195321D02*
Y195500D01*
X205100Y198401D02*
Y198466D01*
X205200Y198264D02*
Y198466D01*
X205300Y198127D02*
Y198466D01*
X205400Y197990D02*
Y198466D01*
X205500Y197853D02*
Y198466D01*
X205600Y197716D02*
Y198362D01*
X205700Y197579D02*
Y198215D01*
X205800Y197442D02*
Y198069D01*
X205900Y197305D02*
Y197922D01*
X206000Y197168D02*
Y197776D01*
X206100Y197031D02*
Y197629D01*
X206200Y196894D02*
Y197483D01*
X206300Y196757D02*
Y197337D01*
X206400Y196620D02*
Y197190D01*
X206500Y196484D02*
Y197044D01*
X206600Y196347D02*
Y196897D01*
X206700Y196210D02*
Y196751D01*
X206800Y196073D02*
Y196604D01*
X206900Y195936D02*
Y196458D01*
X207000Y195799D02*
Y196312D01*
X207100Y195662D02*
Y196165D01*
X207200Y195525D02*
Y196018D01*
X207300Y195388D02*
Y195851D01*
X207400Y195251D02*
Y195705D01*
X207500Y195114D02*
Y198466D01*
X207600Y194977D02*
Y198466D01*
X207700Y194840D02*
Y198466D01*
X207800Y194712D02*
Y198466D01*
X207900Y194595D02*
Y195182D01*
Y196188D02*
Y198466D01*
X208000Y194478D02*
Y195039D01*
Y197988D02*
Y198466D01*
X208100Y194362D02*
Y194896D01*
X208200Y194259D02*
Y194753D01*
X208300Y194159D02*
Y194619D01*
X208400Y194059D02*
Y194519D01*
X208500Y193974D02*
Y194419D01*
X208600Y193924D02*
Y194319D01*
X208700Y193874D02*
Y194251D01*
X208800Y193824D02*
Y194223D01*
X208900Y193804D02*
Y194194D01*
Y197348D02*
Y197831D01*
X209000Y193790D02*
Y194165D01*
Y196907D02*
Y198164D01*
X209100Y193776D02*
Y194139D01*
Y196707D02*
Y198264D01*
X209200Y193761D02*
Y194157D01*
Y196507D02*
Y198364D01*
X209300Y193774D02*
Y194177D01*
Y196307D02*
Y198424D01*
X209400Y193794D02*
Y194050D01*
Y196174D02*
Y198449D01*
X209500Y196062D02*
Y196934D01*
Y197849D02*
Y198474D01*
X209600Y195949D02*
Y196684D01*
Y197982D02*
Y198499D01*
X209700Y195837D02*
Y196434D01*
Y198086D02*
Y198524D01*
X209800Y195725D02*
Y196304D01*
Y198106D02*
Y198509D01*
X209900Y195645D02*
Y196204D01*
Y198126D02*
Y198493D01*
X210000Y195565D02*
Y196104D01*
Y198145D02*
Y198476D01*
X210100Y195490D02*
Y196006D01*
Y198132D02*
Y198448D01*
X210200Y195450D02*
Y195923D01*
Y198118D02*
Y198408D01*
X210300Y195410D02*
Y195839D01*
Y198104D02*
Y198368D01*
X210400Y195370D02*
Y195756D01*
Y198089D02*
Y198322D01*
Y199947D02*
Y200029D01*
X210500Y195330D02*
Y195699D01*
Y198045D02*
Y198272D01*
Y199647D02*
Y200029D01*
X210600Y195290D02*
Y195684D01*
Y197978D02*
Y198222D01*
Y199347D02*
Y200029D01*
X210700Y195260D02*
Y195670D01*
Y197911D02*
Y198169D01*
Y199047D02*
Y200029D01*
X210800Y195260D02*
Y195656D01*
Y197845D02*
Y198069D01*
Y198747D02*
Y200029D01*
X210900Y195260D02*
Y195641D01*
Y197750D02*
Y197969D01*
Y198447D02*
Y199936D01*
X211000Y195268D02*
Y195656D01*
Y197650D02*
Y197872D01*
Y198147D02*
Y199640D01*
X211100Y195288D02*
Y195673D01*
Y197550D02*
Y199343D01*
X211200Y195308D02*
Y195690D01*
Y197433D02*
Y199047D01*
X211300Y195331D02*
Y195716D01*
Y197199D02*
Y198751D01*
X211400Y195356D02*
Y195816D01*
Y196934D02*
Y198454D01*
X211500Y195412D02*
Y195950D01*
Y196569D02*
Y198158D01*
X211600Y195571D02*
Y197862D01*
X211700Y195771D02*
Y197565D01*
X211800Y195750D02*
Y197269D01*
X211900Y195483D02*
Y196973D01*
X212000Y195321D02*
Y196677D01*
X212100Y195321D02*
Y196380D01*
X212200Y195321D02*
Y196084D01*
X212300Y195321D02*
Y195788D01*
X212400Y195321D02*
Y195491D01*
X213800Y200026D02*
Y200029D01*
X213900Y199730D02*
Y200029D01*
X214000Y199434D02*
Y200029D01*
X214100Y199138D02*
Y200029D01*
X214200Y198841D02*
Y200029D01*
X214300Y198545D02*
Y200013D01*
X214400Y198249D02*
Y199713D01*
X214500Y197952D02*
Y199413D01*
X214600Y197656D02*
Y199113D01*
X214700Y197360D02*
Y198813D01*
X214800Y197063D02*
Y198513D01*
X214900Y196767D02*
Y198213D01*
X215000Y196471D02*
Y198046D01*
X215100Y196175D02*
Y198168D01*
X215200Y195878D02*
Y197443D01*
Y197609D02*
Y198293D01*
X215300Y195582D02*
Y197049D01*
Y197859D02*
Y198393D01*
X215400Y195321D02*
Y196816D01*
Y197973D02*
Y198432D01*
X215500Y195321D02*
Y196582D01*
Y198073D02*
Y198457D01*
X215600Y195321D02*
Y196349D01*
Y198097D02*
Y198479D01*
X215700Y195321D02*
Y196218D01*
Y198114D02*
Y198499D01*
X215800Y195321D02*
Y195573D01*
Y195854D02*
Y196098D01*
Y198131D02*
Y198519D01*
X215900Y195774D02*
Y195978D01*
Y198145D02*
Y198512D01*
X216000Y195694D02*
Y195901D01*
Y198131D02*
Y198492D01*
X216100Y195614D02*
Y195834D01*
Y198117D02*
Y198472D01*
X216200Y195534D02*
Y195767D01*
Y198102D02*
Y198452D01*
X216300Y195454D02*
Y195703D01*
Y198088D02*
Y198432D01*
X216400Y195377D02*
Y195689D01*
Y198035D02*
Y198412D01*
X216500Y195360D02*
Y195674D01*
Y197964D02*
Y198358D01*
X216600Y195344D02*
Y195660D01*
Y197893D02*
Y198298D01*
X216700Y195327D02*
Y195646D01*
Y197821D02*
Y198238D01*
X216800Y195310D02*
Y195651D01*
Y197735D02*
Y198178D01*
X216900Y195294D02*
Y195668D01*
Y197615D02*
Y198118D01*
X217000Y195277D02*
Y195685D01*
Y197495D02*
Y198058D01*
X217100Y195263D02*
Y195701D01*
Y197352D02*
Y197948D01*
X217200Y195285D02*
Y195785D01*
Y197127D02*
Y197835D01*
X217300Y195307D02*
Y195885D01*
Y196902D02*
Y197723D01*
X217400Y195329D02*
Y196072D01*
Y196543D02*
Y197610D01*
X217500Y195352D02*
Y197475D01*
X217600Y195374D02*
Y197275D01*
X217700Y195465D02*
Y197075D01*
X217800Y195565D02*
Y196875D01*
X217900Y195751D02*
Y196426D01*
X218300Y197611D02*
Y197928D01*
X218400Y197061D02*
Y198127D01*
X218500Y196793D02*
Y198227D01*
X218600Y196763D02*
Y198327D01*
X218700Y196763D02*
Y198414D01*
X218800Y196763D02*
Y197482D01*
Y197617D02*
Y198436D01*
X218900Y196763D02*
Y197144D01*
Y197927D02*
Y198459D01*
X219000Y195924D02*
Y195945D01*
Y196763D02*
Y197144D01*
Y198027D02*
Y198481D01*
X219100Y195657D02*
Y195895D01*
Y196763D02*
Y197144D01*
Y198091D02*
Y198503D01*
X219200Y195566D02*
Y195845D01*
Y196763D02*
Y197144D01*
Y198111D02*
Y198525D01*
X219300Y195516D02*
Y195795D01*
Y196763D02*
Y197144D01*
Y198131D02*
Y198507D01*
X219400Y195466D02*
Y195745D01*
Y196763D02*
Y197144D01*
Y198143D02*
Y198489D01*
X219500Y195416D02*
Y195701D01*
Y196763D02*
Y197144D01*
Y198126D02*
Y198471D01*
X219600Y195366D02*
Y195690D01*
Y196763D02*
Y197144D01*
Y198109D02*
Y198453D01*
X219700Y195319D02*
Y195679D01*
Y196763D02*
Y197144D01*
Y198093D02*
Y198435D01*
X219800Y195310D02*
Y195668D01*
Y196763D02*
Y197144D01*
Y198058D02*
Y198416D01*
X219900Y195301D02*
Y195657D01*
Y196763D02*
Y197144D01*
Y197998D02*
Y198374D01*
X220000Y195292D02*
Y195645D01*
Y196763D02*
Y197144D01*
Y197938D02*
Y198314D01*
X220100Y195283D02*
Y195649D01*
Y196763D02*
Y197144D01*
Y197867D02*
Y198254D01*
X220200Y195273D02*
Y195663D01*
Y196763D02*
Y197144D01*
Y197767D02*
Y198194D01*
X220300Y195264D02*
Y195678D01*
Y196763D02*
Y197144D01*
Y197667D02*
Y198134D01*
X220400Y195273D02*
Y195692D01*
Y196763D02*
Y197144D01*
Y197557D02*
Y198074D01*
X220500Y195293D02*
Y195718D01*
Y196763D02*
Y197144D01*
Y197407D02*
Y197977D01*
X220600Y195313D02*
Y195793D01*
Y196763D02*
Y197147D01*
Y197257D02*
Y197864D01*
X220700Y195333D02*
Y195868D01*
Y196763D02*
Y197752D01*
X220800Y195353D02*
Y196068D01*
Y196746D02*
Y197639D01*
X220900Y195373D02*
Y197527D01*
X221000Y195444D02*
Y197344D01*
X221100Y195527D02*
Y197161D01*
X221200Y195610D02*
Y196978D01*
X221300Y195737D02*
Y196744D01*
X221900Y197503D02*
Y198201D01*
X222000Y197124D02*
Y198301D01*
X222100Y196824D02*
Y198401D01*
X222200Y196524D02*
Y198437D01*
X222300Y196224D02*
Y198466D01*
X222400Y195924D02*
Y197528D01*
Y197877D02*
Y198494D01*
X222500Y195624D02*
Y197128D01*
Y197981D02*
Y198523D01*
X222600Y195324D02*
Y196811D01*
Y198079D02*
Y198510D01*
X222700Y195321D02*
Y196511D01*
Y198101D02*
Y198493D01*
X222800Y195321D02*
Y196211D01*
Y198121D02*
Y198477D01*
X222900Y195321D02*
Y195911D01*
Y198141D02*
Y198452D01*
X223000Y195321D02*
Y195611D01*
Y198134D02*
Y198419D01*
X223100Y198117D02*
Y198385D01*
X223200Y198101D02*
Y198352D01*
X223300Y198084D02*
Y198294D01*
X223400Y198020D02*
Y198234D01*
X223500Y197953D02*
Y198173D01*
X223600Y197887D02*
Y198093D01*
X223700Y197809D02*
Y198013D01*
X223800Y197684D02*
Y197934D01*
Y198216D02*
Y198466D01*
X223900Y197559D02*
Y198466D01*
X224000Y197416D02*
Y198466D01*
X224100Y197266D02*
Y198466D01*
X224200Y197073D02*
Y198466D01*
X224300Y196763D02*
Y198203D01*
X224400Y196453D02*
Y197903D01*
X224500Y196143D02*
Y197603D01*
X224600Y195833D02*
Y197303D01*
X224700Y195523D02*
Y197003D01*
X224800Y195321D02*
Y196703D01*
X224900Y195321D02*
Y196403D01*
X225000Y195321D02*
Y196103D01*
X225100Y195321D02*
Y195803D01*
X225200Y195321D02*
Y195503D01*
X225400Y198289D02*
Y198466D01*
X225500Y197995D02*
Y198466D01*
X225600Y197701D02*
Y198466D01*
X225700Y197407D02*
Y198466D01*
X225800Y197113D02*
Y198466D01*
X225900Y196819D02*
Y198194D01*
X226000Y196525D02*
Y197986D01*
X226100Y196230D02*
Y198141D01*
X226200Y195936D02*
Y197441D01*
Y197603D02*
Y198294D01*
X226300Y195642D02*
Y197048D01*
Y197803D02*
Y198394D01*
X226400Y195396D02*
Y196815D01*
Y197942D02*
Y198432D01*
X226500Y195179D02*
Y196581D01*
Y198074D02*
Y198457D01*
X226600Y194963D02*
Y196348D01*
Y198097D02*
Y198479D01*
X226700Y194753D02*
Y196217D01*
Y198114D02*
Y198499D01*
X226800Y194653D02*
Y195571D01*
Y195853D02*
Y196097D01*
Y198131D02*
Y198519D01*
X226900Y194553D02*
Y195312D01*
Y195774D02*
Y195977D01*
Y198145D02*
Y198512D01*
X227000Y194453D02*
Y195087D01*
Y195694D02*
Y195907D01*
Y198131D02*
Y198492D01*
X227100Y194353D02*
Y194872D01*
Y195614D02*
Y195850D01*
Y198116D02*
Y198472D01*
X227200Y194253D02*
Y194755D01*
Y195553D02*
Y195793D01*
Y198102D02*
Y198452D01*
X227300Y194187D02*
Y194639D01*
Y195493D02*
Y195736D01*
Y198088D02*
Y198432D01*
X227400Y194133D02*
Y194522D01*
Y195435D02*
Y195696D01*
Y198035D02*
Y198412D01*
X227500Y194078D02*
Y194430D01*
Y195401D02*
Y195680D01*
Y197964D02*
Y198358D01*
X227600Y194024D02*
Y194380D01*
Y195368D02*
Y195663D01*
Y197892D02*
Y198298D01*
X227700Y193969D02*
Y194330D01*
Y195335D02*
Y195646D01*
Y197821D02*
Y198238D01*
X227800Y193915D02*
Y194280D01*
Y195310D02*
Y195651D01*
Y197734D02*
Y198178D01*
X227900Y193872D02*
Y194230D01*
Y195294D02*
Y195668D01*
Y197614D02*
Y198118D01*
X228000Y193856D02*
Y194196D01*
Y195277D02*
Y195685D01*
Y197494D02*
Y198058D01*
X228100Y193841D02*
Y194184D01*
Y195263D02*
Y195701D01*
Y197351D02*
Y197948D01*
X228200Y193825D02*
Y194173D01*
Y195288D02*
Y195786D01*
Y197126D02*
Y197837D01*
X228300Y193810D02*
Y194162D01*
Y195313D02*
Y195886D01*
Y196901D02*
Y197726D01*
X228400Y193795D02*
Y194151D01*
Y195338D02*
Y196075D01*
Y196541D02*
Y197615D01*
X228500Y193779D02*
Y194140D01*
Y195363D02*
Y197504D01*
X228600Y193764D02*
Y194149D01*
Y195416D02*
Y197307D01*
X228700Y193765D02*
Y194161D01*
Y195499D02*
Y197067D01*
X228800Y193776D02*
Y194174D01*
Y195582D02*
Y196827D01*
Y199603D02*
Y199895D01*
X228900Y193787D02*
Y194186D01*
Y195742D02*
Y196364D01*
Y199470D02*
Y199945D01*
X229000Y193798D02*
Y194199D01*
Y199422D02*
Y199940D01*
X229100Y193810D02*
Y194250D01*
Y199382D02*
Y199900D01*
X229200Y193839D02*
Y194307D01*
Y199365D02*
Y199860D01*
X229300Y193896D02*
Y194364D01*
Y198305D02*
Y198466D01*
Y199415D02*
Y199732D01*
X229400Y193953D02*
Y194393D01*
Y198005D02*
Y198466D01*
Y199495D02*
Y199581D01*
X229500Y194010D02*
Y194126D01*
Y197705D02*
Y198466D01*
X229600Y197405D02*
Y198466D01*
X229700Y197105D02*
Y198466D01*
X229800Y196805D02*
Y198292D01*
X229900Y196505D02*
Y197992D01*
X230000Y196205D02*
Y197692D01*
X230100Y195905D02*
Y197392D01*
X230200Y195605D02*
Y197092D01*
X230300Y195321D02*
Y196792D01*
X230400Y195321D02*
Y196492D01*
X230500Y195321D02*
Y196192D01*
X230600Y195321D02*
Y195892D01*
X230700Y195321D02*
Y195592D01*
X230800Y198301D02*
Y198314D01*
X230900Y197931D02*
Y198374D01*
X231000Y197981D02*
Y198434D01*
X231100Y198031D02*
Y198476D01*
X231200Y198081D02*
Y198492D01*
X231300Y196331D02*
Y196584D01*
Y198099D02*
Y198509D01*
X231400Y196064D02*
Y196762D01*
Y198116D02*
Y198526D01*
X231500Y195889D02*
Y196858D01*
Y198133D02*
Y198514D01*
X231600Y195751D02*
Y196915D01*
Y198142D02*
Y198501D01*
X231700Y195667D02*
Y196972D01*
Y198117D02*
Y198489D01*
X231800Y195584D02*
Y197029D01*
Y198092D02*
Y198476D01*
X231900Y195501D02*
Y195995D01*
Y196440D02*
Y197087D01*
Y198067D02*
Y198456D01*
X232000Y195460D02*
Y195873D01*
Y196511D02*
Y197137D01*
Y198042D02*
Y198419D01*
X232100Y195422D02*
Y195806D01*
Y196578D02*
Y197187D01*
Y198010D02*
Y198381D01*
X232200Y195385D02*
Y195747D01*
Y196638D02*
Y197246D01*
Y197943D02*
Y198344D01*
X232300Y195347D02*
Y195697D01*
Y196698D02*
Y197312D01*
Y197840D02*
Y198306D01*
X232400Y195317D02*
Y195647D01*
Y196758D02*
Y197457D01*
Y197540D02*
Y198240D01*
X232500Y195306D02*
Y195641D01*
Y196808D02*
Y198156D01*
X232600Y195294D02*
Y195641D01*
Y196858D02*
Y198073D01*
X232700Y195283D02*
Y195645D01*
Y196908D02*
Y197975D01*
X232800Y195272D02*
Y195658D01*
Y196999D02*
Y197800D01*
X232900Y195261D02*
Y195670D01*
Y197132D02*
Y197625D01*
X233000Y195275D02*
Y195683D01*
X233100Y195289D02*
Y195695D01*
X233200Y195303D02*
Y195729D01*
X233300Y195318D02*
Y195795D01*
X233400Y195381D02*
Y195862D01*
X233500Y195448D02*
Y195862D01*
X233600Y195514D02*
Y195595D01*
X233700Y197541D02*
Y197954D01*
X233800Y197011D02*
Y198140D01*
X233900Y196763D02*
Y198240D01*
X234000Y196763D02*
Y198340D01*
X234100Y196763D02*
Y198417D01*
X234200Y196763D02*
Y197406D01*
Y197680D02*
Y198439D01*
X234300Y196763D02*
Y197144D01*
Y197940D02*
Y198461D01*
X234400Y195890D02*
Y195939D01*
Y196763D02*
Y197144D01*
Y198040D02*
Y198484D01*
X234500Y195624D02*
Y195889D01*
Y196763D02*
Y197144D01*
Y198093D02*
Y198506D01*
X234600Y195560D02*
Y195839D01*
Y196763D02*
Y197144D01*
Y198113D02*
Y198523D01*
X234700Y195510D02*
Y195789D01*
Y196763D02*
Y197144D01*
Y198133D02*
Y198505D01*
X234800Y195460D02*
Y195739D01*
Y196763D02*
Y197144D01*
Y198141D02*
Y198487D01*
X234900Y195410D02*
Y195700D01*
Y196763D02*
Y197144D01*
Y198124D02*
Y198469D01*
X235000Y195360D02*
Y195689D01*
Y196763D02*
Y197144D01*
Y198107D02*
Y198450D01*
X235100Y195318D02*
Y195677D01*
Y196763D02*
Y197144D01*
Y198091D02*
Y198432D01*
X235200Y195309D02*
Y195666D01*
Y196763D02*
Y197144D01*
Y198050D02*
Y198414D01*
X235300Y195300D02*
Y195655D01*
Y196763D02*
Y197144D01*
Y197990D02*
Y198367D01*
X235400Y195290D02*
Y195644D01*
Y196763D02*
Y197144D01*
Y197930D02*
Y198307D01*
X235500Y195281D02*
Y195651D01*
Y196763D02*
Y197144D01*
Y197854D02*
Y198247D01*
X235600Y195272D02*
Y195665D01*
Y196763D02*
Y197144D01*
Y197754D02*
Y198187D01*
X235700Y195263D02*
Y195680D01*
Y196763D02*
Y197144D01*
Y197654D02*
Y198127D01*
X235800Y195276D02*
Y195694D01*
Y196763D02*
Y197144D01*
Y197538D02*
Y198067D01*
X235900Y195296D02*
Y195727D01*
Y196763D02*
Y197144D01*
Y197388D02*
Y197963D01*
X236000Y195316D02*
Y195802D01*
Y196763D02*
Y197155D01*
Y197238D02*
Y197850D01*
X236100Y195336D02*
Y195877D01*
Y196763D02*
Y197738D01*
X236200Y195356D02*
Y196106D01*
Y196712D02*
Y197625D01*
X236300Y195376D02*
Y197505D01*
X236400Y195454D02*
Y197321D01*
X236500Y195538D02*
Y197138D01*
X236600Y195621D02*
Y196955D01*
X236700Y195762D02*
Y196706D01*
X237000Y198025D02*
Y198746D01*
X237100Y197626D02*
Y198983D01*
X237200Y197326D02*
Y199183D01*
X237300Y197064D02*
Y199296D01*
X237400Y196924D02*
Y199396D01*
X237500Y196784D02*
Y197913D01*
Y198432D02*
Y199466D01*
X237600Y196650D02*
Y197613D01*
Y198764D02*
Y199516D01*
X237700Y196534D02*
Y197391D01*
Y198930D02*
Y199566D01*
X237800Y196417D02*
Y197175D01*
Y199001D02*
Y199614D01*
X237900Y196300D02*
Y196958D01*
Y199073D02*
Y199643D01*
X238000Y196217D02*
Y196775D01*
Y199144D02*
Y199671D01*
X238100Y196145D02*
Y196675D01*
Y199215D02*
Y199700D01*
X238200Y196074D02*
Y196575D01*
Y199239D02*
Y199729D01*
X238300Y196003D02*
Y196475D01*
Y199256D02*
Y199742D01*
X238400Y195931D02*
Y196375D01*
Y199273D02*
Y199754D01*
X238500Y195860D02*
Y196275D01*
Y199289D02*
Y199767D01*
X238600Y195788D02*
Y196201D01*
Y199306D02*
Y199779D01*
X238700Y195717D02*
Y196135D01*
Y199323D02*
Y199789D01*
X238800Y195660D02*
Y196068D01*
Y199339D02*
Y199789D01*
X238900Y195622D02*
Y196004D01*
Y199348D02*
Y199789D01*
X239000Y195585D02*
Y195971D01*
Y199348D02*
Y199789D01*
X239100Y195547D02*
Y195937D01*
Y199348D02*
Y199789D01*
X239200Y195510D02*
Y195904D01*
Y199348D02*
Y199789D01*
X239300Y195483D02*
Y195877D01*
Y199348D02*
Y199789D01*
X239400Y195461D02*
Y195862D01*
Y199348D02*
Y199789D01*
X239500Y195439D02*
Y195846D01*
Y199348D02*
Y199789D01*
X239600Y195416D02*
Y195831D01*
Y199206D02*
Y199789D01*
X239700Y195394D02*
Y195816D01*
Y198916D02*
Y199789D01*
X239800Y195375D02*
Y195800D01*
Y198626D02*
Y199789D01*
X239900Y195363D02*
Y195785D01*
Y198336D02*
Y199789D01*
X240000Y195350D02*
Y195770D01*
Y198046D02*
Y199497D01*
X240100Y195338D02*
Y195761D01*
Y197756D02*
Y199205D01*
X240200Y195325D02*
Y195761D01*
Y197466D02*
Y198913D01*
X240300Y195321D02*
Y195761D01*
Y197176D02*
Y198621D01*
X240400Y195321D02*
Y195761D01*
Y196886D02*
Y198328D01*
X240500Y195321D02*
Y195761D01*
Y196596D02*
Y198036D01*
X240600Y195321D02*
Y195761D01*
Y196306D02*
Y197744D01*
X240700Y195321D02*
Y195761D01*
Y196016D02*
Y197451D01*
X240800Y195321D02*
Y197159D01*
X240900Y195321D02*
Y196867D01*
X241000Y195321D02*
Y196574D01*
X241100Y195321D02*
Y196282D01*
X241200Y195321D02*
Y195990D01*
X241300Y195321D02*
Y195697D01*
X241400Y195321D02*
Y195405D01*
*
G04 PC Custom Flashes*
G04 Layer Name ESP32-PicoD4_EVK.pcb - flashes*
%LPD*%
*
*
G04 PC Circuitry*
G04 Layer Name ESP32-PicoD4_EVK.pcb - circuitry*
%LPD*%
*
G54D10*
G54D11*
X107000Y239764D02*
G75*
G03X100000Y232764I0J-7000D01*
G01X107000Y239764D02*
X301504D01*
X308504Y232764D02*
G03X301504Y239764I-7000J0D01*
G01X308504Y232764D02*
Y107000D01*
X301504Y100000D02*
G03X308504Y107000I-0J7000D01*
G01X301504Y100000D02*
X107000D01*
X100000Y107000D02*
G03X107000Y100000I7000J0D01*
G01X100000Y107000D02*
Y232764D01*
X245539Y214956D02*
Y193966D01*
X215093Y138090D02*
X227614D01*
Y131513*
X215093*
Y138090*
X201313D02*
X213834D01*
Y131513*
X201313*
Y138090*
X230841Y155807D02*
X243362D01*
Y149229*
X230841*
Y155807*
G54D12*
X241454Y213487D02*
Y204186D01*
Y213487D02*
X236802D01*
X241454Y209058D02*
X238591D01*
X241454Y204186D02*
X236802D01*
X228570Y212159D02*
X229285Y213045D01*
X230359Y213487*
X231791*
X232865Y213045*
X233580Y212159*
Y211273*
X233222Y210387*
X233222D02*
X232865Y209944D01*
X232149Y209501*
X230001Y208615*
X229285Y208173*
X228928Y207730*
X228570Y206844*
Y205515*
X229285Y204629*
X230359Y204186*
X231791*
X232865Y204629*
X233580Y205515*
X225348Y213487D02*
Y204186D01*
Y213487D02*
X222127D01*
X221054Y213045*
X220696Y212602*
X220338Y211716*
Y210387*
X220696Y209501*
X221054Y209058*
X222127Y208615*
X225348*
X216401Y213487D02*
X212464D01*
X214611Y209944*
X213537*
X212822Y209501*
X212464Y209058*
X212106Y207730*
Y206844*
X212464Y205515*
X213180Y204629*
X214253Y204186*
X215327*
X216401Y204629*
X216759Y205072*
X217117Y205958*
X208527Y211273D02*
Y211716D01*
X208169Y212602*
X207811Y213045*
X207095Y213487*
X205663*
X204948Y213045*
X204590Y212602*
X204232Y211716*
Y210830*
X204590Y209944*
X205306Y208615*
X208885Y204186*
X203874*
X200653Y208173D02*
X194210D01*
X190989Y213487D02*
Y204186D01*
Y213487D02*
X187768D01*
X186694Y213045*
X186336Y212602*
X185978Y211716*
Y210387*
X186336Y209501*
X186694Y209058*
X187768Y208615*
X190989*
X182757Y213487D02*
X182399Y213045D01*
X182041Y213487*
X182399Y213930*
X182757Y213487*
X182399Y210387D02*
Y204186D01*
X174525Y209058D02*
X175241Y209944D01*
X175957Y210387*
X177031*
X177746Y209944*
X178462Y209058*
X178820Y207730*
Y206844*
X178462Y205515*
X177746Y204629*
X177031Y204186*
X175957*
X175241Y204629*
X174525Y205515*
X169515Y210387D02*
X170230Y209944D01*
X170946Y209058*
X171304Y207730*
Y206844*
X170946Y205515*
X170230Y204629*
X169515Y204186*
X168441*
X167725Y204629*
X167009Y205515*
X166651Y206844*
Y207730*
X167009Y209058*
X167725Y209944*
X168441Y210387*
X169515*
X163430Y213487D02*
Y204186D01*
Y213487D02*
X160925D01*
X159851Y213045*
X159135Y212159*
X158777Y211273*
X158419Y209944*
Y207730*
X158777Y206401*
X159135Y205515*
X159851Y204629*
X160925Y204186*
X163430*
X151619Y213487D02*
X155198Y207287D01*
X149830*
X151619Y213487D02*
Y204186D01*
X146608Y202415D02*
X139092D01*
X136945Y213487D02*
Y204186D01*
Y213487D02*
X132292D01*
X136945Y209058D02*
X134081D01*
X136945Y204186D02*
X132292D01*
X129071Y213487D02*
X126207Y204186D01*
X123344Y213487D02*
X126207Y204186D01*
X120123Y213487D02*
Y204186D01*
X115112Y213487D02*
X120123Y207287D01*
X118333Y209501D02*
X115112Y204186D01*
G54D37*
X241260Y154607D02*
Y150473D01*
X239543*
X236107Y153622D02*
X236250Y154016D01*
X236536Y154410*
X236822Y154607*
X237395*
X237681Y154410*
X237968Y154016*
X238111Y153622*
X238254Y153032*
Y152048*
X238111Y151457*
X237968Y151063*
X237681Y150670*
X237395Y150473*
X236822*
X236536Y150670*
X236250Y151063*
X236107Y151457*
X234818Y154607D02*
Y150473D01*
Y154607D02*
X233816D01*
X233386Y154410*
X233100Y154016*
X232957Y153622*
X232814Y153032*
Y152048*
X232957Y151457*
X233100Y151063*
X233386Y150670*
X233816Y150473*
X234818*
X224016Y136614D02*
Y132480D01*
X222727Y136614D02*
Y132480D01*
Y136614D02*
X221582Y132480D01*
X220437Y136614D02*
X221582Y132480D01*
X220437Y136614D02*
Y132480D01*
X219148Y136614D02*
Y133661D01*
X219005Y133071*
X218719Y132677*
X218289Y132480*
X218003*
X217573Y132677*
X217287Y133071*
X217144Y133661*
Y136614*
X209585Y135906D02*
X209729Y136300D01*
X210015Y136693*
X210301Y136890*
X210874*
X211160Y136693*
X211447Y136300*
X211590Y135906*
X211733Y135315*
Y134331*
X211590Y133740*
X211447Y133347*
X211160Y132953*
X210874Y132756*
X210301*
X210015Y132953*
X209729Y133347*
X209585Y133740*
X207152Y136890D02*
X208297Y132756D01*
X207152Y136890D02*
X206006Y132756D01*
X207868Y134134D02*
X206436D01*
X204718Y136890D02*
Y132756D01*
Y136890D02*
X202714Y132756D01*
Y136890D02*
Y132756D01*
X179659Y132480D02*
X196118D01*
Y125607*
X179659*
Y132480*
G54D38*
X224004Y125759D02*
G03X224504Y126259I-0J500D01*
G01X224004Y125759D02*
X218404D01*
X217904Y126259D02*
G03X218404Y125759I500J0D01*
G01Y129359D02*
G03X217904Y128859I-0J-500D01*
G01X218404Y129359D02*
X224004D01*
X224504Y128859D02*
G03X224004Y129359I-500J0D01*
G01X240595Y143476D02*
G03X241095Y143976I0J500D01*
G01X240595Y143476D02*
X234995D01*
X234495Y143976D02*
G03X234995Y143476I500J-0D01*
G01Y147076D02*
G03X234495Y146576I0J-500D01*
G01X234995Y147076D02*
X240595D01*
X241095Y146576D02*
G03X240595Y147076I-500J-0D01*
G01X224004Y119854D02*
G03X224504Y120354I-0J500D01*
G01X224004Y119854D02*
X218404D01*
X217904Y120354D02*
G03X218404Y119854I500J-0D01*
G01Y123454D02*
G03X217904Y122954I-0J-500D01*
G01X218404Y123454D02*
X224004D01*
X224504Y122954D02*
G03X224004Y123454I-500J-0D01*
G01X211155Y119854D02*
G03X211655Y120354I0J500D01*
G01X211155Y119854D02*
X205555D01*
X205055Y120354D02*
G03X205555Y119854I500J-0D01*
G01Y123454D02*
G03X205055Y122954I0J-500D01*
G01X205555Y123454D02*
X211155D01*
X211655Y122954D02*
G03X211155Y123454I-500J-0D01*
G01Y125759D02*
G03X211655Y126259I0J500D01*
G01X211155Y125759D02*
X205555D01*
X205055Y126259D02*
G03X205555Y125759I500J0D01*
G01Y129359D02*
G03X205055Y128859I0J-500D01*
G01X205555Y129359D02*
X211155D01*
X211655Y128859D02*
G03X211155Y129359I-500J0D01*
G01X190228Y119854D02*
G03X190728Y120354I0J500D01*
G01X190228Y119854D02*
X184628D01*
X184128Y120354D02*
G03X184628Y119854I500J-0D01*
G01Y123454D02*
G03X184128Y122954I0J-500D01*
G01X184628Y123454D02*
X190228D01*
X190728Y122954D02*
G03X190228Y123454I-500J-0D01*
G01X240595Y119854D02*
G03X241095Y120354I0J500D01*
G01X240595Y119854D02*
X234995D01*
X234495Y120354D02*
G03X234995Y119854I500J-0D01*
G01Y123454D02*
G03X234495Y122954I0J-500D01*
G01X234995Y123454D02*
X240595D01*
X241095Y122954D02*
G03X240595Y123454I-500J-0D01*
G01Y125759D02*
G03X241095Y126259I0J500D01*
G01X240595Y125759D02*
X234995D01*
X234495Y126259D02*
G03X234995Y125759I500J0D01*
G01Y129359D02*
G03X234495Y128859I0J-500D01*
G01X234995Y129359D02*
X240595D01*
X241095Y128859D02*
G03X240595Y129359I-500J0D01*
G01Y131665D02*
G03X241095Y132165I0J500D01*
G01X240595Y131665D02*
X234995D01*
X234495Y132165D02*
G03X234995Y131665I500J-0D01*
G01Y135265D02*
G03X234495Y134765I0J-500D01*
G01X234995Y135265D02*
X240595D01*
X241095Y134765D02*
G03X240595Y135265I-500J-0D01*
G01Y137570D02*
G03X241095Y138070I0J500D01*
G01X240595Y137570D02*
X234995D01*
X234495Y138070D02*
G03X234995Y137570I500J0D01*
G01Y141170D02*
G03X234495Y140670I0J-500D01*
G01X234995Y141170D02*
X240595D01*
X241095Y140670D02*
G03X240595Y141170I-500J0D01*
G54D39*
G54D40*
G01X192162Y129528D02*
X192251Y129774D01*
X192430Y130020*
X192609Y130143*
X192967*
X193146Y130020*
X193325Y129774*
X193414Y129528*
X193504Y129158*
Y128543*
X193414Y128174*
X193325Y127928*
X193146Y127682*
X192967Y127559*
X192609*
X192430Y127682*
X192251Y127928*
X192162Y128174*
X190641Y130143D02*
X191356Y127559D01*
X190641Y130143D02*
X189925Y127559D01*
X191088Y128420D02*
X190193D01*
X189120Y130143D02*
Y127559D01*
Y130143D02*
X187867Y127559D01*
Y130143D02*
Y127559D01*
X187062Y128666D02*
X185451D01*
X184646Y130143D02*
Y127559D01*
Y130143D02*
X183482D01*
X184646Y128912D02*
X183930D01*
X184646Y127559D02*
X183482D01*
X182677Y130143D02*
Y127559D01*
Y130143D02*
X181872D01*
X181603Y130020*
X181514Y129897*
X181424Y129651*
Y129281*
X181514Y129035*
X181603Y128912*
X181872Y128789*
X182677*
X118021Y228346D02*
Y228494D01*
X118128Y228789*
X118236Y228937*
X118450Y229085*
X118880*
X119094Y228937*
X119202Y228789*
X119309Y228494*
Y228199*
X119202Y227904*
X118987Y227461*
X117913Y225984*
X119417*
X120383Y228494D02*
X120598Y228642D01*
X120920Y229085*
Y225984*
X127863Y228346D02*
Y228494D01*
X127971Y228789*
X128078Y228937*
X128293Y229085*
X128722*
X128937Y228937*
X129044Y228789*
X129152Y228494*
Y228199*
X129044Y227904*
X128830Y227461*
X127756Y225984*
X129259*
X130333Y228346D02*
Y228494D01*
X130440Y228789*
X130548Y228937*
X130762Y229085*
X131192*
X131407Y228937*
X131514Y228789*
X131621Y228494*
Y228199*
X131514Y227904*
X131299Y227461*
X130225Y225984*
X131729*
X137717Y228494D02*
X137931Y228642D01*
X138253Y229085*
Y225984*
X140616Y228051D02*
X140508Y227608D01*
X140293Y227313*
X139971Y227165*
X139864*
X139542Y227313*
X139327Y227608*
X139220Y228051*
Y228199*
X139327Y228642*
X139542Y228937*
X139864Y229085*
X139971*
X140293Y228937*
X140508Y228642*
X140616Y228051*
Y227313*
X140508Y226575*
X140293Y226132*
X139971Y225984*
X139757*
X139435Y226132*
X139435D02*
X139327Y226427D01*
X147863Y228346D02*
Y228494D01*
X147971Y228789*
X148078Y228937*
X148293Y229085*
X148722*
X148937Y228937*
X149044Y228789*
X149152Y228494*
Y228199*
X149044Y227904*
X148830Y227461*
X147756Y225984*
X149259*
X150440Y229085D02*
X151621D01*
X150977Y227904*
X151299*
X151514Y227756*
X151621Y227608*
X151729Y227165*
Y226870*
X151621Y226427*
X151407Y226132*
X151084Y225984*
X150762*
X150440Y226132*
X150333Y226280*
X150225Y226575*
X157756Y228494D02*
X157971Y228642D01*
X158293Y229085*
Y225984*
X159796Y229085D02*
X159474Y228937D01*
X159366Y228642*
X159366D02*
Y228346D01*
X159366D02*
X159474Y228051D01*
X159689Y227904*
X160118Y227756*
X160440Y227608*
X160655Y227313*
X160762Y227018*
Y226575*
X160655Y226280*
X160548Y226132*
X160225Y225984*
X159796*
X159474Y226132*
X159366Y226280*
X159366D02*
X159259Y226575D01*
Y227018*
X159366Y227313*
X159366D02*
X159581Y227608D01*
X159903Y227756*
X160333Y227904*
X160548Y228051*
X160655Y228346*
Y228642*
X160548Y228937*
X160225Y229085*
X159796*
X170293D02*
X169220D01*
X169112Y227756*
X169220Y227904*
X169542Y228051*
X169864*
X170186Y227904*
X170401Y227608*
X170508Y227165*
X170401Y226870*
X170293Y226427*
X170079Y226132*
X169757Y225984*
X169435*
X169435D02*
X169112Y226132D01*
X169005Y226280*
X168898Y226575*
X177913Y228494D02*
X178128Y228642D01*
X178450Y229085*
Y225984*
X180061Y229085D02*
X179739Y228937D01*
X179524Y228494*
X179417Y227756*
Y227313*
X179524Y226575*
X179739Y226132*
X180061Y225984*
X180276*
X180598Y226132*
X180812Y226575*
X180920Y227313*
Y227756*
X180812Y228494*
X180598Y228937*
X180276Y229085*
X180061*
X189979Y228051D02*
X189871Y227608D01*
X189656Y227313*
X189334Y227165*
X189227*
X188905Y227313*
X188690Y227608*
X188583Y228051*
Y228199*
X188690Y228642*
X188905Y228937*
X189227Y229085*
X189334*
X189656Y228937*
X189871Y228642*
X189979Y228051*
Y227313*
X189871Y226575*
X189656Y226132*
X189334Y225984*
X189120*
X188797Y226132*
X188690Y226427*
X199302Y229085D02*
X198228Y227018D01*
X199839*
X199302Y229085D02*
Y225984D01*
X209306Y229085D02*
X208984Y228937D01*
X208769Y228494*
X208661Y227756*
Y227313*
X208769Y226575*
X208984Y226132*
X209306Y225984*
X209520*
X209843Y226132*
X210057Y226575*
X210165Y227313*
Y227756*
X210057Y228494*
X209843Y228937*
X209520Y229085*
X209306*
X218611Y228346D02*
Y228494D01*
X218719Y228789*
X218826Y228937*
X219041Y229085*
X219470*
X219685Y228937*
X219792Y228789*
X219900Y228494*
Y228199*
X219792Y227904*
X219578Y227461*
X218504Y225984*
X220007*
X227913Y228494D02*
X228128Y228642D01*
X228450Y229085*
Y225984*
X230812Y229085D02*
X229739D01*
X229631Y227756*
X229739Y227904*
X230061Y228051*
X230383*
X230705Y227904*
X230920Y227608*
X231027Y227165*
X230920Y226870*
X230812Y226427*
X230598Y226132*
X230276Y225984*
X229953*
X229631Y226132*
X229524Y226280*
X229417Y226575*
X237913Y228494D02*
X238128Y228642D01*
X238450Y229085*
Y225984*
X239631Y229085D02*
X240812D01*
X240168Y227904*
X240490*
X240705Y227756*
X240812Y227608*
X240920Y227165*
Y226870*
X240812Y226427*
X240598Y226132*
X240276Y225984*
X239953*
X239631Y226132*
X239524Y226280*
X239417Y226575*
X247913Y228494D02*
X248128Y228642D01*
X248450Y229085*
Y225984*
X249524Y228346D02*
Y228494D01*
X249631Y228789*
X249739Y228937*
X249953Y229085*
X250383*
X250598Y228937*
X250705Y228789*
X250812Y228494*
Y228199*
X250705Y227904*
X250490Y227461*
X249417Y225984*
X250920*
X257913Y228494D02*
X258128Y228642D01*
X258450Y229085*
Y225984*
X260490Y229085D02*
X259417Y227018D01*
X261027*
X260490Y229085D02*
Y225984D01*
X267627Y228346D02*
Y228494D01*
X267734Y228789*
X267842Y228937*
X268057Y229085*
X268486*
X268701Y228937*
X268808Y228789*
X268916Y228494*
Y228199*
X268808Y227904*
X268593Y227461*
X267520Y225984*
X269023*
X271492Y229085D02*
X270419Y225984D01*
X269989Y229085D02*
X271492D01*
X277989Y228346D02*
X277881Y228642D01*
X277666Y228937*
X277452Y229085*
X277022*
X276807Y228937*
X276593Y228642*
X276485Y228346*
X276378Y227904*
Y227165*
X276485Y226722*
X276593Y226427*
X276807Y226132*
X277022Y225984*
X277452*
X277666Y226132*
X277881Y226427*
X277989Y226722*
Y227165*
X277452D02*
X277989D01*
X278955Y229085D02*
Y225984D01*
Y229085D02*
X280458Y225984D01*
Y229085D02*
Y225984D01*
X281424Y229085D02*
Y225984D01*
Y229085D02*
X282176D01*
X282498Y228937*
X282713Y228642*
X282820Y228346*
X282928Y227904*
Y227165*
X282820Y226722*
X282713Y226427*
X282498Y226132*
X282176Y225984*
X281424*
X287831Y228346D02*
X287724Y228642D01*
X287509Y228937*
X287294Y229085*
X286865*
X286650Y228937*
X286435Y228642*
X286328Y228346*
X286220Y227904*
Y227165*
X286328Y226722*
X286435Y226427*
X286650Y226132*
X286865Y225984*
X287294*
X287509Y226132*
X287724Y226427*
X287831Y226722*
Y227165*
X287294D02*
X287831D01*
X288797Y229085D02*
Y225984D01*
Y229085D02*
X290301Y225984D01*
Y229085D02*
Y225984D01*
X291267Y229085D02*
Y225984D01*
Y229085D02*
X292019D01*
X292341Y228937*
X292555Y228642*
X292663Y228346*
X292770Y227904*
Y227165*
X292663Y226722*
X292555Y226427*
X292341Y226132*
X292019Y225984*
X291267*
X117323Y113927D02*
X118182Y110827D01*
X119041Y113927D02*
X118182Y110827D01*
X120007Y113927D02*
Y110827D01*
Y113927D02*
X120974D01*
X121296Y113780*
X121403Y113632*
X121510Y113337*
Y112894*
X121403Y112598*
X121296Y112451*
X120974Y112303*
X120007*
X127538Y113927D02*
X128719D01*
X128074Y112746*
X128397*
X128611Y112598*
X128719Y112451*
X128826Y112008*
Y111713*
X128719Y111270*
X128504Y110974*
X128182Y110827*
X127860*
X127538Y110974*
X127430Y111122*
X127323Y111417*
X131296Y113927D02*
X130222Y110827D01*
X129792Y113927D02*
X131296D01*
X137538D02*
X138719D01*
X138074Y112746*
X138397*
X138611Y112598*
X138719Y112451*
X138826Y112008*
Y111713*
X138719Y111270*
X138504Y110974*
X138182Y110827*
X137860*
X137538Y110974*
X137430Y111122*
X137323Y111417*
X140329Y113927D02*
X140007Y113780D01*
X139900Y113484*
Y113189*
X140007Y112894*
X140222Y112746*
X140651Y112598*
X140974Y112451*
X141188Y112156*
X141296Y111860*
Y111417*
X141188Y111122*
X141081Y110974*
X140759Y110827*
X140329*
X140007Y110974*
X139900Y111122*
X139792Y111417*
Y111860*
X139900Y112156*
X140115Y112451*
X140437Y112598*
X140866Y112746*
X141081Y112894*
X141188Y113189*
Y113484*
X141081Y113780*
X140759Y113927*
X140329*
X146850D02*
X147709Y110827D01*
X148568Y113927D02*
X147709Y110827D01*
X149535Y113927D02*
Y110827D01*
Y113927D02*
X151038Y110827D01*
Y113927D02*
Y110827D01*
X157538Y113927D02*
X158719D01*
X158074Y112746*
X158397*
X158611Y112598*
X158719Y112451*
X158826Y112008*
Y111713*
X158719Y111270*
X158504Y110974*
X158182Y110827*
X157860*
X157538Y110974*
X157430Y111122*
X157323Y111417*
X160866Y113927D02*
X159792Y111860D01*
X161403*
X160866Y113927D02*
Y110827D01*
X167538Y113927D02*
X168719D01*
X168074Y112746*
X168397*
X168611Y112598*
X168719Y112451*
X168826Y112008*
Y111713*
X168719Y111270*
X168504Y110974*
X168182Y110827*
X167860*
X167538Y110974*
X167430Y111122*
X167323Y111417*
X171188Y113927D02*
X170115D01*
X170007Y112598*
X170115Y112746*
X170437Y112894*
X170759*
X171081Y112746*
X171296Y112451*
X171403Y112008*
X171296Y111713*
X171188Y111270*
X170974Y110974*
X170651Y110827*
X170329*
X170007Y110974*
X169900Y111122*
X169792Y111417*
X177538Y113927D02*
X178719D01*
X178074Y112746*
X178397*
X178611Y112598*
X178719Y112451*
X178826Y112008*
Y111713*
X178719Y111270*
X178504Y110974*
X178182Y110827*
X177860*
X177538Y110974*
X177430Y111122*
X177323Y111417*
X179900Y113189D02*
Y113337D01*
X180007Y113632*
X180115Y113780*
X180329Y113927*
X180759*
X180974Y113780*
X181081Y113632*
X181188Y113337*
Y113041*
X181081Y112746*
X180866Y112303*
X179792Y110827*
X181296*
X187538Y113927D02*
X188719D01*
X188074Y112746*
X188397*
X188611Y112598*
X188719Y112451*
X188826Y112008*
Y111713*
X188719Y111270*
X188504Y110974*
X188182Y110827*
X187860*
X187538Y110974*
X187430Y111122*
X187323Y111417*
X190007Y113927D02*
X191188D01*
X190544Y112746*
X190866*
X191081Y112598*
X191188Y112451*
X191296Y112008*
Y111713*
X191188Y111270*
X190974Y110974*
X190651Y110827*
X190329*
X190007Y110974*
X189900Y111122*
X189792Y111417*
X197430Y113189D02*
Y113337D01*
X197538Y113632*
X197645Y113780*
X197860Y113927*
X198289*
X198504Y113780*
X198611Y113632*
X198719Y113337*
Y113041*
X198611Y112746*
X198397Y112303*
X197323Y110827*
X198826*
X201188Y113927D02*
X200115D01*
X200007Y112598*
X200115Y112746*
X200437Y112894*
X200759*
X201081Y112746*
X201296Y112451*
X201403Y112008*
X201296Y111713*
X201188Y111270*
X200974Y110974*
X200651Y110827*
X200329*
X200007Y110974*
X199900Y111122*
X199792Y111417*
X207430Y113189D02*
Y113337D01*
X207538Y113632*
X207645Y113780*
X207860Y113927*
X208289*
X208504Y113780*
X208611Y113632*
X208719Y113337*
Y113041*
X208611Y112746*
X208397Y112303*
X207323Y110827*
X208826*
X211081Y113484D02*
X210974Y113780D01*
X210651Y113927*
X210437*
X210115Y113780*
X209900Y113337*
X209792Y112598*
Y111860*
X209900Y111270*
X210115Y110974*
X210437Y110827*
X210544*
X210866Y110974*
X211081Y111270*
X211188Y111713*
Y111860*
X211081Y112303*
X210866Y112598*
X210544Y112746*
X210437*
X210115Y112598*
X209900Y112303*
X209792Y111860*
X216356Y113927D02*
X217538D01*
X216893Y112746*
X217215*
X217430Y112598*
X217538Y112451*
X217645Y112008*
Y111713*
X217538Y111270*
X217323Y110974*
X217001Y110827*
X216679*
X216356Y110974*
X216249Y111122*
X216142Y111417*
X218611Y113927D02*
X219470Y110827D01*
X220329Y113927D02*
X219470Y110827D01*
X221510Y113927D02*
X222691D01*
X222047Y112746*
X222369*
X222584Y112598*
X222691Y112451*
X222799Y112008*
Y111713*
X222691Y111270*
X222477Y110974*
X222155Y110827*
X221832*
X221832D02*
X221510Y110974D01*
X221403Y111122*
X221296Y111417*
X228561Y113927D02*
X227487D01*
X227380Y112598*
X227487Y112746*
X227810Y112894*
X228132*
X228454Y112746*
X228669Y112451*
X228776Y112008*
X228669Y111713*
X228561Y111270*
X228346Y110974*
X228024Y110827*
X227702*
X227380Y110974*
X227273Y111122*
X227165Y111417*
X229742Y113927D02*
X230601Y110827D01*
X231460Y113927D02*
X230601Y110827D01*
G74*
X0Y0D02*
M02*
